<svg width="31" height="31" viewBox="0 0 31 31" fill="none" xmlns="http://www.w3.org/2000/svg">
<path d="M20.9617 0H9.52804C4.26666 0 0 4.26666 0 9.52804V20.9617C0 26.2231 4.26666 30.4897 9.52804 30.4897H20.9617C26.2231 30.4897 30.4897 26.2231 30.4897 20.9617V9.52804C30.4897 4.26666 26.2231 0 20.9617 0ZM27.6313 20.9617C27.6313 24.6395 24.6395 27.6313 20.9617 27.6313H9.52804C5.85022 27.6313 2.85841 24.6395 2.85841 20.9617V9.52804C2.85841 5.85022 5.85022 2.85841 9.52804 2.85841H20.9617C24.6395 2.85841 27.6313 5.85022 27.6313 9.52804V20.9617Z" fill="#00BA89"/>
<path d="M15.5913 7.78516C11.3818 7.78516 7.96887 11.1981 7.96887 15.4076C7.96887 19.6171 11.3818 23.03 15.5913 23.03C19.8008 23.03 23.2137 19.6171 23.2137 15.4076C23.2137 11.1981 19.8008 7.78516 15.5913 7.78516ZM15.5913 20.1716C12.9654 20.1716 10.8273 18.0335 10.8273 15.4076C10.8273 12.7798 12.9654 10.6436 15.5913 10.6436C18.2172 10.6436 20.3553 12.7798 20.3553 15.4076C20.3553 18.0335 18.2172 20.1716 15.5913 20.1716Z" fill="#00BA89"/>
<path d="M23.7861 8.22943C24.347 8.22943 24.8017 7.77473 24.8017 7.21384C24.8017 6.65294 24.347 6.19824 23.7861 6.19824C23.2252 6.19824 22.7705 6.65294 22.7705 7.21384C22.7705 7.77473 23.2252 8.22943 23.7861 8.22943Z" fill="#00BA89"/>
</svg>
