<svg width="31" height="18" viewBox="0 0 31 18" fill="none" xmlns="http://www.w3.org/2000/svg">
<path d="M30.218 15.5168C30.136 15.3796 29.6291 14.278 27.1898 12.014C24.6361 9.64326 24.9791 10.0282 28.055 5.92895C29.9283 3.43242 30.6773 1.90782 30.4429 1.25605C30.2199 0.634776 28.842 0.798671 28.842 0.798671L24.2606 0.825351C24.2606 0.825351 23.9214 0.779613 23.6679 0.930168C23.4221 1.07882 23.2639 1.42185 23.2639 1.42185C23.2639 1.42185 22.5378 3.35428 21.5697 4.99704C19.5286 8.4636 18.7111 8.64655 18.3776 8.4312C17.6019 7.92999 17.7963 6.41492 17.7963 5.34007C17.7963 1.98024 18.3052 0.579509 16.8034 0.217417C16.3041 0.0973547 15.9382 0.0173132 14.6633 0.00397294C13.0281 -0.0131788 11.6426 0.00969018 10.8594 0.392746C10.3372 0.648117 9.9351 1.21794 10.1809 1.25033C10.484 1.29035 11.17 1.43519 11.534 1.93069C12.0047 2.56911 11.9876 4.00605 11.9876 4.00605C11.9876 4.00605 12.2582 7.96048 11.3568 8.45216C10.7374 8.78948 9.88936 8.10151 8.06937 4.95511C7.13746 3.34475 6.43233 1.56288 6.43233 1.56288C6.43233 1.56288 6.29702 1.23128 6.05499 1.05404C5.76151 0.838692 5.34986 0.770085 5.34986 0.770085L0.993321 0.796765C0.993321 0.796765 0.339649 0.815823 0.0995244 1.09978C-0.11392 1.35324 0.0823727 1.87542 0.0823727 1.87542C0.0823727 1.87542 3.49366 9.8548 7.35471 13.8778C10.8975 17.5655 14.9186 17.3234 14.9186 17.3234H16.7405C16.7405 17.3234 17.2913 17.2624 17.5714 16.9594C17.8306 16.6812 17.8211 16.159 17.8211 16.159C17.8211 16.159 17.7849 13.7139 18.9207 13.3538C20.0394 12.9993 21.4763 15.7169 22.999 16.7631C24.1501 17.554 25.0248 17.3806 25.0248 17.3806L29.0974 17.3234C29.0974 17.3234 31.228 17.1919 30.218 15.5168Z" fill="#00BA89"/>
</svg>
