<svg width="28" height="19" viewBox="0 0 28 19" fill="none" xmlns="http://www.w3.org/2000/svg">
<path d="M26.4618 1.83091C25.7122 0.497454 24.8986 0.252182 23.2422 0.158909C21.5875 0.0466364 17.4265 0 13.8216 0C10.2099 0 6.04718 0.0466365 4.39418 0.157182C2.74118 0.252182 1.92591 0.495727 1.16936 1.83091C0.397273 3.16264 0 5.45645 0 9.49482C0 9.49827 0 9.5 0 9.5C0 9.50345 0 9.50518 0 9.50518V9.50864C0 13.5297 0.397273 15.8408 1.16936 17.1587C1.92591 18.4922 2.73945 18.734 4.39245 18.8463C6.04718 18.943 10.2099 19 13.8216 19C17.4265 19 21.5875 18.943 23.2439 18.848C24.9004 18.7357 25.7139 18.4939 26.4635 17.1605C27.2425 15.8425 27.6364 13.5315 27.6364 9.51036C27.6364 9.51036 27.6364 9.50518 27.6364 9.50173C27.6364 9.50173 27.6364 9.49827 27.6364 9.49655C27.6364 5.45645 27.2425 3.16264 26.4618 1.83091ZM10.3636 14.6818V4.31818L19 9.5L10.3636 14.6818Z" fill="#00BA89"/>
</svg>
