<svg width="21" height="15" viewBox="0 0 21 15" fill="none" xmlns="http://www.w3.org/2000/svg">
<path d="M13.921 7.12284L21.0005 11.4621V2.60059L13.921 7.12284Z" fill="white"/>
<path d="M0 2.60059V11.4621L7.07945 7.12284L0 2.60059Z" fill="white"/>
<path d="M19.6879 0.0195312H1.31253C0.656263 0.0195312 0.139455 0.492837 0.0410156 1.10137L10.5002 7.78333L20.9594 1.10137C20.861 0.492837 20.3442 0.0195312 19.6879 0.0195312Z" fill="white"/>
<path d="M12.7192 7.8946L10.8612 9.07986C10.7504 9.15145 10.6274 9.18327 10.5002 9.18327C10.3731 9.18327 10.25 9.14747 10.1393 9.07986L8.28123 7.89062L0.0410156 12.9459C0.143557 13.5504 0.660365 14.0197 1.31253 14.0197H19.6879C20.3401 14.0197 20.8569 13.5504 20.9594 12.9459L12.7192 7.8946Z" fill="white"/>
</svg>
