<svg width="17" height="17" viewBox="0 0 17 17" fill="none" xmlns="http://www.w3.org/2000/svg">
<path d="M15.6359 11.1586C14.5951 11.1586 13.5731 10.9958 12.6047 10.6757C12.1302 10.5139 11.5468 10.6624 11.2572 10.9598L9.34573 12.4028C7.12896 11.2195 5.76347 9.85442 4.59632 7.65429L5.99682 5.79262C6.36068 5.42924 6.49119 4.89844 6.33483 4.40039C6.01342 3.42687 5.85015 2.40541 5.85015 1.36416C5.8502 0.611956 5.23824 0 4.48608 0H1.36411C0.611954 0 0 0.611956 0 1.36412C0 9.98586 7.01416 17 15.6359 17C16.388 17 17 16.388 17 15.6359V12.5226C17 11.7705 16.388 11.1586 15.6359 11.1586Z" fill="white"/>
</svg>
