<svg width="20" height="21" viewBox="0 0 20 21" fill="none" xmlns="http://www.w3.org/2000/svg">
<path d="M3.72958 17.1121C3.78797 17.1637 3.8441 17.2169 3.90378 17.2672C3.69991 17.0247 3.48636 16.7592 3.27087 16.4795C3.42249 16.6976 3.57636 16.9092 3.72958 17.1121Z" fill="white"/>
<path d="M19.6448 10.1231C19.6448 4.92985 15.3755 0.718564 10.1061 0.718564C9.55097 0.718564 9.00613 0.766305 8.47484 0.856628C7.62226 0.326951 6.61355 0.0195312 5.53226 0.0195312C2.47645 0.0195312 0 2.46082 0 5.47469C0 6.48114 0.278065 7.42243 0.759677 8.23405C0.633871 8.84373 0.566774 9.47695 0.566774 10.1231C0.566774 15.3189 4.83774 19.5292 10.1058 19.5292C10.7032 19.5292 11.2861 19.4747 11.8532 19.3715C12.6326 19.7844 13.5219 20.0195 14.4687 20.0195C17.5235 20.0195 20 17.5773 20 14.5653C20 13.695 19.7932 12.8728 19.4252 12.1431C19.5697 11.4911 19.6448 10.8166 19.6448 10.1231ZM14.999 14.6189C14.5581 15.2357 13.9068 15.7228 13.06 16.0682C12.2235 16.4111 11.2219 16.586 10.0803 16.586C8.71 16.586 7.56161 16.3482 6.66419 15.8789C6.02323 15.5382 5.49516 15.077 5.09419 14.504C4.68871 13.9292 4.48419 13.3573 4.48419 12.8044C4.48419 12.4615 4.61774 12.1624 4.88097 11.9176C5.14226 11.6744 5.47742 11.5524 5.8771 11.5524C6.20419 11.5524 6.48774 11.6489 6.7171 11.8402C6.9371 12.0244 7.12516 12.297 7.27645 12.6457C7.44613 13.0286 7.62936 13.3508 7.82323 13.6021C8.01161 13.8479 8.28065 14.0531 8.62419 14.214C8.96936 14.374 9.43677 14.4576 10.0094 14.4576C10.7981 14.4576 11.4445 14.2905 11.931 13.9637C12.4068 13.645 12.6371 13.2602 12.6371 12.7892C12.6371 12.4195 12.5161 12.1273 12.2697 11.8979C12.0077 11.6592 11.6658 11.4737 11.2506 11.3434C10.8168 11.2115 10.229 11.0666 9.50097 10.916C8.51 10.7076 7.66871 10.4605 7.00097 10.1789C6.31645 9.89211 5.76548 9.49502 5.36194 8.9976C4.95258 8.49082 4.74419 7.85663 4.74419 7.11147C4.74419 6.40179 4.96226 5.7605 5.39226 5.20921C5.81806 4.66114 6.44129 4.23211 7.24419 3.94082C8.03581 3.65211 8.97613 3.50598 10.0432 3.50598C10.8945 3.50598 11.6439 3.60373 12.2697 3.79566C12.8981 3.98856 13.4274 4.24792 13.8435 4.56889C14.2632 4.8934 14.5761 5.23792 14.7713 5.59727C14.9687 5.96018 15.07 6.32082 15.07 6.66985C15.07 7.00566 14.9387 7.31147 14.6787 7.57695C14.4181 7.84566 14.0871 7.98147 13.699 7.98147C13.3461 7.98147 13.069 7.89566 12.8784 7.72856C12.6994 7.57244 12.5139 7.32856 12.3081 6.98082C12.0703 6.53598 11.7816 6.18469 11.4519 5.93663C11.1306 5.69566 10.5955 5.57502 9.85839 5.57502C9.17645 5.57502 8.61903 5.70953 8.20645 5.97727C7.80903 6.2334 7.61484 6.52889 7.61484 6.87889C7.61484 7.09243 7.67742 7.27179 7.80677 7.42534C7.94097 7.58985 8.13226 7.73082 8.37484 7.85147C8.62516 7.97566 8.88419 8.07502 9.14258 8.14469C9.40742 8.21792 9.85161 8.32566 10.4623 8.46437C11.2352 8.62663 11.9442 8.81114 12.5703 9.00921C13.2068 9.20856 13.7545 9.45437 14.2035 9.74276C14.66 10.0363 15.021 10.4118 15.2781 10.8618C15.5361 11.3147 15.6668 11.8711 15.6668 12.5195C15.6671 13.295 15.4413 14.0008 14.999 14.6189Z" fill="white"/>
<path d="M19.495 11.7827C18.1015 15.2124 15.4105 17.9734 12.0292 19.4579C12.7656 19.816 13.5923 20.0195 14.4687 20.0195C17.5235 20.0195 20 17.5773 20 14.5653C20 13.695 19.7932 12.8728 19.4252 12.1431C19.4516 12.024 19.4727 11.9031 19.495 11.7827Z" fill="white"/>
<path d="M11.2701 0.908427C12.1759 1.02262 13.0259 1.20907 13.7885 1.44617C12.6556 0.978104 11.412 0.71875 10.1066 0.71875C9.68818 0.71875 9.2756 0.746169 8.87012 0.797782C9.61947 0.769718 10.4288 0.802621 11.2701 0.908427Z" fill="white"/>
<path d="M17.2799 3.93066C17.2851 3.9555 17.2941 3.98034 17.298 4.0055C17.3489 4.04712 17.4035 4.08421 17.4541 4.12679C17.398 4.0597 17.3383 3.99615 17.2799 3.93066Z" fill="white"/>
</svg>
