<svg width="21" height="23" viewBox="0 0 21 23" fill="none" xmlns="http://www.w3.org/2000/svg">
<path d="M19.9606 12.7474C20.6169 7.22261 19.6453 3.73469 17.8926 2.15711L17.8935 2.15619C15.0647 -0.537892 5.51118 -0.936643 2.12685 2.27719C0.607014 3.84927 0.0716802 6.15653 0.0130135 9.01286C-0.0456531 11.8701 -0.11532 17.2225 4.87226 18.6745H4.87685L4.87226 20.8919C4.87226 20.8919 4.83835 21.7903 5.41218 21.9709C6.06851 22.1835 6.36551 21.7664 8.40693 19.3281C11.8206 19.6242 14.4423 18.9459 14.7402 18.8469C15.4295 18.6159 19.3299 18.0998 19.9606 12.7474ZM8.74335 17.7679C8.74335 17.7679 6.58276 20.462 5.91085 21.1614C5.69085 21.3888 5.44976 21.3677 5.45343 20.9167C5.45343 20.6206 5.46993 17.2354 5.46993 17.2354C1.24135 16.0235 1.49068 11.4659 1.53651 9.08161C1.58235 6.69644 2.01868 4.74302 3.30568 3.42761C6.27476 0.643691 14.6503 1.26611 16.7843 3.27177C19.3932 5.58452 18.4646 12.1185 18.4701 12.3413C17.9338 16.8091 14.7732 17.0924 14.192 17.2858C13.9436 17.3683 11.6382 17.9614 8.74335 17.7679V17.7679Z" fill="white"/>
<path d="M9.93852 3.95117C9.5856 3.95117 9.5856 4.50117 9.93852 4.50576C12.6766 4.52684 14.9316 6.43534 14.9563 9.93609C14.9563 10.3055 15.4972 10.3009 15.4926 9.93151H15.4917C15.4623 6.15942 13.0002 3.97226 9.93852 3.95117V3.95117Z" fill="white"/>
<path d="M13.5406 9.35533C13.5323 9.72017 14.0722 9.73758 14.0768 9.36817C14.1217 7.28825 12.8393 5.575 10.4294 5.39442C10.0765 5.36875 10.0398 5.92334 10.3918 5.949C12.4818 6.10759 13.5827 7.53392 13.5406 9.35533V9.35533Z" fill="white"/>
<path d="M12.9627 11.7212C12.5099 11.459 12.0488 11.6222 11.8581 11.8797L11.4594 12.3958C11.2568 12.658 10.8782 12.6232 10.8782 12.6232C8.11539 11.8926 7.37655 9.0014 7.37655 9.0014C7.37655 9.0014 7.34264 8.60999 7.59564 8.40007L8.0943 7.98757C8.34364 7.78957 8.5013 7.3129 8.24739 6.84448C7.56905 5.6189 7.11347 5.19632 6.88156 4.87182C6.63772 4.56657 6.27106 4.49782 5.88972 4.70407H5.88147C5.08856 5.1679 4.22047 6.03598 4.49822 6.92973C4.97214 7.87207 5.84297 10.876 8.61864 13.1457C9.92305 14.2191 11.9874 15.3191 12.8637 15.573L12.872 15.5858C13.7355 15.8737 14.5751 14.9717 15.0234 14.1549V14.1485C15.2223 13.7534 15.1563 13.3794 14.8657 13.1347C14.3505 12.6323 13.5732 12.0777 12.9627 11.7212Z" fill="white"/>
<path d="M10.8071 7.44091C11.688 7.49225 12.1152 7.95241 12.161 8.8975C12.1775 9.26692 12.7138 9.24125 12.6973 8.87183C12.6386 7.638 11.9951 6.9505 10.8364 6.88633C10.4835 6.86524 10.4505 7.41983 10.8071 7.44091V7.44091Z" fill="white"/>
</svg>
