<svg width="22" height="22" viewBox="0 0 22 22" fill="none" xmlns="http://www.w3.org/2000/svg">
<path d="M11 0C4.95819 0 0 4.95819 0 11C0 12.994 0.537613 14.9352 1.55711 16.6334L0 22L5.36656 20.4429C7.06483 21.4624 9.00598 22 11 22C17.0418 22 22 17.0418 22 11C22 4.95819 17.0418 0 11 0ZM17.8773 15.6478L17.3656 16.1596C16.6415 16.8837 14.9763 16.8263 13.9063 16.6197C10.3484 15.9325 6.20042 11.9119 5.40047 8.4301C5.00435 6.70531 5.22305 5.20576 5.79507 4.63358L6.30684 4.12181C6.58932 3.83949 7.04822 3.83983 7.33037 4.12181L9.37776 6.16937C9.51439 6.306 9.58925 6.48711 9.58925 6.68097C9.58925 6.87483 9.51439 7.05611 9.37776 7.19223L8.86617 7.7045C8.3022 8.26981 8.3022 9.1881 8.86617 9.75206L12.2471 13.0885C12.8127 13.6542 13.7282 13.6548 14.2947 13.0885L14.8064 12.5769C15.0706 12.3112 15.5641 12.3104 15.8305 12.5769L17.8773 14.6238C18.1553 14.9006 18.1659 15.3591 17.8773 15.6478V15.6478Z" fill="white"/>
</svg>
