<svg width="270" height="13" viewBox="0 0 270 13" fill="none" xmlns="http://www.w3.org/2000/svg">
<path d="M254.983 12.4801C250.153 12.4801 247.646 10.0491 245.627 8.08608C243.899 6.40907 242.645 5.20005 239.979 5.20005C237.314 5.20005 236.06 6.40907 234.332 8.08608C232.313 10.0361 229.805 12.4801 224.976 12.4801C220.146 12.4801 217.639 10.0491 215.62 8.08608C213.905 6.40907 212.651 5.20005 209.985 5.20005C207.32 5.20005 206.066 6.40907 204.338 8.08608C202.319 10.0361 199.811 12.4801 194.982 12.4801C190.152 12.4801 187.645 10.0491 185.626 8.08608C183.91 6.40907 182.657 5.20005 179.991 5.20005C177.326 5.20005 176.072 6.40907 174.343 8.08608C172.324 10.0361 169.817 12.4801 164.988 12.4801C160.158 12.4801 157.651 10.0491 155.632 8.08608C153.903 6.40907 152.649 5.20005 149.984 5.20005C147.318 5.20005 146.065 6.40907 144.336 8.08608C142.317 10.0361 139.81 12.4801 134.98 12.4801C130.151 12.4801 127.643 10.0491 125.624 8.08608C123.909 6.40907 122.655 5.20005 119.99 5.20005C117.324 5.20005 116.071 6.40907 114.342 8.08608C112.323 10.0361 109.816 12.4801 104.986 12.4801C100.156 12.4801 97.6492 10.0491 95.6434 8.08608C93.9148 6.40907 92.6612 5.20005 89.9956 5.20005C87.33 5.20005 86.0764 6.40907 84.3478 8.08608C82.3288 10.0361 79.8216 12.4801 74.9919 12.4801C70.1623 12.4801 67.6551 10.0491 65.6361 8.08608C63.9074 6.40907 62.667 5.20005 60.0015 5.20005C57.3359 5.20005 56.0823 6.40907 54.3536 8.08608C52.3347 10.0491 49.8275 12.4801 44.9978 12.4801C40.1681 12.4801 37.6609 10.0491 35.642 8.08608C33.9133 6.40907 32.6597 5.20005 29.9941 5.20005C27.3286 5.20005 26.075 6.40907 24.3463 8.08608C22.3274 10.0361 19.8201 12.4801 14.9905 12.4801C10.1608 12.4801 7.66678 10.0491 5.64782 8.08608C3.91916 6.40907 2.66556 5.20005 0 5.20005V0C4.82968 0 7.33689 2.43103 9.35585 4.39405C11.0845 6.07106 12.3249 7.28008 15.0037 7.28008C17.6824 7.28008 18.9228 6.07106 20.6515 4.39405C22.6573 2.43103 25.1645 0 29.9941 0C34.8238 0 37.331 2.43103 39.35 4.39405C41.0786 6.07106 42.3322 7.28008 44.9978 7.28008C47.6634 7.28008 48.917 6.07106 50.6456 4.39405C52.6514 2.43103 55.1586 0 60.0015 0C64.8443 0 67.3384 2.43103 69.3573 4.39405C71.0728 6.07106 72.3264 7.28008 74.9919 7.28008C77.6575 7.28008 78.9111 6.07106 80.6398 4.39405C82.6587 2.43103 85.1659 0 89.9956 0C94.8253 0 97.3325 2.43103 99.3515 4.39405C101.08 6.07106 102.321 7.28008 104.999 7.28008C107.665 7.28008 108.918 6.07106 110.647 4.39405C112.653 2.43103 115.16 0 119.99 0C124.819 0 127.327 2.43103 129.346 4.39405C131.074 6.07106 132.328 7.28008 134.993 7.28008C137.659 7.28008 138.913 6.07106 140.641 4.39405C142.647 2.43103 145.154 0 149.997 0C154.827 0 157.334 2.43103 159.353 4.39405C161.082 6.07106 162.335 7.28008 165.001 7.28008C167.666 7.28008 168.92 6.07106 170.649 4.39405C172.668 2.44403 175.175 0 180.004 0C184.834 0 187.341 2.43103 189.36 4.39405C191.089 6.07106 192.343 7.28008 195.008 7.28008C197.674 7.28008 198.927 6.07106 200.656 4.39405C202.675 2.44403 205.182 0 210.012 0C214.841 0 217.349 2.43103 219.368 4.39405C221.096 6.07106 222.35 7.28008 225.015 7.28008C227.681 7.28008 228.935 6.07106 230.663 4.39405C232.643 2.43103 235.15 0 239.993 0C244.822 0 247.33 2.43103 249.349 4.39405C251.077 6.07106 252.331 7.28008 254.996 7.28008C257.662 7.28008 258.916 6.07106 260.644 4.39405C262.663 2.44403 265.17 0 270 0V5.20005C267.334 5.20005 266.081 6.40907 264.352 8.08608C262.32 10.0491 259.813 12.4801 254.983 12.4801Z" fill="#00BA89"/>
</svg>
