<svg width="33" height="22" viewBox="0 0 33 22" fill="none" xmlns="http://www.w3.org/2000/svg">
<path d="M21.8751 11.1619L32.9996 17.9806V4.05566L21.8751 11.1619Z" fill="#00BA89"/>
<path d="M0 4.05566V17.9806L11.1245 11.1619L0 4.05566Z" fill="#00BA89"/>
<path d="M30.9373 0H2.06248C1.03124 0 0.219139 0.743744 0.0644531 1.69999L16.4999 12.1999L32.9353 1.69999C32.7806 0.743744 31.9685 0 30.9373 0Z" fill="#00BA89"/>
<path d="M19.9868 12.3744L17.0671 14.2369C16.893 14.3494 16.6997 14.3994 16.4999 14.3994C16.3001 14.3994 16.1067 14.3432 15.9327 14.2369L13.013 12.3682L0.0644531 20.3119C0.225585 21.2619 1.03769 21.9994 2.06248 21.9994H30.9373C31.9621 21.9994 32.7742 21.2619 32.9353 20.3119L19.9868 12.3744Z" fill="#00BA89"/>
</svg>
