<svg width="30" height="30" viewBox="0 0 30 30" fill="none" xmlns="http://www.w3.org/2000/svg">
<path d="M5.59456 25.6383C5.68214 25.7157 5.76633 25.7956 5.85585 25.8711C5.55004 25.5072 5.22972 25.109 4.90649 24.6895C5.13391 25.0165 5.36472 25.334 5.59456 25.6383Z" fill="#22D5FF"/>
<path d="M29.4673 15.1553C29.4673 7.36548 23.0632 1.04855 15.1592 1.04855C14.3265 1.04855 13.5092 1.12016 12.7123 1.25565C11.4334 0.461129 9.92032 0 8.29839 0C3.71468 0 0 3.66194 0 8.18274C0 9.69242 0.417097 11.1044 1.13952 12.3218C0.950807 13.2363 0.850161 14.1861 0.850161 15.1553C0.850161 22.949 7.25661 29.2645 15.1587 29.2645C16.0548 29.2645 16.9292 29.1827 17.7798 29.0279C18.9489 29.6473 20.2829 30 21.7031 30C26.2853 30 30 26.3366 30 21.8187C30 20.5132 29.6898 19.2798 29.1377 18.1853C29.3545 17.2074 29.4673 16.1956 29.4673 15.1553ZM22.4986 21.899C21.8371 22.8242 20.8602 23.5548 19.59 24.0731C18.3353 24.5874 16.8329 24.8497 15.1205 24.8497C13.065 24.8497 11.3424 24.4931 9.99629 23.789C9.03484 23.2781 8.24274 22.5861 7.64129 21.7268C7.03306 20.8645 6.72629 20.0066 6.72629 19.1773C6.72629 18.6629 6.92661 18.2144 7.32145 17.8471C7.71339 17.4823 8.21613 17.2994 8.81565 17.2994C9.30629 17.2994 9.73161 17.444 10.0756 17.731C10.4056 18.0073 10.6877 18.4161 10.9147 18.9392C11.1692 19.5135 11.444 19.9969 11.7348 20.3739C12.0174 20.7426 12.421 21.0503 12.9363 21.2918C13.454 21.5318 14.1552 21.6571 15.014 21.6571C16.1971 21.6571 17.1668 21.4065 17.8965 20.9163C18.6102 20.4382 18.9556 19.861 18.9556 19.1545C18.9556 18.6 18.7742 18.1616 18.4045 17.8176C18.0116 17.4595 17.4987 17.1813 16.876 16.9858C16.2252 16.7879 15.3435 16.5706 14.2515 16.3447C12.765 16.0321 11.5031 15.6615 10.5015 15.239C9.47468 14.8089 8.64823 14.2132 8.0429 13.4671C7.42887 12.7069 7.11629 11.7556 7.11629 10.6379C7.11629 9.57339 7.44339 8.61145 8.08839 7.78452C8.7271 6.96242 9.66194 6.31887 10.8663 5.88194C12.0537 5.44887 13.4642 5.22968 15.0648 5.22968C16.3418 5.22968 17.4658 5.37629 18.4045 5.66419C19.3471 5.95355 20.1411 6.34258 20.7653 6.82403C21.3948 7.31081 21.8642 7.82758 22.1569 8.36661C22.4531 8.91097 22.605 9.45194 22.605 9.97548C22.605 10.4792 22.4081 10.9379 22.0181 11.3361C21.6271 11.7392 21.1306 11.9429 20.5485 11.9429C20.0192 11.9429 19.6035 11.8142 19.3176 11.5635C19.049 11.3294 18.7708 10.9635 18.4621 10.4419C18.1055 9.77468 17.6724 9.24774 17.1779 8.87565C16.696 8.51419 15.8932 8.33323 14.7876 8.33323C13.7647 8.33323 12.9285 8.535 12.3097 8.93661C11.7135 9.32081 11.4223 9.76403 11.4223 10.289C11.4223 10.6094 11.5161 10.8784 11.7102 11.1087C11.9115 11.3555 12.1984 11.5669 12.5623 11.7479C12.9377 11.9342 13.3263 12.0832 13.7139 12.1877C14.1111 12.2976 14.7774 12.4592 15.6934 12.6673C16.8527 12.9106 17.9163 13.1874 18.8555 13.4845C19.8102 13.7835 20.6318 14.1523 21.3053 14.5848C21.99 15.0252 22.5315 15.5884 22.9171 16.2634C23.3042 16.9427 23.5002 17.7774 23.5002 18.75C23.5006 19.9132 23.1619 20.9719 22.4986 21.899Z" fill="#00BA89"/>
<path d="M29.2425 17.6448C27.1522 22.7893 23.1157 26.9308 18.0438 29.1575C19.1485 29.6946 20.3884 30 21.7031 30C26.2853 30 30 26.3366 30 21.8187C30 20.5132 29.6898 19.2798 29.1377 18.1853C29.1774 18.0068 29.2091 17.8253 29.2425 17.6448Z" fill="#00BA89"/>
<path d="M16.905 1.33334C18.2638 1.50463 19.5388 1.78431 20.6826 2.13996C18.9833 1.43786 17.118 1.04883 15.1597 1.04883C14.5321 1.04883 13.9133 1.08996 13.3051 1.16738C14.4291 1.12528 15.6431 1.17463 16.905 1.33334Z" fill="#22D5FF"/>
<path d="M25.9196 5.86621C25.9273 5.90347 25.9408 5.94073 25.9467 5.97847C26.0231 6.04089 26.1049 6.09653 26.1808 6.1604C26.0967 6.05976 26.0071 5.96444 25.9196 5.86621Z" fill="#22D5FF"/>
</svg>
