<svg width="172" height="145" viewBox="0 0 172 145" fill="none" xmlns="http://www.w3.org/2000/svg">
<path d="M110.388 123.985C112.703 119.219 116.506 115.284 120.639 112.069C124.001 109.464 127.804 106.97 131.773 105.474C135.3 104.143 136.072 107.247 138.938 108.3C140.757 108.965 142.796 107.968 144.229 106.637C145.607 105.363 146.764 103.755 148.418 102.813C149.63 102.093 151.449 101.76 152.717 102.536C154.315 103.478 154.039 105.751 156.189 106.028C157.181 106.139 158.173 105.806 159.055 105.363C161.149 104.31 163.299 103.367 165.559 102.702C167.598 102.093 170.299 101.871 171.456 103.7C172.613 105.418 171.511 107.746 170.133 109.298C166.826 113.011 161.976 115.007 157.071 115.672C155.748 115.838 154.37 115.949 153.102 116.503C151.89 117.057 150.788 118.166 150.732 119.551C150.732 120.272 150.953 120.993 151.008 121.713C151.008 123.764 149.024 125.26 147.095 125.704C142.024 126.868 138.717 122.378 133.977 121.713C128.576 120.937 120.309 121.768 116.561 126.369" fill="#72CD8C"/>
<path opacity="0.5" d="M119.261 121.769C124.497 116.891 131.387 113.621 138.607 112.679C143.127 112.069 147.701 112.346 152.221 111.958C156.74 111.57 161.425 110.296 164.677 107.303" stroke="white" stroke-width="0.891" stroke-miterlimit="10" stroke-linecap="round" stroke-linejoin="round"/>
<path d="M142.851 101.594C145.552 100.042 148.418 97.8251 147.701 94.4996C147.426 93.3911 146.654 92.3934 146.764 91.2849C146.874 90.5644 147.315 89.9547 147.701 89.2896C148.528 87.7377 148.638 85.8533 148.032 84.1905C147.315 82.4169 145.882 81.1422 144.945 79.4794C144.174 78.1492 143.843 76.5973 143.898 75.0454C141.032 75.3225 138.607 77.1516 135.851 77.9275C133.757 78.5372 131.497 78.5372 129.403 79.2023C125.6 80.4771 122.734 84.1905 122.513 88.1811C120.694 88.0149 118.82 88.8462 117.663 90.3427C116.45 91.8946 115.899 94.0007 116.175 95.8852C117.443 103.922 121.521 110.351 126.812 116.337C125.655 115.062 129.182 111.016 129.844 110.185C132.82 106.748 136.843 104.809 140.757 102.647C141.473 102.425 142.134 102.037 142.851 101.594Z" fill="#72CD8C"/>
<g opacity="0.5">
<path opacity="0.5" d="M127.529 105.584C126.867 102.148 127.749 98.5452 128.851 95.2198C129.899 91.9497 131.221 88.735 133.04 85.8529C134.914 82.9708 137.339 80.4213 140.371 78.814" stroke="white" stroke-width="0.891" stroke-miterlimit="10" stroke-linecap="round" stroke-linejoin="round"/>
<path opacity="0.5" d="M128.411 82.1392C128.355 85.2984 128.907 89.0118 130.009 91.9494" stroke="white" stroke-width="0.891" stroke-miterlimit="10" stroke-linecap="round" stroke-linejoin="round"/>
<path opacity="0.5" d="M130.505 90.7861C133.812 88.1811 139.158 86.2966 143.347 86.1304" stroke="white" stroke-width="0.891" stroke-miterlimit="10" stroke-linecap="round" stroke-linejoin="round"/>
<path opacity="0.5" d="M121.907 92.1162C126.316 93.5018 127.088 99.8203 127.363 101.594" stroke="white" stroke-width="0.891" stroke-miterlimit="10" stroke-linecap="round" stroke-linejoin="round"/>
<path opacity="0.5" d="M128.135 97.4923C131.166 94.8319 136.402 92.0052 139.929 92.5595" stroke="white" stroke-width="0.891" stroke-miterlimit="10" stroke-linecap="round" stroke-linejoin="round"/>
<path opacity="0.5" d="M127.473 105.251C129.898 102.037 136.457 98.0461 140.04 98.6003" stroke="white" stroke-width="0.891" stroke-miterlimit="10" stroke-linecap="round" stroke-linejoin="round"/>
<path opacity="0.5" d="M135.465 79.8672C134.583 81.1974 134.473 82.6384 134.694 83.6361" stroke="white" stroke-width="0.891" stroke-miterlimit="10" stroke-linecap="round" stroke-linejoin="round"/>
<path opacity="0.5" d="M135.52 82.6384C136.953 81.7516 138.938 81.3636 141.142 81.6961" stroke="white" stroke-width="0.891" stroke-miterlimit="10" stroke-linecap="round" stroke-linejoin="round"/>
</g>
<path d="M66.185 129.805C62.5473 119.773 53.1776 110.406 43.9733 105.03C41.7135 103.7 38.4617 102.758 37.4145 105.861C36.7531 107.857 34.4383 107.358 33.1155 106.416C31.462 105.252 30.525 103.423 29.1471 101.982C28.0448 100.873 26.6118 99.9863 25.0135 99.7646C23.4702 99.4875 21.7616 99.9309 20.6042 101.039C19.7223 101.871 19.2263 103.035 18.2342 103.755C16.6359 104.975 14.2659 104.531 12.5573 103.478C10.8487 102.425 9.4708 100.873 7.81733 99.7092C6.16385 98.5453 3.90411 97.8802 2.1404 98.8778C-0.229579 100.153 -0.450042 103.589 0.597158 106.083C1.20343 107.635 2.19552 109.852 3.35295 111.071C5.00642 112.789 7.43152 113.898 9.74638 114.397C11.455 114.729 13.2187 114.729 14.8721 115.117C15.4784 115.284 16.1949 115.505 16.3052 116.226C16.4705 117.223 15.2028 117.889 14.4863 118.221C13.2187 118.886 11.951 120.272 12.5573 121.547C12.9431 122.378 13.8801 122.711 14.7619 122.877C17.4075 123.32 19.9979 122.544 22.5332 121.768C24.0765 121.269 25.3993 120.327 26.9425 119.939C27.7692 119.718 29.8085 119.662 29.5881 120.992C29.533 121.436 29.2023 121.768 28.8716 122.045C28.5409 122.323 28.1551 122.6 27.8795 122.932C26.6669 124.373 27.8795 126.147 29.4227 126.535C30.6353 126.812 31.9029 126.535 33.1155 126.258C41.0522 124.373 49.3746 123.653 57.3113 125.316C59.0199 125.648 60.8938 126.258 61.7206 127.754" fill="#72CD8C"/>
<path opacity="0.5" d="M57.6421 123.487C51.7998 118.055 44.0836 114.508 35.9816 113.455C30.966 112.845 25.8403 113.177 20.8247 112.734C15.7541 112.291 10.5181 110.961 6.88043 107.58" stroke="white" stroke-width="0.891" stroke-miterlimit="10" stroke-linecap="round" stroke-linejoin="round"/>
<path opacity="0.25" d="M59.4053 124.262C59.4053 124.262 45.5712 115.006 41.658 105.584C44.3036 106.305 46.0122 107.191 47.8861 108.688C49.8703 111.514 54.6654 115.893 57.9172 118.72C58.303 120.272 58.8542 122.101 59.4053 124.262Z" fill="#FCCCB1"/>
<path d="M58.9096 121.103C58.4135 117.833 56.9805 114.563 56.3743 111.238C55.4924 105.917 55.3271 100.541 56.3191 95.2199C57.1459 90.6751 58.5238 85.964 57.0357 81.4191C56.6498 80.1998 55.8782 78.8696 54.335 78.925C53.7287 78.925 53.1224 79.2021 52.6815 79.5901C51.5241 80.5877 51.3036 82.0842 51.1383 83.4698L50.532 88.1255C50.3115 89.622 48.0518 89.8437 47.5557 88.3472C47.5557 88.3472 47.5557 88.3472 47.5557 88.2918C47.1699 87.0725 47.225 85.7423 47.3353 84.4675C47.5557 81.6962 47.8864 78.8696 47.5006 76.0983C47.0046 72.7174 45.1306 69.3365 41.6032 68.0617C40.3356 67.6183 38.9577 67.5629 37.6349 67.9509C34.0524 69.0039 33.3358 72.3849 34.0524 75.2115C34.5484 77.2068 35.6507 79.0358 36.6979 80.8649C39.1781 85.2989 37.8553 89.5112 38.4616 94.4994C39.7293 104.975 49.9808 115.173 58.9096 121.103Z" fill="#72CD8C"/>
<path opacity="0.5" d="M39.3434 73.9922C46.8391 83.1373 44.0833 104.642 57.1458 116.281" stroke="white" stroke-width="0.891" stroke-miterlimit="10" stroke-linecap="round" stroke-linejoin="round"/>
<path opacity="0.5" d="M53.9491 84.6895C54.8309 89.2897 51.8547 94.4442 51.1933 97.3263C50.5319 100.208 50.1461 105.086 50.8626 107.968" stroke="white" stroke-width="0.891" stroke-miterlimit="10" stroke-linecap="round" stroke-linejoin="round"/>
<path d="M32.4541 129.694C32.1234 127.865 26.9977 116.392 21.1003 119.441C17.5729 121.27 18.2342 127.976 23.6907 133.075C22.5884 132.022 21.3758 130.858 19.8877 130.526C19.1161 130.359 18.124 130.747 17.5177 131.301C16.9666 131.8 16.8564 132.576 16.8012 133.297C16.691 135.957 18.0689 138.562 20.2735 140.003C19.061 139.338 18.0138 138.451 16.6359 138.34C16.195 138.285 15.4233 138.562 15.2029 138.95C14.9824 139.394 14.9824 141.056 17.6831 142.276C6.77016 140.169 6.16389 144.881 10.0771 144.881C13.9903 144.881 42.2096 144.881 42.2096 144.881" fill="#CFF5D9"/>
<path d="M52.8469 120.604C52.3508 117.667 46.9495 99.0994 37.4696 104.032C31.8477 106.97 32.8398 117.722 41.6584 125.87C39.9498 124.207 37.9656 122.267 35.5956 121.824C34.328 121.546 32.7847 122.156 31.7926 123.043C30.9659 123.819 30.6903 125.094 30.6352 126.258C30.4699 130.47 32.6745 134.682 36.2019 137.01C34.2728 135.902 32.5643 134.571 30.3596 134.35C29.6431 134.294 28.4306 134.682 28.0999 135.347C27.7141 136.068 27.7692 138.673 32.0682 140.668C14.5965 137.343 13.6044 144.825 19.8876 144.825C26.1708 144.825 61.3347 144.825 61.3347 144.825" fill="#9BE8B1"/>
<path d="M146.213 129.694C146.544 127.865 151.67 116.392 157.567 119.441C161.095 121.27 160.433 127.976 154.977 133.075C156.079 132.022 157.292 130.858 158.78 130.526C159.551 130.359 160.543 130.747 161.15 131.301C161.701 131.8 161.811 132.576 161.866 133.297C161.977 135.957 160.599 138.562 158.394 140.003C159.607 139.338 160.654 138.451 162.032 138.34C162.473 138.285 163.244 138.562 163.465 138.95C163.685 139.394 163.685 141.056 160.984 142.276C171.897 140.169 172.504 144.881 168.59 144.881C164.677 144.881 136.458 144.881 136.458 144.881" fill="#CFF5D9"/>
<path d="M125.82 120.604C126.316 117.667 131.718 99.0994 141.198 104.032C146.819 106.97 145.827 117.722 137.009 125.87C138.717 124.207 140.702 122.267 143.072 121.824C144.339 121.546 145.882 122.156 146.875 123.043C147.701 123.819 147.977 125.094 148.032 126.258C148.197 130.47 145.993 134.682 142.465 137.01C144.394 135.902 146.103 134.571 148.308 134.35C149.024 134.294 150.237 134.682 150.567 135.347C150.953 136.068 150.898 138.673 146.599 140.668C164.071 137.343 165.063 144.825 158.78 144.825C152.496 144.825 117.333 144.825 117.333 144.825" fill="#9BE8B1"/>
<path opacity="0.2" d="M96.3883 82.6386C91.5932 81.3084 87.9555 77.2069 87.6248 72.2187C87.6248 71.997 87.6248 71.7198 87.6248 71.4981C87.6248 71.4427 87.6248 71.3319 87.6248 71.2764C87.6248 71.221 87.6248 71.1102 87.6248 71.0547C87.6248 70.833 87.6248 70.5559 87.6248 70.3342C87.9004 65.346 91.5932 61.2445 96.3883 59.9143C114.466 54.8707 127.749 38.1878 127.749 18.4011C127.749 15.7407 127.529 13.1357 127.033 10.5861C126.978 10.1427 126.867 9.69935 126.757 9.31137C126.702 8.97883 126.647 8.7017 126.537 8.36915V8.31373C126.481 8.14745 126.481 7.98118 126.426 7.8149C126.371 7.48235 126.261 7.20523 126.206 6.9281C126.096 6.4847 125.93 5.98588 125.82 5.54248H124.332C124.387 5.70876 124.442 5.81961 124.497 5.98588C124.497 6.0413 124.497 6.0413 124.552 6.0413C124.608 6.31843 124.718 6.54013 124.773 6.81725C124.828 6.98353 124.883 7.1498 124.938 7.31608C124.993 7.5932 125.104 7.87033 125.159 8.14745C125.214 8.31373 125.269 8.48 125.269 8.64628C125.324 8.9234 125.379 9.20053 125.434 9.47765C125.434 9.5885 125.489 9.64392 125.489 9.75477C125.489 9.8102 125.489 9.8102 125.489 9.86562C125.545 10.1982 125.6 10.4753 125.655 10.8078C126.096 13.2465 126.316 15.7961 126.316 18.3456C126.316 37.0238 113.86 53.5405 95.9473 58.4733C90.4358 60.0252 86.5225 64.6809 86.1918 70.1679C86.1918 70.4451 86.1918 70.7222 86.1918 70.9439C86.1918 70.9993 86.1918 71.1102 86.1918 71.1656C86.1918 71.221 86.1918 71.3319 86.1918 71.3873C86.1918 71.6644 86.1918 71.9415 86.1918 72.1632C86.5225 77.6503 90.4358 82.3614 95.9473 83.8579C113.805 88.8461 126.316 105.363 126.316 123.986C126.316 126.535 126.096 129.085 125.655 131.523C125.048 135.015 123.946 138.396 122.458 141.666H47.3903C45.9022 138.451 44.7999 135.071 44.1936 131.523C43.7527 129.085 43.5322 126.535 43.5322 123.986C43.5322 105.307 56.0435 88.8461 73.901 83.8579C79.4126 82.306 83.3258 77.6503 83.6565 72.1632C83.6565 71.8861 83.6565 71.609 83.6565 71.3873C83.6565 71.3319 83.6565 71.221 83.6565 71.1656C83.6565 71.1102 83.6565 70.9993 83.6565 70.9439C83.6565 70.6668 83.6565 70.3896 83.6565 70.1679C83.3258 64.6809 79.4126 60.0252 73.901 58.4733C55.9884 53.5959 43.5322 37.0793 43.5322 18.4565C43.5322 15.9069 43.7527 13.3574 44.1936 10.9187C44.2487 10.4753 44.3589 10.0319 44.4692 9.5885C44.4692 9.5885 44.4692 9.5885 44.4692 9.53308C44.5794 9.08968 44.6345 8.7017 44.7447 8.2583V8.20288C44.7999 7.87033 44.9101 7.53778 45.0203 7.26065C45.0203 7.20523 45.0203 7.20523 45.0203 7.20523C45.0754 7.09438 45.0754 6.98353 45.1306 6.81725C45.1857 6.59555 45.2408 6.37385 45.351 6.15215C45.351 6.09673 45.351 6.09673 45.351 6.09673C45.4061 5.93045 45.4612 5.8196 45.5164 5.65333H44.0834C43.918 6.09673 43.8078 6.59555 43.6975 7.03895C43.5873 7.3715 43.5322 7.64863 43.4771 7.92575C43.422 8.09203 43.3668 8.2583 43.3668 8.42458V8.48C43.3117 8.81255 43.2015 9.08968 43.1464 9.42223C43.0362 9.86562 42.981 10.2536 42.8708 10.697C42.4299 13.2465 42.1543 15.8515 42.1543 18.5119C42.1543 38.2986 55.4372 54.9815 73.5152 60.0252C78.3103 61.3554 81.9479 65.4568 82.2235 70.4451C82.2235 70.6668 82.2235 70.9439 82.2235 71.1656C82.2235 71.221 82.2235 71.3319 82.2235 71.3873C82.2235 71.4427 82.2235 71.5536 82.2235 71.609C82.2235 71.8307 82.2235 72.1078 82.2235 72.3295C81.9479 77.3178 78.3103 81.4192 73.5152 82.7494C55.4372 87.7931 42.1543 104.476 42.1543 124.263C42.1543 126.923 42.3748 129.528 42.8708 132.078C43.5873 136.068 44.855 139.837 46.5636 143.329H123.34C125.048 139.837 126.316 136.013 127.033 132.078C127.529 129.528 127.749 126.923 127.749 124.263C127.749 104.365 114.466 87.6822 96.3883 82.6386Z" fill="#389FE5"/>
<path d="M126.316 124.152C126.316 126.702 126.096 129.251 125.655 131.69C125.048 135.182 123.946 138.563 122.458 141.833H47.3901C45.902 138.618 44.7997 135.237 44.1934 131.69C43.7525 129.251 43.532 126.702 43.532 124.152C43.532 105.474 56.0433 89.0127 73.9009 84.0244C79.4124 82.4725 83.3257 77.8168 83.6563 72.3298C83.6563 72.0526 83.6563 71.7755 83.6563 71.5538C83.6563 71.4984 83.6563 71.3875 83.6563 71.3321C83.6563 71.2767 83.6563 71.1658 83.6563 71.1104C83.6563 70.8333 83.6563 70.5562 83.6563 70.3345C83.3257 64.8474 79.4124 60.1917 73.9009 58.6398C55.9882 53.5961 43.532 37.0795 43.532 18.4567C43.532 15.9072 43.7525 13.3576 44.1934 10.9189C44.2485 10.4755 44.3588 10.0321 44.469 9.58874C44.469 9.58874 44.469 9.58874 44.469 9.53331C44.5792 9.08991 44.6344 8.70194 44.7446 8.25854V8.20312C44.8548 7.87057 44.9099 7.48259 45.0202 7.15004C45.1304 6.81749 45.2406 6.42952 45.3509 6.09697C45.406 5.93069 45.4611 5.76442 45.5162 5.59814H124.332C124.387 5.76442 124.442 5.93069 124.497 6.09697C124.552 6.37409 124.663 6.59579 124.718 6.87292C124.773 7.03919 124.828 7.20547 124.883 7.37174C124.938 7.64887 125.048 7.92599 125.103 8.20312C125.159 8.36939 125.214 8.53567 125.214 8.70194C125.269 8.97906 125.324 9.25619 125.379 9.53331C125.434 9.64416 125.434 9.81044 125.489 9.92129C125.544 10.2538 125.599 10.531 125.655 10.8635C126.096 13.3022 126.316 15.8518 126.316 18.4013C126.316 37.0795 113.86 53.5961 95.9472 58.5289C90.4356 60.0808 86.5224 64.7365 86.1917 70.2236C86.1917 70.5007 86.1917 70.7779 86.1917 70.9996C86.1917 71.055 86.1917 71.1658 86.1917 71.2213C86.1917 71.2767 86.1917 71.3875 86.1917 71.443C86.1917 71.7201 86.1917 71.9972 86.1917 72.2189C86.5224 77.706 90.4356 82.4171 95.9472 83.9136C113.86 88.9572 126.316 105.474 126.316 124.152Z" fill="white"/>
<path opacity="0.5" d="M126.316 124.152C126.316 126.702 126.096 129.251 125.655 131.69C125.048 135.182 123.946 138.563 122.458 141.833H47.3901C45.902 138.618 44.7997 135.237 44.1934 131.69C43.7525 129.251 43.532 126.702 43.532 124.152C43.532 105.474 56.0433 89.0127 73.9009 84.0244C79.4124 82.4725 83.3257 77.8168 83.6563 72.3298C83.6563 72.0526 83.6563 71.7755 83.6563 71.5538C83.6563 71.4984 83.6563 71.3875 83.6563 71.3321C83.6563 71.2767 83.6563 71.1658 83.6563 71.1104C83.6563 70.8333 83.6563 70.5562 83.6563 70.3345C83.3257 64.8474 79.4124 60.1917 73.9009 58.6398C55.9882 53.5961 43.532 37.0795 43.532 18.4567C43.532 15.9072 43.7525 13.3576 44.1934 10.9189C44.2485 10.4755 44.3588 10.0321 44.469 9.58874C44.469 9.58874 44.469 9.58874 44.469 9.53331C44.5792 9.08991 44.6344 8.70194 44.7446 8.25854V8.20312C44.8548 7.87057 44.9099 7.48259 45.0202 7.15004C45.1304 6.81749 45.2406 6.42952 45.3509 6.09697C45.406 5.93069 45.4611 5.76442 45.5162 5.59814H124.332C124.387 5.76442 124.442 5.93069 124.497 6.09697C124.552 6.37409 124.663 6.59579 124.718 6.87292C124.773 7.03919 124.828 7.20547 124.883 7.37174C124.938 7.64887 125.048 7.92599 125.103 8.20312C125.159 8.36939 125.214 8.53567 125.214 8.70194C125.269 8.97906 125.324 9.25619 125.379 9.53331C125.434 9.64416 125.434 9.81044 125.489 9.92129C125.544 10.2538 125.599 10.531 125.655 10.8635C126.096 13.3022 126.316 15.8518 126.316 18.4013C126.316 37.0795 113.86 53.5961 95.9472 58.5289C90.4356 60.0808 86.5224 64.7365 86.1917 70.2236C86.1917 70.5007 86.1917 70.7779 86.1917 70.9996C86.1917 71.055 86.1917 71.1658 86.1917 71.2213C86.1917 71.2767 86.1917 71.3875 86.1917 71.443C86.1917 71.7201 86.1917 71.9972 86.1917 72.2189C86.5224 77.706 90.4356 82.4171 95.9472 83.9136C113.86 88.9572 126.316 105.474 126.316 124.152Z" fill="#D7ECFA"/>
<path d="M50.7524 42.9545C50.7524 42.9545 57.2561 53.7069 72.9641 58.6952C76.9876 59.8591 78.3103 60.7459 80.6252 62.9075C82.9401 65.0691 83.7117 68.8379 83.6566 71.7755C83.6015 74.1033 84.9242 107.802 84.9242 112.014C84.9242 115.949 85.4203 113.067 85.3101 112.18C85.6959 88.2921 86.1919 70.7778 86.1919 70.7778C86.1919 70.7778 87.6249 63.2955 89.8295 62.2424C92.0342 61.1893 99.9709 57.4758 103.278 56.589C106.53 55.6468 114.411 48.4416 114.411 48.4416C114.411 48.4416 124.442 34.0865 125.049 32.2575C125.655 30.4285 120.529 30.2622 120.529 30.2622L50.7524 42.9545Z" fill="#FF9A30"/>
<path d="M88.5245 43.6871C109.514 40.3753 125.979 34.1605 125.3 29.806C124.62 25.4514 107.054 24.6061 86.0642 27.9178C65.0744 31.2296 48.6096 37.4444 49.289 41.7989C49.9684 46.1535 67.5347 46.9988 88.5245 43.6871Z" fill="#FDCF33"/>
<g opacity="0.5">
<g opacity="0.5">
<path opacity="0.5" d="M73.6809 53.2629C73.2399 53.2629 72.799 53.2075 72.303 53.0412C69.3267 51.9881 66.5158 50.7133 64.0356 49.106C62.1065 47.8867 61.5003 45.2817 62.7128 43.2864C63.9254 41.3465 66.5158 40.7368 68.5 41.9562C70.429 43.1755 72.6337 44.2286 75.0036 45.06C77.2083 45.8359 78.3657 48.2192 77.5941 50.3808C77.0429 52.2098 75.3894 53.2629 73.6809 53.2629Z" fill="white"/>
</g>
<g opacity="0.5">
<path opacity="0.5" d="M57.3111 40.9036C55.9332 40.9036 54.5553 40.2385 53.7837 38.9638C46.5084 27.4354 48.3823 14.5214 48.4926 13.9671C48.8233 11.6947 50.9728 10.0874 53.2325 10.4753C55.4923 10.8079 57.0906 12.9695 56.7048 15.2419C56.7048 15.4082 55.2718 25.7172 60.8385 34.4743C62.051 36.4142 61.4999 39.0192 59.5708 40.2939C58.8543 40.6819 58.0827 40.9036 57.3111 40.9036Z" fill="white"/>
</g>
</g>
<g opacity="0.5">
<g opacity="0.5">
<path opacity="0.5" d="M73.6804 88.7905C73.2394 88.7905 72.7985 88.846 72.3025 89.0122C69.3262 90.0653 66.5153 91.3401 64.0351 92.9474C62.1061 94.1667 61.4998 96.7717 62.7123 98.767C63.9249 100.707 66.5153 101.317 68.4995 100.097C70.4285 98.8779 72.6332 97.8248 75.0031 96.9934C77.2078 96.2175 78.3652 93.8342 77.5936 91.6726C77.0424 89.899 75.389 88.7905 73.6804 88.7905Z" fill="white"/>
</g>
<g opacity="0.5">
<path opacity="0.5" d="M57.311 101.206C55.9331 101.206 54.5552 101.871 53.7836 103.145C46.5083 114.674 48.3823 127.588 48.4374 128.142C48.7681 130.414 50.9176 132.022 53.1774 131.634C55.4371 131.301 57.0355 129.14 56.6496 126.867C56.6496 126.701 55.2166 116.392 60.7833 107.635C61.9959 105.695 61.4447 103.09 59.5157 101.815C58.8543 101.427 58.0827 101.206 57.311 101.206Z" fill="white"/>
</g>
</g>
<path d="M96.3883 82.6386C91.5932 81.3084 87.9555 77.2069 87.6248 72.2187C87.6248 71.997 87.6248 71.7198 87.6248 71.4981C87.6248 71.4427 87.6248 71.3319 87.6248 71.2764C87.6248 71.221 87.6248 71.1102 87.6248 71.0547C87.6248 70.833 87.6248 70.5559 87.6248 70.3342C87.9004 65.346 91.5932 61.2445 96.3883 59.9143C114.466 54.8707 127.749 38.1878 127.749 18.4011C127.749 15.7407 127.529 13.1357 127.033 10.5861C126.978 10.1427 126.867 9.69935 126.757 9.31137C126.702 8.97883 126.647 8.7017 126.537 8.36915V8.31373C126.481 8.14745 126.481 7.98118 126.426 7.8149C126.371 7.48235 126.261 7.20523 126.206 6.9281C126.096 6.4847 125.93 5.98588 125.82 5.54248H124.332C124.387 5.70876 124.442 5.81961 124.497 5.98588C124.497 6.0413 124.497 6.0413 124.552 6.0413C124.608 6.31843 124.718 6.54013 124.773 6.81725C124.828 6.98353 124.883 7.1498 124.938 7.31608C124.993 7.5932 125.104 7.87033 125.159 8.14745C125.214 8.31373 125.269 8.48 125.269 8.64628C125.324 8.9234 125.379 9.20053 125.434 9.47765C125.434 9.5885 125.489 9.64392 125.489 9.75477C125.489 9.8102 125.489 9.8102 125.489 9.86562C125.545 10.1982 125.6 10.4753 125.655 10.8078C126.096 13.2465 126.316 15.7961 126.316 18.3456C126.316 37.0238 113.86 53.5405 95.9473 58.4733C90.4358 60.0252 86.5225 64.6809 86.1918 70.1679C86.1918 70.4451 86.1918 70.7222 86.1918 70.9439C86.1918 70.9993 86.1918 71.1102 86.1918 71.1656C86.1918 71.221 86.1918 71.3319 86.1918 71.3873C86.1918 71.6644 86.1918 71.9415 86.1918 72.1632C86.5225 77.6503 90.4358 82.3614 95.9473 83.8579C113.805 88.8461 126.316 105.363 126.316 123.986C126.316 126.535 126.096 129.085 125.655 131.523C125.048 135.015 123.946 138.396 122.458 141.666H47.3903C45.9022 138.451 44.7999 135.071 44.1936 131.523C43.7527 129.085 43.5322 126.535 43.5322 123.986C43.5322 105.307 56.0435 88.8461 73.901 83.8579C79.4126 82.306 83.3258 77.6503 83.6565 72.1632C83.6565 71.8861 83.6565 71.609 83.6565 71.3873C83.6565 71.3319 83.6565 71.221 83.6565 71.1656C83.6565 71.1102 83.6565 70.9993 83.6565 70.9439C83.6565 70.6668 83.6565 70.3896 83.6565 70.1679C83.3258 64.6809 79.4126 60.0252 73.901 58.4733C55.9884 53.5959 43.5322 37.0793 43.5322 18.4565C43.5322 15.9069 43.7527 13.3574 44.1936 10.9187C44.2487 10.4753 44.3589 10.0319 44.4692 9.5885C44.4692 9.5885 44.4692 9.5885 44.4692 9.53308C44.5794 9.08968 44.6345 8.7017 44.7447 8.2583V8.20288C44.7999 7.87033 44.9101 7.53778 45.0203 7.26065C45.0203 7.20523 45.0203 7.20523 45.0203 7.20523C45.0754 7.09438 45.0754 6.98353 45.1306 6.81725C45.1857 6.59555 45.2408 6.37385 45.351 6.15215C45.351 6.09673 45.351 6.09673 45.351 6.09673C45.4061 5.93045 45.4612 5.8196 45.5164 5.65333H44.0834C43.918 6.09673 43.8078 6.59555 43.6975 7.03895C43.5873 7.3715 43.5322 7.64863 43.4771 7.92575C43.422 8.09203 43.3668 8.2583 43.3668 8.42458V8.48C43.3117 8.81255 43.2015 9.08968 43.1464 9.42223C43.0362 9.86562 42.981 10.2536 42.8708 10.697C42.4299 13.2465 42.1543 15.8515 42.1543 18.5119C42.1543 38.2986 55.4372 54.9815 73.5152 60.0252C78.3103 61.3554 81.9479 65.4568 82.2235 70.4451C82.2235 70.6668 82.2235 70.9439 82.2235 71.1656C82.2235 71.221 82.2235 71.3319 82.2235 71.3873C82.2235 71.4427 82.2235 71.5536 82.2235 71.609C82.2235 71.8307 82.2235 72.1078 82.2235 72.3295C81.9479 77.3178 78.3103 81.4192 73.5152 82.7494C55.4372 87.7931 42.1543 104.476 42.1543 124.263C42.1543 126.923 42.3748 129.528 42.8708 132.078C43.5873 136.068 44.855 139.837 46.5636 143.329H123.34C125.048 139.837 126.316 136.013 127.033 132.078C127.529 129.528 127.749 126.923 127.749 124.263C127.749 104.365 114.466 87.6822 96.3883 82.6386Z" fill="#B7F6DF"/>
<path d="M138.276 140.89C138.276 143.163 136.457 144.936 134.253 144.936H35.6506C33.3909 144.936 31.6272 143.107 31.6272 140.89C31.6272 138.618 33.446 136.844 35.6506 136.844H134.253C136.457 136.844 138.276 138.673 138.276 140.89Z" fill="#00BA89"/>
<path d="M117.718 31.4819C117.773 31.8145 116.947 32.2024 115.899 32.4796C114.797 32.7013 113.915 32.6458 113.805 32.3133C113.75 31.9807 114.577 31.5928 115.624 31.3156C116.726 31.0939 117.663 31.1494 117.718 31.4819Z" fill="#FF9A30"/>
<path d="M115.238 34.9738C115.293 35.3064 114.797 35.6389 114.081 35.8052C113.364 35.9715 112.758 35.8052 112.703 35.5281C112.648 35.1955 113.144 34.863 113.86 34.6967C114.521 34.5304 115.128 34.6967 115.238 34.9738Z" fill="#FF9A30"/>
<path d="M112.041 34.0315C112.097 34.3641 111.601 34.6966 110.884 34.8629C110.168 35.0292 109.561 34.8629 109.506 34.5858C109.451 34.2532 109.947 33.9207 110.664 33.7544C111.38 33.6435 111.986 33.7544 112.041 34.0315Z" fill="#FF9A30"/>
<path d="M90.2155 36.8584C90.2706 37.0247 89.9951 37.2464 89.6093 37.3019C89.2235 37.3573 88.8928 37.3019 88.8928 37.1356C88.8376 36.9693 89.1132 36.7476 89.499 36.6922C89.8297 36.6367 90.1604 36.6922 90.2155 36.8584Z" fill="#FF9A30"/>
<path d="M107.081 31.7037C107.136 31.8699 106.86 32.0916 106.475 32.1471C106.089 32.2025 105.758 32.1471 105.758 31.9808C105.703 31.8145 105.979 31.5928 106.364 31.5374C106.75 31.482 107.026 31.5374 107.081 31.7037Z" fill="#FF9A30"/>
<path d="M100.963 37.6338C101.018 37.8001 100.743 38.0218 100.357 38.0772C99.971 38.1327 99.6403 38.0772 99.6403 37.911C99.5852 37.7447 99.8608 37.523 100.247 37.4676C100.632 37.4121 100.963 37.4676 100.963 37.6338Z" fill="#FF9A30"/>
<path d="M92.8057 41.5694C92.8609 41.7357 92.5853 41.9574 92.1995 42.0128C91.8137 42.0682 91.483 42.0128 91.483 41.8465C91.4279 41.6802 91.7034 41.4585 92.0893 41.4031C92.4199 41.3477 92.7506 41.4031 92.8057 41.5694Z" fill="#FF9A30"/>
<path d="M85.4203 107.69L85.1447 107.58L84.8691 107.69C84.8691 107.69 82.3889 127.089 55.9333 136.844C70.4288 136.844 79.578 136.844 85.3101 136.844C92.9712 136.844 94.5695 136.844 94.5695 136.844C98.8686 136.844 105.152 136.844 114.356 136.844C87.8454 127.089 85.4203 107.69 85.4203 107.69Z" fill="#FF9A30"/>
<path d="M125.93 6.04113C125.93 8.2027 107.577 9.9763 84.924 9.9763C62.2714 9.9763 43.9178 8.2027 43.9178 6.04113C43.9178 3.87955 62.2714 2.10596 84.924 2.10596C107.577 2.10596 125.93 3.87955 125.93 6.04113Z" fill="#B9DBEF"/>
<path d="M134.253 0H35.6505C34.5482 0 33.501 0.443399 32.7844 1.21935C32.0679 1.93987 31.5719 2.99295 31.5719 4.10144C31.5719 6.31844 33.3907 8.14746 35.5954 8.14746H44.0832H45.5162H124.332H125.82H134.253C136.512 8.14746 138.276 6.31844 138.276 4.10144C138.276 1.82902 136.457 0 134.253 0Z" fill="#00BA89"/>
</svg>
