<svg width="464" height="108" viewBox="0 0 464 108" fill="none" xmlns="http://www.w3.org/2000/svg">
<path d="M417.42 59.115C417.32 63.315 416.22 67.215 414.32 70.615C414.12 70.915 414.02 71.115 413.82 71.515L414.12 71.815C414.22 71.815 414.42 71.815 414.52 71.915C414.62 72.015 414.62 72.115 414.62 72.115L421.52 78.415L436.82 92.415C437.02 92.415 437.22 92.615 437.22 92.715L443.02 98.115C443.12 98.115 443.32 98.115 443.42 98.215C444.22 98.915 444.62 100.015 444.62 101.315C444.62 103.015 443.72 105.015 442.62 106.115C441.62 107.115 440.32 107.615 439.02 107.615C437.82 107.615 436.72 107.115 435.82 106.215L409.92 83.415C409.82 83.415 409.72 83.415 409.62 83.315C409.52 83.215 409.52 83.115 409.52 83.115L406.42 80.315C406.32 80.315 406.22 80.215 406.12 80.115L405.62 79.715C403.22 81.115 400.62 82.015 397.42 82.515C389.92 83.815 380.92 81.315 375.02 76.215C369.02 70.915 367.82 64.215 368.02 59.415C368.12 55.415 369.22 51.015 371.02 47.215C372.72 43.515 375.42 40.515 378.92 38.315C380.42 37.315 382.12 36.515 383.92 35.815C395.72 31.215 408.52 35.615 414.32 46.115C416.52 50.015 417.52 54.515 417.42 59.115ZM436.02 105.215C436.12 105.215 436.22 105.315 436.22 105.415C436.92 106.215 437.82 106.715 438.92 106.715C440.12 106.715 441.32 106.215 442.12 105.215C442.82 104.415 443.52 102.815 443.52 101.315C443.52 100.915 443.52 100.415 443.32 100.115C443.02 101.315 442.52 102.415 441.72 103.415C441.62 103.615 441.42 103.615 441.22 103.515C441.02 103.415 440.92 103.215 440.92 103.015C440.92 102.915 440.92 102.815 441.02 102.715C441.82 101.715 442.32 100.515 442.62 99.115L442.42 98.915C442.12 100.015 441.52 101.015 440.72 101.915C440.62 102.015 440.42 102.115 440.22 102.015C440.02 101.915 439.92 101.715 439.92 101.515C439.92 101.415 439.92 101.315 440.02 101.215C440.82 100.415 441.32 99.415 441.62 98.215L441.22 97.815L439.22 100.915C439.12 101.115 438.92 101.215 438.62 101.115C438.42 101.015 438.32 100.915 438.32 100.715L438.42 100.515L440.42 97.315C440.42 97.215 440.52 97.215 440.52 97.215L440.42 97.115L438.62 99.815C438.52 100.015 438.32 100.115 438.02 100.015C437.82 99.915 437.72 99.815 437.72 99.615C437.72 99.515 437.72 99.415 437.82 99.415L438.82 97.915L439.82 96.515L439.22 96.015C438.82 97.115 438.32 98.115 437.62 99.015C437.52 99.215 437.32 99.215 437.12 99.115C436.92 99.015 436.82 98.815 436.82 98.615C436.82 98.515 436.82 98.415 436.92 98.315C437.62 97.415 438.22 96.415 438.52 95.315V95.215L438.02 94.915C437.32 96.115 436.42 97.315 435.42 98.215C435.32 98.315 435.12 98.415 434.92 98.315C434.72 98.215 434.62 98.015 434.62 97.815C434.62 97.715 434.72 97.615 434.72 97.515C435.72 96.515 436.52 95.415 437.22 94.215L436.72 93.815C436.12 95.015 435.42 96.115 434.52 97.015C434.42 97.115 434.22 97.215 434.02 97.115C433.82 97.015 433.72 96.815 433.72 96.615C433.72 96.515 433.72 96.415 433.82 96.315C434.72 95.315 435.42 94.315 435.92 93.015L435.22 92.315C434.72 93.915 433.82 95.315 432.72 96.515C432.62 96.615 432.42 96.715 432.22 96.615C432.02 96.515 431.92 96.315 431.92 96.115C431.92 96.015 431.92 95.915 432.02 95.815C433.12 94.615 433.92 93.215 434.42 91.515L433.92 91.015C433.22 92.415 432.32 93.615 431.22 94.615C431.12 94.715 430.92 94.815 430.72 94.715C430.52 94.615 430.42 94.415 430.42 94.315C430.42 94.215 430.52 94.115 430.52 94.015C431.62 93.015 432.52 91.815 433.22 90.415L432.52 89.815C432.32 91.015 431.62 92.115 430.72 93.015C430.62 93.115 430.42 93.215 430.22 93.115C430.02 93.015 429.92 92.815 429.92 92.715C429.92 92.615 430.02 92.515 430.02 92.415C430.92 91.515 431.52 90.515 431.62 89.215V89.115L431.22 88.815C430.72 89.915 430.02 91.015 429.22 91.915C429.12 92.015 428.92 92.115 428.72 92.015C428.52 91.915 428.42 91.715 428.42 91.515C428.42 91.415 428.42 91.315 428.52 91.215C429.32 90.315 430.02 89.315 430.52 88.115L430.12 87.615C429.82 88.715 429.32 89.715 428.42 90.615C428.32 90.715 428.12 90.815 427.92 90.715C427.72 90.615 427.62 90.415 427.62 90.215C427.62 90.115 427.72 90.015 427.72 89.915C428.52 89.115 429.02 88.115 429.22 86.915V86.815L428.72 86.315L427.02 89.315C426.92 89.515 426.72 89.615 426.42 89.515C426.22 89.415 426.12 89.315 426.12 89.115C426.12 89.015 426.12 88.915 426.22 88.915L428.22 85.915L427.42 85.215C427.12 86.315 426.52 87.215 425.72 88.015C425.62 88.115 425.42 88.215 425.22 88.115C425.02 88.015 424.92 87.815 424.92 87.615C424.92 87.515 425.02 87.415 425.02 87.315C425.82 86.515 426.32 85.615 426.62 84.415L425.92 83.815C425.32 85.115 424.42 86.215 423.42 87.215C423.32 87.315 423.12 87.415 422.92 87.315C422.72 87.215 422.62 87.015 422.62 86.915C422.62 86.815 422.72 86.715 422.72 86.615C423.72 85.615 424.52 84.515 425.12 83.215L424.22 82.415C423.82 83.715 423.02 84.915 422.12 85.815C422.02 85.915 421.82 86.015 421.62 85.915C421.42 85.815 421.32 85.615 421.32 85.515C421.32 85.415 421.42 85.315 421.42 85.215C422.42 84.215 423.12 83.115 423.52 81.715L422.82 81.115C422.52 82.315 421.82 83.315 420.82 84.215C420.72 84.315 420.52 84.315 420.42 84.315C420.12 84.015 420.02 83.815 420.02 83.615C420.02 83.515 420.12 83.315 420.22 83.215C421.12 82.415 421.82 81.315 422.02 80.215L421.32 79.615C420.82 80.815 420.02 81.815 419.02 82.615C418.82 82.715 418.62 82.815 418.52 82.715C418.32 82.615 418.22 82.415 418.22 82.315C418.22 82.215 418.22 82.115 418.42 82.015C419.42 81.215 420.12 80.215 420.62 79.015L419.82 78.315C419.62 79.615 418.92 80.715 417.82 81.615C417.72 81.715 417.52 81.715 417.42 81.715C417.22 81.615 417.12 81.415 417.12 81.215C417.12 81.115 417.22 80.915 417.32 80.815C418.32 80.015 418.82 78.915 419.02 77.615V77.515L418.62 77.115C418.22 78.215 417.62 79.315 416.92 80.215C416.82 80.415 416.52 80.515 416.32 80.415C416.12 80.315 416.02 80.215 416.02 80.015C416.02 79.915 416.02 79.815 416.12 79.815C416.82 78.815 417.42 77.615 417.82 76.515L417.32 76.115C416.12 79.215 413.92 81.815 410.92 83.215L436.02 105.215ZM410.02 82.315C413.12 80.915 415.42 78.415 416.52 75.215L414.22 73.115C412.72 76.115 410.32 78.515 407.42 80.015L410.02 82.315ZM406.62 79.315C409.62 77.815 412.02 75.415 413.42 72.415L413.22 72.215C412.32 73.515 411.52 74.615 410.52 75.715L410.42 75.615L410.52 75.715C409.22 77.115 407.92 78.215 406.42 79.215L406.62 79.315ZM384.32 36.715C382.52 37.415 380.92 38.215 379.52 39.115C377.92 40.115 376.42 41.315 375.22 42.715C373.92 44.215 372.72 45.815 371.92 47.615C370.12 51.415 369.12 55.615 369.02 59.515C368.92 64.015 370.02 70.515 375.72 75.515C381.32 80.415 390.02 82.915 397.32 81.615C402.72 80.715 406.72 78.615 409.92 75.015C411.22 73.615 412.32 72.015 413.52 70.015C415.42 66.815 416.42 63.015 416.52 59.015C416.62 54.615 415.62 50.215 413.52 46.515C407.92 36.515 395.62 32.315 384.32 36.715Z" fill="#636363"/>
<path d="M396.42 77.4151C390.52 78.4151 383.42 76.4151 378.82 72.4151C374.02 68.3151 373.22 62.9151 373.32 59.2151C373.42 56.0151 374.22 52.6151 375.62 49.6151C377.02 46.7151 379.12 44.4151 381.82 42.6151C383.02 41.8151 384.32 41.2151 385.72 40.6151C394.92 37.0151 405.02 40.4151 409.62 48.7151C411.32 51.7151 412.12 55.2151 412.02 58.9151C411.92 62.2151 411.12 65.3151 409.52 67.9151C408.62 69.5151 407.62 70.8151 406.62 71.9151C404.12 74.9151 400.82 76.7151 396.42 77.4151ZM411.22 58.9151C411.32 55.4151 410.52 52.1151 408.92 49.2151C404.52 41.4151 395.02 38.1151 386.22 41.6151C384.82 42.1151 383.62 42.8151 382.42 43.5151C381.12 44.3151 380.02 45.2151 379.12 46.3151C378.12 47.4151 377.22 48.7151 376.52 50.1151C375.12 53.0151 374.32 56.3151 374.32 59.3151C374.22 62.8151 375.02 67.9151 379.52 71.8151C383.92 75.6151 390.62 77.5151 396.32 76.6151C400.52 75.9151 403.62 74.2151 406.12 71.5151C407.12 70.4151 408.02 69.1151 408.92 67.6151C410.32 65.0151 411.12 62.1151 411.22 58.9151Z" fill="#636363"/>
<path d="M376.62 58.4149C376.62 58.6149 376.42 58.8149 376.12 58.8149C375.92 58.8149 375.62 58.6149 375.62 58.3149L375.92 56.3149C375.92 56.1149 376.12 55.9149 376.42 55.9149C376.62 55.9149 376.92 56.1149 376.92 56.4149V56.5149L376.62 58.4149Z" fill="#636363"/>
<path d="M397.32 72.8149C397.42 72.7149 397.62 72.8149 397.72 72.8149C397.82 72.9149 397.92 73.1149 397.92 73.2149C397.92 73.4149 397.82 73.6149 397.62 73.6149C393.22 75.3149 388.32 74.8149 384.22 72.5149C380.12 70.1149 377.32 66.0149 376.52 61.2149C376.52 61.0149 376.72 60.8149 376.92 60.8149C377.12 60.8149 377.42 60.9149 377.42 61.2149C378.12 65.6149 380.72 69.4149 384.62 71.7149C388.62 73.9149 393.22 74.3149 397.32 72.8149Z" fill="#636363"/>
<path d="M406.82 56.9149C406.92 53.1149 405.12 49.4149 402.02 46.8149C398.72 44.1149 394.02 42.9149 389.02 43.6149C388.92 43.6149 388.72 43.6149 388.72 43.5149C388.62 43.4149 388.62 43.3149 388.62 43.1149C388.62 42.8149 388.82 42.6149 389.02 42.6149C394.42 41.9149 399.52 43.3149 403.02 46.4149C406.12 49.1149 407.92 53.0149 407.82 56.9149C407.82 57.5149 407.72 58.1149 407.62 58.6149C407.62 58.8149 407.42 59.0149 407.12 59.0149C406.92 59.0149 406.62 58.8149 406.72 58.5149C406.72 58.0149 406.72 57.5149 406.82 56.9149Z" fill="#636363"/>
<path d="M407.92 72.3151C404.42 76.1151 399.92 78.6151 395.12 79.3151H394.92C389.22 80.2151 383.02 78.1151 378.32 73.9151C373.72 69.8151 371.22 64.2151 371.32 58.6151V57.8151C371.62 53.2151 373.62 48.7151 376.92 45.1151C378.12 43.7151 379.52 42.6151 381.02 41.6151C387.52 37.3151 395.92 36.7151 402.72 40.1151C407.62 42.6151 411.42 47.0151 412.92 52.2151C413.52 54.1151 413.72 56.1151 413.72 58.1151C413.72 63.2151 411.62 68.3151 407.92 72.3151ZM412.12 52.5151C410.62 47.5151 407.02 43.3151 402.32 41.0151C395.82 37.7151 387.82 38.3151 381.52 42.4151C380.12 43.4151 378.72 44.5151 377.52 45.8151C374.32 49.2151 372.52 53.6151 372.22 57.9151V58.7151C372.22 64.0151 374.62 69.3151 379.02 73.2151C383.52 77.2151 389.42 79.2151 394.82 78.4151H395.02C399.52 77.7151 403.92 75.3151 407.22 71.7151C410.72 67.8151 412.72 63.0151 412.92 58.1151C412.92 56.2151 412.72 54.3151 412.12 52.5151Z" fill="#636363"/>
<path d="M460.087 87.6173C460.31 87.7804 460.623 87.7319 460.786 87.5091L463.443 83.8776C463.606 83.6547 463.558 83.3419 463.335 83.1788C463.112 83.0157 462.799 83.0642 462.636 83.287L460.274 86.5151L457.046 84.1529C456.823 83.9898 456.51 84.0383 456.347 84.2611C456.184 84.484 456.232 84.7968 456.455 84.9599L460.087 87.6173ZM460.876 87.1373C453.47 39.3177 431.568 15.6472 407.887 10.4087C384.224 5.17401 359.043 18.4083 345.24 43.8535L346.119 44.3303C359.759 19.1852 384.538 6.26765 407.671 11.3851C430.787 16.4987 452.515 39.6844 459.888 87.2904L460.876 87.1373Z" fill="#636363"/>
<path d="M1.50999 89.2411C1.47399 89.2231 1.40199 89.1961 1.29399 89.1601C1.18599 89.1241 1.06899 89.1061 0.942989 89.1061C0.726989 89.0521 0.546989 88.9351 0.402989 88.7551C0.276989 88.5751 0.213989 88.3681 0.213989 88.1341C0.213989 88.0081 0.222989 87.9091 0.240989 87.8371C0.294989 87.7831 0.339989 87.6391 0.375989 87.4051C0.429989 87.1891 0.45699 86.9911 0.45699 86.8111C0.51099 86.7031 0.555989 86.5951 0.591989 86.4871C0.627989 86.3611 0.672989 86.1901 0.726989 85.9741C0.870989 85.1821 1.20399 83.8501 1.72599 81.9781C2.24799 80.1061 2.57199 79.1071 2.69799 78.9811V78.6841C2.69799 78.6301 2.71599 78.5221 2.75199 78.3601C2.78799 78.1981 2.86899 78.0271 2.99499 77.8471C3.06699 77.6311 3.12099 77.4241 3.15699 77.2261C3.21099 77.0101 3.24699 76.8481 3.26499 76.7401C3.33699 76.6501 3.45399 76.3801 3.61599 75.9301C3.79599 75.4801 3.91299 75.1831 3.96699 75.0391C4.09299 74.6971 4.24599 74.3011 4.42599 73.8511C4.62399 73.3831 4.75899 73.0771 4.83099 72.9331V72.7981C4.86699 72.7621 4.95699 72.5821 5.10099 72.2581C5.26299 71.9161 5.39799 71.6281 5.50599 71.3941C5.63199 71.1061 5.96499 70.3591 6.50499 69.1531C6.55899 69.0271 6.63999 68.8741 6.74799 68.6941C6.87399 68.4961 6.93699 68.3611 6.93699 68.2891C7.00899 68.1631 7.13499 68.1001 7.31499 68.1001C7.47699 68.1001 7.63899 68.1631 7.80099 68.2891C7.98099 68.3971 8.11599 68.5411 8.20599 68.7211L8.47599 69.1531L7.50399 71.0971C7.23399 71.5651 6.99999 72.0151 6.80199 72.4471C6.60399 72.8791 6.50499 73.1311 6.50499 73.2031C6.43299 73.3831 6.28899 73.7521 6.07299 74.3101C5.87499 74.8681 5.71299 75.3451 5.58699 75.7411C5.49699 76.0111 5.38899 76.2991 5.26299 76.6051C5.13699 76.8931 5.04699 77.1001 4.99299 77.2261C4.84899 77.5501 4.77699 77.7301 4.77699 77.7661C4.77699 77.6941 5.85699 77.6581 8.01699 77.6581C8.35899 77.6581 8.96199 77.6491 9.82599 77.6311C10.708 77.6131 11.257 77.5861 11.473 77.5501L12.877 77.4151L13.795 74.6341C13.975 74.0041 14.371 72.7801 14.983 70.9621C15.253 70.1881 15.469 69.6931 15.631 69.4771C15.793 69.2431 15.991 69.1261 16.225 69.1261C16.315 69.1261 16.441 69.1711 16.603 69.2611C16.783 69.3331 16.9 69.4321 16.954 69.5581C17.152 69.7561 17.251 69.9631 17.251 70.1791C17.251 70.4311 17.107 70.7821 16.819 71.2321C16.603 71.6101 16.297 72.3211 15.901 73.3651C15.739 73.8511 15.64 74.1301 15.604 74.2021C15.604 74.5801 15.514 74.8591 15.334 75.0391C15.262 75.1111 15.136 75.3721 14.956 75.8221C14.776 76.2541 14.686 76.5061 14.686 76.5781C14.686 76.7221 14.659 76.8841 14.605 77.0641C14.551 77.2261 14.488 77.3431 14.416 77.4151L14.227 78.0631C13.597 80.3491 13.102 81.9331 12.742 82.8151C12.742 82.9051 12.697 83.0671 12.607 83.3011C12.517 83.5351 12.472 83.6971 12.472 83.7871C12.436 83.9131 12.355 84.1651 12.229 84.5431C12.103 84.9211 12.04 85.1461 12.04 85.2181C12.004 85.4161 11.932 85.7311 11.824 86.1631C11.554 87.3871 11.419 88.0531 11.419 88.1611C11.383 88.1971 11.329 88.2151 11.257 88.2151C11.185 88.2151 11.068 88.1881 10.906 88.1341C10.762 88.0801 10.654 88.0351 10.582 87.9991C10.15 87.7651 9.93399 87.4951 9.93399 87.1891C9.93399 86.9911 10.015 86.7301 10.177 86.4061C10.231 86.3161 10.402 85.7311 10.69 84.6511L10.933 83.6521C11.041 83.3641 11.284 82.5091 11.662 81.0871C11.968 79.9891 12.139 79.4221 12.175 79.3861V79.1161C12.121 79.0261 11.464 78.9811 10.204 78.9811C8.78199 78.9811 7.47699 79.0531 6.28899 79.1971H5.01999H4.31799C4.22799 79.3951 3.94899 80.2321 3.48099 81.7081C3.03099 83.1661 2.77899 84.0841 2.72499 84.4621C2.59899 85.0561 2.40099 85.8841 2.13099 86.9461C1.86099 87.9901 1.65399 88.7551 1.50999 89.2411Z" fill="#636363"/>
<path d="M16.1292 86.0281C16.0752 85.9201 15.9852 85.8121 15.8592 85.7041C15.7512 85.5781 15.6972 85.4971 15.6972 85.4611C15.6972 85.2631 15.6522 85.1101 15.5622 85.0021C15.5262 84.9661 15.5082 84.8851 15.5082 84.7591C15.5082 84.4711 15.6432 83.9851 15.9132 83.3011C16.2012 82.5991 16.5702 81.8431 17.0202 81.0331C17.1282 80.9251 17.2632 80.7361 17.4252 80.4661C17.6052 80.1961 17.7222 80.0431 17.7762 80.0071C17.7762 79.9351 17.8032 79.8721 17.8572 79.8181C17.9112 79.7461 17.9742 79.7101 18.0462 79.7101V79.5481C18.0462 79.3861 18.3432 78.9991 18.9372 78.3871C19.5312 77.7571 20.0172 77.3251 20.3952 77.0911C20.8452 76.7851 21.3042 76.6321 21.7722 76.6321C22.0962 76.6321 22.3752 76.7221 22.6092 76.9021C22.6992 77.0101 23.1132 77.3971 23.8512 78.0631L24.8502 78.9541L24.3642 80.3041C24.2022 80.7901 24.1212 81.2311 24.1212 81.6271C24.1212 82.3111 24.3192 82.9681 24.7152 83.5981C24.8052 83.7961 24.9852 83.9851 25.2552 84.1651C25.5252 84.3451 25.7952 84.4531 26.0652 84.4891C26.4612 84.5611 26.6592 84.7591 26.6592 85.0831C26.6592 85.4431 26.4972 85.6591 26.1732 85.7311C26.1012 85.7491 25.9932 85.7581 25.8492 85.7581C24.7872 85.7581 23.8692 85.0111 23.0952 83.5171C23.0232 83.4091 22.9242 83.2111 22.7982 82.9231C22.6902 82.6351 22.6272 82.4371 22.6092 82.3291C22.5012 82.4731 22.3662 82.6441 22.2042 82.8421C22.0422 83.0401 21.8892 83.2111 21.7452 83.3551C19.7832 85.3171 18.2352 86.2981 17.1012 86.2981C16.7412 86.2981 16.4172 86.2081 16.1292 86.0281ZM17.1012 84.5161C17.1012 84.6061 17.1912 84.6331 17.3712 84.5971C17.5692 84.5611 17.8032 84.4711 18.0732 84.3271C18.3612 84.1831 18.6492 83.9941 18.9372 83.7601C20.4852 82.4281 21.6012 81.2671 22.2852 80.2771L22.8792 79.3051C22.6992 78.9271 22.5102 78.6571 22.3122 78.4951C22.1142 78.3151 21.9342 78.2251 21.7722 78.2251C21.3942 78.2251 20.8002 78.7021 19.9902 79.6561C19.1802 80.5921 18.4422 81.6991 17.7762 82.9771C17.6142 83.2831 17.4702 83.5981 17.3442 83.9221C17.2182 84.2281 17.1372 84.4261 17.1012 84.5161Z" fill="#636363"/>
<path d="M30.0754 86.9191C30.0214 86.9191 29.8414 86.9281 29.5354 86.9461C29.2474 86.9461 28.9684 86.8831 28.6984 86.7571C28.4284 86.6131 28.2034 86.3971 28.0234 86.1091C27.8974 85.8751 27.7894 85.6051 27.6994 85.2991C27.6094 84.9931 27.5644 84.7321 27.5644 84.5161C27.5644 84.4261 27.5824 84.3271 27.6184 84.2191C27.9604 82.2391 28.2394 80.9881 28.4554 80.4661L28.8874 79.4131C28.9774 79.1251 29.0044 78.8011 28.9684 78.4411V78.3331C28.9684 78.0991 29.0584 77.9011 29.2384 77.7391C29.5444 77.5051 29.7874 77.1991 29.9674 76.8211C30.0934 76.5151 30.2914 76.1011 30.5614 75.5791C30.8314 75.0571 31.0294 74.7151 31.1554 74.5531C31.3534 74.2831 31.5334 74.0221 31.6954 73.7701C31.7314 73.7161 31.8574 73.5271 32.0734 73.2031C32.3074 72.8611 32.5684 72.5731 32.8564 72.3391C33.1984 71.7631 33.8734 71.0701 34.8814 70.2601C35.3134 69.9001 35.5834 69.6661 35.6914 69.5581C35.7454 69.5041 35.9074 69.4501 36.1774 69.3961C36.4474 69.3241 36.6184 69.2791 36.6904 69.2611C36.8344 69.2251 37.0774 69.1621 37.4194 69.0721C37.5274 69.0181 37.7254 69.0631 38.0134 69.2071C38.3194 69.3331 38.5444 69.4771 38.6884 69.6391C38.9764 70.1431 39.1204 70.5391 39.1204 70.8271C39.1204 71.0611 39.0664 71.3221 38.9584 71.6101C38.8504 71.8981 38.6434 72.3661 38.3374 73.0141C37.6894 74.3101 36.5104 75.5431 34.8004 76.7131C34.1524 77.2891 33.4234 77.7931 32.6134 78.2251C32.0194 78.5311 31.5334 78.7471 31.1554 78.8731C30.8674 78.9631 30.6604 79.1701 30.5344 79.4941C30.4624 79.6561 30.3994 79.8541 30.3454 80.0881C30.3094 80.3221 30.2554 80.4751 30.1834 80.5471C30.0754 80.6551 29.8954 81.2581 29.6434 82.3561C29.3914 83.4541 29.2654 84.2011 29.2654 84.5971C29.2654 84.7411 29.2834 84.8671 29.3194 84.9751C29.3554 85.0831 29.4364 85.1641 29.5624 85.2181C29.8144 85.1641 30.0124 85.0831 30.1564 84.9751C30.3184 84.8491 30.5164 84.6511 30.7504 84.3811C31.2544 83.7511 31.6144 83.1481 31.8304 82.5721C31.8844 82.4101 31.9384 82.2031 31.9924 81.9511C32.0464 81.6811 32.1094 81.4741 32.1814 81.3301C32.1814 80.7001 32.1724 80.2951 32.1544 80.1151C32.1364 79.9171 32.0734 79.6831 31.9654 79.4131C32.0554 79.3591 32.1274 79.3051 32.1814 79.2511C32.2534 79.1791 32.3434 79.1521 32.4514 79.1701C32.8654 79.2601 33.2884 79.5121 33.7204 79.9261C33.8464 80.0521 33.8824 80.2051 33.8284 80.3851C33.7564 80.9611 33.7204 81.3751 33.7204 81.6271C33.6664 81.7531 33.5764 82.0321 33.4504 82.4641C33.4324 82.6981 33.3784 82.9231 33.2884 83.1391C32.9644 83.8051 32.7304 84.2551 32.5864 84.4891C32.1904 85.2271 31.6504 85.8571 30.9664 86.3791L30.0754 86.9191ZM37.5544 70.1521C37.0324 70.3861 36.6184 70.6111 36.3124 70.8271C36.0244 71.0251 35.6554 71.3491 35.2054 71.7991C34.7734 72.2311 34.1794 72.9691 33.4234 74.0131C32.6854 75.0391 32.1904 75.8671 31.9384 76.4971C32.0284 76.5151 32.1364 76.5241 32.2624 76.5241C32.4424 76.5241 32.5954 76.4341 32.7214 76.2541C33.9994 75.3721 34.9984 74.6071 35.7184 73.9591C36.4384 73.2931 36.9064 72.6721 37.1224 72.0961C37.1944 71.9521 37.2934 71.7721 37.4194 71.5561C37.5454 71.3221 37.6264 71.1061 37.6624 70.9081L37.5544 70.1521Z" fill="#636363"/>
<path d="M40.7049 86.0551C40.2549 86.4511 39.7149 86.6491 39.0849 86.6491C38.6349 86.6491 38.2029 86.5411 37.7889 86.3251C37.3929 86.1091 37.0599 85.8121 36.7899 85.4341C36.5559 85.1461 36.3849 84.8221 36.2769 84.4621C36.1689 84.1021 36.1149 83.6611 36.1149 83.1391C36.1149 82.9591 36.1329 82.5991 36.1689 82.0591C36.2229 81.3931 36.4389 80.7001 36.8169 79.9801C37.2129 79.2601 37.6989 78.6211 38.2749 78.0631C38.8509 77.4871 39.4179 77.0911 39.9759 76.8751C40.2639 76.6951 40.5249 76.6051 40.7589 76.6051C40.8849 76.6051 41.0109 76.6141 41.1369 76.6321C41.2629 76.6501 41.3979 76.6681 41.5419 76.6861C41.9379 76.7401 42.2349 76.8211 42.4329 76.9291C42.6489 77.0191 42.8289 77.1631 42.9729 77.3611C43.4229 77.8111 43.6479 78.3331 43.6479 78.9271C43.5759 79.3591 43.2969 79.8541 42.8109 80.4121C42.3249 80.9701 41.7399 81.4201 41.0559 81.7621C40.7319 81.8701 40.3629 81.9241 39.9489 81.9241C39.3909 81.9241 38.9409 81.8071 38.5989 81.5731C38.4369 81.5191 38.3109 81.4921 38.2209 81.4921C38.0589 81.4921 37.9329 81.6001 37.8429 81.8161C37.7709 82.0321 37.6989 82.4281 37.6269 83.0041C37.6089 83.1301 37.5999 83.3101 37.5999 83.5441C37.5999 84.4621 37.9059 84.9661 38.5179 85.0561C38.9319 85.1461 39.2289 85.1911 39.4089 85.1911C39.6249 85.1911 39.8679 85.1191 40.1379 84.9751L40.6509 84.6781C40.7589 84.6241 40.8579 84.5521 40.9479 84.4621C41.0379 84.3721 41.1189 84.2911 41.1909 84.2191C41.2269 84.1831 41.2809 84.1291 41.3529 84.0571C41.4249 83.9671 41.4879 83.9131 41.5419 83.8951C41.6139 83.8591 41.6769 83.8411 41.7309 83.8411C41.8029 83.8411 41.8839 83.8861 41.9739 83.9761C42.0639 84.0481 42.1359 84.1021 42.1899 84.1381C42.3519 84.1381 42.3879 84.2551 42.2979 84.4891C42.2079 84.7051 42.0099 84.9661 41.7039 85.2721C41.4159 85.5601 41.0829 85.8211 40.7049 86.0551ZM40.6779 80.3311C40.9839 80.2051 41.2899 79.9801 41.5959 79.6561C41.9199 79.3321 42.0819 79.0621 42.0819 78.8461C42.0819 78.6301 42.0009 78.4501 41.8389 78.3061C41.6769 78.1621 41.4519 78.0901 41.1639 78.0901C40.9479 78.0901 40.7859 78.1081 40.6779 78.1441C40.4259 78.2161 40.1289 78.4141 39.7869 78.7381C39.4449 79.0441 39.1479 79.3591 38.8959 79.6831C38.6439 80.0071 38.5449 80.1961 38.5989 80.2501C38.6889 80.4121 39.0399 80.4931 39.6519 80.4931C40.0659 80.4931 40.4079 80.4391 40.6779 80.3311Z" fill="#636363"/>
<path d="M48.0668 69.7471C48.4268 69.6751 48.6878 69.6391 48.8498 69.6391C49.1558 69.6391 49.4258 69.7111 49.6598 69.8551C50.5598 70.1431 51.2528 70.5571 51.7388 71.0971C52.2248 71.6371 52.5578 72.2761 52.7378 73.0141C52.9358 73.7521 53.0528 74.6791 53.0888 75.7951C53.1068 75.9571 53.1158 76.1731 53.1158 76.4431C53.1158 76.6771 53.0888 77.0911 53.0348 77.6851C52.9268 77.8291 52.8638 78.0091 52.8458 78.2251C52.8278 78.4411 52.8188 78.5671 52.8188 78.6031C52.8188 78.9631 52.7828 79.2241 52.7108 79.3861C52.6928 79.6201 52.6208 79.8721 52.4948 80.1421C52.3688 80.4121 52.3058 80.6011 52.3058 80.7091C51.7838 82.1851 51.0278 83.5081 50.0378 84.6781C49.0478 85.8481 47.9768 86.5681 46.8248 86.8381C46.7348 86.8741 46.5008 86.8021 46.1228 86.6221C45.7448 86.4241 45.4658 86.2261 45.2858 86.0281C45.1058 85.8121 44.9618 85.6141 44.8538 85.4341C44.7638 85.2541 44.7188 85.0471 44.7188 84.8131C44.6108 84.5611 44.5388 84.3091 44.5028 84.0571C44.4848 83.7871 44.4758 83.4451 44.4758 83.0311C44.4758 82.6531 44.5478 82.2841 44.6918 81.9241C44.8358 81.5641 45.0338 81.1321 45.2858 80.6281C45.4478 80.1781 45.8078 79.6291 46.3658 78.9811C46.9418 78.3151 47.5448 77.8291 48.1748 77.5231C48.6788 77.2531 49.1108 77.1181 49.4708 77.1181C49.6868 77.1181 49.8939 77.1541 50.0919 77.2261C50.3079 77.2801 50.4699 77.3701 50.5779 77.4961C50.6859 77.6041 50.7668 77.6761 50.8209 77.7121C50.9649 77.5681 51.0908 77.2441 51.1988 76.7401C51.3248 76.2181 51.3878 75.6601 51.3878 75.0661C51.3878 73.9501 51.1989 73.1401 50.8209 72.6361C50.2268 71.7901 49.5338 71.3671 48.7418 71.3671C48.4358 71.3671 48.0578 71.4571 47.6078 71.6371C47.3738 71.5291 47.1758 71.3491 47.0138 71.0971C46.8518 70.8451 46.8068 70.6021 46.8788 70.3681C47.2928 70.0261 47.6888 69.8191 48.0668 69.7471ZM50.6858 78.7651C50.5418 78.6211 50.3528 78.5491 50.1188 78.5491C49.6688 78.5491 49.1198 78.7741 48.4718 79.2241C48.2558 79.3861 48.0398 79.6111 47.8238 79.8991C47.6258 80.1691 47.4998 80.3401 47.4458 80.4121C47.2658 80.7001 47.1218 80.9071 47.0138 81.0331V81.0871C47.0138 81.2131 46.9598 81.3211 46.8518 81.4111C46.7618 81.5011 46.6988 81.5731 46.6628 81.6271C46.4648 82.0051 46.3208 82.3921 46.2308 82.7881C46.1408 83.1661 46.0958 83.4361 46.0958 83.5981C46.0958 83.9221 46.1408 84.2281 46.2308 84.5161C46.3388 84.8041 46.4828 84.9931 46.6628 85.0831C46.9148 85.1911 47.3468 84.9931 47.9588 84.4891C48.5888 83.9671 49.1108 83.4091 49.5248 82.8151C49.6328 82.6531 49.8038 82.3471 50.0378 81.8971C50.2718 81.4291 50.4429 81.0781 50.5508 80.8441C50.7489 80.3041 50.8478 79.8181 50.8478 79.3861C50.8478 79.0801 50.7938 78.8731 50.6858 78.7651Z" fill="#636363"/>
<path d="M60.1774 86.9461C59.7454 86.5321 59.4214 85.9201 59.2054 85.1101C59.1694 85.0021 59.1514 84.8131 59.1514 84.5431C59.1514 84.2731 59.1514 84.0841 59.1514 83.9761C59.0434 84.2461 58.8454 84.4891 58.5574 84.7051C58.1434 85.1191 57.7294 85.4251 57.3154 85.6231C56.6854 86.0371 56.1724 86.2441 55.7764 86.2441C55.4164 86.2441 55.0744 86.0461 54.7504 85.6501C54.5164 85.4521 54.3364 85.2541 54.2104 85.0561C54.1024 84.8581 54.0484 84.6151 54.0484 84.3271C54.0484 84.1291 54.0754 83.9131 54.1294 83.6791C54.1654 83.0131 54.2554 82.3741 54.3994 81.7621C54.5614 81.1501 54.8584 80.3671 55.2904 79.4131C55.8664 78.2791 56.2804 77.5231 56.5324 77.1451C56.6224 77.1091 56.7394 77.0911 56.8834 77.0911C57.0634 77.0911 57.2074 77.1451 57.3154 77.2531C57.4414 77.3611 57.5134 77.5051 57.5314 77.6851C57.5854 77.7571 57.6124 77.8561 57.6124 77.9821C57.6124 78.4321 57.3424 79.1701 56.8024 80.1961C56.1004 81.8881 55.7494 83.0581 55.7494 83.7061C55.7494 84.0841 55.8574 84.3091 56.0734 84.3811C56.1634 84.4351 56.2624 84.4621 56.3704 84.4621C56.8204 84.4621 57.3604 84.1561 57.9904 83.5441C58.6204 82.9321 59.2234 81.9511 59.7994 80.6011C60.0514 79.9891 60.2044 79.3591 60.2584 78.7111C60.2404 78.6571 60.2314 78.5761 60.2314 78.4681C60.2314 78.1441 60.3934 77.8831 60.7174 77.6851C60.7894 77.5771 60.8884 77.4961 61.0144 77.4421C61.1404 77.3701 61.2214 77.3701 61.2574 77.4421L61.6894 77.4151C61.7434 77.3971 61.7974 77.4511 61.8514 77.5771C61.9054 77.6851 61.9594 77.7571 62.0134 77.7931C62.1394 77.9011 62.2024 78.0991 62.2024 78.3871C62.2024 78.9811 61.9414 79.8901 61.4194 81.1141C61.0774 81.8341 60.8434 82.3921 60.7174 82.7881C60.6094 83.1661 60.5464 83.5351 60.5284 83.8951C60.5284 84.5791 60.7894 85.1461 61.3114 85.5961C61.4914 85.7221 61.5994 85.8571 61.6354 86.0011C61.6714 86.1451 61.6804 86.3431 61.6624 86.5951C61.6264 86.7571 61.5184 86.8921 61.3384 87.0001C61.1764 87.0901 60.9964 87.1351 60.7984 87.1351C60.5644 87.1351 60.3574 87.0721 60.1774 86.9461Z" fill="#636363"/>
<path d="M78.1406 77.4151C78.3386 77.3071 78.5366 77.2531 78.7346 77.2531C78.9866 77.2531 79.2026 77.3341 79.3826 77.4961C79.5806 77.6401 79.6796 77.8291 79.6796 78.0631C79.6796 78.0991 79.6616 78.1891 79.6256 78.3331C79.6796 78.0991 79.4906 78.4861 79.0586 79.4941C78.6266 80.5021 78.3926 81.0421 78.3566 81.1141V81.1951C78.6086 81.1951 78.7706 81.2761 78.8426 81.4381C78.9326 81.5821 78.9686 81.7801 78.9506 82.0321C78.7886 82.0681 78.6356 82.1311 78.4916 82.2211C78.3476 82.3111 78.2306 82.3561 78.1406 82.3561C78.0866 82.3561 78.0236 82.3831 77.9516 82.4371C77.8796 82.4911 77.8346 82.5541 77.8166 82.6261C77.7806 82.6981 77.7176 82.9771 77.6276 83.4631L77.1416 85.4071C77.1056 85.5331 77.0426 85.6411 76.9526 85.7311C76.8626 85.8211 76.7816 85.8751 76.7096 85.8931C76.6376 85.8751 76.4936 85.8301 76.2776 85.7581C76.0796 85.6681 75.9446 85.6051 75.8726 85.5691C75.8006 85.5151 75.7286 85.4611 75.6566 85.4071V85.2451C75.6566 84.9931 75.7016 84.7321 75.7916 84.4621C75.9356 84.0301 76.0796 83.4271 76.2236 82.6531C76.0796 82.5991 75.7196 82.6261 75.1436 82.7341C74.5676 82.8241 74.2526 82.8691 74.1986 82.8691C74.0906 82.9231 73.8746 82.9501 73.5506 82.9501C73.0286 82.9501 72.6596 82.9051 72.4436 82.8151L72.2816 82.8961C72.2456 83.0581 72.1916 83.2381 72.1196 83.4361C71.9216 83.9941 71.8226 84.4081 71.8226 84.6781C71.7866 84.9301 71.7506 85.1371 71.7146 85.2991C71.6786 85.4791 71.6426 85.7491 71.6066 86.1091C71.5886 86.6131 71.4176 86.8651 71.0936 86.8651C70.8956 86.8651 70.6796 86.7931 70.4456 86.6491C70.3196 86.5771 70.1486 86.4331 69.9326 86.2171L70.3646 84.1381C70.4186 83.9761 70.4726 83.7511 70.5266 83.4631C70.5986 83.1751 70.6706 82.9411 70.7426 82.7611L71.0396 81.9241C71.2556 81.2941 71.4536 80.7811 71.6336 80.3851C71.6336 80.3851 71.8226 79.8541 72.2006 78.7921C72.2546 78.6661 72.3716 78.3241 72.5516 77.7661C72.7496 77.1901 72.8666 76.8571 72.9026 76.7671C72.9746 76.5691 73.1186 76.4701 73.3346 76.4701C73.6226 76.4521 73.8656 76.5241 74.0636 76.6861C74.2796 76.8301 74.3966 77.0101 74.4146 77.2261C74.4146 77.2801 74.4056 77.3701 74.3876 77.4961C74.3696 77.6041 74.3516 77.6851 74.3336 77.7391L72.9296 81.1681V81.3841C73.0016 81.4381 73.1276 81.4651 73.3076 81.4651C73.4516 81.4651 73.6676 81.4381 73.9556 81.3841C74.2616 81.3301 74.4506 81.3031 74.5226 81.3031C74.6846 81.2851 74.9276 81.2671 75.2516 81.2491C75.5756 81.2311 75.8996 81.2221 76.2236 81.2221C76.4756 81.2221 76.6106 81.2311 76.6286 81.2491L76.9256 80.3851C77.2136 79.5031 77.5196 78.7921 77.8436 78.2521C77.8616 78.1981 77.8976 78.0991 77.9516 77.9551C78.0056 77.7931 78.0686 77.6131 78.1406 77.4151Z" fill="#636363"/>
<path d="M80.887 86.0281C80.833 85.9201 80.743 85.8121 80.617 85.7041C80.509 85.5781 80.455 85.4971 80.455 85.4611C80.455 85.2631 80.41 85.1101 80.32 85.0021C80.284 84.9661 80.266 84.8851 80.266 84.7591C80.266 84.4711 80.401 83.9851 80.671 83.3011C80.959 82.5991 81.328 81.8431 81.778 81.0331C81.886 80.9251 82.021 80.7361 82.183 80.4661C82.363 80.1961 82.48 80.0431 82.534 80.0071C82.534 79.9351 82.561 79.8721 82.615 79.8181C82.669 79.7461 82.732 79.7101 82.804 79.7101V79.5481C82.804 79.3861 83.101 78.9991 83.695 78.3871C84.289 77.7571 84.775 77.3251 85.153 77.0911C85.603 76.7851 86.062 76.6321 86.53 76.6321C86.854 76.6321 87.133 76.7221 87.367 76.9021C87.457 77.0101 87.871 77.3971 88.609 78.0631L89.608 78.9541L89.122 80.3041C88.96 80.7901 88.879 81.2311 88.879 81.6271C88.879 82.3111 89.077 82.9681 89.473 83.5981C89.563 83.7961 89.743 83.9851 90.013 84.1651C90.283 84.3451 90.553 84.4531 90.823 84.4891C91.219 84.5611 91.417 84.7591 91.417 85.0831C91.417 85.4431 91.255 85.6591 90.931 85.7311C90.859 85.7491 90.751 85.7581 90.607 85.7581C89.545 85.7581 88.627 85.0111 87.853 83.5171C87.781 83.4091 87.682 83.2111 87.556 82.9231C87.448 82.6351 87.385 82.4371 87.367 82.3291C87.259 82.4731 87.124 82.6441 86.962 82.8421C86.8 83.0401 86.647 83.2111 86.503 83.3551C84.541 85.3171 82.993 86.2981 81.859 86.2981C81.499 86.2981 81.175 86.2081 80.887 86.0281ZM81.859 84.5161C81.859 84.6061 81.949 84.6331 82.129 84.5971C82.327 84.5611 82.561 84.4711 82.831 84.3271C83.119 84.1831 83.407 83.9941 83.695 83.7601C85.243 82.4281 86.359 81.2671 87.043 80.2771L87.637 79.3051C87.457 78.9271 87.268 78.6571 87.07 78.4951C86.872 78.3151 86.692 78.2251 86.53 78.2251C86.152 78.2251 85.558 78.7021 84.748 79.6561C83.938 80.5921 83.2 81.6991 82.534 82.9771C82.372 83.2831 82.228 83.5981 82.102 83.9221C81.976 84.2281 81.895 84.4261 81.859 84.5161Z" fill="#636363"/>
<path d="M102.83 76.6591C102.866 76.6771 102.92 76.7041 102.992 76.7401C103.064 76.7581 103.118 76.7941 103.154 76.8481C103.334 77.0281 103.424 77.2351 103.424 77.4691C103.424 77.5951 103.379 77.7481 103.289 77.9281C103.163 78.1621 103.028 78.3871 102.884 78.6031C102.65 78.9991 102.452 79.3591 102.29 79.6831C102.146 80.0071 101.975 80.4661 101.777 81.0601C102.245 80.9521 102.551 80.8621 102.695 80.7901C102.839 80.7001 103.082 80.4661 103.424 80.0881C103.748 79.7641 104.054 79.4761 104.342 79.2241C105.44 78.1621 106.025 77.5861 106.097 77.4961C106.241 77.2801 106.367 77.1181 106.475 77.0101C106.583 76.8841 106.727 76.7941 106.907 76.7401C107.159 76.7761 107.33 76.8211 107.42 76.8751C107.528 76.9291 107.753 77.0911 108.095 77.3611C108.167 77.4331 108.203 77.5591 108.203 77.7391C108.203 78.0811 108.104 78.3241 107.906 78.4681C107.852 78.5041 107.501 78.7831 106.853 79.3051C105.539 80.4031 104.423 81.2671 103.505 81.8971C103.901 82.5271 104.288 83.2291 104.666 84.0031C104.702 84.4351 104.855 84.7321 105.125 84.8941C105.395 85.0561 105.773 85.1371 106.259 85.1371C106.403 85.2091 106.493 85.2991 106.529 85.4071C106.583 85.5151 106.61 85.6321 106.61 85.7581C106.628 85.8841 106.646 85.9831 106.664 86.0551C106.502 86.1631 106.34 86.2981 106.178 86.4601C106.016 86.6041 105.881 86.6761 105.773 86.6761C105.647 86.6761 105.449 86.6221 105.179 86.5141C104.927 86.4241 104.693 86.2981 104.477 86.1361C104.261 85.9561 104.036 85.7311 103.802 85.4611C103.586 85.2091 103.163 84.5701 102.533 83.5441C101.903 82.5181 101.552 81.9421 101.48 81.8161C101.426 81.9601 101.354 82.1221 101.264 82.3021C101.192 82.4641 101.138 82.6171 101.102 82.7611C101.066 82.8871 101.048 83.0581 101.048 83.2741C100.868 83.5261 100.724 83.8501 100.616 84.2461C100.526 84.6241 100.454 84.8941 100.4 85.0561C100.292 85.4521 100.058 85.7761 99.6982 86.0281C99.3742 86.0101 99.0592 85.8121 98.7532 85.4341C98.6632 85.2721 98.6182 85.0921 98.6182 84.8941C98.6182 84.6961 98.6632 84.4801 98.7532 84.2461C98.7892 84.0841 98.9152 83.7061 99.1312 83.1121C99.3472 82.5181 99.5182 82.0411 99.6442 81.6811C99.7342 81.4471 99.8782 81.0511 100.076 80.4931C100.292 79.9171 100.409 79.5751 100.427 79.4671C100.481 79.2331 100.643 78.9001 100.913 78.4681C101.273 77.8381 101.498 77.3161 101.588 76.9021C101.624 76.7761 101.714 76.6591 101.858 76.5511C102.02 76.4251 102.182 76.3621 102.344 76.3621C102.542 76.3621 102.704 76.4611 102.83 76.6591Z" fill="#636363"/>
<path d="M109.205 86.0281C109.151 85.9201 109.061 85.8121 108.935 85.7041C108.827 85.5781 108.773 85.4971 108.773 85.4611C108.773 85.2631 108.728 85.1101 108.638 85.0021C108.602 84.9661 108.584 84.8851 108.584 84.7591C108.584 84.4711 108.719 83.9851 108.989 83.3011C109.277 82.5991 109.646 81.8431 110.096 81.0331C110.204 80.9251 110.339 80.7361 110.501 80.4661C110.681 80.1961 110.798 80.0431 110.852 80.0071C110.852 79.9351 110.879 79.8721 110.933 79.8181C110.987 79.7461 111.05 79.7101 111.122 79.7101V79.5481C111.122 79.3861 111.419 78.9991 112.013 78.3871C112.607 77.7571 113.093 77.3251 113.471 77.0911C113.921 76.7851 114.38 76.6321 114.848 76.6321C115.172 76.6321 115.451 76.7221 115.685 76.9021C115.775 77.0101 116.189 77.3971 116.927 78.0631L117.926 78.9541L117.44 80.3041C117.278 80.7901 117.197 81.2311 117.197 81.6271C117.197 82.3111 117.395 82.9681 117.791 83.5981C117.881 83.7961 118.061 83.9851 118.331 84.1651C118.601 84.3451 118.871 84.4531 119.141 84.4891C119.537 84.5611 119.735 84.7591 119.735 85.0831C119.735 85.4431 119.573 85.6591 119.249 85.7311C119.177 85.7491 119.069 85.7581 118.925 85.7581C117.863 85.7581 116.945 85.0111 116.171 83.5171C116.099 83.4091 116 83.2111 115.874 82.9231C115.766 82.6351 115.703 82.4371 115.685 82.3291C115.577 82.4731 115.442 82.6441 115.28 82.8421C115.118 83.0401 114.965 83.2111 114.821 83.3551C112.859 85.3171 111.311 86.2981 110.177 86.2981C109.817 86.2981 109.493 86.2081 109.205 86.0281ZM110.177 84.5161C110.177 84.6061 110.267 84.6331 110.447 84.5971C110.645 84.5611 110.879 84.4711 111.149 84.3271C111.437 84.1831 111.725 83.9941 112.013 83.7601C113.561 82.4281 114.677 81.2671 115.361 80.2771L115.955 79.3051C115.775 78.9271 115.586 78.6571 115.388 78.4951C115.19 78.3151 115.01 78.2251 114.848 78.2251C114.47 78.2251 113.876 78.7021 113.066 79.6561C112.256 80.5921 111.518 81.6991 110.852 82.9771C110.69 83.2831 110.546 83.5981 110.42 83.9221C110.294 84.2281 110.213 84.4261 110.177 84.5161Z" fill="#636363"/>
<path d="M119.534 93.0751C119.39 93.0751 119.273 92.9941 119.183 92.8321C119.093 92.7061 119.048 92.5531 119.048 92.3731C119.048 92.2471 119.093 91.9411 119.183 91.4551C119.381 90.6991 119.48 90.1771 119.48 89.8891C119.48 89.7991 119.498 89.6641 119.534 89.4841C119.57 89.3221 119.597 89.1691 119.615 89.0251C119.687 88.8991 119.75 88.7011 119.804 88.4311C119.876 88.1791 119.912 87.9541 119.912 87.7561C119.912 87.6661 119.939 87.5581 119.993 87.4321C120.065 87.3241 120.146 87.2341 120.236 87.1621C120.236 87.0541 120.263 86.8921 120.317 86.6761C120.371 86.4421 120.407 86.2801 120.425 86.1901C120.515 85.7041 120.866 84.5521 121.478 82.7341C122.09 80.9161 122.612 79.4491 123.044 78.3331C123.242 77.8831 123.386 77.4691 123.476 77.0911C123.566 76.7131 123.611 76.4161 123.611 76.2001C123.611 76.1281 123.629 76.0651 123.665 76.0111C123.719 75.9391 123.8 75.8491 123.908 75.7411C124.034 75.6151 124.151 75.5521 124.259 75.5521C124.349 75.5521 124.448 75.5881 124.556 75.6601C124.664 75.7321 124.772 75.8131 124.88 75.9031C124.988 76.0651 125.069 76.2181 125.123 76.3621C125.195 76.5061 125.231 76.6591 125.231 76.8211C125.231 76.8751 125.213 77.0461 125.177 77.3341C125.177 77.7121 125.096 78.0271 124.934 78.2791C124.772 78.5131 124.709 78.6211 124.745 78.6031C125.555 78.2251 126.275 78.0361 126.905 78.0361C127.661 78.0361 128.246 78.2791 128.66 78.7651C129.092 79.2511 129.308 79.8811 129.308 80.6551C129.308 80.9791 129.209 81.3751 129.011 81.8431C128.831 82.2931 128.651 82.5991 128.471 82.7611C128.363 82.7611 128.219 82.9501 128.039 83.3281C127.805 83.6161 127.418 83.9221 126.878 84.2461C126.338 84.5521 125.96 84.6691 125.744 84.5971C125.726 84.5971 125.699 84.6061 125.663 84.6241C125.627 84.6421 125.609 84.6871 125.609 84.7591C125.609 84.8311 125.303 84.9661 124.691 85.1641C124.079 85.3621 123.575 85.4611 123.179 85.4611C122.963 85.4611 122.801 85.4521 122.693 85.4341C122.585 85.3981 122.477 85.3351 122.369 85.2451C122.243 85.3711 122.18 85.4881 122.18 85.5961C122.18 85.7941 122.09 86.1541 121.91 86.6761C121.73 87.1981 121.586 87.4591 121.478 87.4591C121.46 87.4771 121.433 87.5131 121.397 87.5671C121.379 87.6211 121.406 87.6841 121.478 87.7561C121.478 87.8101 121.469 87.9361 121.451 88.1341C121.433 88.3321 121.388 88.4851 121.316 88.5931C121.316 88.7551 121.289 88.9711 121.235 89.2411C121.181 89.5291 121.118 89.7451 121.046 89.8891C121.046 90.1051 121.01 90.3121 120.938 90.5101C120.884 90.7261 120.821 90.8341 120.749 90.8341C120.641 90.8701 120.587 91.1311 120.587 91.6171C120.569 92.0671 120.479 92.4181 120.317 92.6701C120.155 92.9221 119.966 93.0481 119.75 93.0481L119.534 93.0751ZM123.017 84.0301C123.287 84.0301 123.827 83.8951 124.637 83.6251C125.465 83.3371 126.041 83.0581 126.365 82.7881C126.743 82.4641 127.049 82.1221 127.283 81.7621C127.517 81.3841 127.634 81.0061 127.634 80.6281C127.634 80.3401 127.553 80.0791 127.391 79.8451C127.265 79.6471 127.049 79.5481 126.743 79.5481C126.383 79.5481 125.951 79.6741 125.447 79.9261C124.961 80.1781 124.511 80.5111 124.097 80.9251C123.773 81.2491 123.485 81.7171 123.233 82.3291C122.981 82.9231 122.855 83.3911 122.855 83.7331C122.855 83.9311 122.909 84.0301 123.017 84.0301Z" fill="#636363"/>
<path d="M143.4 84.6511C143.472 84.7051 143.508 84.7861 143.508 84.8941C143.508 85.0201 143.463 85.1461 143.373 85.2721C143.301 85.3801 143.229 85.4341 143.157 85.4341C142.815 85.4341 142.482 85.3441 142.158 85.1641C141.852 84.9661 141.699 84.6601 141.699 84.2461V82.5721C141.699 81.7261 141.636 81.2491 141.51 81.1411C141.24 80.9971 140.772 81.2941 140.106 82.0321C139.458 82.7701 138.828 83.6431 138.216 84.6511C138.018 84.9751 137.856 85.2271 137.73 85.4071C137.604 85.5871 137.505 85.6771 137.433 85.6771C137.379 85.6771 137.289 85.6321 137.163 85.5421C136.605 85.3801 136.326 85.0651 136.326 84.5971C136.326 84.5431 136.344 84.4261 136.38 84.2461C136.56 83.6521 136.74 82.9951 136.92 82.2751C137.1 81.5371 137.244 80.9161 137.352 80.4121C137.298 80.3041 137.208 80.2501 137.082 80.2501C136.902 80.2501 136.695 80.3401 136.461 80.5201C136.011 80.8261 135.435 81.5551 134.733 82.7071C133.851 84.0571 133.239 84.8761 132.897 85.1641C132.771 85.3801 132.654 85.5511 132.546 85.6771C132.456 85.7851 132.366 85.8391 132.276 85.8391C132.204 85.8391 132.069 85.7851 131.871 85.6771C131.349 85.3711 131.088 84.9391 131.088 84.3811C131.088 84.1111 131.169 83.5711 131.331 82.7611C131.493 81.9511 131.673 81.1951 131.871 80.4931C132.033 80.1871 132.177 79.8721 132.303 79.5481C132.447 79.2061 132.519 78.9991 132.519 78.9271C132.591 78.5491 132.681 78.1441 132.789 77.7121C132.897 77.2801 132.978 77.0371 133.032 76.9831C133.158 76.8571 133.302 76.7941 133.464 76.7941C133.734 76.7941 133.932 76.9381 134.058 77.2261C134.256 77.4241 134.355 77.6761 134.355 77.9821C134.355 78.3241 134.256 78.7651 134.058 79.3051C133.752 79.9711 133.419 80.9431 133.059 82.2211C133.437 81.8071 133.707 81.4831 133.869 81.2491C134.301 80.6371 134.859 79.9531 135.543 79.1971C136.101 78.5851 136.731 78.2791 137.433 78.2791C138.261 78.4231 138.738 79.1161 138.864 80.3581C138.864 80.5741 138.846 80.8441 138.81 81.1681C138.774 81.4741 138.747 81.6721 138.729 81.7621C138.801 81.6541 138.981 81.4201 139.269 81.0601C139.575 80.7001 139.944 80.3311 140.376 79.9531C140.772 79.6471 141.141 79.4941 141.483 79.4941C141.771 79.4941 142.023 79.6111 142.239 79.8451C142.617 80.0611 142.887 80.3671 143.049 80.7631C143.211 81.1411 143.292 81.6271 143.292 82.2211C143.292 82.5271 143.283 82.7701 143.265 82.9501C143.229 83.3101 143.211 83.5351 143.211 83.6251C143.211 83.9671 143.274 84.3091 143.4 84.6511Z" fill="#636363"/>
<path d="M147.134 86.5951C146.918 86.5951 146.747 86.5591 146.621 86.4871C146.495 86.4151 146.315 86.2801 146.081 86.0821C145.487 85.4521 145.19 84.8761 145.19 84.3541C145.19 84.2281 145.199 84.1381 145.217 84.0841C145.271 83.9581 145.289 83.8321 145.271 83.7061C145.271 83.5801 145.271 83.4991 145.271 83.4631C145.199 83.3911 145.163 83.3461 145.163 83.3281C145.163 83.2921 145.181 83.2651 145.217 83.2471C145.253 83.2111 145.28 83.1751 145.298 83.1391C145.406 83.1391 145.442 83.0401 145.406 82.8421C145.37 82.6981 145.442 82.3831 145.622 81.8971C145.802 81.3931 146.027 80.9341 146.297 80.5201C146.495 80.1961 146.783 79.7911 147.161 79.3051C147.557 78.8191 147.908 78.4501 148.214 78.1981C148.646 77.8201 149.033 77.5411 149.375 77.3611C149.717 77.1811 150.095 77.0461 150.509 76.9561C150.869 76.8661 151.112 76.8211 151.238 76.8211C151.364 76.8211 151.472 76.8571 151.562 76.9291C151.67 76.9831 151.805 77.0911 151.967 77.2531C152.453 77.4691 152.786 77.7481 152.966 78.0901C153.164 78.4141 153.263 78.9271 153.263 79.6291C153.263 80.7991 152.786 82.0681 151.832 83.4361C151.418 84.0301 151.031 84.4891 150.671 84.8131C150.311 85.1191 149.834 85.4521 149.24 85.8121C148.862 86.0821 148.511 86.2801 148.187 86.4061C147.881 86.5141 147.53 86.5771 147.134 86.5951ZM149.726 83.7331C150.158 83.2471 150.5 82.7881 150.752 82.3561C151.022 81.9241 151.274 81.3751 151.508 80.7091C151.598 80.4031 151.643 80.0341 151.643 79.6021C151.643 79.0621 151.571 78.7561 151.427 78.6841C151.247 78.5941 151.067 78.5491 150.887 78.5491C150.491 78.5491 150.077 78.7291 149.645 79.0891C149.123 79.5391 148.655 80.0971 148.241 80.7631C147.827 81.4111 147.404 82.2211 146.972 83.1931C146.792 83.5711 146.702 83.9401 146.702 84.3001C146.702 84.5701 146.765 84.7861 146.891 84.9481C147.035 85.1101 147.224 85.1911 147.458 85.1911C148.052 85.1911 148.808 84.7051 149.726 83.7331Z" fill="#636363"/>
<path d="M159.893 84.0841C159.875 84.1561 159.857 84.2461 159.839 84.3541C159.821 84.4621 159.812 84.5971 159.812 84.7591C159.812 84.9031 159.83 85.0021 159.866 85.0561C159.956 85.0561 160.028 85.0471 160.082 85.0291C160.154 85.0111 160.226 85.0021 160.298 85.0021C160.406 85.0021 160.478 85.0471 160.514 85.1371C160.604 85.4431 160.649 85.6321 160.649 85.7041C160.649 85.8841 160.523 86.1091 160.271 86.3791C160.073 86.5771 159.884 86.6761 159.704 86.6761C159.614 86.6761 159.497 86.6491 159.353 86.5951C158.939 86.4151 158.66 86.1991 158.516 85.9471C158.354 85.7131 158.273 85.3531 158.273 84.8671C158.273 84.5251 158.282 84.2551 158.3 84.0571C158.318 83.9491 158.417 83.5981 158.597 83.0041C158.795 82.4101 158.939 81.9961 159.029 81.7621C158.867 81.7981 158.714 81.8611 158.57 81.9511C158.444 82.0411 158.318 82.1311 158.192 82.2211C158.012 82.4011 157.769 82.5811 157.463 82.7611C157.157 82.9411 156.878 83.0761 156.626 83.1661C156.554 83.2021 156.473 83.2201 156.383 83.2201C156.185 83.2201 155.96 83.1571 155.708 83.0311C155.474 82.8871 155.303 82.7071 155.195 82.4911C155.105 82.2751 155.042 82.0321 155.006 81.7621C154.988 81.6721 154.979 81.5371 154.979 81.3571C154.979 80.9071 155.087 80.4661 155.303 80.0341L155.978 78.6571C156.14 78.3511 156.365 77.8921 156.653 77.2801C156.707 77.1721 156.788 77.0371 156.896 76.8751C157.004 76.7131 157.076 76.5691 157.112 76.4431C157.13 76.3711 157.184 76.2901 157.274 76.2001C157.382 76.0921 157.481 76.0381 157.571 76.0381C158.039 76.0741 158.372 76.2451 158.57 76.5511C158.678 76.6771 158.732 76.8121 158.732 76.9561C158.732 77.1361 158.66 77.3071 158.516 77.4691C157.958 78.2251 157.382 79.2421 156.788 80.5201C156.626 80.8081 156.545 81.0961 156.545 81.3841C156.545 81.4741 156.554 81.5461 156.572 81.6001C156.86 81.6001 157.274 81.4021 157.814 81.0061C158.354 80.6101 159.047 80.0611 159.893 79.3591L160.541 78.8191C160.955 78.4771 161.315 78.0631 161.621 77.5771C161.783 77.2711 162.062 77.1091 162.458 77.0911C162.728 77.2171 162.899 77.2981 162.971 77.3341C163.043 77.4781 163.115 77.6311 163.187 77.7931C163.277 77.9371 163.322 78.0541 163.322 78.1441C163.322 78.3061 163.196 78.5221 162.944 78.7921C162.818 78.8101 162.566 79.0891 162.188 79.6291C161.828 80.1511 161.549 80.6011 161.351 80.9791C161.297 81.0691 161.225 81.1681 161.135 81.2761C161.063 81.3661 160.991 81.4741 160.919 81.6001L159.893 84.0841Z" fill="#636363"/>
<path d="M167.245 76.6591C167.281 76.6771 167.335 76.7041 167.407 76.7401C167.479 76.7581 167.533 76.7941 167.569 76.8481C167.749 77.0281 167.839 77.2351 167.839 77.4691C167.839 77.5951 167.794 77.7481 167.704 77.9281C167.578 78.1621 167.443 78.3871 167.299 78.6031C167.065 78.9991 166.867 79.3591 166.705 79.6831C166.561 80.0071 166.39 80.4661 166.192 81.0601C166.66 80.9521 166.966 80.8621 167.11 80.7901C167.254 80.7001 167.497 80.4661 167.839 80.0881C168.163 79.7641 168.469 79.4761 168.757 79.2241C169.855 78.1621 170.44 77.5861 170.512 77.4961C170.656 77.2801 170.782 77.1181 170.89 77.0101C170.998 76.8841 171.142 76.7941 171.322 76.7401C171.574 76.7761 171.745 76.8211 171.835 76.8751C171.943 76.9291 172.168 77.0911 172.51 77.3611C172.582 77.4331 172.618 77.5591 172.618 77.7391C172.618 78.0811 172.519 78.3241 172.321 78.4681C172.267 78.5041 171.916 78.7831 171.268 79.3051C169.954 80.4031 168.838 81.2671 167.92 81.8971C168.316 82.5271 168.703 83.2291 169.081 84.0031C169.117 84.4351 169.27 84.7321 169.54 84.8941C169.81 85.0561 170.188 85.1371 170.674 85.1371C170.818 85.2091 170.908 85.2991 170.944 85.4071C170.998 85.5151 171.025 85.6321 171.025 85.7581C171.043 85.8841 171.061 85.9831 171.079 86.0551C170.917 86.1631 170.755 86.2981 170.593 86.4601C170.431 86.6041 170.296 86.6761 170.188 86.6761C170.062 86.6761 169.864 86.6221 169.594 86.5141C169.342 86.4241 169.108 86.2981 168.892 86.1361C168.676 85.9561 168.451 85.7311 168.217 85.4611C168.001 85.2091 167.578 84.5701 166.948 83.5441C166.318 82.5181 165.967 81.9421 165.895 81.8161C165.841 81.9601 165.769 82.1221 165.679 82.3021C165.607 82.4641 165.553 82.6171 165.517 82.7611C165.481 82.8871 165.463 83.0581 165.463 83.2741C165.283 83.5261 165.139 83.8501 165.031 84.2461C164.941 84.6241 164.869 84.8941 164.815 85.0561C164.707 85.4521 164.473 85.7761 164.113 86.0281C163.789 86.0101 163.474 85.8121 163.168 85.4341C163.078 85.2721 163.033 85.0921 163.033 84.8941C163.033 84.6961 163.078 84.4801 163.168 84.2461C163.204 84.0841 163.33 83.7061 163.546 83.1121C163.762 82.5181 163.933 82.0411 164.059 81.6811C164.149 81.4471 164.293 81.0511 164.491 80.4931C164.707 79.9171 164.824 79.5751 164.842 79.4671C164.896 79.2331 165.058 78.9001 165.328 78.4681C165.688 77.8381 165.913 77.3161 166.003 76.9021C166.039 76.7761 166.129 76.6591 166.273 76.5511C166.435 76.4251 166.597 76.3621 166.759 76.3621C166.957 76.3621 167.119 76.4611 167.245 76.6591Z" fill="#636363"/>
<path d="M181.315 77.0371C181.603 77.3251 181.747 77.6221 181.747 77.9281C181.747 78.2521 181.531 78.8191 181.099 79.6291C180.955 80.0431 180.793 80.4301 180.613 80.7901C180.451 81.1501 180.325 81.3841 180.235 81.4921L179.614 82.9231C179.344 83.5171 179.011 84.2101 178.615 85.0021C178.129 86.0101 177.787 86.7571 177.589 87.2431L177.238 87.8101C176.338 89.2501 175.645 90.2581 175.159 90.8341C174.169 91.7161 173.404 92.2291 172.864 92.3731C172.63 92.4451 172.351 92.4811 172.027 92.4811C171.433 92.4811 170.875 92.3461 170.353 92.0761C169.813 91.8241 169.507 91.5271 169.435 91.1851C169.417 91.0591 169.462 90.9241 169.57 90.7801C169.678 90.6361 169.795 90.5641 169.921 90.5641C170.011 90.5641 170.083 90.6001 170.137 90.6721C170.281 90.7801 170.488 90.8791 170.758 90.9691C171.046 91.0771 171.352 91.1311 171.676 91.1311C171.802 91.1311 171.973 91.1131 172.189 91.0771C172.549 91.0051 172.927 90.7891 173.323 90.4291C173.719 90.0691 174.079 89.6731 174.403 89.2411C175.015 88.3411 175.672 87.2161 176.374 85.8661C176.122 85.7941 175.879 85.6231 175.645 85.3531C175.411 85.0651 175.222 84.7681 175.078 84.4621C174.952 84.1561 174.907 83.9311 174.943 83.7871V83.4901C174.781 83.4901 174.646 83.1841 174.538 82.5721C174.448 81.9601 174.403 81.2491 174.403 80.4391C174.403 80.1331 174.421 79.7461 174.457 79.2781C174.529 78.9901 174.565 78.6391 174.565 78.2251C174.583 77.7931 174.592 77.5141 174.592 77.3881V77.2801C174.592 77.0641 174.61 76.9111 174.646 76.8211C174.7 76.7311 174.781 76.6501 174.889 76.5781C175.033 76.5061 175.177 76.4701 175.321 76.4701C175.825 76.4701 176.077 77.1361 176.077 78.4681C176.077 78.6661 176.059 79.0531 176.023 79.6291C176.005 79.8811 175.996 80.2591 175.996 80.7631C175.996 81.6991 176.077 82.5271 176.239 83.2471C176.401 83.9671 176.644 84.4621 176.968 84.7321L177.13 84.3541C177.328 83.8321 177.481 83.4991 177.589 83.3551C177.841 82.8331 177.985 82.5001 178.021 82.3561C178.057 82.2301 178.156 82.0231 178.318 81.7351L178.669 81.0061C178.705 80.8981 178.822 80.5561 179.02 79.9801C179.218 79.3861 179.416 78.9091 179.614 78.5491C179.686 78.4051 179.794 78.1981 179.938 77.9281C180.082 77.6401 180.199 77.4331 180.289 77.3071C180.379 77.1811 180.478 77.1001 180.586 77.0641C180.73 76.9381 180.847 76.8751 180.937 76.8751C181.009 76.8751 181.135 76.9291 181.315 77.0371Z" fill="#636363"/>
<path d="M181.338 89.1331C181.14 89.1331 181.023 89.1241 180.987 89.1061C180.951 89.0881 180.897 89.0071 180.825 88.8631C180.825 88.7551 180.861 88.6471 180.933 88.5391C181.005 88.4491 181.095 88.3411 181.203 88.2151C181.509 87.9091 181.842 87.5401 182.202 87.1081C182.562 86.6761 182.805 86.3431 182.931 86.1091C183.057 85.7131 183.192 85.1821 183.336 84.5161C183.336 84.1561 183.381 83.9311 183.471 83.8411C183.579 83.7331 183.678 83.6791 183.768 83.6791C183.984 83.6791 184.146 84.0841 184.254 84.8941C184.29 85.1461 184.308 85.3351 184.308 85.4611C184.308 85.8751 184.155 86.4421 183.849 87.1621C183.777 87.3421 183.552 87.6481 183.174 88.0801C182.814 88.5301 182.598 88.7551 182.526 88.7551C182.436 88.7551 182.31 88.8361 182.148 88.9981C182.094 89.0521 181.986 89.0881 181.824 89.1061C181.68 89.1241 181.518 89.1331 181.338 89.1331Z" fill="#636363"/>
<path d="M199.628 84.0841C199.61 84.1561 199.592 84.2461 199.574 84.3541C199.556 84.4621 199.547 84.5971 199.547 84.7591C199.547 84.9031 199.565 85.0021 199.601 85.0561C199.691 85.0561 199.763 85.0471 199.817 85.0291C199.889 85.0111 199.961 85.0021 200.033 85.0021C200.141 85.0021 200.213 85.0471 200.249 85.1371C200.339 85.4431 200.384 85.6321 200.384 85.7041C200.384 85.8841 200.258 86.1091 200.006 86.3791C199.808 86.5771 199.619 86.6761 199.439 86.6761C199.349 86.6761 199.232 86.6491 199.088 86.5951C198.674 86.4151 198.395 86.1991 198.251 85.9471C198.089 85.7131 198.008 85.3531 198.008 84.8671C198.008 84.5251 198.017 84.2551 198.035 84.0571C198.053 83.9491 198.152 83.5981 198.332 83.0041C198.53 82.4101 198.674 81.9961 198.764 81.7621C198.602 81.7981 198.449 81.8611 198.305 81.9511C198.179 82.0411 198.053 82.1311 197.927 82.2211C197.747 82.4011 197.504 82.5811 197.198 82.7611C196.892 82.9411 196.613 83.0761 196.361 83.1661C196.289 83.2021 196.208 83.2201 196.118 83.2201C195.92 83.2201 195.695 83.1571 195.443 83.0311C195.209 82.8871 195.038 82.7071 194.93 82.4911C194.84 82.2751 194.777 82.0321 194.741 81.7621C194.723 81.6721 194.714 81.5371 194.714 81.3571C194.714 80.9071 194.822 80.4661 195.038 80.0341L195.713 78.6571C195.875 78.3511 196.1 77.8921 196.388 77.2801C196.442 77.1721 196.523 77.0371 196.631 76.8751C196.739 76.7131 196.811 76.5691 196.847 76.4431C196.865 76.3711 196.919 76.2901 197.009 76.2001C197.117 76.0921 197.216 76.0381 197.306 76.0381C197.774 76.0741 198.107 76.2451 198.305 76.5511C198.413 76.6771 198.467 76.8121 198.467 76.9561C198.467 77.1361 198.395 77.3071 198.251 77.4691C197.693 78.2251 197.117 79.2421 196.523 80.5201C196.361 80.8081 196.28 81.0961 196.28 81.3841C196.28 81.4741 196.289 81.5461 196.307 81.6001C196.595 81.6001 197.009 81.4021 197.549 81.0061C198.089 80.6101 198.782 80.0611 199.628 79.3591L200.276 78.8191C200.69 78.4771 201.05 78.0631 201.356 77.5771C201.518 77.2711 201.797 77.1091 202.193 77.0911C202.463 77.2171 202.634 77.2981 202.706 77.3341C202.778 77.4781 202.85 77.6311 202.922 77.7931C203.012 77.9371 203.057 78.0541 203.057 78.1441C203.057 78.3061 202.931 78.5221 202.679 78.7921C202.553 78.8101 202.301 79.0891 201.923 79.6291C201.563 80.1511 201.284 80.6011 201.086 80.9791C201.032 81.0691 200.96 81.1681 200.87 81.2761C200.798 81.3661 200.726 81.4741 200.654 81.6001L199.628 84.0841Z" fill="#636363"/>
<path d="M215.567 84.6511C215.639 84.7051 215.675 84.7861 215.675 84.8941C215.675 85.0201 215.63 85.1461 215.54 85.2721C215.468 85.3801 215.396 85.4341 215.324 85.4341C214.982 85.4341 214.649 85.3441 214.325 85.1641C214.019 84.9661 213.866 84.6601 213.866 84.2461V82.5721C213.866 81.7261 213.803 81.2491 213.677 81.1411C213.407 80.9971 212.939 81.2941 212.273 82.0321C211.625 82.7701 210.995 83.6431 210.383 84.6511C210.185 84.9751 210.023 85.2271 209.897 85.4071C209.771 85.5871 209.672 85.6771 209.6 85.6771C209.546 85.6771 209.456 85.6321 209.33 85.5421C208.772 85.3801 208.493 85.0651 208.493 84.5971C208.493 84.5431 208.511 84.4261 208.547 84.2461C208.727 83.6521 208.907 82.9951 209.087 82.2751C209.267 81.5371 209.411 80.9161 209.519 80.4121C209.465 80.3041 209.375 80.2501 209.249 80.2501C209.069 80.2501 208.862 80.3401 208.628 80.5201C208.178 80.8261 207.602 81.5551 206.9 82.7071C206.018 84.0571 205.406 84.8761 205.064 85.1641C204.938 85.3801 204.821 85.5511 204.713 85.6771C204.623 85.7851 204.533 85.8391 204.443 85.8391C204.371 85.8391 204.236 85.7851 204.038 85.6771C203.516 85.3711 203.255 84.9391 203.255 84.3811C203.255 84.1111 203.336 83.5711 203.498 82.7611C203.66 81.9511 203.84 81.1951 204.038 80.4931C204.2 80.1871 204.344 79.8721 204.47 79.5481C204.614 79.2061 204.686 78.9991 204.686 78.9271C204.758 78.5491 204.848 78.1441 204.956 77.7121C205.064 77.2801 205.145 77.0371 205.199 76.9831C205.325 76.8571 205.469 76.7941 205.631 76.7941C205.901 76.7941 206.099 76.9381 206.225 77.2261C206.423 77.4241 206.522 77.6761 206.522 77.9821C206.522 78.3241 206.423 78.7651 206.225 79.3051C205.919 79.9711 205.586 80.9431 205.226 82.2211C205.604 81.8071 205.874 81.4831 206.036 81.2491C206.468 80.6371 207.026 79.9531 207.71 79.1971C208.268 78.5851 208.898 78.2791 209.6 78.2791C210.428 78.4231 210.905 79.1161 211.031 80.3581C211.031 80.5741 211.013 80.8441 210.977 81.1681C210.941 81.4741 210.914 81.6721 210.896 81.7621C210.968 81.6541 211.148 81.4201 211.436 81.0601C211.742 80.7001 212.111 80.3311 212.543 79.9531C212.939 79.6471 213.308 79.4941 213.65 79.4941C213.938 79.4941 214.19 79.6111 214.406 79.8451C214.784 80.0611 215.054 80.3671 215.216 80.7631C215.378 81.1411 215.459 81.6271 215.459 82.2211C215.459 82.5271 215.45 82.7701 215.432 82.9501C215.396 83.3101 215.378 83.5351 215.378 83.6251C215.378 83.9671 215.441 84.3091 215.567 84.6511Z" fill="#636363"/>
<path d="M219.301 86.5951C219.085 86.5951 218.914 86.5591 218.788 86.4871C218.662 86.4151 218.482 86.2801 218.248 86.0821C217.654 85.4521 217.357 84.8761 217.357 84.3541C217.357 84.2281 217.366 84.1381 217.384 84.0841C217.438 83.9581 217.456 83.8321 217.438 83.7061C217.438 83.5801 217.438 83.4991 217.438 83.4631C217.366 83.3911 217.33 83.3461 217.33 83.3281C217.33 83.2921 217.348 83.2651 217.384 83.2471C217.42 83.2111 217.447 83.1751 217.465 83.1391C217.573 83.1391 217.609 83.0401 217.573 82.8421C217.537 82.6981 217.609 82.3831 217.789 81.8971C217.969 81.3931 218.194 80.9341 218.464 80.5201C218.662 80.1961 218.95 79.7911 219.328 79.3051C219.724 78.8191 220.075 78.4501 220.381 78.1981C220.813 77.8201 221.2 77.5411 221.542 77.3611C221.884 77.1811 222.262 77.0461 222.676 76.9561C223.036 76.8661 223.279 76.8211 223.405 76.8211C223.531 76.8211 223.639 76.8571 223.729 76.9291C223.837 76.9831 223.972 77.0911 224.134 77.2531C224.62 77.4691 224.953 77.7481 225.133 78.0901C225.331 78.4141 225.43 78.9271 225.43 79.6291C225.43 80.7991 224.953 82.0681 223.999 83.4361C223.585 84.0301 223.198 84.4891 222.838 84.8131C222.478 85.1191 222.001 85.4521 221.407 85.8121C221.029 86.0821 220.678 86.2801 220.354 86.4061C220.048 86.5141 219.697 86.5771 219.301 86.5951ZM221.893 83.7331C222.325 83.2471 222.667 82.7881 222.919 82.3561C223.189 81.9241 223.441 81.3751 223.675 80.7091C223.765 80.4031 223.81 80.0341 223.81 79.6021C223.81 79.0621 223.738 78.7561 223.594 78.6841C223.414 78.5941 223.234 78.5491 223.054 78.5491C222.658 78.5491 222.244 78.7291 221.812 79.0891C221.29 79.5391 220.822 80.0971 220.408 80.7631C219.994 81.4111 219.571 82.2211 219.139 83.1931C218.959 83.5711 218.869 83.9401 218.869 84.3001C218.869 84.5701 218.932 84.7861 219.058 84.9481C219.202 85.1101 219.391 85.1911 219.625 85.1911C220.219 85.1911 220.975 84.7051 221.893 83.7331Z" fill="#636363"/>
<path d="M237.33 78.3061C237.42 78.4321 237.465 78.5491 237.465 78.6571C237.465 78.7111 237.447 78.8101 237.411 78.9541C237.303 79.2781 237.204 79.5031 237.114 79.6291C236.898 79.8271 236.709 80.0521 236.547 80.3041C236.403 80.5381 236.259 80.7901 236.115 81.0601C235.989 81.3121 235.89 81.5101 235.818 81.6541C235.818 81.7621 235.746 81.8971 235.602 82.0591C235.476 82.2211 235.413 82.3561 235.413 82.4641C235.413 82.6261 235.359 82.8871 235.251 83.2471C235.143 83.4811 235.089 83.7781 235.089 84.1381L235.116 84.9211C235.296 84.9931 235.413 85.0291 235.467 85.0291C235.611 85.0291 235.764 84.9481 235.926 84.7861C236.286 84.4981 236.538 84.2371 236.682 84.0031C236.844 83.7691 236.988 83.4811 237.114 83.1391C237.168 83.0491 237.213 82.9501 237.249 82.8421C237.303 82.7161 237.366 82.5901 237.438 82.4641C237.636 82.0861 237.807 81.5911 237.951 80.9791C238.113 80.3491 238.194 79.8361 238.194 79.4401C238.194 79.2781 238.185 79.1701 238.167 79.1161V79.0621L238.194 78.7381C238.194 78.6121 238.14 78.5041 238.032 78.4141C238.104 78.3421 238.14 78.1891 238.14 77.9551C238.14 77.7751 238.113 77.5861 238.059 77.3881C238.023 77.1721 237.978 77.0191 237.924 76.9291C237.87 76.0291 237.843 75.3001 237.843 74.7421C237.843 73.9861 237.897 73.3291 238.005 72.7711C238.023 72.6991 238.14 72.5101 238.356 72.2041C238.572 71.8801 238.761 71.6371 238.923 71.4751C239.229 71.2231 239.643 71.0161 240.165 70.8541C240.687 70.6921 241.146 70.6291 241.542 70.6651C241.524 70.6831 241.614 70.6921 241.812 70.6921C242.262 70.6921 242.784 70.6651 243.378 70.6111C243.576 70.5751 243.738 70.5391 243.864 70.5031C244.008 70.4491 244.233 70.3321 244.539 70.1521C244.611 70.0981 244.665 70.0711 244.701 70.0711C244.755 70.0531 244.818 70.0531 244.89 70.0711L245.619 70.6921C245.601 71.2141 245.466 71.5921 245.214 71.8261C244.98 72.0601 244.539 72.2131 243.891 72.2851L243.486 72.2581C243.414 72.2581 243.306 72.2761 243.162 72.3121C243.126 72.3301 243.081 72.3391 243.027 72.3391C242.955 72.3391 242.874 72.3301 242.784 72.3121C242.694 72.2761 242.613 72.2581 242.541 72.2581C242.397 72.2581 242.244 72.2761 242.082 72.3121C241.92 72.3301 241.758 72.3391 241.596 72.3391C241.434 72.3391 241.317 72.3301 241.245 72.3121C240.525 72.5281 240.003 72.7891 239.679 73.0951C239.355 73.4011 239.193 73.8871 239.193 74.5531C239.229 74.9131 239.301 75.3991 239.409 76.0111C239.571 76.8211 239.652 77.5051 239.652 78.0631C239.67 78.1711 239.697 78.2791 239.733 78.3871C239.769 78.4771 239.787 78.5491 239.787 78.6031C239.787 78.6931 239.76 78.7651 239.706 78.8191C239.796 79.2691 239.841 79.6561 239.841 79.9801C239.841 80.3761 239.787 80.6821 239.679 80.8981C239.661 81.0061 239.634 81.2401 239.598 81.6001C239.58 81.9601 239.49 82.3021 239.328 82.6261C238.842 83.6161 238.383 84.4171 237.951 85.0291C237.537 85.6231 237.024 86.1271 236.412 86.5411C236.304 86.6131 236.133 86.6761 235.899 86.7301C235.665 86.7841 235.476 86.8291 235.332 86.8651C235.224 86.8111 235.044 86.7211 234.792 86.5951C234.558 86.4511 234.378 86.3251 234.252 86.2171C233.676 85.6951 233.388 85.0111 233.388 84.1651C233.388 83.8231 233.433 83.4541 233.523 83.0581C233.613 82.6441 233.658 82.4101 233.658 82.3561C233.64 82.2121 233.676 82.0591 233.766 81.8971C233.856 81.7171 233.919 81.5911 233.955 81.5191C234.333 80.7811 234.657 80.1961 234.927 79.7641C235.197 79.3321 235.584 78.8371 236.088 78.2791C236.142 78.2431 236.232 78.1711 236.358 78.0631C236.484 77.9551 236.601 77.8831 236.709 77.8471L237.33 78.3061Z" fill="#636363"/>
<path d="M244.359 76.8211C244.683 76.8571 244.917 76.9291 245.061 77.0371C245.223 77.1271 245.412 77.3431 245.628 77.6851C245.61 77.8291 245.232 78.7921 244.494 80.5741C243.99 81.7441 243.738 82.3741 243.738 82.4641C243.738 82.4821 243.846 82.3561 244.062 82.0861C244.278 81.8161 244.575 81.5281 244.953 81.2221C245.349 80.8261 245.925 80.4481 246.681 80.0881C246.915 79.9981 247.122 79.9441 247.302 79.9261C247.482 79.8901 247.599 79.8631 247.653 79.8451C248.067 79.8451 248.409 79.9531 248.679 80.1691C248.967 80.3671 249.174 80.6101 249.3 80.8981C249.426 81.1861 249.489 81.4381 249.489 81.6541C249.579 82.0501 249.624 82.3921 249.624 82.6801C249.624 82.8781 249.597 83.0851 249.543 83.3011C249.399 83.6431 249.201 84.0121 248.949 84.4081C248.697 84.7861 248.409 85.0831 248.085 85.2991C247.833 85.5511 247.473 85.8121 247.005 86.0821C246.537 86.3521 246.114 86.5411 245.736 86.6491C245.16 86.8111 244.746 86.8921 244.494 86.8921C244.188 86.8921 243.9 86.7661 243.63 86.5141C243.576 86.4601 243.522 86.3791 243.468 86.2711C243.432 86.1451 243.387 86.0731 243.333 86.0551V85.9471C243.333 85.7491 243.459 85.6051 243.711 85.5151C243.891 85.6231 244.116 85.6771 244.386 85.6771C244.818 85.6771 245.277 85.5511 245.763 85.2991C246.267 85.0291 246.654 84.6961 246.924 84.3001C247.662 83.4181 248.049 82.6621 248.085 82.0321C248.085 81.8701 248.067 81.7531 248.031 81.6811C247.995 81.5911 247.896 81.4471 247.734 81.2491C247.068 81.4651 246.564 81.7441 246.222 82.0861C245.412 82.7701 244.854 83.2831 244.548 83.6251C244.26 83.9491 243.891 84.4801 243.441 85.2181C243.153 85.5781 242.901 85.7581 242.685 85.7581L242.712 85.9201C242.712 86.1901 242.577 86.3521 242.307 86.4061C241.911 86.3161 241.632 86.2171 241.47 86.1091C241.326 85.9831 241.254 85.7761 241.254 85.4881C241.254 85.3441 241.263 85.2271 241.281 85.1371C241.317 85.0291 241.344 84.9301 241.362 84.8401C241.38 84.7321 241.398 84.6331 241.416 84.5431C241.452 84.4171 241.497 84.2281 241.551 83.9761C241.623 83.7061 241.686 83.4991 241.74 83.3551C242.064 82.5091 242.244 82.0141 242.28 81.8701C242.64 80.8801 242.928 80.1151 243.144 79.5751C243.378 79.0351 243.585 78.6301 243.765 78.3601L244.359 76.8211ZM252.567 77.3341C252.729 77.1541 252.909 77.0641 253.107 77.0641C253.377 77.0641 253.719 77.2711 254.133 77.6851C254.223 77.9191 254.268 78.1171 254.268 78.2791C254.268 78.4051 254.223 78.5761 254.133 78.7921C253.989 79.0981 253.692 79.8991 253.242 81.1951C253.206 81.4291 253.035 81.9781 252.729 82.8421C252.423 83.7241 252.225 84.3451 252.135 84.7051C251.973 85.1191 251.838 85.6951 251.73 86.4331V86.5411C251.73 86.7751 251.604 86.9551 251.352 87.0811C250.704 86.9911 250.29 86.6311 250.11 86.0011C250.11 85.7311 250.155 85.4341 250.245 85.1101C250.335 84.7861 250.398 84.5431 250.434 84.3811C250.524 84.0211 250.695 83.4811 250.947 82.7611C251.109 82.3111 251.208 82.0231 251.244 81.8971C251.406 81.5371 251.568 81.0601 251.73 80.4661C251.838 80.0881 252.018 79.5391 252.27 78.8191C252.36 78.5131 252.459 78.0181 252.567 77.3341Z" fill="#636363"/>
<path d="M267.647 76.7671C267.827 76.7491 268.079 76.7761 268.403 76.8481C268.727 76.9201 268.97 76.9561 269.132 76.9561C269.762 77.2081 270.23 77.4691 270.536 77.7391C270.842 77.9911 270.977 78.3511 270.941 78.8191C270.905 78.9991 270.869 79.2601 270.833 79.6021C270.815 79.9441 270.734 80.2321 270.59 80.4661C270.572 80.5921 270.5 80.8171 270.374 81.1411C270.248 81.4651 270.167 81.6811 270.131 81.7891C269.753 82.7071 269.528 83.3461 269.456 83.7061C269.438 83.7781 269.384 83.8951 269.294 84.0571C269.222 84.2191 269.186 84.3541 269.186 84.4621C269.204 84.6421 269.168 84.8671 269.078 85.1371C269.006 85.4071 268.916 85.6051 268.808 85.7311C268.664 85.8751 268.502 85.9471 268.322 85.9471C268.07 85.9471 267.845 85.8571 267.647 85.6771C267.467 85.4791 267.386 85.2631 267.404 85.0291C267.404 84.5971 267.458 84.0571 267.566 83.4091C267.692 83.2831 267.764 83.1481 267.782 83.0041C267.8 82.8421 267.818 82.7341 267.836 82.6801C268.106 82.0501 268.358 81.3301 268.592 80.5201C268.844 79.7101 268.97 79.0891 268.97 78.6571C268.97 78.5311 268.961 78.4411 268.943 78.3871C268.511 78.3871 267.917 78.4141 267.161 78.4681C266.405 78.5221 265.982 78.5491 265.892 78.5491C265.82 78.5671 265.757 78.6121 265.703 78.6841C265.649 78.7381 265.622 78.7921 265.622 78.8461C265.586 79.0801 265.514 79.3321 265.406 79.6021C265.298 79.8721 265.226 80.0521 265.19 80.1421C264.974 80.6281 264.821 81.0691 264.731 81.4651C264.713 81.6451 264.56 82.0501 264.272 82.6801C263.804 83.8141 263.561 84.5521 263.543 84.8941C263.381 85.1281 263.291 85.4791 263.273 85.9471C263.255 86.0911 263.192 86.1901 263.084 86.2441C262.976 86.2981 262.778 86.3521 262.49 86.4061C262.364 86.3881 262.247 86.3341 262.139 86.2441C262.031 86.1541 261.932 86.0551 261.842 85.9471C261.752 85.8391 261.653 85.7311 261.545 85.6231C261.545 85.3351 261.662 84.8041 261.896 84.0301C262.13 83.2561 262.337 82.7071 262.517 82.3831C262.607 81.8971 262.778 81.3571 263.03 80.7631C263.084 80.6191 263.201 80.2861 263.381 79.7641C263.597 78.9901 263.795 78.3331 263.975 77.7931C264.047 77.6311 264.092 77.4781 264.11 77.3341C264.146 77.1901 264.182 77.0911 264.218 77.0371C264.272 76.9831 264.398 76.9021 264.596 76.7941C264.83 76.8841 265.028 76.9291 265.19 76.9291C265.334 76.9291 265.478 76.8841 265.622 76.7941C265.676 76.7761 265.748 76.7761 265.838 76.7941C265.946 76.7941 266.063 76.7941 266.189 76.7941H266.81C267.242 76.7941 267.521 76.7851 267.647 76.7671Z" fill="#636363"/>
<path d="M270.67 93.0751C270.526 93.0751 270.409 92.9941 270.319 92.8321C270.229 92.7061 270.184 92.5531 270.184 92.3731C270.184 92.2471 270.229 91.9411 270.319 91.4551C270.517 90.6991 270.616 90.1771 270.616 89.8891C270.616 89.7991 270.634 89.6641 270.67 89.4841C270.706 89.3221 270.733 89.1691 270.751 89.0251C270.823 88.8991 270.886 88.7011 270.94 88.4311C271.012 88.1791 271.048 87.9541 271.048 87.7561C271.048 87.6661 271.075 87.5581 271.129 87.4321C271.201 87.3241 271.282 87.2341 271.372 87.1621C271.372 87.0541 271.399 86.8921 271.453 86.6761C271.507 86.4421 271.543 86.2801 271.561 86.1901C271.651 85.7041 272.002 84.5521 272.614 82.7341C273.226 80.9161 273.748 79.4491 274.18 78.3331C274.378 77.8831 274.522 77.4691 274.612 77.0911C274.702 76.7131 274.747 76.4161 274.747 76.2001C274.747 76.1281 274.765 76.0651 274.801 76.0111C274.855 75.9391 274.936 75.8491 275.044 75.7411C275.17 75.6151 275.287 75.5521 275.395 75.5521C275.485 75.5521 275.584 75.5881 275.692 75.6601C275.8 75.7321 275.908 75.8131 276.016 75.9031C276.124 76.0651 276.205 76.2181 276.259 76.3621C276.331 76.5061 276.367 76.6591 276.367 76.8211C276.367 76.8751 276.349 77.0461 276.313 77.3341C276.313 77.7121 276.232 78.0271 276.07 78.2791C275.908 78.5131 275.845 78.6211 275.881 78.6031C276.691 78.2251 277.411 78.0361 278.041 78.0361C278.797 78.0361 279.382 78.2791 279.796 78.7651C280.228 79.2511 280.444 79.8811 280.444 80.6551C280.444 80.9791 280.345 81.3751 280.147 81.8431C279.967 82.2931 279.787 82.5991 279.607 82.7611C279.499 82.7611 279.355 82.9501 279.175 83.3281C278.941 83.6161 278.554 83.9221 278.014 84.2461C277.474 84.5521 277.096 84.6691 276.88 84.5971C276.862 84.5971 276.835 84.6061 276.799 84.6241C276.763 84.6421 276.745 84.6871 276.745 84.7591C276.745 84.8311 276.439 84.9661 275.827 85.1641C275.215 85.3621 274.711 85.4611 274.315 85.4611C274.099 85.4611 273.937 85.4521 273.829 85.4341C273.721 85.3981 273.613 85.3351 273.505 85.2451C273.379 85.3711 273.316 85.4881 273.316 85.5961C273.316 85.7941 273.226 86.1541 273.046 86.6761C272.866 87.1981 272.722 87.4591 272.614 87.4591C272.596 87.4771 272.569 87.5131 272.533 87.5671C272.515 87.6211 272.542 87.6841 272.614 87.7561C272.614 87.8101 272.605 87.9361 272.587 88.1341C272.569 88.3321 272.524 88.4851 272.452 88.5931C272.452 88.7551 272.425 88.9711 272.371 89.2411C272.317 89.5291 272.254 89.7451 272.182 89.8891C272.182 90.1051 272.146 90.3121 272.074 90.5101C272.02 90.7261 271.957 90.8341 271.885 90.8341C271.777 90.8701 271.723 91.1311 271.723 91.6171C271.705 92.0671 271.615 92.4181 271.453 92.6701C271.291 92.9221 271.102 93.0481 270.886 93.0481L270.67 93.0751ZM274.153 84.0301C274.423 84.0301 274.963 83.8951 275.773 83.6251C276.601 83.3371 277.177 83.0581 277.501 82.7881C277.879 82.4641 278.185 82.1221 278.419 81.7621C278.653 81.3841 278.77 81.0061 278.77 80.6281C278.77 80.3401 278.689 80.0791 278.527 79.8451C278.401 79.6471 278.185 79.5481 277.879 79.5481C277.519 79.5481 277.087 79.6741 276.583 79.9261C276.097 80.1781 275.647 80.5111 275.233 80.9251C274.909 81.2491 274.621 81.7171 274.369 82.3291C274.117 82.9231 273.991 83.3911 273.991 83.7331C273.991 83.9311 274.045 84.0301 274.153 84.0301Z" fill="#636363"/>
<path d="M288.333 86.9461C287.901 86.5321 287.577 85.9201 287.361 85.1101C287.325 85.0021 287.307 84.8131 287.307 84.5431C287.307 84.2731 287.307 84.0841 287.307 83.9761C287.199 84.2461 287.001 84.4891 286.713 84.7051C286.299 85.1191 285.885 85.4251 285.471 85.6231C284.841 86.0371 284.328 86.2441 283.932 86.2441C283.572 86.2441 283.23 86.0461 282.906 85.6501C282.672 85.4521 282.492 85.2541 282.366 85.0561C282.258 84.8581 282.204 84.6151 282.204 84.3271C282.204 84.1291 282.231 83.9131 282.285 83.6791C282.321 83.0131 282.411 82.3741 282.555 81.7621C282.717 81.1501 283.014 80.3671 283.446 79.4131C284.022 78.2791 284.436 77.5231 284.688 77.1451C284.778 77.1091 284.895 77.0911 285.039 77.0911C285.219 77.0911 285.363 77.1451 285.471 77.2531C285.597 77.3611 285.669 77.5051 285.687 77.6851C285.741 77.7571 285.768 77.8561 285.768 77.9821C285.768 78.4321 285.498 79.1701 284.958 80.1961C284.256 81.8881 283.905 83.0581 283.905 83.7061C283.905 84.0841 284.013 84.3091 284.229 84.3811C284.319 84.4351 284.418 84.4621 284.526 84.4621C284.976 84.4621 285.516 84.1561 286.146 83.5441C286.776 82.9321 287.379 81.9511 287.955 80.6011C288.207 79.9891 288.36 79.3591 288.414 78.7111C288.396 78.6571 288.387 78.5761 288.387 78.4681C288.387 78.1441 288.549 77.8831 288.873 77.6851C288.945 77.5771 289.044 77.4961 289.17 77.4421C289.296 77.3701 289.377 77.3701 289.413 77.4421L289.845 77.4151C289.899 77.3971 289.953 77.4511 290.007 77.5771C290.061 77.6851 290.115 77.7571 290.169 77.7931C290.295 77.9011 290.358 78.0991 290.358 78.3871C290.358 78.9811 290.097 79.8901 289.575 81.1141C289.233 81.8341 288.999 82.3921 288.873 82.7881C288.765 83.1661 288.702 83.5351 288.684 83.8951C288.684 84.5791 288.945 85.1461 289.467 85.5961C289.647 85.7221 289.755 85.8571 289.791 86.0011C289.827 86.1451 289.836 86.3431 289.818 86.5951C289.782 86.7571 289.674 86.8921 289.494 87.0001C289.332 87.0901 289.152 87.1351 288.954 87.1351C288.72 87.1351 288.513 87.0721 288.333 86.9461Z" fill="#636363"/>
<path d="M295.707 78.3061C295.797 78.4321 295.842 78.5491 295.842 78.6571C295.842 78.7111 295.824 78.8101 295.788 78.9541C295.68 79.2781 295.581 79.5031 295.491 79.6291C295.275 79.8271 295.086 80.0521 294.924 80.3041C294.78 80.5381 294.636 80.7901 294.492 81.0601C294.366 81.3121 294.267 81.5101 294.195 81.6541C294.195 81.7621 294.123 81.8971 293.979 82.0591C293.853 82.2211 293.79 82.3561 293.79 82.4641C293.79 82.6261 293.736 82.8871 293.628 83.2471C293.52 83.4811 293.466 83.7781 293.466 84.1381L293.493 84.9211C293.673 84.9931 293.79 85.0291 293.844 85.0291C293.988 85.0291 294.141 84.9481 294.303 84.7861C294.663 84.4981 294.915 84.2371 295.059 84.0031C295.221 83.7691 295.365 83.4811 295.491 83.1391C295.545 83.0491 295.59 82.9501 295.626 82.8421C295.68 82.7161 295.743 82.5901 295.815 82.4641C296.013 82.0861 296.184 81.5911 296.328 80.9791C296.49 80.3491 296.571 79.8361 296.571 79.4401C296.571 79.2781 296.562 79.1701 296.544 79.1161V79.0621L296.571 78.7381C296.571 78.6121 296.517 78.5041 296.409 78.4141C296.481 78.3421 296.517 78.1891 296.517 77.9551C296.517 77.7751 296.49 77.5861 296.436 77.3881C296.4 77.1721 296.355 77.0191 296.301 76.9291C296.247 76.0291 296.22 75.3001 296.22 74.7421C296.22 73.9861 296.274 73.3291 296.382 72.7711C296.4 72.6991 296.517 72.5101 296.733 72.2041C296.949 71.8801 297.138 71.6371 297.3 71.4751C297.606 71.2231 298.02 71.0161 298.542 70.8541C299.064 70.6921 299.523 70.6291 299.919 70.6651C299.901 70.6831 299.991 70.6921 300.189 70.6921C300.639 70.6921 301.161 70.6651 301.755 70.6111C301.953 70.5751 302.115 70.5391 302.241 70.5031C302.385 70.4491 302.61 70.3321 302.916 70.1521C302.988 70.0981 303.042 70.0711 303.078 70.0711C303.132 70.0531 303.195 70.0531 303.267 70.0711L303.996 70.6921C303.978 71.2141 303.843 71.5921 303.591 71.8261C303.357 72.0601 302.916 72.2131 302.268 72.2851L301.863 72.2581C301.791 72.2581 301.683 72.2761 301.539 72.3121C301.503 72.3301 301.458 72.3391 301.404 72.3391C301.332 72.3391 301.251 72.3301 301.161 72.3121C301.071 72.2761 300.99 72.2581 300.918 72.2581C300.774 72.2581 300.621 72.2761 300.459 72.3121C300.297 72.3301 300.135 72.3391 299.973 72.3391C299.811 72.3391 299.694 72.3301 299.622 72.3121C298.902 72.5281 298.38 72.7891 298.056 73.0951C297.732 73.4011 297.57 73.8871 297.57 74.5531C297.606 74.9131 297.678 75.3991 297.786 76.0111C297.948 76.8211 298.029 77.5051 298.029 78.0631C298.047 78.1711 298.074 78.2791 298.11 78.3871C298.146 78.4771 298.164 78.5491 298.164 78.6031C298.164 78.6931 298.137 78.7651 298.083 78.8191C298.173 79.2691 298.218 79.6561 298.218 79.9801C298.218 80.3761 298.164 80.6821 298.056 80.8981C298.038 81.0061 298.011 81.2401 297.975 81.6001C297.957 81.9601 297.867 82.3021 297.705 82.6261C297.219 83.6161 296.76 84.4171 296.328 85.0291C295.914 85.6231 295.401 86.1271 294.789 86.5411C294.681 86.6131 294.51 86.6761 294.276 86.7301C294.042 86.7841 293.853 86.8291 293.709 86.8651C293.601 86.8111 293.421 86.7211 293.169 86.5951C292.935 86.4511 292.755 86.3251 292.629 86.2171C292.053 85.6951 291.765 85.0111 291.765 84.1651C291.765 83.8231 291.81 83.4541 291.9 83.0581C291.99 82.6441 292.035 82.4101 292.035 82.3561C292.017 82.2121 292.053 82.0591 292.143 81.8971C292.233 81.7171 292.296 81.5911 292.332 81.5191C292.71 80.7811 293.034 80.1961 293.304 79.7641C293.574 79.3321 293.961 78.8371 294.465 78.2791C294.519 78.2431 294.609 78.1711 294.735 78.0631C294.861 77.9551 294.978 77.8831 295.086 77.8471L295.707 78.3061Z" fill="#636363"/>
<path d="M300.623 86.7841C300.515 86.8741 300.317 86.9191 300.029 86.9191C299.759 86.9011 299.579 86.8921 299.489 86.8921C299.381 86.8561 299.228 86.7391 299.03 86.5411C298.85 86.3251 298.724 86.1811 298.652 86.1091C298.652 85.9831 298.688 85.8841 298.76 85.8121C298.85 85.7401 298.913 85.6861 298.949 85.6501C299.003 85.5781 299.12 85.5241 299.3 85.4881C299.498 85.4521 299.624 85.4071 299.678 85.3531C299.75 85.2991 299.93 85.1731 300.218 84.9751C300.506 84.7771 300.758 84.5791 300.974 84.3811C301.208 84.1651 301.397 83.9491 301.541 83.7331C302.009 83.0671 302.504 82.2751 303.026 81.3571C303.188 81.0511 303.395 80.6371 303.647 80.1151C303.917 79.5751 304.07 79.2241 304.106 79.0621L303.269 78.7921C303.233 78.7561 303.179 78.6841 303.107 78.5761C303.035 78.4681 302.99 78.3781 302.972 78.3061C302.972 78.2341 302.972 78.1531 302.972 78.0631C302.972 77.8471 302.99 77.6941 303.026 77.6041C303.08 77.5141 303.179 77.4601 303.323 77.4421C303.881 77.3341 304.34 77.2531 304.7 77.1991C305.24 77.1271 305.645 77.0551 305.915 76.9831C306.131 76.9291 306.374 76.9021 306.644 76.9021C307.112 76.9021 307.535 76.9831 307.913 77.1451C308.183 77.2531 308.417 77.4691 308.615 77.7931C308.867 78.1351 308.993 78.4771 308.993 78.8191C308.993 78.9451 308.984 79.0711 308.966 79.1971C308.948 79.3051 308.939 79.4221 308.939 79.5481C308.939 79.7101 308.966 79.8721 309.02 80.0341C308.786 80.8981 308.534 81.6901 308.264 82.4101C308.21 82.5541 308.129 82.7971 308.021 83.1391C307.913 83.4811 307.832 83.7781 307.778 84.0301C307.724 84.3001 307.643 84.5521 307.535 84.7861C307.391 85.2001 307.301 85.5331 307.265 85.7851C307.229 85.9831 307.148 86.1361 307.022 86.2441C306.914 86.3341 306.788 86.4151 306.644 86.4871C306.518 86.5411 306.437 86.5771 306.401 86.5951C306.329 86.6311 306.203 86.6131 306.023 86.5411C305.843 86.4691 305.69 86.3701 305.564 86.2441C305.528 86.1361 305.51 85.9921 305.51 85.8121C305.51 85.6681 305.546 85.4701 305.618 85.2181C305.942 84.1741 306.383 82.6621 306.941 80.6821L307.238 79.6561C307.292 79.4941 307.319 79.3051 307.319 79.0891C307.319 78.9271 307.292 78.7651 307.238 78.6031C306.95 78.4951 306.725 78.4411 306.563 78.4411C306.473 78.4411 306.374 78.4591 306.266 78.4951C306.158 78.5311 306.059 78.5581 305.969 78.5761C305.789 78.7021 305.681 78.8731 305.645 79.0891C305.303 79.9891 304.952 80.7811 304.592 81.4651C304.232 82.1491 303.953 82.7071 303.755 83.1391C303.683 83.3191 303.476 83.6611 303.134 84.1651C302.918 84.4891 302.765 84.7321 302.675 84.8941L302.378 85.2721C302.288 85.3621 302.135 85.5061 301.919 85.7041C301.703 85.9021 301.55 86.0461 301.46 86.1361L300.623 86.7841Z" fill="#636363"/>
<path d="M316.651 86.9461C316.219 86.5321 315.895 85.9201 315.679 85.1101C315.643 85.0021 315.625 84.8131 315.625 84.5431C315.625 84.2731 315.625 84.0841 315.625 83.9761C315.517 84.2461 315.319 84.4891 315.031 84.7051C314.617 85.1191 314.203 85.4251 313.789 85.6231C313.159 86.0371 312.646 86.2441 312.25 86.2441C311.89 86.2441 311.548 86.0461 311.224 85.6501C310.99 85.4521 310.81 85.2541 310.684 85.0561C310.576 84.8581 310.522 84.6151 310.522 84.3271C310.522 84.1291 310.549 83.9131 310.603 83.6791C310.639 83.0131 310.729 82.3741 310.873 81.7621C311.035 81.1501 311.332 80.3671 311.764 79.4131C312.34 78.2791 312.754 77.5231 313.006 77.1451C313.096 77.1091 313.213 77.0911 313.357 77.0911C313.537 77.0911 313.681 77.1451 313.789 77.2531C313.915 77.3611 313.987 77.5051 314.005 77.6851C314.059 77.7571 314.086 77.8561 314.086 77.9821C314.086 78.4321 313.816 79.1701 313.276 80.1961C312.574 81.8881 312.223 83.0581 312.223 83.7061C312.223 84.0841 312.331 84.3091 312.547 84.3811C312.637 84.4351 312.736 84.4621 312.844 84.4621C313.294 84.4621 313.834 84.1561 314.464 83.5441C315.094 82.9321 315.697 81.9511 316.273 80.6011C316.525 79.9891 316.678 79.3591 316.732 78.7111C316.714 78.6571 316.705 78.5761 316.705 78.4681C316.705 78.1441 316.867 77.8831 317.191 77.6851C317.263 77.5771 317.362 77.4961 317.488 77.4421C317.614 77.3701 317.695 77.3701 317.731 77.4421L318.163 77.4151C318.217 77.3971 318.271 77.4511 318.325 77.5771C318.379 77.6851 318.433 77.7571 318.487 77.7931C318.613 77.9011 318.676 78.0991 318.676 78.3871C318.676 78.9811 318.415 79.8901 317.893 81.1141C317.551 81.8341 317.317 82.3921 317.191 82.7881C317.083 83.1661 317.02 83.5351 317.002 83.8951C317.002 84.5791 317.263 85.1461 317.785 85.5961C317.965 85.7221 318.073 85.8571 318.109 86.0011C318.145 86.1451 318.154 86.3431 318.136 86.5951C318.1 86.7571 317.992 86.8921 317.812 87.0001C317.65 87.0901 317.47 87.1351 317.272 87.1351C317.038 87.1351 316.831 87.0721 316.651 86.9461Z" fill="#636363"/>
<path d="M323.863 76.8751C324.709 76.9111 325.375 77.2351 325.861 77.8471C326.293 78.4051 326.509 78.9541 326.509 79.4941C326.509 80.1061 326.203 80.9341 325.591 81.9781C325.213 82.5541 324.214 83.3821 322.594 84.4621L322.027 84.8671C322.243 85.1371 322.468 85.6141 322.702 86.2981C322.954 86.9821 323.08 87.5491 323.08 87.9991C323.08 88.1071 323.062 88.2331 323.026 88.3771C323.17 88.4131 323.404 88.3951 323.728 88.3231C324.07 88.2691 324.286 88.2421 324.376 88.2421C324.448 88.3141 324.547 88.4131 324.673 88.5391C324.817 88.6651 324.925 88.7731 324.997 88.8631C325.069 88.9711 325.105 89.0701 325.105 89.1601V89.2411C325.105 89.3311 325.069 89.4121 324.997 89.4841C324.943 89.5561 324.871 89.6011 324.781 89.6191C324.691 89.6371 324.538 89.6461 324.322 89.6461C324.088 89.6461 323.836 89.6551 323.566 89.6731C323.296 89.6911 323.053 89.7451 322.837 89.8351C322.711 90.0151 322.585 90.2311 322.459 90.4831C322.333 90.7531 322.243 90.9511 322.189 91.0771C321.937 91.6711 321.667 92.2021 321.379 92.6701C321.091 93.1381 320.677 93.5971 320.137 94.0471C319.903 94.2451 319.669 94.4161 319.435 94.5601C319.201 94.7041 319.021 94.7761 318.895 94.7761C318.301 94.9741 317.77 95.0731 317.302 95.0731C316.456 95.0731 315.727 94.7671 315.115 94.1551C314.953 93.7591 314.845 93.5161 314.791 93.4261C314.737 93.3541 314.566 93.1741 314.278 92.8861C314.278 92.7601 314.323 92.5801 314.413 92.3461C314.485 92.1121 314.584 91.9141 314.71 91.7521C315.484 90.8341 316.573 90.1321 317.977 89.6461C318.013 89.6281 318.085 89.5921 318.193 89.5381C318.319 89.4841 318.436 89.4571 318.544 89.4571C318.598 89.4571 318.643 89.4211 318.679 89.3491C318.715 89.2951 318.751 89.2501 318.787 89.2141C318.823 89.1961 318.877 89.2141 318.949 89.2681C319.003 89.2501 319.066 89.2051 319.138 89.1331C319.228 89.0791 319.327 89.0701 319.435 89.1061C319.453 89.1241 319.741 89.0431 320.299 88.8631C320.875 88.7011 321.271 88.5841 321.487 88.5121C321.523 88.0441 321.541 87.6841 321.541 87.4321C321.541 86.6401 321.388 86.1091 321.082 85.8391C320.902 85.6591 320.74 85.4071 320.596 85.0831C320.47 84.7411 320.371 84.4981 320.299 84.3541C320.389 84.0301 320.578 83.8051 320.866 83.6791C321.442 83.3911 322.135 82.9141 322.945 82.2481C323.773 81.5821 324.466 80.8621 325.024 80.0881C325.24 79.7821 325.348 79.5121 325.348 79.2781C325.348 78.8101 325.015 78.5401 324.349 78.4681C323.683 78.4681 322.81 78.9181 321.73 79.8181C321.586 79.8541 321.496 79.8721 321.46 79.8721C321.172 79.8721 320.956 79.6291 320.812 79.1431C320.848 78.9631 320.911 78.8101 321.001 78.6841C321.091 78.5401 321.226 78.3691 321.406 78.1711L321.757 77.7121C321.865 77.6581 322.018 77.5681 322.216 77.4421C322.414 77.2981 322.576 77.1901 322.702 77.1181C322.846 77.0461 323.008 77.0101 323.188 77.0101C323.26 77.0101 323.368 76.9921 323.512 76.9561C323.656 76.9021 323.773 76.8751 323.863 76.8751ZM320.596 90.5101C320.542 90.4561 320.47 90.4291 320.38 90.4291C320.254 90.4291 320.101 90.4741 319.921 90.5641C319.741 90.6541 319.624 90.7081 319.57 90.7261C319.498 90.7621 319.408 90.7981 319.3 90.8341C319.21 90.8881 319.093 90.9421 318.949 90.9961C318.427 91.1761 317.896 91.4101 317.356 91.6981C316.798 92.0041 316.384 92.3191 316.114 92.6431C315.934 92.8951 315.718 93.1111 315.466 93.2911C315.682 93.5611 315.907 93.6961 316.141 93.6961C316.141 93.7321 316.231 93.7501 316.411 93.7501C316.699 93.7501 317.041 93.7051 317.437 93.6151C317.833 93.5251 318.175 93.3991 318.463 93.2371C319.003 92.9131 319.552 92.3371 320.11 91.5091C320.344 91.1491 320.506 90.8161 320.596 90.5101Z" fill="#636363"/>
<path d="M333.763 86.9461C333.331 86.5321 333.007 85.9201 332.791 85.1101C332.755 85.0021 332.737 84.8131 332.737 84.5431C332.737 84.2731 332.737 84.0841 332.737 83.9761C332.629 84.2461 332.431 84.4891 332.143 84.7051C331.729 85.1191 331.315 85.4251 330.901 85.6231C330.271 86.0371 329.758 86.2441 329.362 86.2441C329.002 86.2441 328.66 86.0461 328.336 85.6501C328.102 85.4521 327.922 85.2541 327.796 85.0561C327.688 84.8581 327.634 84.6151 327.634 84.3271C327.634 84.1291 327.661 83.9131 327.715 83.6791C327.751 83.0131 327.841 82.3741 327.985 81.7621C328.147 81.1501 328.444 80.3671 328.876 79.4131C329.452 78.2791 329.866 77.5231 330.118 77.1451C330.208 77.1091 330.325 77.0911 330.469 77.0911C330.649 77.0911 330.793 77.1451 330.901 77.2531C331.027 77.3611 331.099 77.5051 331.117 77.6851C331.171 77.7571 331.198 77.8561 331.198 77.9821C331.198 78.4321 330.928 79.1701 330.388 80.1961C329.686 81.8881 329.335 83.0581 329.335 83.7061C329.335 84.0841 329.443 84.3091 329.659 84.3811C329.749 84.4351 329.848 84.4621 329.956 84.4621C330.406 84.4621 330.946 84.1561 331.576 83.5441C332.206 82.9321 332.809 81.9511 333.385 80.6011C333.637 79.9891 333.79 79.3591 333.844 78.7111C333.826 78.6571 333.817 78.5761 333.817 78.4681C333.817 78.1441 333.979 77.8831 334.303 77.6851C334.375 77.5771 334.474 77.4961 334.6 77.4421C334.726 77.3701 334.807 77.3701 334.843 77.4421L335.275 77.4151C335.329 77.3971 335.383 77.4511 335.437 77.5771C335.491 77.6851 335.545 77.7571 335.599 77.7931C335.725 77.9011 335.788 78.0991 335.788 78.3871C335.788 78.9811 335.527 79.8901 335.005 81.1141C334.663 81.8341 334.429 82.3921 334.303 82.7881C334.195 83.1661 334.132 83.5351 334.114 83.8951C334.114 84.5791 334.375 85.1461 334.897 85.5961C335.077 85.7221 335.185 85.8571 335.221 86.0011C335.257 86.1451 335.266 86.3431 335.248 86.5951C335.212 86.7571 335.104 86.8921 334.924 87.0001C334.762 87.0901 334.582 87.1351 334.384 87.1351C334.15 87.1351 333.943 87.0721 333.763 86.9461Z" fill="#636363"/>
<path d="M349.697 84.6511C349.769 84.7051 349.805 84.7861 349.805 84.8941C349.805 85.0201 349.76 85.1461 349.67 85.2721C349.598 85.3801 349.526 85.4341 349.454 85.4341C349.112 85.4341 348.779 85.3441 348.455 85.1641C348.149 84.9661 347.996 84.6601 347.996 84.2461V82.5721C347.996 81.7261 347.933 81.2491 347.807 81.1411C347.537 80.9971 347.069 81.2941 346.403 82.0321C345.755 82.7701 345.125 83.6431 344.513 84.6511C344.315 84.9751 344.153 85.2271 344.027 85.4071C343.901 85.5871 343.802 85.6771 343.73 85.6771C343.676 85.6771 343.586 85.6321 343.46 85.5421C342.902 85.3801 342.623 85.0651 342.623 84.5971C342.623 84.5431 342.641 84.4261 342.677 84.2461C342.857 83.6521 343.037 82.9951 343.217 82.2751C343.397 81.5371 343.541 80.9161 343.649 80.4121C343.595 80.3041 343.505 80.2501 343.379 80.2501C343.199 80.2501 342.992 80.3401 342.758 80.5201C342.308 80.8261 341.732 81.5551 341.03 82.7071C340.148 84.0571 339.536 84.8761 339.194 85.1641C339.068 85.3801 338.951 85.5511 338.843 85.6771C338.753 85.7851 338.663 85.8391 338.573 85.8391C338.501 85.8391 338.366 85.7851 338.168 85.6771C337.646 85.3711 337.385 84.9391 337.385 84.3811C337.385 84.1111 337.466 83.5711 337.628 82.7611C337.79 81.9511 337.97 81.1951 338.168 80.4931C338.33 80.1871 338.474 79.8721 338.6 79.5481C338.744 79.2061 338.816 78.9991 338.816 78.9271C338.888 78.5491 338.978 78.1441 339.086 77.7121C339.194 77.2801 339.275 77.0371 339.329 76.9831C339.455 76.8571 339.599 76.7941 339.761 76.7941C340.031 76.7941 340.229 76.9381 340.355 77.2261C340.553 77.4241 340.652 77.6761 340.652 77.9821C340.652 78.3241 340.553 78.7651 340.355 79.3051C340.049 79.9711 339.716 80.9431 339.356 82.2211C339.734 81.8071 340.004 81.4831 340.166 81.2491C340.598 80.6371 341.156 79.9531 341.84 79.1971C342.398 78.5851 343.028 78.2791 343.73 78.2791C344.558 78.4231 345.035 79.1161 345.161 80.3581C345.161 80.5741 345.143 80.8441 345.107 81.1681C345.071 81.4741 345.044 81.6721 345.026 81.7621C345.098 81.6541 345.278 81.4201 345.566 81.0601C345.872 80.7001 346.241 80.3311 346.673 79.9531C347.069 79.6471 347.438 79.4941 347.78 79.4941C348.068 79.4941 348.32 79.6111 348.536 79.8451C348.914 80.0611 349.184 80.3671 349.346 80.7631C349.508 81.1411 349.589 81.6271 349.589 82.2211C349.589 82.5271 349.58 82.7701 349.562 82.9501C349.526 83.3101 349.508 83.5351 349.508 83.6251C349.508 83.9671 349.571 84.3091 349.697 84.6511Z" fill="#636363"/>
<path d="M355.226 76.0111C355.316 76.0471 355.46 76.1011 355.658 76.1731C355.856 76.2271 356.018 76.3171 356.144 76.4431C356.198 76.5331 356.288 76.6411 356.414 76.7671C356.558 76.8931 356.657 77.0461 356.711 77.2261C356.711 77.4061 356.63 77.5951 356.468 77.7931C356.324 77.9731 356.234 78.0901 356.198 78.1441C356 78.3781 355.847 78.5851 355.739 78.7651C355.631 78.9451 355.541 79.0801 355.469 79.1701C355.343 79.3321 355.208 79.5301 355.064 79.7641C355.352 79.8901 355.55 79.9531 355.658 79.9531C355.874 79.9351 356.108 79.9891 356.36 80.1151C356.612 80.2231 356.819 80.2951 356.981 80.3311C357.269 80.4391 357.602 80.7001 357.98 81.1141C358.376 81.5101 358.619 81.8341 358.709 82.0861C358.907 82.4821 359.006 82.7971 359.006 83.0311C359.006 83.1211 358.997 83.1931 358.979 83.2471C358.925 83.4091 358.898 83.5801 358.898 83.7601C358.826 83.8681 358.7 84.0481 358.52 84.3001C358.358 84.5341 358.196 84.7321 358.034 84.8941C357.872 85.0561 357.665 85.2091 357.413 85.3531C356.171 86.0911 354.992 86.4331 353.876 86.3791C353.804 86.3791 353.714 86.3971 353.606 86.4331C353.516 86.4691 353.435 86.4601 353.363 86.4061C353.039 86.4061 352.742 86.3251 352.472 86.1631C352.22 85.9831 351.977 85.7401 351.743 85.4341C351.563 85.1821 351.473 84.8761 351.473 84.5161C351.473 84.0301 351.59 83.4271 351.824 82.7071C352.058 81.9691 352.301 81.3571 352.553 80.8711C352.571 80.7091 352.643 80.5111 352.769 80.2771C352.913 80.0431 353.003 79.8721 353.039 79.7641C353.111 79.5301 353.336 79.0801 353.714 78.4141C354.11 77.7301 354.416 77.2711 354.632 77.0371C354.65 76.8211 354.74 76.6231 354.902 76.4431C355.064 76.2451 355.172 76.1011 355.226 76.0111ZM354.821 81.1411C354.767 81.1591 354.677 81.1861 354.551 81.2221C354.425 81.2581 354.326 81.3211 354.254 81.4111C354.2 81.4831 354.173 81.5911 354.173 81.7351C354.173 81.7711 354.128 81.8341 354.038 81.9241C353.966 81.9961 353.768 82.5451 353.444 83.5711L353.228 84.2731C353.21 84.3091 353.201 84.3541 353.201 84.4081L353.228 84.7861L353.525 84.8131C353.741 84.8131 353.993 84.7771 354.281 84.7051C354.569 84.6331 354.794 84.5791 354.956 84.5431C355.424 84.4711 355.919 84.2371 356.441 83.8411C356.963 83.4451 357.287 83.0401 357.413 82.6261C357.449 82.5181 357.467 82.4281 357.467 82.3561C357.467 82.0861 357.377 81.8881 357.197 81.7621C357.143 81.7261 357.035 81.6541 356.873 81.5461C356.729 81.4381 356.585 81.3571 356.441 81.3031C356.297 81.2491 356.153 81.2221 356.009 81.2221H355.955C355.919 81.2221 355.82 81.1951 355.658 81.1411C355.568 81.1051 355.424 81.0871 355.226 81.0871C355.046 81.0871 354.911 81.1051 354.821 81.1411Z" fill="#636363"/>
</svg>
