<svg width="284" height="137" viewBox="0 0 284 137" fill="none" xmlns="http://www.w3.org/2000/svg">
<path d="M1.429 19.621C0.907005 19.621 0.574005 19.549 0.430005 19.405C0.286005 19.261 0.214005 19.063 0.214005 18.811C0.268004 18.649 0.340005 18.469 0.430005 18.271C0.610005 17.785 0.727005 17.434 0.781005 17.218C0.853005 16.876 0.970005 16.444 1.132 15.922C1.96 13.258 2.518 11.575 2.806 10.873L3.832 8.011L4.77701 5.257C5.22701 4.285 5.54201 3.475 5.722 2.827C5.74 2.791 5.749 2.737 5.749 2.665C5.749 2.611 5.722 2.53 5.668 2.422C5.61401 2.296 5.587 2.161 5.587 2.017C5.569 1.801 5.623 1.648 5.749 1.558C5.893 1.45 6.07301 1.423 6.28901 1.477C6.73901 1.603 7.49501 1.666 8.55701 1.666C8.95301 1.666 9.18701 1.648 9.25901 1.612C9.40301 1.54 10.258 1.396 11.824 1.18C13.39 0.963999 14.866 0.774999 16.252 0.612999L16.495 0.585999C16.639 0.585999 16.801 0.603999 16.981 0.639999C17.179 0.675999 17.314 0.702999 17.386 0.720999C17.656 0.774999 17.89 0.919 18.088 1.153C18.304 1.369 18.385 1.612 18.331 1.882C18.259 2.098 18.061 2.206 17.737 2.206C17.629 2.206 17.359 2.17 16.927 2.098C16.891 2.098 16.828 2.269 16.738 2.611C16.666 2.953 16.585 3.232 16.495 3.448C16.297 3.7 16.036 4.33 15.712 5.338C15.388 6.346 15.226 7.003 15.226 7.309C14.974 7.687 14.767 8.254 14.605 9.01C14.515 9.388 14.425 9.694 14.335 9.928C14.119 10.666 13.777 11.89 13.309 13.6C12.859 15.31 12.643 16.165 12.661 16.165L12.553 17.137C12.481 17.731 12.436 18.145 12.418 18.379C12.436 18.451 12.436 18.514 12.418 18.568C12.418 18.622 12.391 18.658 12.337 18.676C12.211 18.802 11.977 18.865 11.635 18.865C11.491 18.865 11.347 18.847 11.203 18.811C11.077 18.775 10.996 18.73 10.96 18.676C10.942 18.622 10.888 18.523 10.798 18.379C10.708 18.217 10.681 18.055 10.717 17.893C10.771 17.317 10.915 16.327 11.149 14.923C11.239 14.473 11.347 14.059 11.473 13.681C11.599 13.285 11.689 13.069 11.743 13.033L12.256 11.116C12.454 10.558 12.607 9.973 12.715 9.361C12.733 9.289 12.778 9.1 12.85 8.794C12.922 8.47 13.03 8.11 13.174 7.714C13.372 7.21 13.543 6.67 13.687 6.094C13.849 5.5 13.948 5.131 13.984 4.987C14.038 4.789 14.191 4.33 14.443 3.61C14.479 3.52 14.542 3.331 14.632 3.043C14.74 2.737 14.785 2.494 14.767 2.314L12.985 2.557L11.365 2.773L9.50201 3.043C8.53001 3.187 8.017 3.259 7.96301 3.259C7.65701 3.313 7.50401 3.421 7.50401 3.583C7.07201 4.411 6.68501 5.239 6.34301 6.067C6.00101 6.877 5.76701 7.552 5.64101 8.092C5.56901 8.254 5.27201 9.046 4.75 10.468C4.426 11.296 4.27301 11.692 4.29101 11.656C3.93101 12.862 3.544 13.996 3.13 15.058C3.04 15.256 2.959 15.445 2.887 15.625C2.833 15.805 2.779 16.066 2.725 16.408C2.581 16.786 2.419 17.389 2.239 18.217C2.167 18.451 2.122 18.631 2.104 18.757C2.104 18.865 2.086 19.009 2.05 19.189C1.906 19.477 1.699 19.621 1.429 19.621Z" fill="white"/>
<path d="M15.7787 25.075C15.6347 25.075 15.5177 24.994 15.4277 24.832C15.3377 24.706 15.2927 24.553 15.2927 24.373C15.2927 24.247 15.3377 23.941 15.4277 23.455C15.6257 22.699 15.7247 22.177 15.7247 21.889C15.7247 21.799 15.7427 21.664 15.7787 21.484C15.8147 21.322 15.8417 21.169 15.8597 21.025C15.9317 20.899 15.9947 20.701 16.0487 20.431C16.1207 20.179 16.1567 19.954 16.1567 19.756C16.1567 19.666 16.1837 19.558 16.2377 19.432C16.3097 19.324 16.3907 19.234 16.4807 19.162C16.4807 19.054 16.5077 18.892 16.5617 18.676C16.6157 18.442 16.6517 18.28 16.6697 18.19C16.7597 17.704 17.1107 16.552 17.7227 14.734C18.3347 12.916 18.8567 11.449 19.2887 10.333C19.4867 9.883 19.6307 9.469 19.7207 9.091C19.8107 8.713 19.8557 8.416 19.8557 8.2C19.8557 8.128 19.8737 8.065 19.9097 8.011C19.9637 7.939 20.0447 7.849 20.1527 7.741C20.2787 7.615 20.3957 7.552 20.5037 7.552C20.5937 7.552 20.6927 7.588 20.8007 7.66C20.9087 7.732 21.0167 7.813 21.1247 7.903C21.2327 8.065 21.3137 8.218 21.3677 8.362C21.4397 8.506 21.4757 8.659 21.4757 8.821C21.4757 8.875 21.4577 9.046 21.4217 9.334C21.4217 9.712 21.3407 10.027 21.1787 10.279C21.0167 10.513 20.9537 10.621 20.9897 10.603C21.7997 10.225 22.5197 10.036 23.1497 10.036C23.9057 10.036 24.4907 10.279 24.9047 10.765C25.3367 11.251 25.5527 11.881 25.5527 12.655C25.5527 12.979 25.4537 13.375 25.2557 13.843C25.0757 14.293 24.8957 14.599 24.7157 14.761C24.6077 14.761 24.4637 14.95 24.2837 15.328C24.0497 15.616 23.6627 15.922 23.1227 16.246C22.5827 16.552 22.2047 16.669 21.9887 16.597C21.9707 16.597 21.9437 16.606 21.9077 16.624C21.8717 16.642 21.8537 16.687 21.8537 16.759C21.8537 16.831 21.5477 16.966 20.9357 17.164C20.3237 17.362 19.8197 17.461 19.4237 17.461C19.2077 17.461 19.0457 17.452 18.9377 17.434C18.8297 17.398 18.7217 17.335 18.6137 17.245C18.4877 17.371 18.4247 17.488 18.4247 17.596C18.4247 17.794 18.3347 18.154 18.1547 18.676C17.9747 19.198 17.8307 19.459 17.7227 19.459C17.7047 19.477 17.6777 19.513 17.6417 19.567C17.6237 19.621 17.6507 19.684 17.7227 19.756C17.7227 19.81 17.7137 19.936 17.6957 20.134C17.6777 20.332 17.6327 20.485 17.5607 20.593C17.5607 20.755 17.5337 20.971 17.4797 21.241C17.4257 21.529 17.3627 21.745 17.2907 21.889C17.2907 22.105 17.2547 22.312 17.1827 22.51C17.1287 22.726 17.0657 22.834 16.9937 22.834C16.8857 22.87 16.8317 23.131 16.8317 23.617C16.8137 24.067 16.7237 24.418 16.5617 24.67C16.3997 24.922 16.2107 25.048 15.9947 25.048L15.7787 25.075ZM19.2617 16.03C19.5317 16.03 20.0717 15.895 20.8817 15.625C21.7097 15.337 22.2857 15.058 22.6097 14.788C22.9877 14.464 23.2937 14.122 23.5277 13.762C23.7617 13.384 23.8787 13.006 23.8787 12.628C23.8787 12.34 23.7977 12.079 23.6357 11.845C23.5097 11.647 23.2937 11.548 22.9877 11.548C22.6277 11.548 22.1957 11.674 21.6917 11.926C21.2057 12.178 20.7557 12.511 20.3417 12.925C20.0177 13.249 19.7297 13.717 19.4777 14.329C19.2257 14.923 19.0997 15.391 19.0997 15.733C19.0997 15.931 19.1537 16.03 19.2617 16.03Z" fill="white"/>
<path d="M33.4411 18.946C33.0091 18.532 32.6851 17.92 32.4691 17.11C32.4331 17.002 32.4151 16.813 32.4151 16.543C32.4151 16.273 32.4151 16.084 32.4151 15.976C32.3071 16.246 32.1091 16.489 31.8211 16.705C31.4071 17.119 30.9931 17.425 30.5791 17.623C29.9491 18.037 29.4361 18.244 29.0401 18.244C28.6801 18.244 28.3381 18.046 28.0141 17.65C27.7801 17.452 27.6001 17.254 27.4741 17.056C27.3661 16.858 27.3121 16.615 27.3121 16.327C27.3121 16.129 27.3391 15.913 27.3931 15.679C27.4291 15.013 27.5191 14.374 27.6631 13.762C27.8251 13.15 28.1221 12.367 28.5541 11.413C29.1301 10.279 29.5441 9.523 29.7961 9.145C29.8861 9.109 30.0031 9.091 30.1471 9.091C30.3271 9.091 30.4711 9.145 30.5791 9.253C30.7051 9.361 30.7771 9.505 30.7951 9.685C30.8491 9.757 30.8761 9.856 30.8761 9.982C30.8761 10.432 30.6061 11.17 30.0661 12.196C29.3641 13.888 29.0131 15.058 29.0131 15.706C29.0131 16.084 29.1211 16.309 29.3371 16.381C29.4271 16.435 29.5261 16.462 29.6341 16.462C30.0841 16.462 30.6241 16.156 31.2541 15.544C31.8841 14.932 32.4871 13.951 33.0631 12.601C33.3151 11.989 33.4681 11.359 33.5221 10.711C33.5041 10.657 33.4951 10.576 33.4951 10.468C33.4951 10.144 33.6571 9.883 33.9811 9.685C34.0531 9.577 34.1521 9.496 34.2781 9.442C34.4041 9.37 34.4851 9.37 34.5211 9.442L34.9531 9.415C35.0071 9.397 35.0611 9.451 35.1151 9.577C35.1691 9.685 35.2231 9.757 35.2771 9.793C35.4031 9.901 35.4661 10.099 35.4661 10.387C35.4661 10.981 35.2051 11.89 34.6831 13.114C34.3411 13.834 34.1071 14.392 33.9811 14.788C33.8731 15.166 33.8101 15.535 33.7921 15.895C33.7921 16.579 34.0531 17.146 34.5751 17.596C34.7551 17.722 34.8631 17.857 34.8991 18.001C34.9351 18.145 34.9441 18.343 34.9261 18.595C34.8901 18.757 34.7821 18.892 34.6021 19C34.4401 19.09 34.2601 19.135 34.0621 19.135C33.8281 19.135 33.6211 19.072 33.4411 18.946Z" fill="white"/>
<path d="M44.2173 15.328C44.1453 15.436 44.0103 15.625 43.8123 15.895C43.6143 16.147 43.4703 16.408 43.3803 16.678C43.3263 16.822 43.2363 16.948 43.1103 17.056C43.0023 17.146 42.9393 17.2 42.9213 17.218C42.8313 17.182 42.7233 17.146 42.5973 17.11C42.4893 17.074 42.3993 17.029 42.3273 16.975C42.2553 16.903 42.1653 16.813 42.0573 16.705C41.6973 16.363 41.5533 16.039 41.6253 15.733C41.6073 15.553 41.5983 15.373 41.5983 15.193C41.6163 15.013 41.6253 14.851 41.6253 14.707C41.6433 14.491 41.6523 14.167 41.6523 13.735C41.6523 12.907 41.6073 12.394 41.5173 12.196C41.3193 12.214 41.1843 12.241 41.1123 12.277C41.0403 12.313 40.9503 12.421 40.8423 12.601C40.8063 12.673 40.6983 12.844 40.5183 13.114C40.3563 13.366 40.1403 13.681 39.8703 14.059C39.6003 14.473 39.2493 15.004 38.8173 15.652C38.4033 16.3 38.2053 16.615 38.2233 16.597C38.0073 16.849 37.8273 17.173 37.6833 17.569C37.4853 18.019 37.2873 18.145 37.0893 17.947C36.7113 17.749 36.4323 17.578 36.2523 17.434C36.0903 17.146 36.0003 16.858 35.9823 16.57C36.0363 16.552 36.0993 16.525 36.1713 16.489C36.2433 16.435 36.2973 16.39 36.3333 16.354C36.3693 16.318 36.3963 16.273 36.4143 16.219L38.4663 13.222L38.8173 12.709C38.9073 12.529 39.1503 12.187 39.5463 11.683C39.5823 11.593 39.7533 11.35 40.0593 10.954C40.3833 10.558 40.5993 10.333 40.7073 10.279C40.7973 10.225 40.8693 10.135 40.9233 10.009C40.9953 9.865 41.0403 9.775 41.0583 9.739C41.1123 9.451 41.3013 9.307 41.6253 9.307C41.7333 9.307 41.8143 9.316 41.8683 9.334L42.9213 10.144C42.9033 10.216 42.8943 10.333 42.8943 10.495C42.8943 10.747 42.9663 11.125 43.1103 11.629C43.0923 11.683 43.0833 11.764 43.0833 11.872C43.0833 12.016 43.0923 12.16 43.1103 12.304C43.1463 12.43 43.1643 12.565 43.1643 12.709C43.1643 12.817 43.1553 12.898 43.1373 12.952C43.1373 13.294 43.2273 13.465 43.4073 13.465C43.5333 13.465 43.6863 13.375 43.8663 13.195C44.3703 12.565 45.3243 11.548 46.7283 10.144C47.2503 9.622 47.5293 9.334 47.5653 9.28C47.6193 9.19 47.7093 9.145 47.8353 9.145C47.9253 9.145 47.9973 9.163 48.0513 9.199C48.3033 9.325 48.4923 9.433 48.6183 9.523C48.7623 9.613 48.9333 9.757 49.1313 9.955C49.2393 10.081 49.2933 10.216 49.2933 10.36C49.2933 10.45 49.2663 10.54 49.2123 10.63C49.0503 11.008 48.8343 11.755 48.5643 12.871C48.2943 13.969 48.1503 14.743 48.1323 15.193C48.1323 15.319 48.1143 15.517 48.0783 15.787C48.0603 16.039 48.0513 16.264 48.0513 16.462C48.0513 16.858 48.0873 17.209 48.1593 17.515C48.2493 17.857 48.2943 18.145 48.2943 18.379C48.2943 18.559 48.2493 18.685 48.1593 18.757C48.0873 18.829 47.9433 18.883 47.7273 18.919C47.6193 18.865 47.4843 18.775 47.3223 18.649C47.1603 18.505 47.0073 18.388 46.8633 18.298C46.8273 18.154 46.7553 17.929 46.6473 17.623C46.5573 17.299 46.5213 17.011 46.5393 16.759C46.5393 16.669 46.5123 16.525 46.4583 16.327C46.4223 16.111 46.4313 15.949 46.4853 15.841L46.4583 15.517C46.4583 14.869 46.6113 13.861 46.9173 12.493C46.8633 12.421 46.8093 12.376 46.7553 12.358C46.7193 12.34 46.6653 12.367 46.5933 12.439C46.3593 12.655 46.0173 13.024 45.5673 13.546C45.5313 13.582 45.4593 13.645 45.3513 13.735C45.2433 13.807 45.1893 13.906 45.1893 14.032L44.2173 15.328Z" fill="white"/>
<path d="M55.8397 18.055C55.3897 18.451 54.8497 18.649 54.2197 18.649C53.7697 18.649 53.3377 18.541 52.9237 18.325C52.5277 18.109 52.1947 17.812 51.9247 17.434C51.6907 17.146 51.5197 16.822 51.4117 16.462C51.3037 16.102 51.2497 15.661 51.2497 15.139C51.2497 14.959 51.2677 14.599 51.3037 14.059C51.3577 13.393 51.5737 12.7 51.9517 11.98C52.3477 11.26 52.8337 10.621 53.4097 10.063C53.9857 9.487 54.5527 9.091 55.1107 8.875C55.3987 8.695 55.6597 8.605 55.8937 8.605C56.0197 8.605 56.1457 8.614 56.2717 8.632C56.3977 8.65 56.5327 8.668 56.6767 8.686C57.0727 8.74 57.3697 8.821 57.5677 8.929C57.7837 9.019 57.9637 9.163 58.1077 9.361C58.5577 9.811 58.7827 10.333 58.7827 10.927C58.7107 11.359 58.4317 11.854 57.9457 12.412C57.4597 12.97 56.8747 13.42 56.1907 13.762C55.8667 13.87 55.4977 13.924 55.0837 13.924C54.5257 13.924 54.0757 13.807 53.7337 13.573C53.5717 13.519 53.4457 13.492 53.3557 13.492C53.1937 13.492 53.0677 13.6 52.9777 13.816C52.9057 14.032 52.8337 14.428 52.7617 15.004C52.7437 15.13 52.7347 15.31 52.7347 15.544C52.7347 16.462 53.0407 16.966 53.6527 17.056C54.0667 17.146 54.3637 17.191 54.5437 17.191C54.7597 17.191 55.0027 17.119 55.2727 16.975L55.7857 16.678C55.8937 16.624 55.9927 16.552 56.0827 16.462C56.1727 16.372 56.2537 16.291 56.3257 16.219C56.3617 16.183 56.4157 16.129 56.4877 16.057C56.5597 15.967 56.6227 15.913 56.6767 15.895C56.7487 15.859 56.8117 15.841 56.8657 15.841C56.9377 15.841 57.0187 15.886 57.1087 15.976C57.1987 16.048 57.2707 16.102 57.3247 16.138C57.4867 16.138 57.5227 16.255 57.4327 16.489C57.3427 16.705 57.1447 16.966 56.8387 17.272C56.5507 17.56 56.2177 17.821 55.8397 18.055ZM55.8127 12.331C56.1187 12.205 56.4247 11.98 56.7307 11.656C57.0547 11.332 57.2167 11.062 57.2167 10.846C57.2167 10.63 57.1357 10.45 56.9737 10.306C56.8117 10.162 56.5867 10.09 56.2987 10.09C56.0827 10.09 55.9207 10.108 55.8127 10.144C55.5607 10.216 55.2637 10.414 54.9217 10.738C54.5797 11.044 54.2827 11.359 54.0307 11.683C53.7787 12.007 53.6797 12.196 53.7337 12.25C53.8237 12.412 54.1747 12.493 54.7867 12.493C55.2007 12.493 55.5427 12.439 55.8127 12.331Z" fill="white"/>
<path d="M58.599 25.075C58.455 25.075 58.338 24.994 58.248 24.832C58.158 24.706 58.113 24.553 58.113 24.373C58.113 24.247 58.158 23.941 58.248 23.455C58.446 22.699 58.545 22.177 58.545 21.889C58.545 21.799 58.563 21.664 58.599 21.484C58.635 21.322 58.662 21.169 58.68 21.025C58.752 20.899 58.815 20.701 58.869 20.431C58.941 20.179 58.977 19.954 58.977 19.756C58.977 19.666 59.004 19.558 59.058 19.432C59.13 19.324 59.211 19.234 59.301 19.162C59.301 19.054 59.328 18.892 59.382 18.676C59.436 18.442 59.472 18.28 59.49 18.19C59.58 17.704 59.931 16.552 60.543 14.734C61.155 12.916 61.677 11.449 62.109 10.333C62.307 9.883 62.451 9.469 62.541 9.091C62.631 8.713 62.676 8.416 62.676 8.2C62.676 8.128 62.694 8.065 62.73 8.011C62.784 7.939 62.865 7.849 62.973 7.741C63.099 7.615 63.216 7.552 63.324 7.552C63.414 7.552 63.513 7.588 63.621 7.66C63.729 7.732 63.837 7.813 63.945 7.903C64.053 8.065 64.134 8.218 64.188 8.362C64.26 8.506 64.296 8.659 64.296 8.821C64.296 8.875 64.278 9.046 64.242 9.334C64.242 9.712 64.161 10.027 63.999 10.279C63.837 10.513 63.774 10.621 63.81 10.603C64.62 10.225 65.34 10.036 65.97 10.036C66.726 10.036 67.311 10.279 67.725 10.765C68.157 11.251 68.373 11.881 68.373 12.655C68.373 12.979 68.274 13.375 68.076 13.843C67.896 14.293 67.716 14.599 67.536 14.761C67.428 14.761 67.284 14.95 67.104 15.328C66.87 15.616 66.483 15.922 65.943 16.246C65.403 16.552 65.025 16.669 64.809 16.597C64.791 16.597 64.764 16.606 64.728 16.624C64.692 16.642 64.674 16.687 64.674 16.759C64.674 16.831 64.368 16.966 63.756 17.164C63.144 17.362 62.64 17.461 62.244 17.461C62.028 17.461 61.866 17.452 61.758 17.434C61.65 17.398 61.542 17.335 61.434 17.245C61.308 17.371 61.245 17.488 61.245 17.596C61.245 17.794 61.155 18.154 60.975 18.676C60.795 19.198 60.651 19.459 60.543 19.459C60.525 19.477 60.498 19.513 60.462 19.567C60.444 19.621 60.471 19.684 60.543 19.756C60.543 19.81 60.534 19.936 60.516 20.134C60.498 20.332 60.453 20.485 60.381 20.593C60.381 20.755 60.354 20.971 60.3 21.241C60.246 21.529 60.183 21.745 60.111 21.889C60.111 22.105 60.075 22.312 60.003 22.51C59.949 22.726 59.886 22.834 59.814 22.834C59.706 22.87 59.652 23.131 59.652 23.617C59.634 24.067 59.544 24.418 59.382 24.67C59.22 24.922 59.031 25.048 58.815 25.048L58.599 25.075ZM62.082 16.03C62.352 16.03 62.892 15.895 63.702 15.625C64.53 15.337 65.106 15.058 65.43 14.788C65.808 14.464 66.114 14.122 66.348 13.762C66.582 13.384 66.699 13.006 66.699 12.628C66.699 12.34 66.618 12.079 66.456 11.845C66.33 11.647 66.114 11.548 65.808 11.548C65.448 11.548 65.016 11.674 64.512 11.926C64.026 12.178 63.576 12.511 63.162 12.925C62.838 13.249 62.55 13.717 62.298 14.329C62.046 14.923 61.92 15.391 61.92 15.733C61.92 15.931 61.974 16.03 62.082 16.03Z" fill="white"/>
<path d="M72.366 8.821C72.69 8.857 72.924 8.929 73.068 9.037C73.23 9.127 73.419 9.343 73.635 9.685C73.617 9.829 73.239 10.792 72.501 12.574C71.997 13.744 71.745 14.374 71.745 14.464C71.745 14.482 71.853 14.356 72.069 14.086C72.285 13.816 72.582 13.528 72.96 13.222C73.356 12.826 73.932 12.448 74.688 12.088C74.922 11.998 75.129 11.944 75.309 11.926C75.489 11.89 75.606 11.863 75.66 11.845C76.074 11.845 76.416 11.953 76.686 12.169C76.974 12.367 77.181 12.61 77.307 12.898C77.433 13.186 77.496 13.438 77.496 13.654C77.586 14.05 77.631 14.392 77.631 14.68C77.631 14.878 77.604 15.085 77.55 15.301C77.406 15.643 77.208 16.012 76.956 16.408C76.704 16.786 76.416 17.083 76.092 17.299C75.84 17.551 75.48 17.812 75.012 18.082C74.544 18.352 74.121 18.541 73.743 18.649C73.167 18.811 72.753 18.892 72.501 18.892C72.195 18.892 71.907 18.766 71.637 18.514C71.583 18.46 71.529 18.379 71.475 18.271C71.439 18.145 71.394 18.073 71.34 18.055V17.947C71.34 17.749 71.466 17.605 71.718 17.515C71.898 17.623 72.123 17.677 72.393 17.677C72.825 17.677 73.284 17.551 73.77 17.299C74.274 17.029 74.661 16.696 74.931 16.3C75.669 15.418 76.056 14.662 76.092 14.032C76.092 13.87 76.074 13.753 76.038 13.681C76.002 13.591 75.903 13.447 75.741 13.249C75.075 13.465 74.571 13.744 74.229 14.086C73.419 14.77 72.861 15.283 72.555 15.625C72.267 15.949 71.898 16.48 71.448 17.218C71.16 17.578 70.908 17.758 70.692 17.758L70.719 17.92C70.719 18.19 70.584 18.352 70.314 18.406C69.918 18.316 69.639 18.217 69.477 18.109C69.333 17.983 69.261 17.776 69.261 17.488C69.261 17.344 69.27 17.227 69.288 17.137C69.324 17.029 69.351 16.93 69.369 16.84C69.387 16.732 69.405 16.633 69.423 16.543C69.459 16.417 69.504 16.228 69.558 15.976C69.63 15.706 69.693 15.499 69.747 15.355C70.071 14.509 70.251 14.014 70.287 13.87C70.647 12.88 70.935 12.115 71.151 11.575C71.385 11.035 71.592 10.63 71.772 10.36L72.366 8.821ZM80.574 9.334C80.736 9.154 80.916 9.064 81.114 9.064C81.384 9.064 81.726 9.271 82.14 9.685C82.23 9.919 82.275 10.117 82.275 10.279C82.275 10.405 82.23 10.576 82.14 10.792C81.996 11.098 81.699 11.899 81.249 13.195C81.213 13.429 81.042 13.978 80.736 14.842C80.43 15.724 80.232 16.345 80.142 16.705C79.98 17.119 79.845 17.695 79.737 18.433V18.541C79.737 18.775 79.611 18.955 79.359 19.081C78.711 18.991 78.297 18.631 78.117 18.001C78.117 17.731 78.162 17.434 78.252 17.11C78.342 16.786 78.405 16.543 78.441 16.381C78.531 16.021 78.702 15.481 78.954 14.761C79.116 14.311 79.215 14.023 79.251 13.897C79.413 13.537 79.575 13.06 79.737 12.466C79.845 12.088 80.025 11.539 80.277 10.819C80.367 10.513 80.466 10.018 80.574 9.334Z" fill="white"/>
<path d="M97.6787 9.037C97.9667 9.325 98.1107 9.622 98.1107 9.928C98.1107 10.252 97.8947 10.819 97.4627 11.629C97.3187 12.043 97.1567 12.43 96.9767 12.79C96.8147 13.15 96.6887 13.384 96.5987 13.492L95.9777 14.923C95.7077 15.517 95.3747 16.21 94.9787 17.002C94.4927 18.01 94.1507 18.757 93.9527 19.243L93.6017 19.81C92.7017 21.25 92.0087 22.258 91.5227 22.834C90.5327 23.716 89.7677 24.229 89.2277 24.373C88.9937 24.445 88.7147 24.481 88.3907 24.481C87.7967 24.481 87.2387 24.346 86.7167 24.076C86.1767 23.824 85.8707 23.527 85.7987 23.185C85.7807 23.059 85.8257 22.924 85.9337 22.78C86.0417 22.636 86.1587 22.564 86.2847 22.564C86.3747 22.564 86.4467 22.6 86.5007 22.672C86.6447 22.78 86.8517 22.879 87.1217 22.969C87.4097 23.077 87.7157 23.131 88.0397 23.131C88.1657 23.131 88.3367 23.113 88.5527 23.077C88.9127 23.005 89.2907 22.789 89.6867 22.429C90.0827 22.069 90.4427 21.673 90.7667 21.241C91.3787 20.341 92.0357 19.216 92.7377 17.866C92.4857 17.794 92.2427 17.623 92.0087 17.353C91.7747 17.065 91.5857 16.768 91.4417 16.462C91.3157 16.156 91.2707 15.931 91.3067 15.787V15.49C91.1447 15.49 91.0097 15.184 90.9017 14.572C90.8117 13.96 90.7667 13.249 90.7667 12.439C90.7667 12.133 90.7847 11.746 90.8207 11.278C90.8927 10.99 90.9287 10.639 90.9287 10.225C90.9467 9.793 90.9557 9.514 90.9557 9.388V9.28C90.9557 9.064 90.9737 8.911 91.0097 8.821C91.0637 8.731 91.1447 8.65 91.2527 8.578C91.3967 8.506 91.5407 8.47 91.6847 8.47C92.1887 8.47 92.4407 9.136 92.4407 10.468C92.4407 10.666 92.4227 11.053 92.3867 11.629C92.3687 11.881 92.3597 12.259 92.3597 12.763C92.3597 13.699 92.4407 14.527 92.6027 15.247C92.7647 15.967 93.0077 16.462 93.3317 16.732L93.4937 16.354C93.6917 15.832 93.8447 15.499 93.9527 15.355C94.2047 14.833 94.3487 14.5 94.3847 14.356C94.4207 14.23 94.5197 14.023 94.6817 13.735L95.0327 13.006C95.0687 12.898 95.1857 12.556 95.3837 11.98C95.5817 11.386 95.7797 10.909 95.9777 10.549C96.0497 10.405 96.1577 10.198 96.3017 9.928C96.4457 9.64 96.5627 9.433 96.6527 9.307C96.7427 9.181 96.8417 9.1 96.9497 9.064C97.0937 8.938 97.2107 8.875 97.3007 8.875C97.3727 8.875 97.4987 8.929 97.6787 9.037Z" fill="white"/>
<path d="M104.592 8.767C104.772 8.749 105.024 8.776 105.348 8.848C105.672 8.92 105.915 8.956 106.077 8.956C106.707 9.208 107.175 9.469 107.481 9.739C107.787 9.991 107.922 10.351 107.886 10.819C107.85 10.999 107.814 11.26 107.778 11.602C107.76 11.944 107.679 12.232 107.535 12.466C107.517 12.592 107.445 12.817 107.319 13.141C107.193 13.465 107.112 13.681 107.076 13.789C106.698 14.707 106.473 15.346 106.401 15.706C106.383 15.778 106.329 15.895 106.239 16.057C106.167 16.219 106.131 16.354 106.131 16.462C106.149 16.642 106.113 16.867 106.023 17.137C105.951 17.407 105.861 17.605 105.753 17.731C105.609 17.875 105.447 17.947 105.267 17.947C105.015 17.947 104.79 17.857 104.592 17.677C104.412 17.479 104.331 17.263 104.349 17.029C104.349 16.597 104.403 16.057 104.511 15.409C104.637 15.283 104.709 15.148 104.727 15.004C104.745 14.842 104.763 14.734 104.781 14.68C105.051 14.05 105.303 13.33 105.537 12.52C105.789 11.71 105.915 11.089 105.915 10.657C105.915 10.531 105.906 10.441 105.888 10.387C105.456 10.387 104.862 10.414 104.106 10.468C103.35 10.522 102.927 10.549 102.837 10.549C102.765 10.567 102.702 10.612 102.648 10.684C102.594 10.738 102.567 10.792 102.567 10.846C102.531 11.08 102.459 11.332 102.351 11.602C102.243 11.872 102.171 12.052 102.135 12.142C101.919 12.628 101.766 13.069 101.676 13.465C101.658 13.645 101.505 14.05 101.217 14.68C100.749 15.814 100.506 16.552 100.488 16.894C100.326 17.128 100.236 17.479 100.218 17.947C100.2 18.091 100.137 18.19 100.029 18.244C99.9212 18.298 99.7232 18.352 99.4352 18.406C99.3092 18.388 99.1922 18.334 99.0842 18.244C98.9762 18.154 98.8772 18.055 98.7872 17.947C98.6972 17.839 98.5982 17.731 98.4902 17.623C98.4902 17.335 98.6072 16.804 98.8412 16.03C99.0752 15.256 99.2822 14.707 99.4622 14.383C99.5522 13.897 99.7232 13.357 99.9752 12.763C100.029 12.619 100.146 12.286 100.326 11.764C100.542 10.99 100.74 10.333 100.92 9.793C100.992 9.631 101.037 9.478 101.055 9.334C101.091 9.19 101.127 9.091 101.163 9.037C101.217 8.983 101.343 8.902 101.541 8.794C101.775 8.884 101.973 8.929 102.135 8.929C102.279 8.929 102.423 8.884 102.567 8.794C102.621 8.776 102.693 8.776 102.783 8.794C102.891 8.794 103.008 8.794 103.134 8.794H103.755C104.187 8.794 104.466 8.785 104.592 8.767Z" fill="white"/>
<path d="M107.616 25.075C107.472 25.075 107.355 24.994 107.265 24.832C107.175 24.706 107.13 24.553 107.13 24.373C107.13 24.247 107.175 23.941 107.265 23.455C107.463 22.699 107.562 22.177 107.562 21.889C107.562 21.799 107.58 21.664 107.616 21.484C107.652 21.322 107.679 21.169 107.697 21.025C107.769 20.899 107.832 20.701 107.886 20.431C107.958 20.179 107.994 19.954 107.994 19.756C107.994 19.666 108.021 19.558 108.075 19.432C108.147 19.324 108.228 19.234 108.318 19.162C108.318 19.054 108.345 18.892 108.399 18.676C108.453 18.442 108.489 18.28 108.507 18.19C108.597 17.704 108.948 16.552 109.56 14.734C110.172 12.916 110.694 11.449 111.126 10.333C111.324 9.883 111.468 9.469 111.558 9.091C111.648 8.713 111.693 8.416 111.693 8.2C111.693 8.128 111.711 8.065 111.747 8.011C111.801 7.939 111.882 7.849 111.99 7.741C112.116 7.615 112.233 7.552 112.341 7.552C112.431 7.552 112.53 7.588 112.638 7.66C112.746 7.732 112.854 7.813 112.962 7.903C113.07 8.065 113.151 8.218 113.205 8.362C113.277 8.506 113.313 8.659 113.313 8.821C113.313 8.875 113.295 9.046 113.259 9.334C113.259 9.712 113.178 10.027 113.016 10.279C112.854 10.513 112.791 10.621 112.827 10.603C113.637 10.225 114.357 10.036 114.987 10.036C115.743 10.036 116.328 10.279 116.742 10.765C117.174 11.251 117.39 11.881 117.39 12.655C117.39 12.979 117.291 13.375 117.093 13.843C116.913 14.293 116.733 14.599 116.553 14.761C116.445 14.761 116.301 14.95 116.121 15.328C115.887 15.616 115.5 15.922 114.96 16.246C114.42 16.552 114.042 16.669 113.826 16.597C113.808 16.597 113.781 16.606 113.745 16.624C113.709 16.642 113.691 16.687 113.691 16.759C113.691 16.831 113.385 16.966 112.773 17.164C112.161 17.362 111.657 17.461 111.261 17.461C111.045 17.461 110.883 17.452 110.775 17.434C110.667 17.398 110.559 17.335 110.451 17.245C110.325 17.371 110.262 17.488 110.262 17.596C110.262 17.794 110.172 18.154 109.992 18.676C109.812 19.198 109.668 19.459 109.56 19.459C109.542 19.477 109.515 19.513 109.479 19.567C109.461 19.621 109.488 19.684 109.56 19.756C109.56 19.81 109.551 19.936 109.533 20.134C109.515 20.332 109.47 20.485 109.398 20.593C109.398 20.755 109.371 20.971 109.317 21.241C109.263 21.529 109.2 21.745 109.128 21.889C109.128 22.105 109.092 22.312 109.02 22.51C108.966 22.726 108.903 22.834 108.831 22.834C108.723 22.87 108.669 23.131 108.669 23.617C108.651 24.067 108.561 24.418 108.399 24.67C108.237 24.922 108.048 25.048 107.832 25.048L107.616 25.075ZM111.099 16.03C111.369 16.03 111.909 15.895 112.719 15.625C113.547 15.337 114.123 15.058 114.447 14.788C114.825 14.464 115.131 14.122 115.365 13.762C115.599 13.384 115.716 13.006 115.716 12.628C115.716 12.34 115.635 12.079 115.473 11.845C115.347 11.647 115.131 11.548 114.825 11.548C114.465 11.548 114.033 11.674 113.529 11.926C113.043 12.178 112.593 12.511 112.179 12.925C111.855 13.249 111.567 13.717 111.315 14.329C111.063 14.923 110.937 15.391 110.937 15.733C110.937 15.931 110.991 16.03 111.099 16.03Z" fill="white"/>
<path d="M119.278 18.028C119.224 17.92 119.134 17.812 119.008 17.704C118.9 17.578 118.846 17.497 118.846 17.461C118.846 17.263 118.801 17.11 118.711 17.002C118.675 16.966 118.657 16.885 118.657 16.759C118.657 16.471 118.792 15.985 119.062 15.301C119.35 14.599 119.719 13.843 120.169 13.033C120.277 12.925 120.412 12.736 120.574 12.466C120.754 12.196 120.871 12.043 120.925 12.007C120.925 11.935 120.952 11.872 121.006 11.818C121.06 11.746 121.123 11.71 121.195 11.71V11.548C121.195 11.386 121.492 10.999 122.086 10.387C122.68 9.757 123.166 9.325 123.544 9.091C123.994 8.785 124.453 8.632 124.921 8.632C125.245 8.632 125.524 8.722 125.758 8.902C125.848 9.01 126.262 9.397 127 10.063L127.999 10.954L127.513 12.304C127.351 12.79 127.27 13.231 127.27 13.627C127.27 14.311 127.468 14.968 127.864 15.598C127.954 15.796 128.134 15.985 128.404 16.165C128.674 16.345 128.944 16.453 129.214 16.489C129.61 16.561 129.808 16.759 129.808 17.083C129.808 17.443 129.646 17.659 129.322 17.731C129.25 17.749 129.142 17.758 128.998 17.758C127.936 17.758 127.018 17.011 126.244 15.517C126.172 15.409 126.073 15.211 125.947 14.923C125.839 14.635 125.776 14.437 125.758 14.329C125.65 14.473 125.515 14.644 125.353 14.842C125.191 15.04 125.038 15.211 124.894 15.355C122.932 17.317 121.384 18.298 120.25 18.298C119.89 18.298 119.566 18.208 119.278 18.028ZM120.25 16.516C120.25 16.606 120.34 16.633 120.52 16.597C120.718 16.561 120.952 16.471 121.222 16.327C121.51 16.183 121.798 15.994 122.086 15.76C123.634 14.428 124.75 13.267 125.434 12.277L126.028 11.305C125.848 10.927 125.659 10.657 125.461 10.495C125.263 10.315 125.083 10.225 124.921 10.225C124.543 10.225 123.949 10.702 123.139 11.656C122.329 12.592 121.591 13.699 120.925 14.977C120.763 15.283 120.619 15.598 120.493 15.922C120.367 16.228 120.286 16.426 120.25 16.516Z" fill="white"/>
<path d="M144.672 10.819C144.366 11.071 143.88 11.485 143.214 12.061C142.566 12.619 142.098 13.033 141.81 13.303L139.812 14.923C139.812 15.121 139.83 15.283 139.866 15.409C139.92 15.517 139.992 15.652 140.082 15.814C140.19 15.958 140.262 16.066 140.298 16.138C140.586 16.642 140.982 17.128 141.486 17.596C141.99 18.064 142.287 18.343 142.377 18.433C142.431 18.541 142.458 18.622 142.458 18.676C142.458 18.766 142.422 18.829 142.35 18.865C142.278 18.901 142.188 18.937 142.08 18.973C141.972 18.991 141.891 19.009 141.837 19.027C141.549 18.991 141.189 18.811 140.757 18.487C140.343 18.163 139.956 17.803 139.596 17.407C139.254 17.011 139.038 16.687 138.948 16.435C138.678 16.093 138.48 15.814 138.354 15.598C138.246 15.382 138.12 15.058 137.976 14.626C137.778 14.842 137.598 15.139 137.436 15.517C137.364 15.769 137.247 16.084 137.085 16.462C136.851 17.02 136.761 17.299 136.815 17.299L136.842 17.569C136.842 17.713 136.815 17.83 136.761 17.92C136.725 17.992 136.626 18.109 136.464 18.271L135.735 18.298C135.429 18.1 135.231 17.893 135.141 17.677C135.051 17.461 135.006 17.218 135.006 16.948C135.078 16.804 135.231 16.498 135.465 16.03C135.699 15.544 135.87 15.067 135.978 14.599C135.87 14.599 135.609 14.644 135.195 14.734C135.015 14.914 134.844 15.076 134.682 15.22C134.538 15.364 134.394 15.499 134.25 15.625C133.584 16.201 133.026 16.714 132.576 17.164C131.82 17.848 131.271 18.442 130.929 18.946C130.821 19.09 130.659 19.162 130.443 19.162C130.317 19.162 130.101 19.117 129.795 19.027L129.201 18.109C129.201 17.803 129.336 17.587 129.606 17.461C129.84 17.281 130.173 16.993 130.605 16.597C131.037 16.201 131.451 15.814 131.847 15.436C132.009 15.292 132.234 15.103 132.522 14.869C132.81 14.635 133.035 14.464 133.197 14.356C133.395 14.158 133.629 13.96 133.899 13.762C134.295 13.438 134.565 13.204 134.709 13.06L134.304 12.358C134.25 12.286 134.142 12.115 133.98 11.845C133.836 11.557 133.674 11.314 133.494 11.116C133.404 10.99 133.161 10.576 132.765 9.874C132.729 9.802 132.675 9.721 132.603 9.631C132.549 9.523 132.486 9.406 132.414 9.28C132.504 9.01 132.711 8.875 133.035 8.875C133.251 8.875 133.467 8.929 133.683 9.037C134.115 9.433 134.448 9.946 134.682 10.576C134.916 10.936 135.105 11.233 135.249 11.467C135.411 11.683 135.537 11.863 135.627 12.007C135.771 12.205 136.041 12.619 136.437 13.249C136.527 12.781 136.653 12.205 136.815 11.521C136.923 11.107 137.04 10.585 137.166 9.955C137.238 9.667 137.274 9.442 137.274 9.28L137.247 9.064V8.983C137.247 8.803 137.274 8.677 137.328 8.605C137.346 8.533 137.382 8.47 137.436 8.416C137.49 8.362 137.562 8.335 137.652 8.335C137.706 8.335 137.787 8.371 137.895 8.443C138.687 8.965 139.02 9.487 138.894 10.009L138.543 11.467C138.237 12.907 138.066 13.645 138.03 13.681L138.3 13.735C139.218 13.141 139.875 12.682 140.271 12.358C140.595 12.106 141.063 11.692 141.675 11.116C142.305 10.54 142.8 10.063 143.16 9.685C143.34 9.523 143.457 9.424 143.511 9.388C143.565 9.352 143.691 9.316 143.889 9.28C144.105 9.424 144.303 9.604 144.483 9.82C144.663 10.018 144.771 10.207 144.807 10.387V10.468C144.807 10.612 144.762 10.729 144.672 10.819Z" fill="white"/>
<path d="M153.498 9.415C153.696 9.307 153.894 9.253 154.092 9.253C154.344 9.253 154.56 9.334 154.74 9.496C154.938 9.64 155.037 9.829 155.037 10.063C155.037 10.099 155.019 10.189 154.983 10.333C155.037 10.099 154.848 10.486 154.416 11.494C153.984 12.502 153.75 13.042 153.714 13.114V13.195C153.966 13.195 154.128 13.276 154.2 13.438C154.29 13.582 154.326 13.78 154.308 14.032C154.146 14.068 153.993 14.131 153.849 14.221C153.705 14.311 153.588 14.356 153.498 14.356C153.444 14.356 153.381 14.383 153.309 14.437C153.237 14.491 153.192 14.554 153.174 14.626C153.138 14.698 153.075 14.977 152.985 15.463L152.499 17.407C152.463 17.533 152.4 17.641 152.31 17.731C152.22 17.821 152.139 17.875 152.067 17.893C151.995 17.875 151.851 17.83 151.635 17.758C151.437 17.668 151.302 17.605 151.23 17.569C151.158 17.515 151.086 17.461 151.014 17.407V17.245C151.014 16.993 151.059 16.732 151.149 16.462C151.293 16.03 151.437 15.427 151.581 14.653C151.437 14.599 151.077 14.626 150.501 14.734C149.925 14.824 149.61 14.869 149.556 14.869C149.448 14.923 149.232 14.95 148.908 14.95C148.386 14.95 148.017 14.905 147.801 14.815L147.639 14.896C147.603 15.058 147.549 15.238 147.477 15.436C147.279 15.994 147.18 16.408 147.18 16.678C147.144 16.93 147.108 17.137 147.072 17.299C147.036 17.479 147 17.749 146.964 18.109C146.946 18.613 146.775 18.865 146.451 18.865C146.253 18.865 146.037 18.793 145.803 18.649C145.677 18.577 145.506 18.433 145.29 18.217L145.722 16.138C145.776 15.976 145.83 15.751 145.884 15.463C145.956 15.175 146.028 14.941 146.1 14.761L146.397 13.924C146.613 13.294 146.811 12.781 146.991 12.385C146.991 12.385 147.18 11.854 147.558 10.792C147.612 10.666 147.729 10.324 147.909 9.766C148.107 9.19 148.224 8.857 148.26 8.767C148.332 8.569 148.476 8.47 148.692 8.47C148.98 8.452 149.223 8.524 149.421 8.686C149.637 8.83 149.754 9.01 149.772 9.226C149.772 9.28 149.763 9.37 149.745 9.496C149.727 9.604 149.709 9.685 149.691 9.739L148.287 13.168V13.384C148.359 13.438 148.485 13.465 148.665 13.465C148.809 13.465 149.025 13.438 149.313 13.384C149.619 13.33 149.808 13.303 149.88 13.303C150.042 13.285 150.285 13.267 150.609 13.249C150.933 13.231 151.257 13.222 151.581 13.222C151.833 13.222 151.968 13.231 151.986 13.249L152.283 12.385C152.571 11.503 152.877 10.792 153.201 10.252C153.219 10.198 153.255 10.099 153.309 9.955C153.363 9.793 153.426 9.613 153.498 9.415Z" fill="white"/>
<path d="M160.807 18.055C160.357 18.451 159.817 18.649 159.187 18.649C158.737 18.649 158.305 18.541 157.891 18.325C157.495 18.109 157.162 17.812 156.892 17.434C156.658 17.146 156.487 16.822 156.379 16.462C156.271 16.102 156.217 15.661 156.217 15.139C156.217 14.959 156.235 14.599 156.271 14.059C156.325 13.393 156.541 12.7 156.919 11.98C157.315 11.26 157.801 10.621 158.377 10.063C158.953 9.487 159.52 9.091 160.078 8.875C160.366 8.695 160.627 8.605 160.861 8.605C160.987 8.605 161.113 8.614 161.239 8.632C161.365 8.65 161.5 8.668 161.644 8.686C162.04 8.74 162.337 8.821 162.535 8.929C162.751 9.019 162.931 9.163 163.075 9.361C163.525 9.811 163.75 10.333 163.75 10.927C163.678 11.359 163.399 11.854 162.913 12.412C162.427 12.97 161.842 13.42 161.158 13.762C160.834 13.87 160.465 13.924 160.051 13.924C159.493 13.924 159.043 13.807 158.701 13.573C158.539 13.519 158.413 13.492 158.323 13.492C158.161 13.492 158.035 13.6 157.945 13.816C157.873 14.032 157.801 14.428 157.729 15.004C157.711 15.13 157.702 15.31 157.702 15.544C157.702 16.462 158.008 16.966 158.62 17.056C159.034 17.146 159.331 17.191 159.511 17.191C159.727 17.191 159.97 17.119 160.24 16.975L160.753 16.678C160.861 16.624 160.96 16.552 161.05 16.462C161.14 16.372 161.221 16.291 161.293 16.219C161.329 16.183 161.383 16.129 161.455 16.057C161.527 15.967 161.59 15.913 161.644 15.895C161.716 15.859 161.779 15.841 161.833 15.841C161.905 15.841 161.986 15.886 162.076 15.976C162.166 16.048 162.238 16.102 162.292 16.138C162.454 16.138 162.49 16.255 162.4 16.489C162.31 16.705 162.112 16.966 161.806 17.272C161.518 17.56 161.185 17.821 160.807 18.055ZM160.78 12.331C161.086 12.205 161.392 11.98 161.698 11.656C162.022 11.332 162.184 11.062 162.184 10.846C162.184 10.63 162.103 10.45 161.941 10.306C161.779 10.162 161.554 10.09 161.266 10.09C161.05 10.09 160.888 10.108 160.78 10.144C160.528 10.216 160.231 10.414 159.889 10.738C159.547 11.044 159.25 11.359 158.998 11.683C158.746 12.007 158.647 12.196 158.701 12.25C158.791 12.412 159.142 12.493 159.754 12.493C160.168 12.493 160.51 12.439 160.78 12.331Z" fill="white"/>
<path d="M172.72 9.415C172.918 9.307 173.116 9.253 173.314 9.253C173.566 9.253 173.782 9.334 173.962 9.496C174.16 9.64 174.259 9.829 174.259 10.063C174.259 10.099 174.241 10.189 174.205 10.333C174.259 10.099 174.07 10.486 173.638 11.494C173.206 12.502 172.972 13.042 172.936 13.114V13.195C173.188 13.195 173.35 13.276 173.422 13.438C173.512 13.582 173.548 13.78 173.53 14.032C173.368 14.068 173.215 14.131 173.071 14.221C172.927 14.311 172.81 14.356 172.72 14.356C172.666 14.356 172.603 14.383 172.531 14.437C172.459 14.491 172.414 14.554 172.396 14.626C172.36 14.698 172.297 14.977 172.207 15.463L171.721 17.407C171.685 17.533 171.622 17.641 171.532 17.731C171.442 17.821 171.361 17.875 171.289 17.893C171.217 17.875 171.073 17.83 170.857 17.758C170.659 17.668 170.524 17.605 170.452 17.569C170.38 17.515 170.308 17.461 170.236 17.407V17.245C170.236 16.993 170.281 16.732 170.371 16.462C170.515 16.03 170.659 15.427 170.803 14.653C170.659 14.599 170.299 14.626 169.723 14.734C169.147 14.824 168.832 14.869 168.778 14.869C168.67 14.923 168.454 14.95 168.13 14.95C167.608 14.95 167.239 14.905 167.023 14.815L166.861 14.896C166.825 15.058 166.771 15.238 166.699 15.436C166.501 15.994 166.402 16.408 166.402 16.678C166.366 16.93 166.33 17.137 166.294 17.299C166.258 17.479 166.222 17.749 166.186 18.109C166.168 18.613 165.997 18.865 165.673 18.865C165.475 18.865 165.259 18.793 165.025 18.649C164.899 18.577 164.728 18.433 164.512 18.217L164.944 16.138C164.998 15.976 165.052 15.751 165.106 15.463C165.178 15.175 165.25 14.941 165.322 14.761L165.619 13.924C165.835 13.294 166.033 12.781 166.213 12.385C166.213 12.385 166.402 11.854 166.78 10.792C166.834 10.666 166.951 10.324 167.131 9.766C167.329 9.19 167.446 8.857 167.482 8.767C167.554 8.569 167.698 8.47 167.914 8.47C168.202 8.452 168.445 8.524 168.643 8.686C168.859 8.83 168.976 9.01 168.994 9.226C168.994 9.28 168.985 9.37 168.967 9.496C168.949 9.604 168.931 9.685 168.913 9.739L167.509 13.168V13.384C167.581 13.438 167.707 13.465 167.887 13.465C168.031 13.465 168.247 13.438 168.535 13.384C168.841 13.33 169.03 13.303 169.102 13.303C169.264 13.285 169.507 13.267 169.831 13.249C170.155 13.231 170.479 13.222 170.803 13.222C171.055 13.222 171.19 13.231 171.208 13.249L171.505 12.385C171.793 11.503 172.099 10.792 172.423 10.252C172.441 10.198 172.477 10.099 172.531 9.955C172.585 9.793 172.648 9.613 172.72 9.415Z" fill="white"/>
<path d="M181.73 18.946C181.298 18.532 180.974 17.92 180.758 17.11C180.722 17.002 180.704 16.813 180.704 16.543C180.704 16.273 180.704 16.084 180.704 15.976C180.596 16.246 180.398 16.489 180.11 16.705C179.696 17.119 179.282 17.425 178.868 17.623C178.238 18.037 177.725 18.244 177.329 18.244C176.969 18.244 176.627 18.046 176.303 17.65C176.069 17.452 175.889 17.254 175.763 17.056C175.655 16.858 175.601 16.615 175.601 16.327C175.601 16.129 175.628 15.913 175.682 15.679C175.718 15.013 175.808 14.374 175.952 13.762C176.114 13.15 176.411 12.367 176.843 11.413C177.419 10.279 177.833 9.523 178.085 9.145C178.175 9.109 178.292 9.091 178.436 9.091C178.616 9.091 178.76 9.145 178.868 9.253C178.994 9.361 179.066 9.505 179.084 9.685C179.138 9.757 179.165 9.856 179.165 9.982C179.165 10.432 178.895 11.17 178.355 12.196C177.653 13.888 177.302 15.058 177.302 15.706C177.302 16.084 177.41 16.309 177.626 16.381C177.716 16.435 177.815 16.462 177.923 16.462C178.373 16.462 178.913 16.156 179.543 15.544C180.173 14.932 180.776 13.951 181.352 12.601C181.604 11.989 181.757 11.359 181.811 10.711C181.793 10.657 181.784 10.576 181.784 10.468C181.784 10.144 181.946 9.883 182.27 9.685C182.342 9.577 182.441 9.496 182.567 9.442C182.693 9.37 182.774 9.37 182.81 9.442L183.242 9.415C183.296 9.397 183.35 9.451 183.404 9.577C183.458 9.685 183.512 9.757 183.566 9.793C183.692 9.901 183.755 10.099 183.755 10.387C183.755 10.981 183.494 11.89 182.972 13.114C182.63 13.834 182.396 14.392 182.27 14.788C182.162 15.166 182.099 15.535 182.081 15.895C182.081 16.579 182.342 17.146 182.864 17.596C183.044 17.722 183.152 17.857 183.188 18.001C183.224 18.145 183.233 18.343 183.215 18.595C183.179 18.757 183.071 18.892 182.891 19C182.729 19.09 182.549 19.135 182.351 19.135C182.117 19.135 181.91 19.072 181.73 18.946Z" fill="white"/>
<path d="M191.615 18.946C191.489 19.018 191.318 18.991 191.102 18.865C190.904 18.739 190.706 18.55 190.508 18.298C190.364 18.064 190.274 17.821 190.238 17.569C190.22 17.317 190.211 16.795 190.211 16.003C190.211 15.823 190.175 15.733 190.103 15.733C190.049 15.733 189.923 15.823 189.725 16.003C189.527 16.165 189.284 16.39 188.996 16.678C188.528 17.128 188.096 17.479 187.7 17.731C187.304 17.983 186.98 18.1 186.728 18.082C186.53 18.082 186.314 17.947 186.08 17.677C185.864 17.407 185.693 17.092 185.567 16.732C185.513 16.516 185.486 16.264 185.486 15.976C185.486 15.22 185.639 14.302 185.945 13.222C186.269 12.142 186.638 11.215 187.052 10.441C187.484 9.649 187.862 9.253 188.186 9.253C188.456 9.253 188.708 9.55 188.942 10.144C188.996 10.252 189.023 10.342 189.023 10.414C189.023 10.54 188.951 10.666 188.807 10.792C188.537 11.134 188.222 11.746 187.862 12.628C187.502 13.51 187.214 14.329 186.998 15.085C186.8 15.841 186.764 16.219 186.89 16.219C187.142 16.219 187.439 16.12 187.781 15.922C188.123 15.724 188.465 15.463 188.807 15.139C189.149 14.797 189.455 14.437 189.725 14.059C189.995 13.663 190.328 13.132 190.724 12.466C191.48 11.26 191.894 10.558 191.966 10.36C192.236 9.856 192.425 9.532 192.533 9.388C192.659 9.226 192.812 9.118 192.992 9.064H193.37C193.478 9.082 193.604 9.163 193.748 9.307C193.874 9.361 193.946 9.424 193.964 9.496C194 9.55 194.018 9.631 194.018 9.739L193.586 10.738L193.343 11.305C193.325 11.377 193.226 11.584 193.046 11.926C192.632 12.844 192.317 13.582 192.101 14.14C191.885 14.698 191.723 15.274 191.615 15.868C191.597 15.958 191.588 16.111 191.588 16.327C191.588 16.867 191.642 17.245 191.75 17.461C191.912 17.785 192.074 18.019 192.236 18.163C192.326 18.235 192.371 18.307 192.371 18.379C192.371 18.505 192.263 18.631 192.047 18.757C191.849 18.883 191.705 18.946 191.615 18.946ZM191.345 6.931C190.355 6.931 189.662 6.184 189.266 4.69C189.23 4.546 189.212 4.447 189.212 4.393C189.212 4.267 189.248 4.132 189.32 3.988C189.356 3.916 189.428 3.862 189.536 3.826C189.644 3.79 189.734 3.781 189.806 3.799C190.058 3.871 190.238 3.979 190.346 4.123C190.472 4.249 190.553 4.42 190.589 4.636C190.643 4.762 190.67 4.888 190.67 5.014C190.814 5.464 191.012 5.689 191.264 5.689C191.318 5.689 191.453 5.653 191.669 5.581C192.425 5.275 192.992 4.933 193.37 4.555C193.37 4.555 193.748 4.204 194.504 3.502L194.531 3.475C194.603 3.439 194.666 3.421 194.72 3.421C194.846 3.421 194.936 3.448 194.99 3.502C195.08 3.61 195.134 3.709 195.152 3.799C195.17 3.889 195.179 3.979 195.179 4.069C195.179 4.159 195.179 4.231 195.179 4.285L195.152 4.339C195.188 4.447 195.098 4.663 194.882 4.987C194.666 5.293 194.423 5.545 194.153 5.743C193.811 6.013 193.244 6.346 192.452 6.742C192.326 6.814 192.182 6.868 192.02 6.904C191.858 6.922 191.633 6.931 191.345 6.931Z" fill="white"/>
<path d="M205.159 132.134C204.957 132.322 204.946 132.638 205.134 132.841L208.198 136.136C208.386 136.338 208.703 136.349 208.905 136.161C209.107 135.973 209.119 135.657 208.931 135.455L206.207 132.526L209.136 129.802C209.338 129.614 209.349 129.297 209.161 129.095C208.973 128.893 208.657 128.881 208.455 129.069L205.159 132.134ZM205.482 133C253.937 134.757 281.472 107.115 283.811 78.2904C284.979 63.8898 279.845 49.2417 267.93 37.9188C256.019 26.5983 237.362 18.6294 211.522 17.5005L211.478 18.4995C237.138 19.6206 255.544 27.5267 267.241 38.6437C278.937 49.7583 283.958 64.1102 282.814 78.2096C280.528 106.385 253.563 133.743 205.518 132L205.482 133Z" fill="white"/>
</svg>
