<svg width="147" height="124" viewBox="0 0 147 124" fill="none" xmlns="http://www.w3.org/2000/svg">
<path d="M143.954 109.791C144.215 109.881 144.353 110.166 144.263 110.427L142.787 114.678C142.697 114.939 142.412 115.077 142.151 114.987C141.89 114.896 141.752 114.611 141.843 114.351L143.154 110.572L139.375 109.26C139.114 109.17 138.976 108.885 139.066 108.624C139.157 108.363 139.442 108.225 139.703 108.316L143.954 109.791ZM144.008 110.713C110.433 126.991 72.7946 124.565 49.6008 109.335C37.9938 101.713 29.9877 90.8692 27.9654 77.5512C25.9437 64.237 29.9151 48.5347 42.091 31.2124L42.9091 31.7874C30.8349 48.9651 26.9817 64.4116 28.9541 77.4011C30.9259 90.3868 38.7325 101.002 50.1497 108.499C73.0046 123.507 110.262 125.963 143.572 109.813L144.008 110.713Z" fill="#999999"/>
<path d="M0.862998 19.891C0.664998 19.783 0.520998 19.684 0.430998 19.594C0.358998 19.504 0.322998 19.387 0.322998 19.243C0.322998 19.063 0.394998 18.811 0.538998 18.487C0.700998 18.145 0.970998 17.614 1.349 16.894C1.457 16.66 1.664 16.246 1.97 15.652C3.014 13.654 3.536 12.565 3.536 12.385C3.518 12.349 3.509 12.295 3.509 12.223C3.509 12.043 3.653 11.881 3.941 11.737C4.355 11.323 4.697 10.882 4.967 10.414C5.147 10.018 5.39 9.54996 5.696 9.00996C6.002 8.45196 6.38 7.79496 6.83 7.03896C7.046 6.66096 7.37 6.11196 7.802 5.39196C8.468 4.20396 9.323 2.90796 10.367 1.50396C10.781 0.945959 11.123 0.675959 11.393 0.693959C11.735 0.693959 12.113 0.855959 12.527 1.17996C12.959 1.48596 13.256 1.83696 13.418 2.23296C13.49 2.35896 13.526 2.62896 13.526 3.04296C13.526 3.60096 13.463 4.54596 13.337 5.87796C13.301 6.11196 13.265 6.48096 13.229 6.98496C13.175 7.79496 13.094 8.65896 12.986 9.57696C12.788 11.593 12.644 13.168 12.554 14.302C12.464 15.436 12.419 16.498 12.419 17.488C12.419 17.992 12.428 18.361 12.446 18.595V18.784L12.419 19.405C12.311 19.513 12.149 19.567 11.933 19.567C11.681 19.567 11.438 19.504 11.204 19.378C10.97 19.27 10.835 19.135 10.799 18.973C10.781 18.955 10.754 18.937 10.718 18.919C10.682 18.901 10.664 18.82 10.664 18.676L10.691 18.082L10.772 16.57L10.907 12.196L10.556 12.223C10.196 12.223 9.395 12.295 8.153 12.439C6.911 12.583 6.137 12.7 5.831 12.79C5.669 12.79 5.471 12.898 5.237 13.114C5.003 13.33 4.796 13.609 4.616 13.951C4.562 14.131 4.436 14.392 4.238 14.734C4.04 15.058 3.941 15.247 3.941 15.301C3.833 15.373 3.734 15.472 3.644 15.598C3.572 15.706 3.527 15.778 3.509 15.814C3.509 16.012 3.32 16.516 2.942 17.326C2.582 18.136 2.222 18.811 1.862 19.351L1.295 20.215L0.862998 19.891ZM6.452 11.197C6.56 11.179 6.794 11.143 7.154 11.089C7.514 11.017 7.838 10.972 8.126 10.954C9.422 10.648 10.214 10.495 10.502 10.495C10.628 10.495 10.745 10.522 10.853 10.576C10.907 10.648 10.961 10.702 11.015 10.738C11.087 10.756 11.132 10.765 11.15 10.765C11.186 10.657 11.294 9.68496 11.474 7.84896C11.672 5.99496 11.78 4.76196 11.798 4.14996L11.879 2.79996C11.771 2.79996 11.537 3.00696 11.177 3.42096C10.817 3.83496 10.412 4.37496 9.962 5.04096C9.53 5.68896 9.143 6.35496 8.801 7.03896C8.621 7.36296 8.441 7.66896 8.261 7.95696C8.099 8.22696 7.982 8.36196 7.91 8.36196C7.784 8.48796 7.487 8.97396 7.019 9.81996C6.551 10.666 6.362 11.125 6.452 11.197Z" fill="#999999"/>
<path d="M23.1367 9.41496C23.3347 9.30696 23.5327 9.25296 23.7307 9.25296C23.9827 9.25296 24.1987 9.33396 24.3787 9.49596C24.5767 9.63996 24.6757 9.82896 24.6757 10.063C24.6757 10.099 24.6577 10.189 24.6217 10.333C24.6757 10.099 24.4867 10.486 24.0547 11.494C23.6227 12.502 23.3887 13.042 23.3527 13.114V13.195C23.6047 13.195 23.7667 13.276 23.8387 13.438C23.9287 13.582 23.9647 13.78 23.9467 14.032C23.7847 14.068 23.6317 14.131 23.4877 14.221C23.3437 14.311 23.2267 14.356 23.1367 14.356C23.0827 14.356 23.0197 14.383 22.9477 14.437C22.8757 14.491 22.8307 14.554 22.8127 14.626C22.7767 14.698 22.7137 14.977 22.6237 15.463L22.1377 17.407C22.1017 17.533 22.0387 17.641 21.9487 17.731C21.8587 17.821 21.7777 17.875 21.7057 17.893C21.6337 17.875 21.4897 17.83 21.2737 17.758C21.0757 17.668 20.9407 17.605 20.8687 17.569C20.7967 17.515 20.7247 17.461 20.6527 17.407V17.245C20.6527 16.993 20.6977 16.732 20.7877 16.462C20.9317 16.03 21.0757 15.427 21.2197 14.653C21.0757 14.599 20.7157 14.626 20.1397 14.734C19.5637 14.824 19.2487 14.869 19.1947 14.869C19.0867 14.923 18.8707 14.95 18.5467 14.95C18.0247 14.95 17.6557 14.905 17.4397 14.815L17.2777 14.896C17.2417 15.058 17.1877 15.238 17.1157 15.436C16.9177 15.994 16.8187 16.408 16.8187 16.678C16.7827 16.93 16.7467 17.137 16.7107 17.299C16.6747 17.479 16.6387 17.749 16.6027 18.109C16.5847 18.613 16.4137 18.865 16.0897 18.865C15.8917 18.865 15.6757 18.793 15.4417 18.649C15.3157 18.577 15.1447 18.433 14.9287 18.217L15.3607 16.138C15.4147 15.976 15.4687 15.751 15.5227 15.463C15.5947 15.175 15.6667 14.941 15.7387 14.761L16.0357 13.924C16.2517 13.294 16.4497 12.781 16.6297 12.385C16.6297 12.385 16.8187 11.854 17.1967 10.792C17.2507 10.666 17.3677 10.324 17.5477 9.76596C17.7457 9.18996 17.8627 8.85696 17.8987 8.76696C17.9707 8.56896 18.1147 8.46996 18.3307 8.46996C18.6187 8.45196 18.8617 8.52396 19.0597 8.68596C19.2757 8.82996 19.3927 9.00996 19.4107 9.22596C19.4107 9.27996 19.4017 9.36996 19.3837 9.49596C19.3657 9.60396 19.3477 9.68496 19.3297 9.73896L17.9257 13.168V13.384C17.9977 13.438 18.1237 13.465 18.3037 13.465C18.4477 13.465 18.6637 13.438 18.9517 13.384C19.2577 13.33 19.4467 13.303 19.5187 13.303C19.6807 13.285 19.9237 13.267 20.2477 13.249C20.5717 13.231 20.8957 13.222 21.2197 13.222C21.4717 13.222 21.6067 13.231 21.6247 13.249L21.9217 12.385C22.2097 11.503 22.5157 10.792 22.8397 10.252C22.8577 10.198 22.8937 10.099 22.9477 9.95496C23.0017 9.79296 23.0647 9.61296 23.1367 9.41496Z" fill="#999999"/>
<path d="M29.5551 1.74696C29.9151 1.67496 30.1761 1.63896 30.3381 1.63896C30.6441 1.63896 30.9141 1.71096 31.1481 1.85496C32.0481 2.14296 32.7411 2.55696 33.2271 3.09696C33.7131 3.63696 34.0461 4.27596 34.2261 5.01396C34.4241 5.75196 34.5411 6.67896 34.5771 7.79496C34.5951 7.95696 34.6041 8.17296 34.6041 8.44296C34.6041 8.67696 34.5771 9.09096 34.5231 9.68496C34.4151 9.82896 34.3521 10.009 34.3341 10.225C34.3161 10.441 34.3071 10.567 34.3071 10.603C34.3071 10.963 34.2711 11.224 34.1991 11.386C34.1811 11.62 34.1091 11.872 33.9831 12.142C33.8571 12.412 33.7941 12.601 33.7941 12.709C33.2721 14.185 32.5161 15.508 31.5261 16.678C30.5361 17.848 29.4651 18.568 28.3131 18.838C28.2231 18.874 27.9891 18.802 27.6111 18.622C27.2331 18.424 26.9541 18.226 26.7741 18.028C26.5941 17.812 26.4501 17.614 26.3421 17.434C26.2521 17.254 26.2071 17.047 26.2071 16.813C26.0991 16.561 26.0271 16.309 25.9911 16.057C25.9731 15.787 25.9641 15.445 25.9641 15.031C25.9641 14.653 26.0361 14.284 26.1801 13.924C26.3241 13.564 26.5221 13.132 26.7741 12.628C26.9361 12.178 27.2961 11.629 27.8541 10.981C28.4301 10.315 29.0331 9.82896 29.6631 9.52296C30.1671 9.25296 30.5991 9.11796 30.9591 9.11796C31.1751 9.11796 31.3821 9.15396 31.5801 9.22596C31.7961 9.27996 31.9581 9.36996 32.0661 9.49596C32.1741 9.60396 32.2551 9.67596 32.3091 9.71196C32.4531 9.56796 32.5791 9.24396 32.6871 8.73996C32.8131 8.21796 32.8761 7.65996 32.8761 7.06596C32.8761 5.94996 32.6871 5.13996 32.3091 4.63596C31.7151 3.78996 31.0221 3.36696 30.2301 3.36696C29.9241 3.36696 29.5461 3.45696 29.0961 3.63696C28.8621 3.52896 28.6641 3.34896 28.5021 3.09696C28.3401 2.84496 28.2951 2.60196 28.3671 2.36796C28.7811 2.02596 29.1771 1.81896 29.5551 1.74696ZM32.1741 10.765C32.0301 10.621 31.8411 10.549 31.6071 10.549C31.1571 10.549 30.6081 10.774 29.9601 11.224C29.7441 11.386 29.5281 11.611 29.3121 11.899C29.1141 12.169 28.9881 12.34 28.9341 12.412C28.7541 12.7 28.6101 12.907 28.5021 13.033V13.087C28.5021 13.213 28.4481 13.321 28.3401 13.411C28.2501 13.501 28.1871 13.573 28.1511 13.627C27.9531 14.005 27.8091 14.392 27.7191 14.788C27.6291 15.166 27.5841 15.436 27.5841 15.598C27.5841 15.922 27.6291 16.228 27.7191 16.516C27.8271 16.804 27.9711 16.993 28.1511 17.083C28.4031 17.191 28.8351 16.993 29.4471 16.489C30.0771 15.967 30.5991 15.409 31.0131 14.815C31.1211 14.653 31.2921 14.347 31.5261 13.897C31.7601 13.429 31.9311 13.078 32.0391 12.844C32.2371 12.304 32.3361 11.818 32.3361 11.386C32.3361 11.08 32.2821 10.873 32.1741 10.765Z" fill="#999999"/>
<path d="M33.9437 25.075C33.7997 25.075 33.6827 24.994 33.5927 24.832C33.5027 24.706 33.4577 24.553 33.4577 24.373C33.4577 24.247 33.5027 23.941 33.5927 23.455C33.7907 22.699 33.8897 22.177 33.8897 21.889C33.8897 21.799 33.9077 21.664 33.9437 21.484C33.9797 21.322 34.0067 21.169 34.0247 21.025C34.0967 20.899 34.1597 20.701 34.2137 20.431C34.2857 20.179 34.3217 19.954 34.3217 19.756C34.3217 19.666 34.3487 19.558 34.4027 19.432C34.4747 19.324 34.5557 19.234 34.6457 19.162C34.6457 19.054 34.6727 18.892 34.7267 18.676C34.7807 18.442 34.8167 18.28 34.8347 18.19C34.9247 17.704 35.2757 16.552 35.8877 14.734C36.4997 12.916 37.0217 11.449 37.4537 10.333C37.6517 9.88296 37.7957 9.46896 37.8857 9.09096C37.9757 8.71296 38.0207 8.41596 38.0207 8.19996C38.0207 8.12796 38.0387 8.06496 38.0747 8.01096C38.1287 7.93896 38.2097 7.84896 38.3177 7.74096C38.4437 7.61496 38.5607 7.55196 38.6687 7.55196C38.7587 7.55196 38.8577 7.58796 38.9657 7.65996C39.0737 7.73196 39.1817 7.81296 39.2897 7.90296C39.3977 8.06496 39.4787 8.21796 39.5327 8.36196C39.6047 8.50596 39.6407 8.65896 39.6407 8.82096C39.6407 8.87496 39.6227 9.04596 39.5867 9.33396C39.5867 9.71196 39.5057 10.027 39.3437 10.279C39.1817 10.513 39.1187 10.621 39.1547 10.603C39.9647 10.225 40.6847 10.036 41.3147 10.036C42.0707 10.036 42.6557 10.279 43.0697 10.765C43.5017 11.251 43.7177 11.881 43.7177 12.655C43.7177 12.979 43.6187 13.375 43.4207 13.843C43.2407 14.293 43.0607 14.599 42.8807 14.761C42.7727 14.761 42.6287 14.95 42.4487 15.328C42.2147 15.616 41.8277 15.922 41.2877 16.246C40.7477 16.552 40.3697 16.669 40.1537 16.597C40.1357 16.597 40.1087 16.606 40.0727 16.624C40.0367 16.642 40.0187 16.687 40.0187 16.759C40.0187 16.831 39.7127 16.966 39.1007 17.164C38.4887 17.362 37.9847 17.461 37.5887 17.461C37.3727 17.461 37.2107 17.452 37.1027 17.434C36.9947 17.398 36.8867 17.335 36.7787 17.245C36.6527 17.371 36.5897 17.488 36.5897 17.596C36.5897 17.794 36.4997 18.154 36.3197 18.676C36.1397 19.198 35.9957 19.459 35.8877 19.459C35.8697 19.477 35.8427 19.513 35.8067 19.567C35.7887 19.621 35.8157 19.684 35.8877 19.756C35.8877 19.81 35.8787 19.936 35.8607 20.134C35.8427 20.332 35.7977 20.485 35.7257 20.593C35.7257 20.755 35.6987 20.971 35.6447 21.241C35.5907 21.529 35.5277 21.745 35.4557 21.889C35.4557 22.105 35.4197 22.312 35.3477 22.51C35.2937 22.726 35.2307 22.834 35.1587 22.834C35.0507 22.87 34.9967 23.131 34.9967 23.617C34.9787 24.067 34.8887 24.418 34.7267 24.67C34.5647 24.922 34.3757 25.048 34.1597 25.048L33.9437 25.075ZM37.4267 16.03C37.6967 16.03 38.2367 15.895 39.0467 15.625C39.8747 15.337 40.4507 15.058 40.7747 14.788C41.1527 14.464 41.4587 14.122 41.6927 13.762C41.9267 13.384 42.0437 13.006 42.0437 12.628C42.0437 12.34 41.9627 12.079 41.8007 11.845C41.6747 11.647 41.4587 11.548 41.1527 11.548C40.7927 11.548 40.3607 11.674 39.8567 11.926C39.3707 12.178 38.9207 12.511 38.5067 12.925C38.1827 13.249 37.8947 13.717 37.6427 14.329C37.3907 14.923 37.2647 15.391 37.2647 15.733C37.2647 15.931 37.3187 16.03 37.4267 16.03Z" fill="#999999"/>
<path d="M50.1688 18.055C49.7188 18.451 49.1788 18.649 48.5488 18.649C48.0988 18.649 47.6668 18.541 47.2528 18.325C46.8568 18.109 46.5238 17.812 46.2538 17.434C46.0198 17.146 45.8488 16.822 45.7408 16.462C45.6328 16.102 45.5788 15.661 45.5788 15.139C45.5788 14.959 45.5968 14.599 45.6328 14.059C45.6868 13.393 45.9028 12.7 46.2808 11.98C46.6768 11.26 47.1628 10.621 47.7388 10.063C48.3148 9.48696 48.8818 9.09096 49.4398 8.87496C49.7278 8.69496 49.9888 8.60496 50.2228 8.60496C50.3488 8.60496 50.4748 8.61396 50.6008 8.63196C50.7268 8.64996 50.8618 8.66796 51.0058 8.68596C51.4018 8.73996 51.6988 8.82096 51.8968 8.92896C52.1128 9.01896 52.2928 9.16296 52.4368 9.36096C52.8868 9.81096 53.1118 10.333 53.1118 10.927C53.0398 11.359 52.7608 11.854 52.2748 12.412C51.7888 12.97 51.2038 13.42 50.5198 13.762C50.1958 13.87 49.8268 13.924 49.4128 13.924C48.8548 13.924 48.4048 13.807 48.0628 13.573C47.9008 13.519 47.7748 13.492 47.6848 13.492C47.5228 13.492 47.3968 13.6 47.3068 13.816C47.2348 14.032 47.1628 14.428 47.0908 15.004C47.0728 15.13 47.0638 15.31 47.0638 15.544C47.0638 16.462 47.3698 16.966 47.9818 17.056C48.3958 17.146 48.6928 17.191 48.8728 17.191C49.0888 17.191 49.3318 17.119 49.6018 16.975L50.1148 16.678C50.2228 16.624 50.3218 16.552 50.4118 16.462C50.5018 16.372 50.5828 16.291 50.6548 16.219C50.6908 16.183 50.7448 16.129 50.8168 16.057C50.8888 15.967 50.9518 15.913 51.0058 15.895C51.0778 15.859 51.1408 15.841 51.1948 15.841C51.2668 15.841 51.3478 15.886 51.4378 15.976C51.5278 16.048 51.5998 16.102 51.6538 16.138C51.8158 16.138 51.8518 16.255 51.7618 16.489C51.6718 16.705 51.4738 16.966 51.1678 17.272C50.8798 17.56 50.5468 17.821 50.1688 18.055ZM50.1418 12.331C50.4478 12.205 50.7538 11.98 51.0598 11.656C51.3838 11.332 51.5458 11.062 51.5458 10.846C51.5458 10.63 51.4648 10.45 51.3028 10.306C51.1408 10.162 50.9158 10.09 50.6278 10.09C50.4118 10.09 50.2498 10.108 50.1418 10.144C49.8898 10.216 49.5928 10.414 49.2508 10.738C48.9088 11.044 48.6118 11.359 48.3598 11.683C48.1078 12.007 48.0088 12.196 48.0628 12.25C48.1528 12.412 48.5038 12.493 49.1158 12.493C49.5298 12.493 49.8718 12.439 50.1418 12.331Z" fill="#999999"/>
<path d="M60.5421 18.946C60.4161 19.018 60.2451 18.991 60.0291 18.865C59.8311 18.739 59.6331 18.55 59.4351 18.298C59.2911 18.064 59.2011 17.821 59.1651 17.569C59.1471 17.317 59.1381 16.795 59.1381 16.003C59.1381 15.823 59.1021 15.733 59.0301 15.733C58.9761 15.733 58.8501 15.823 58.6521 16.003C58.4541 16.165 58.2111 16.39 57.9231 16.678C57.4551 17.128 57.0231 17.479 56.6271 17.731C56.2311 17.983 55.9071 18.1 55.6551 18.082C55.4571 18.082 55.2411 17.947 55.0071 17.677C54.7911 17.407 54.6201 17.092 54.4941 16.732C54.4401 16.516 54.4131 16.264 54.4131 15.976C54.4131 15.22 54.5661 14.302 54.8721 13.222C55.1961 12.142 55.5651 11.215 55.9791 10.441C56.4111 9.64896 56.7891 9.25296 57.1131 9.25296C57.3831 9.25296 57.6351 9.54996 57.8691 10.144C57.9231 10.252 57.9501 10.342 57.9501 10.414C57.9501 10.54 57.8781 10.666 57.7341 10.792C57.4641 11.134 57.1491 11.746 56.7891 12.628C56.4291 13.51 56.1411 14.329 55.9251 15.085C55.7271 15.841 55.6911 16.219 55.8171 16.219C56.0691 16.219 56.3661 16.12 56.7081 15.922C57.0501 15.724 57.3921 15.463 57.7341 15.139C58.0761 14.797 58.3821 14.437 58.6521 14.059C58.9221 13.663 59.2551 13.132 59.6511 12.466C60.4071 11.26 60.8211 10.558 60.8931 10.36C61.1631 9.85596 61.3521 9.53196 61.4601 9.38796C61.5861 9.22596 61.7391 9.11796 61.9191 9.06396H62.2971C62.4051 9.08196 62.5311 9.16296 62.6751 9.30696C62.8011 9.36096 62.8731 9.42396 62.8911 9.49596C62.9271 9.54996 62.9451 9.63096 62.9451 9.73896L62.5131 10.738L62.2701 11.305C62.2521 11.377 62.1531 11.584 61.9731 11.926C61.5591 12.844 61.2441 13.582 61.0281 14.14C60.8121 14.698 60.6501 15.274 60.5421 15.868C60.5241 15.958 60.5151 16.111 60.5151 16.327C60.5151 16.867 60.5691 17.245 60.6771 17.461C60.8391 17.785 61.0011 18.019 61.1631 18.163C61.2531 18.235 61.2981 18.307 61.2981 18.379C61.2981 18.505 61.1901 18.631 60.9741 18.757C60.7761 18.883 60.6321 18.946 60.5421 18.946ZM60.2721 6.93096C59.2821 6.93096 58.5891 6.18396 58.1931 4.68996C58.1571 4.54596 58.1391 4.44696 58.1391 4.39296C58.1391 4.26696 58.1751 4.13196 58.2471 3.98796C58.2831 3.91596 58.3551 3.86196 58.4631 3.82596C58.5711 3.78996 58.6611 3.78096 58.7331 3.79896C58.9851 3.87096 59.1651 3.97896 59.2731 4.12296C59.3991 4.24896 59.4801 4.41996 59.5161 4.63596C59.5701 4.76196 59.5971 4.88796 59.5971 5.01396C59.7411 5.46396 59.9391 5.68896 60.1911 5.68896C60.2451 5.68896 60.3801 5.65296 60.5961 5.58096C61.3521 5.27496 61.9191 4.93296 62.2971 4.55496C62.2971 4.55496 62.6751 4.20396 63.4311 3.50196L63.4581 3.47496C63.5301 3.43896 63.5931 3.42096 63.6471 3.42096C63.7731 3.42096 63.8631 3.44796 63.9171 3.50196C64.0071 3.60996 64.0611 3.70896 64.0791 3.79896C64.0971 3.88896 64.1061 3.97896 64.1061 4.06896C64.1061 4.15896 64.1061 4.23096 64.1061 4.28496L64.0791 4.33896C64.1151 4.44696 64.0251 4.66296 63.8091 4.98696C63.5931 5.29296 63.3501 5.54496 63.0801 5.74296C62.7381 6.01296 62.1711 6.34596 61.3791 6.74196C61.2531 6.81396 61.1091 6.86796 60.9471 6.90396C60.7851 6.92196 60.5601 6.93096 60.2721 6.93096Z" fill="#999999"/>
<path d="M86.6521 1.74696C86.8861 1.87296 87.0571 1.99896 87.1651 2.12496C87.2911 2.25096 87.3901 2.40396 87.4621 2.58396V3.09696C87.3721 3.15096 87.2101 3.25896 86.9761 3.42096C86.7601 3.58296 86.5801 3.68196 86.4361 3.71796C86.2741 3.73596 86.0671 3.81696 85.8151 3.96096C85.5811 4.08696 85.3741 4.14996 85.1941 4.14996C85.0861 4.14996 84.9601 4.12296 84.8161 4.06896C84.7441 4.01496 84.6541 3.98796 84.5461 3.98796C84.4561 3.96996 84.3841 3.96096 84.3301 3.96096C84.2041 3.69096 84.0691 3.51096 83.9251 3.42096C83.7451 3.49296 83.4661 3.52896 83.0881 3.52896C82.7101 3.52896 82.4311 3.57396 82.2511 3.66396C81.6931 3.69996 81.1711 3.78996 80.6851 3.93396C80.3971 4.00596 80.1811 4.05096 80.0371 4.06896C79.6411 4.14096 79.3171 4.23096 79.0651 4.33896C78.9031 4.66296 78.6601 5.15796 78.3361 5.82396C77.8681 6.79596 77.4811 7.72296 77.1751 8.60496L75.7441 12.466C75.6361 12.664 75.4291 13.222 75.1231 14.14C74.8351 15.058 74.6731 15.643 74.6371 15.895C74.5831 16.219 74.5021 16.57 74.3941 16.948C74.2861 17.326 74.2141 17.596 74.1781 17.758C74.1421 17.866 74.0791 18.073 73.9891 18.379C73.9171 18.685 73.8721 18.991 73.8541 19.297C73.8541 19.351 73.8271 19.414 73.7731 19.486C73.7371 19.558 73.7101 19.621 73.6921 19.675C73.5661 19.621 73.2691 19.594 72.8011 19.594C72.6031 19.504 72.4141 19.333 72.2341 19.081C72.3421 18.361 72.4411 17.848 72.5311 17.542C72.6931 17.02 72.8281 16.462 72.9361 15.868C72.9901 15.598 73.0621 15.265 73.1521 14.869L73.7731 13.6C73.8811 13.096 74.0341 12.574 74.2321 12.034C74.4301 11.494 74.5471 11.161 74.5831 11.035C74.8531 10.243 75.1231 9.54096 75.3931 8.92896C75.4291 8.82096 75.5821 8.41596 75.8521 7.71396C75.9241 7.51596 76.0411 7.20996 76.2031 6.79596C76.3831 6.36396 76.5271 6.03096 76.6351 5.79696C76.7431 5.56296 76.8061 5.39196 76.8241 5.28396C76.5901 5.30196 76.3471 5.26596 76.0951 5.17596C75.8431 5.08596 75.6901 4.97796 75.6361 4.85196L75.4741 3.87996C75.6361 3.75396 76.0051 3.64596 76.5811 3.55596L77.1481 3.33996C77.3461 3.26796 77.6611 3.17796 78.0931 3.06996C80.5951 2.49396 81.9811 2.20596 82.2511 2.20596C82.3411 2.20596 82.4941 2.20596 82.7101 2.20596C82.9261 2.18796 83.1241 2.14296 83.3041 2.07096C83.3221 2.05296 83.5291 2.04396 83.9251 2.04396C84.3391 2.04396 84.6361 2.00796 84.8161 1.93596C84.9241 1.89996 85.1041 1.88196 85.3561 1.88196C85.6261 1.86396 85.8241 1.82796 85.9501 1.77396C85.9861 1.73796 86.0671 1.71996 86.1931 1.71996L86.6521 1.74696Z" fill="#999999"/>
<path d="M93.0098 9.03696C93.2978 9.32496 93.4418 9.62196 93.4418 9.92796C93.4418 10.252 93.2258 10.819 92.7938 11.629C92.6498 12.043 92.4878 12.43 92.3078 12.79C92.1458 13.15 92.0198 13.384 91.9298 13.492L91.3088 14.923C91.0388 15.517 90.7058 16.21 90.3098 17.002C89.8238 18.01 89.4818 18.757 89.2838 19.243L88.9328 19.81C88.0328 21.25 87.3398 22.258 86.8538 22.834C85.8638 23.716 85.0988 24.229 84.5588 24.373C84.3248 24.445 84.0458 24.481 83.7218 24.481C83.1278 24.481 82.5698 24.346 82.0478 24.076C81.5078 23.824 81.2018 23.527 81.1298 23.185C81.1118 23.059 81.1568 22.924 81.2648 22.78C81.3728 22.636 81.4898 22.564 81.6158 22.564C81.7058 22.564 81.7778 22.6 81.8318 22.672C81.9758 22.78 82.1828 22.879 82.4528 22.969C82.7408 23.077 83.0468 23.131 83.3708 23.131C83.4968 23.131 83.6678 23.113 83.8838 23.077C84.2438 23.005 84.6218 22.789 85.0178 22.429C85.4138 22.069 85.7738 21.673 86.0978 21.241C86.7098 20.341 87.3668 19.216 88.0688 17.866C87.8168 17.794 87.5738 17.623 87.3398 17.353C87.1058 17.065 86.9168 16.768 86.7728 16.462C86.6468 16.156 86.6018 15.931 86.6378 15.787V15.49C86.4758 15.49 86.3408 15.184 86.2328 14.572C86.1428 13.96 86.0978 13.249 86.0978 12.439C86.0978 12.133 86.1158 11.746 86.1518 11.278C86.2238 10.99 86.2598 10.639 86.2598 10.225C86.2778 9.79296 86.2868 9.51396 86.2868 9.38796V9.27996C86.2868 9.06396 86.3048 8.91096 86.3408 8.82096C86.3948 8.73096 86.4758 8.64996 86.5838 8.57796C86.7278 8.50596 86.8718 8.46996 87.0158 8.46996C87.5198 8.46996 87.7718 9.13596 87.7718 10.468C87.7718 10.666 87.7538 11.053 87.7178 11.629C87.6998 11.881 87.6908 12.259 87.6908 12.763C87.6908 13.699 87.7718 14.527 87.9338 15.247C88.0958 15.967 88.3388 16.462 88.6628 16.732L88.8248 16.354C89.0228 15.832 89.1758 15.499 89.2838 15.355C89.5358 14.833 89.6798 14.5 89.7158 14.356C89.7518 14.23 89.8508 14.023 90.0128 13.735L90.3638 13.006C90.3998 12.898 90.5168 12.556 90.7148 11.98C90.9128 11.386 91.1108 10.909 91.3088 10.549C91.3808 10.405 91.4888 10.198 91.6328 9.92796C91.7768 9.63996 91.8938 9.43296 91.9838 9.30696C92.0738 9.18096 92.1728 9.09996 92.2808 9.06396C92.4248 8.93796 92.5418 8.87496 92.6318 8.87496C92.7038 8.87496 92.8298 8.92896 93.0098 9.03696Z" fill="#999999"/>
<path d="M98.1349 8.65896C98.1709 8.67696 98.2249 8.70396 98.2969 8.73996C98.3689 8.75796 98.4229 8.79396 98.4589 8.84796C98.6389 9.02796 98.7289 9.23496 98.7289 9.46896C98.7289 9.59496 98.6839 9.74796 98.5939 9.92796C98.4679 10.162 98.3329 10.387 98.1889 10.603C97.9549 10.999 97.7569 11.359 97.5949 11.683C97.4509 12.007 97.2799 12.466 97.0819 13.06C97.5499 12.952 97.8559 12.862 97.9999 12.79C98.1439 12.7 98.3869 12.466 98.7289 12.088C99.0529 11.764 99.3589 11.476 99.6469 11.224C100.745 10.162 101.33 9.58596 101.402 9.49596C101.546 9.27996 101.672 9.11796 101.78 9.00996C101.888 8.88396 102.032 8.79396 102.212 8.73996C102.464 8.77596 102.635 8.82096 102.725 8.87496C102.833 8.92896 103.058 9.09096 103.4 9.36096C103.472 9.43296 103.508 9.55896 103.508 9.73896C103.508 10.081 103.409 10.324 103.211 10.468C103.157 10.504 102.806 10.783 102.158 11.305C100.844 12.403 99.7279 13.267 98.8099 13.897C99.2059 14.527 99.5929 15.229 99.9709 16.003C100.007 16.435 100.16 16.732 100.43 16.894C100.7 17.056 101.078 17.137 101.564 17.137C101.708 17.209 101.798 17.299 101.834 17.407C101.888 17.515 101.915 17.632 101.915 17.758C101.933 17.884 101.951 17.983 101.969 18.055C101.807 18.163 101.645 18.298 101.483 18.46C101.321 18.604 101.186 18.676 101.078 18.676C100.952 18.676 100.754 18.622 100.484 18.514C100.232 18.424 99.9979 18.298 99.7819 18.136C99.5659 17.956 99.3409 17.731 99.1069 17.461C98.8909 17.209 98.4679 16.57 97.8379 15.544C97.2079 14.518 96.8569 13.942 96.7849 13.816C96.7309 13.96 96.6589 14.122 96.5689 14.302C96.4969 14.464 96.4429 14.617 96.4069 14.761C96.3709 14.887 96.3529 15.058 96.3529 15.274C96.1729 15.526 96.0289 15.85 95.9209 16.246C95.8309 16.624 95.7589 16.894 95.7049 17.056C95.5969 17.452 95.3629 17.776 95.0029 18.028C94.6789 18.01 94.3639 17.812 94.0579 17.434C93.9679 17.272 93.9229 17.092 93.9229 16.894C93.9229 16.696 93.9679 16.48 94.0579 16.246C94.0939 16.084 94.2199 15.706 94.4359 15.112C94.6519 14.518 94.8229 14.041 94.9489 13.681C95.0389 13.447 95.1829 13.051 95.3809 12.493C95.5969 11.917 95.7139 11.575 95.7319 11.467C95.7859 11.233 95.9479 10.9 96.2179 10.468C96.5779 9.83796 96.8029 9.31596 96.8929 8.90196C96.9289 8.77596 97.0189 8.65896 97.1629 8.55096C97.3249 8.42496 97.4869 8.36196 97.6489 8.36196C97.8469 8.36196 98.0089 8.46096 98.1349 8.65896Z" fill="#999999"/>
<path d="M106.184 18.595C105.968 18.595 105.797 18.559 105.671 18.487C105.545 18.415 105.365 18.28 105.131 18.082C104.537 17.452 104.24 16.876 104.24 16.354C104.24 16.228 104.249 16.138 104.267 16.084C104.321 15.958 104.339 15.832 104.321 15.706C104.321 15.58 104.321 15.499 104.321 15.463C104.249 15.391 104.213 15.346 104.213 15.328C104.213 15.292 104.231 15.265 104.267 15.247C104.303 15.211 104.33 15.175 104.348 15.139C104.456 15.139 104.492 15.04 104.456 14.842C104.42 14.698 104.492 14.383 104.672 13.897C104.852 13.393 105.077 12.934 105.347 12.52C105.545 12.196 105.833 11.791 106.211 11.305C106.607 10.819 106.958 10.45 107.264 10.198C107.696 9.81996 108.083 9.54096 108.425 9.36096C108.767 9.18096 109.145 9.04596 109.559 8.95596C109.919 8.86596 110.162 8.82096 110.288 8.82096C110.414 8.82096 110.522 8.85696 110.612 8.92896C110.72 8.98296 110.855 9.09096 111.017 9.25296C111.503 9.46896 111.836 9.74796 112.016 10.09C112.214 10.414 112.313 10.927 112.313 11.629C112.313 12.799 111.836 14.068 110.882 15.436C110.468 16.03 110.081 16.489 109.721 16.813C109.361 17.119 108.884 17.452 108.29 17.812C107.912 18.082 107.561 18.28 107.237 18.406C106.931 18.514 106.58 18.577 106.184 18.595ZM108.776 15.733C109.208 15.247 109.55 14.788 109.802 14.356C110.072 13.924 110.324 13.375 110.558 12.709C110.648 12.403 110.693 12.034 110.693 11.602C110.693 11.062 110.621 10.756 110.477 10.684C110.297 10.594 110.117 10.549 109.937 10.549C109.541 10.549 109.127 10.729 108.695 11.089C108.173 11.539 107.705 12.097 107.291 12.763C106.877 13.411 106.454 14.221 106.022 15.193C105.842 15.571 105.752 15.94 105.752 16.3C105.752 16.57 105.815 16.786 105.941 16.948C106.085 17.11 106.274 17.191 106.508 17.191C107.102 17.191 107.858 16.705 108.776 15.733Z" fill="#999999"/>
<path d="M116.189 18.919C116.135 18.919 115.955 18.928 115.649 18.946C115.361 18.946 115.082 18.883 114.812 18.757C114.542 18.613 114.317 18.397 114.137 18.109C114.011 17.875 113.903 17.605 113.813 17.299C113.723 16.993 113.678 16.732 113.678 16.516C113.678 16.426 113.696 16.327 113.732 16.219C114.074 14.239 114.353 12.988 114.569 12.466L115.001 11.413C115.091 11.125 115.118 10.801 115.082 10.441V10.333C115.082 10.099 115.172 9.90096 115.352 9.73896C115.658 9.50496 115.901 9.19896 116.081 8.82096C116.207 8.51496 116.405 8.10096 116.675 7.57896C116.945 7.05696 117.143 6.71496 117.269 6.55296C117.467 6.28296 117.647 6.02196 117.809 5.76996C117.845 5.71596 117.971 5.52696 118.187 5.20296C118.421 4.86096 118.682 4.57296 118.97 4.33896C119.312 3.76296 119.987 3.06996 120.995 2.25996C121.427 1.89996 121.697 1.66596 121.805 1.55796C121.859 1.50396 122.021 1.44996 122.291 1.39596C122.561 1.32396 122.732 1.27896 122.804 1.26096C122.948 1.22496 123.191 1.16196 123.533 1.07196C123.641 1.01796 123.839 1.06296 124.127 1.20696C124.433 1.33296 124.658 1.47696 124.802 1.63896C125.09 2.14296 125.234 2.53896 125.234 2.82696C125.234 3.06096 125.18 3.32196 125.072 3.60996C124.964 3.89796 124.757 4.36596 124.451 5.01396C123.803 6.30996 122.624 7.54296 120.914 8.71296C120.266 9.28896 119.537 9.79296 118.727 10.225C118.133 10.531 117.647 10.747 117.269 10.873C116.981 10.963 116.774 11.17 116.648 11.494C116.576 11.656 116.513 11.854 116.459 12.088C116.423 12.322 116.369 12.475 116.297 12.547C116.189 12.655 116.009 13.258 115.757 14.356C115.505 15.454 115.379 16.201 115.379 16.597C115.379 16.741 115.397 16.867 115.433 16.975C115.469 17.083 115.55 17.164 115.676 17.218C115.928 17.164 116.126 17.083 116.27 16.975C116.432 16.849 116.63 16.651 116.864 16.381C117.368 15.751 117.728 15.148 117.944 14.572C117.998 14.41 118.052 14.203 118.106 13.951C118.16 13.681 118.223 13.474 118.295 13.33C118.295 12.7 118.286 12.295 118.268 12.115C118.25 11.917 118.187 11.683 118.079 11.413C118.169 11.359 118.241 11.305 118.295 11.251C118.367 11.179 118.457 11.152 118.565 11.17C118.979 11.26 119.402 11.512 119.834 11.926C119.96 12.052 119.996 12.205 119.942 12.385C119.87 12.961 119.834 13.375 119.834 13.627C119.78 13.753 119.69 14.032 119.564 14.464C119.546 14.698 119.492 14.923 119.402 15.139C119.078 15.805 118.844 16.255 118.7 16.489C118.304 17.227 117.764 17.857 117.08 18.379L116.189 18.919ZM123.668 2.15196C123.146 2.38596 122.732 2.61096 122.426 2.82696C122.138 3.02496 121.769 3.34896 121.319 3.79896C120.887 4.23096 120.293 4.96896 119.537 6.01296C118.799 7.03896 118.304 7.86696 118.052 8.49696C118.142 8.51496 118.25 8.52396 118.376 8.52396C118.556 8.52396 118.709 8.43396 118.835 8.25396C120.113 7.37196 121.112 6.60696 121.832 5.95896C122.552 5.29296 123.02 4.67196 123.236 4.09596C123.308 3.95196 123.407 3.77196 123.533 3.55596C123.659 3.32196 123.74 3.10596 123.776 2.90796L123.668 2.15196Z" fill="#999999"/>
</svg>
