<svg width="365" height="137" viewBox="0 0 365 137" fill="none" xmlns="http://www.w3.org/2000/svg">
<path d="M1.42899 19.6209C0.906989 19.6209 0.573989 19.5489 0.429989 19.4049C0.285989 19.2609 0.213989 19.0629 0.213989 18.8109C0.267989 18.6489 0.339989 18.4689 0.429989 18.2709C0.609989 17.7849 0.726989 17.4339 0.780989 17.2179C0.852989 16.8759 0.96999 16.4439 1.13199 15.9219C1.95999 13.2579 2.51799 11.5749 2.80599 10.8729L3.83199 8.01094L4.77699 5.25694C5.22699 4.28494 5.54199 3.47494 5.72199 2.82694C5.73999 2.79094 5.74899 2.73694 5.74899 2.66494C5.74899 2.61094 5.72199 2.52994 5.66799 2.42194C5.61399 2.29594 5.58699 2.16094 5.58699 2.01694C5.56899 1.80094 5.62299 1.64794 5.74899 1.55794C5.89299 1.44994 6.07299 1.42294 6.28899 1.47694C6.73899 1.60294 7.49499 1.66594 8.55699 1.66594C8.95299 1.66594 9.18699 1.64794 9.25899 1.61194C9.40299 1.53994 10.258 1.39594 11.824 1.17994C13.39 0.963938 14.866 0.774938 16.252 0.612938L16.495 0.585938C16.639 0.585938 16.801 0.603938 16.981 0.639938C17.179 0.675938 17.314 0.702938 17.386 0.720938C17.656 0.774938 17.89 0.918939 18.088 1.15294C18.304 1.36894 18.385 1.61194 18.331 1.88194C18.259 2.09794 18.061 2.20594 17.737 2.20594C17.629 2.20594 17.359 2.16994 16.927 2.09794C16.891 2.09794 16.828 2.26894 16.738 2.61094C16.666 2.95294 16.585 3.23194 16.495 3.44794C16.297 3.69994 16.036 4.32994 15.712 5.33794C15.388 6.34594 15.226 7.00294 15.226 7.30894C14.974 7.68694 14.767 8.25394 14.605 9.00994C14.515 9.38794 14.425 9.69394 14.335 9.92794C14.119 10.6659 13.777 11.8899 13.309 13.5999C12.859 15.3099 12.643 16.1649 12.661 16.1649L12.553 17.1369C12.481 17.7309 12.436 18.1449 12.418 18.3789C12.436 18.4509 12.436 18.5139 12.418 18.5679C12.418 18.6219 12.391 18.6579 12.337 18.6759C12.211 18.8019 11.977 18.8649 11.635 18.8649C11.491 18.8649 11.347 18.8469 11.203 18.8109C11.077 18.7749 10.996 18.7299 10.96 18.6759C10.942 18.6219 10.888 18.5229 10.798 18.3789C10.708 18.2169 10.681 18.0549 10.717 17.8929C10.771 17.3169 10.915 16.3269 11.149 14.9229C11.239 14.4729 11.347 14.0589 11.473 13.6809C11.599 13.2849 11.689 13.0689 11.743 13.0329L12.256 11.1159C12.454 10.5579 12.607 9.97294 12.715 9.36094C12.733 9.28894 12.778 9.09994 12.85 8.79394C12.922 8.46994 13.03 8.10994 13.174 7.71394C13.372 7.20994 13.543 6.66994 13.687 6.09394C13.849 5.49994 13.948 5.13094 13.984 4.98694C14.038 4.78894 14.191 4.32994 14.443 3.60994C14.479 3.51994 14.542 3.33094 14.632 3.04294C14.74 2.73694 14.785 2.49394 14.767 2.31394L12.985 2.55694L11.365 2.77294L9.50199 3.04294C8.52999 3.18694 8.01699 3.25894 7.96299 3.25894C7.65699 3.31294 7.50399 3.42094 7.50399 3.58294C7.07199 4.41094 6.68499 5.23894 6.34299 6.06694C6.00099 6.87694 5.76699 7.55194 5.64099 8.09194C5.56899 8.25394 5.27199 9.04594 4.74999 10.4679C4.42599 11.2959 4.27299 11.6919 4.29099 11.6559C3.93099 12.8619 3.54399 13.9959 3.12999 15.0579C3.03999 15.2559 2.95899 15.4449 2.88699 15.6249C2.83299 15.8049 2.77899 16.0659 2.72499 16.4079C2.58099 16.7859 2.41899 17.3889 2.23899 18.2169C2.16699 18.4509 2.12199 18.6309 2.10399 18.7569C2.10399 18.8649 2.08599 19.0089 2.04999 19.1889C1.90599 19.4769 1.69899 19.6209 1.42899 19.6209Z" fill="white"/>
<path d="M18.9106 18.5949C18.6946 18.5949 18.5236 18.5589 18.3976 18.4869C18.2716 18.4149 18.0916 18.2799 17.8576 18.0819C17.2636 17.4519 16.9666 16.8759 16.9666 16.3539C16.9666 16.2279 16.9756 16.1379 16.9936 16.0839C17.0476 15.9579 17.0656 15.8319 17.0476 15.7059C17.0476 15.5799 17.0476 15.4989 17.0476 15.4629C16.9756 15.3909 16.9396 15.3459 16.9396 15.3279C16.9396 15.2919 16.9576 15.2649 16.9936 15.2469C17.0296 15.2109 17.0566 15.1749 17.0746 15.1389C17.1826 15.1389 17.2186 15.0399 17.1826 14.8419C17.1466 14.6979 17.2186 14.3829 17.3986 13.8969C17.5786 13.3929 17.8036 12.9339 18.0736 12.5199C18.2716 12.1959 18.5596 11.7909 18.9376 11.3049C19.3336 10.8189 19.6846 10.4499 19.9906 10.1979C20.4226 9.81994 20.8096 9.54094 21.1516 9.36094C21.4936 9.18094 21.8716 9.04594 22.2856 8.95594C22.6456 8.86594 22.8886 8.82094 23.0146 8.82094C23.1406 8.82094 23.2486 8.85694 23.3386 8.92894C23.4466 8.98294 23.5816 9.09094 23.7436 9.25294C24.2296 9.46894 24.5626 9.74794 24.7426 10.0899C24.9406 10.4139 25.0396 10.9269 25.0396 11.6289C25.0396 12.7989 24.5626 14.0679 23.6086 15.4359C23.1946 16.0299 22.8076 16.4889 22.4476 16.8129C22.0876 17.1189 21.6106 17.4519 21.0166 17.8119C20.6386 18.0819 20.2876 18.2799 19.9636 18.4059C19.6576 18.5139 19.3066 18.5769 18.9106 18.5949ZM21.5026 15.7329C21.9346 15.2469 22.2766 14.7879 22.5286 14.3559C22.7986 13.9239 23.0506 13.3749 23.2846 12.7089C23.3746 12.4029 23.4196 12.0339 23.4196 11.6019C23.4196 11.0619 23.3476 10.7559 23.2036 10.6839C23.0236 10.5939 22.8436 10.5489 22.6636 10.5489C22.2676 10.5489 21.8536 10.7289 21.4216 11.0889C20.8996 11.5389 20.4316 12.0969 20.0176 12.7629C19.6036 13.4109 19.1806 14.2209 18.7486 15.1929C18.5686 15.5709 18.4786 15.9399 18.4786 16.2999C18.4786 16.5699 18.5416 16.7859 18.6676 16.9479C18.8116 17.1099 19.0006 17.1909 19.2346 17.1909C19.8286 17.1909 20.5846 16.7049 21.5026 15.7329Z" fill="white"/>
<path d="M29.5092 18.7029C29.2572 18.7389 29.0682 18.7569 28.9422 18.7569C28.2762 18.7569 27.7272 18.5499 27.2952 18.1359C26.8632 17.7219 26.6472 17.1459 26.6472 16.4079C26.5752 15.6159 26.7462 14.6349 27.1602 13.4649C27.5922 12.2949 28.1322 11.3139 28.7802 10.5219C29.2302 9.99994 29.6172 9.57694 29.9412 9.25294C30.2652 8.92894 30.5622 8.71294 30.8322 8.60494C31.2102 8.44294 31.6332 8.36194 32.1012 8.36194C32.4252 8.43394 32.7402 8.56894 33.0462 8.76694C33.3702 8.96494 33.5322 9.16294 33.5322 9.36094L33.6672 9.49594C33.7752 9.49594 33.8742 9.63094 33.9642 9.90094C34.0542 10.1529 34.0992 10.4319 34.0992 10.7379C34.0992 10.9899 34.0542 11.2059 33.9642 11.3859C33.8922 11.7279 33.7662 12.0249 33.5862 12.2769C33.4242 12.5289 33.2622 12.6549 33.1002 12.6549C32.9022 12.6549 32.8032 12.7089 32.8032 12.8169C32.8032 12.8889 32.7672 12.9249 32.6952 12.9249C32.6052 12.9249 32.4972 12.8709 32.3712 12.7629C32.2452 12.6549 32.1552 12.5289 32.1012 12.3849C32.1012 12.3309 32.1372 12.1779 32.2092 11.9259C32.2812 11.6739 32.3532 11.3949 32.4252 11.0889C32.4792 10.8729 32.5062 10.6839 32.5062 10.5219C32.5062 10.1619 32.3712 9.98194 32.1012 9.98194C31.9572 9.98194 31.8132 10.0179 31.6692 10.0899C30.9492 10.4859 30.3102 11.1159 29.7522 11.9799C29.1942 12.8439 28.7262 14.0319 28.3482 15.5439C28.2582 15.9399 28.2132 16.2549 28.2132 16.4889C28.2132 16.6689 28.2222 16.8129 28.2402 16.9209C28.2762 17.0289 28.3122 17.0919 28.3482 17.1099C28.4382 17.1459 28.6272 17.1639 28.9152 17.1639C29.5812 17.1639 30.0492 17.0829 30.3192 16.9209C30.8952 16.6149 31.5342 16.2009 32.2362 15.6789C32.3082 15.6249 32.4162 15.5349 32.5602 15.4089C32.7042 15.2649 32.8392 15.1659 32.9652 15.1119C33.0912 14.9139 33.2082 14.7969 33.3162 14.7609C33.4242 14.7069 33.5952 14.6799 33.8292 14.6799C34.0632 14.7519 34.2522 14.8509 34.3962 14.9769C34.5402 15.0849 34.5402 15.1749 34.3962 15.2469C34.3422 15.2469 34.3062 15.2649 34.2882 15.3009C34.2702 15.3369 34.2612 15.3639 34.2612 15.3819C34.2972 15.4719 34.1532 15.6969 33.8292 16.0569C33.5052 16.4169 33.1452 16.7589 32.7492 17.0829C32.3532 17.3889 32.0832 17.5419 31.9392 17.5419C31.8672 17.5419 31.8042 17.5509 31.7502 17.5689C31.6962 17.5869 31.6692 17.6319 31.6692 17.7039C31.6692 17.7759 31.3902 17.9469 30.8322 18.2169C30.2922 18.4689 29.8512 18.6309 29.5092 18.7029Z" fill="white"/>
<path d="M43.3999 15.3279C43.3279 15.4359 43.1929 15.6249 42.9949 15.8949C42.7969 16.1469 42.6529 16.4079 42.5629 16.6779C42.5089 16.8219 42.4189 16.9479 42.2929 17.0559C42.1849 17.1459 42.1219 17.1999 42.1039 17.2179C42.0139 17.1819 41.9059 17.1459 41.7799 17.1099C41.6719 17.0739 41.5819 17.0289 41.5099 16.9749C41.4379 16.9029 41.3479 16.8129 41.2399 16.7049C40.8799 16.3629 40.7359 16.0389 40.8079 15.7329C40.7899 15.5529 40.7809 15.3729 40.7809 15.1929C40.7989 15.0129 40.8079 14.8509 40.8079 14.7069C40.8259 14.4909 40.8349 14.1669 40.8349 13.7349C40.8349 12.9069 40.7899 12.3939 40.6999 12.1959C40.5019 12.2139 40.3669 12.2409 40.2949 12.2769C40.2229 12.3129 40.1329 12.4209 40.0249 12.6009C39.9889 12.6729 39.8809 12.8439 39.7009 13.1139C39.5389 13.3659 39.3229 13.6809 39.0529 14.0589C38.7829 14.4729 38.4319 15.0039 37.9999 15.6519C37.5859 16.2999 37.3879 16.6149 37.4059 16.5969C37.1899 16.8489 37.0099 17.1729 36.8659 17.5689C36.6679 18.0189 36.4699 18.1449 36.2719 17.9469C35.8939 17.7489 35.6149 17.5779 35.4349 17.4339C35.2729 17.1459 35.1829 16.8579 35.1649 16.5699C35.2189 16.5519 35.2819 16.5249 35.3539 16.4889C35.4259 16.4349 35.4799 16.3899 35.5159 16.3539C35.5519 16.3179 35.5789 16.2729 35.5969 16.2189L37.6489 13.2219L37.9999 12.7089C38.0899 12.5289 38.3329 12.1869 38.7289 11.6829C38.7649 11.5929 38.9359 11.3499 39.2419 10.9539C39.5659 10.5579 39.7819 10.3329 39.8899 10.2789C39.9799 10.2249 40.0519 10.1349 40.1059 10.0089C40.1779 9.86494 40.2229 9.77494 40.2409 9.73894C40.2949 9.45094 40.4839 9.30694 40.8079 9.30694C40.9159 9.30694 40.9969 9.31594 41.0509 9.33394L42.1039 10.1439C42.0859 10.2159 42.0769 10.3329 42.0769 10.4949C42.0769 10.7469 42.1489 11.1249 42.2929 11.6289C42.2749 11.6829 42.2659 11.7639 42.2659 11.8719C42.2659 12.0159 42.2749 12.1599 42.2929 12.3039C42.3289 12.4299 42.3469 12.5649 42.3469 12.7089C42.3469 12.8169 42.3379 12.8979 42.3199 12.9519C42.3199 13.2939 42.4099 13.4649 42.5899 13.4649C42.7159 13.4649 42.8689 13.3749 43.0489 13.1949C43.5529 12.5649 44.5069 11.5479 45.9109 10.1439C46.4329 9.62194 46.7119 9.33394 46.7479 9.27994C46.8019 9.18994 46.8919 9.14494 47.0179 9.14494C47.1079 9.14494 47.1799 9.16294 47.2339 9.19894C47.4859 9.32494 47.6749 9.43294 47.8009 9.52294C47.9449 9.61294 48.1159 9.75694 48.3139 9.95494C48.4219 10.0809 48.4759 10.2159 48.4759 10.3599C48.4759 10.4499 48.4489 10.5399 48.3949 10.6299C48.2329 11.0079 48.0169 11.7549 47.7469 12.8709C47.4769 13.9689 47.3329 14.7429 47.3149 15.1929C47.3149 15.3189 47.2969 15.5169 47.2609 15.7869C47.2429 16.0389 47.2339 16.2639 47.2339 16.4619C47.2339 16.8579 47.2699 17.2089 47.3419 17.5149C47.4319 17.8569 47.4769 18.1449 47.4769 18.3789C47.4769 18.5589 47.4319 18.6849 47.3419 18.7569C47.2699 18.8289 47.1259 18.8829 46.9099 18.9189C46.8019 18.8649 46.6669 18.7749 46.5049 18.6489C46.3429 18.5049 46.1899 18.3879 46.0459 18.2979C46.0099 18.1539 45.9379 17.9289 45.8299 17.6229C45.7399 17.2989 45.7039 17.0109 45.7219 16.7589C45.7219 16.6689 45.6949 16.5249 45.6409 16.3269C45.6049 16.1109 45.6139 15.9489 45.6679 15.8409L45.6409 15.5169C45.6409 14.8689 45.7939 13.8609 46.0999 12.4929C46.0459 12.4209 45.9919 12.3759 45.9379 12.3579C45.9019 12.3399 45.8479 12.3669 45.7759 12.4389C45.5419 12.6549 45.1999 13.0239 44.7499 13.5459C44.7139 13.5819 44.6419 13.6449 44.5339 13.7349C44.4259 13.8069 44.3719 13.9059 44.3719 14.0319L43.3999 15.3279Z" fill="white"/>
<path d="M52.1333 18.5949C51.9173 18.5949 51.7463 18.5589 51.6203 18.4869C51.4943 18.4149 51.3143 18.2799 51.0803 18.0819C50.4863 17.4519 50.1893 16.8759 50.1893 16.3539C50.1893 16.2279 50.1983 16.1379 50.2163 16.0839C50.2703 15.9579 50.2883 15.8319 50.2703 15.7059C50.2703 15.5799 50.2703 15.4989 50.2703 15.4629C50.1983 15.3909 50.1623 15.3459 50.1623 15.3279C50.1623 15.2919 50.1803 15.2649 50.2163 15.2469C50.2523 15.2109 50.2793 15.1749 50.2973 15.1389C50.4053 15.1389 50.4413 15.0399 50.4053 14.8419C50.3693 14.6979 50.4413 14.3829 50.6213 13.8969C50.8013 13.3929 51.0263 12.9339 51.2963 12.5199C51.4943 12.1959 51.7823 11.7909 52.1603 11.3049C52.5563 10.8189 52.9073 10.4499 53.2133 10.1979C53.6453 9.81994 54.0323 9.54094 54.3743 9.36094C54.7163 9.18094 55.0943 9.04594 55.5083 8.95594C55.8683 8.86594 56.1113 8.82094 56.2373 8.82094C56.3633 8.82094 56.4713 8.85694 56.5613 8.92894C56.6693 8.98294 56.8043 9.09094 56.9663 9.25294C57.4523 9.46894 57.7853 9.74794 57.9653 10.0899C58.1633 10.4139 58.2623 10.9269 58.2623 11.6289C58.2623 12.7989 57.7853 14.0679 56.8313 15.4359C56.4173 16.0299 56.0303 16.4889 55.6703 16.8129C55.3103 17.1189 54.8333 17.4519 54.2393 17.8119C53.8613 18.0819 53.5103 18.2799 53.1863 18.4059C52.8803 18.5139 52.5293 18.5769 52.1333 18.5949ZM54.7253 15.7329C55.1573 15.2469 55.4993 14.7879 55.7513 14.3559C56.0213 13.9239 56.2733 13.3749 56.5073 12.7089C56.5973 12.4029 56.6423 12.0339 56.6423 11.6019C56.6423 11.0619 56.5703 10.7559 56.4263 10.6839C56.2463 10.5939 56.0663 10.5489 55.8863 10.5489C55.4903 10.5489 55.0763 10.7289 54.6443 11.0889C54.1223 11.5389 53.6543 12.0969 53.2403 12.7629C52.8263 13.4109 52.4033 14.2209 51.9713 15.1929C51.7913 15.5709 51.7013 15.9399 51.7013 16.2999C51.7013 16.5699 51.7643 16.7859 51.8903 16.9479C52.0343 17.1099 52.2233 17.1909 52.4573 17.1909C53.0513 17.1909 53.8073 16.7049 54.7253 15.7329Z" fill="white"/>
<path d="M72.1819 16.6509C72.2539 16.7049 72.2899 16.7859 72.2899 16.8939C72.2899 17.0199 72.2449 17.1459 72.1549 17.2719C72.0829 17.3799 72.0109 17.4339 71.9389 17.4339C71.5969 17.4339 71.2639 17.3439 70.9399 17.1639C70.6339 16.9659 70.4809 16.6599 70.4809 16.2459V14.5719C70.4809 13.7259 70.4179 13.2489 70.2919 13.1409C70.0219 12.9969 69.5539 13.2939 68.8879 14.0319C68.2399 14.7699 67.6099 15.6429 66.9979 16.6509C66.7999 16.9749 66.6379 17.2269 66.5119 17.4069C66.3859 17.5869 66.2869 17.6769 66.2149 17.6769C66.1609 17.6769 66.0709 17.6319 65.9449 17.5419C65.3869 17.3799 65.1079 17.0649 65.1079 16.5969C65.1079 16.5429 65.1259 16.4259 65.1619 16.2459C65.3419 15.6519 65.5219 14.9949 65.7019 14.2749C65.8819 13.5369 66.0259 12.9159 66.1339 12.4119C66.0799 12.3039 65.9899 12.2499 65.8639 12.2499C65.6839 12.2499 65.4769 12.3399 65.2429 12.5199C64.7929 12.8259 64.2169 13.5549 63.5149 14.7069C62.6329 16.0569 62.0209 16.8759 61.6789 17.1639C61.5529 17.3799 61.4359 17.5509 61.3279 17.6769C61.2379 17.7849 61.1479 17.8389 61.0579 17.8389C60.9859 17.8389 60.8509 17.7849 60.6529 17.6769C60.1309 17.3709 59.8699 16.9389 59.8699 16.3809C59.8699 16.1109 59.9509 15.5709 60.1129 14.7609C60.2749 13.9509 60.4549 13.1949 60.6529 12.4929C60.8149 12.1869 60.9589 11.8719 61.0849 11.5479C61.2289 11.2059 61.3009 10.9989 61.3009 10.9269C61.3729 10.5489 61.4629 10.1439 61.5709 9.71194C61.6789 9.27994 61.7599 9.03694 61.8139 8.98294C61.9399 8.85694 62.0839 8.79394 62.2459 8.79394C62.5159 8.79394 62.7139 8.93794 62.8399 9.22594C63.0379 9.42394 63.1369 9.67594 63.1369 9.98194C63.1369 10.3239 63.0379 10.7649 62.8399 11.3049C62.5339 11.9709 62.2009 12.9429 61.8409 14.2209C62.2189 13.8069 62.4889 13.4829 62.6509 13.2489C63.0829 12.6369 63.6409 11.9529 64.3249 11.1969C64.8829 10.5849 65.5129 10.2789 66.2149 10.2789C67.0429 10.4229 67.5199 11.1159 67.6459 12.3579C67.6459 12.5739 67.6279 12.8439 67.5919 13.1679C67.5559 13.4739 67.5289 13.6719 67.5109 13.7619C67.5829 13.6539 67.7629 13.4199 68.0509 13.0599C68.3569 12.6999 68.7259 12.3309 69.1579 11.9529C69.5539 11.6469 69.9229 11.4939 70.2649 11.4939C70.5529 11.4939 70.8049 11.6109 71.0209 11.8449C71.3989 12.0609 71.6689 12.3669 71.8309 12.7629C71.9929 13.1409 72.0739 13.6269 72.0739 14.2209C72.0739 14.5269 72.0649 14.7699 72.0469 14.9499C72.0109 15.3099 71.9929 15.5349 71.9929 15.6249C71.9929 15.9669 72.0559 16.3089 72.1819 16.6509Z" fill="white"/>
<path d="M73.0745 25.0749C72.9305 25.0749 72.8135 24.9939 72.7235 24.8319C72.6335 24.7059 72.5885 24.5529 72.5885 24.3729C72.5885 24.2469 72.6335 23.9409 72.7235 23.4549C72.9215 22.6989 73.0205 22.1769 73.0205 21.8889C73.0205 21.7989 73.0385 21.6639 73.0745 21.4839C73.1105 21.3219 73.1375 21.1689 73.1555 21.0249C73.2275 20.8989 73.2905 20.7009 73.3445 20.4309C73.4165 20.1789 73.4525 19.9539 73.4525 19.7559C73.4525 19.6659 73.4795 19.5579 73.5335 19.4319C73.6055 19.3239 73.6866 19.2339 73.7766 19.1619C73.7766 19.0539 73.8035 18.8919 73.8575 18.6759C73.9115 18.4419 73.9475 18.2799 73.9655 18.1899C74.0555 17.7039 74.4065 16.5519 75.0185 14.7339C75.6305 12.9159 76.1525 11.4489 76.5845 10.3329C76.7825 9.88294 76.9265 9.46894 77.0165 9.09094C77.1065 8.71294 77.1516 8.41594 77.1516 8.19994C77.1516 8.12794 77.1696 8.06494 77.2056 8.01094C77.2596 7.93894 77.3405 7.84894 77.4485 7.74094C77.5745 7.61494 77.6915 7.55194 77.7995 7.55194C77.8895 7.55194 77.9886 7.58794 78.0965 7.65994C78.2045 7.73194 78.3125 7.81294 78.4205 7.90294C78.5285 8.06494 78.6096 8.21794 78.6636 8.36194C78.7356 8.50594 78.7715 8.65894 78.7715 8.82094C78.7715 8.87494 78.7535 9.04594 78.7175 9.33394C78.7175 9.71194 78.6365 10.0269 78.4745 10.2789C78.3125 10.5129 78.2495 10.6209 78.2855 10.6029C79.0955 10.2249 79.8155 10.0359 80.4455 10.0359C81.2015 10.0359 81.7865 10.2789 82.2005 10.7649C82.6325 11.2509 82.8485 11.8809 82.8485 12.6549C82.8485 12.9789 82.7495 13.3749 82.5515 13.8429C82.3715 14.2929 82.1916 14.5989 82.0116 14.7609C81.9036 14.7609 81.7596 14.9499 81.5796 15.3279C81.3456 15.6159 80.9585 15.9219 80.4185 16.2459C79.8785 16.5519 79.5005 16.6689 79.2845 16.5969C79.2665 16.5969 79.2395 16.6059 79.2035 16.6239C79.1675 16.6419 79.1496 16.6869 79.1496 16.7589C79.1496 16.8309 78.8435 16.9659 78.2315 17.1639C77.6195 17.3619 77.1156 17.4609 76.7196 17.4609C76.5036 17.4609 76.3415 17.4519 76.2335 17.4339C76.1255 17.3979 76.0175 17.3349 75.9095 17.2449C75.7835 17.3709 75.7206 17.4879 75.7206 17.5959C75.7206 17.7939 75.6305 18.1539 75.4505 18.6759C75.2705 19.1979 75.1265 19.4589 75.0185 19.4589C75.0005 19.4769 74.9735 19.5129 74.9375 19.5669C74.9195 19.6209 74.9465 19.6839 75.0185 19.7559C75.0185 19.8099 75.0095 19.9359 74.9915 20.1339C74.9735 20.3319 74.9285 20.4849 74.8565 20.5929C74.8565 20.7549 74.8296 20.9709 74.7756 21.2409C74.7216 21.5289 74.6585 21.7449 74.5865 21.8889C74.5865 22.1049 74.5505 22.3119 74.4785 22.5099C74.4245 22.7259 74.3616 22.8339 74.2896 22.8339C74.1816 22.8699 74.1275 23.1309 74.1275 23.6169C74.1095 24.0669 74.0195 24.4179 73.8575 24.6699C73.6955 24.9219 73.5066 25.0479 73.2906 25.0479L73.0745 25.0749ZM76.5575 16.0299C76.8275 16.0299 77.3675 15.8949 78.1775 15.6249C79.0055 15.3369 79.5815 15.0579 79.9055 14.7879C80.2835 14.4639 80.5895 14.1219 80.8235 13.7619C81.0575 13.3839 81.1745 13.0059 81.1745 12.6279C81.1745 12.3399 81.0935 12.0789 80.9315 11.8449C80.8055 11.6469 80.5895 11.5479 80.2835 11.5479C79.9235 11.5479 79.4915 11.6739 78.9875 11.9259C78.5015 12.1779 78.0516 12.5109 77.6376 12.9249C77.3136 13.2489 77.0255 13.7169 76.7735 14.3289C76.5215 14.9229 76.3955 15.3909 76.3955 15.7329C76.3955 15.9309 76.4495 16.0299 76.5575 16.0299Z" fill="white"/>
<path d="M90.737 18.9459C90.305 18.5319 89.981 17.9199 89.765 17.1099C89.729 17.0019 89.711 16.8129 89.711 16.5429C89.711 16.2729 89.711 16.0839 89.711 15.9759C89.603 16.2459 89.405 16.4889 89.117 16.7049C88.703 17.1189 88.289 17.4249 87.875 17.6229C87.245 18.0369 86.732 18.2439 86.336 18.2439C85.976 18.2439 85.634 18.0459 85.31 17.6499C85.076 17.4519 84.896 17.2539 84.77 17.0559C84.662 16.8579 84.608 16.6149 84.608 16.3269C84.608 16.1289 84.635 15.9129 84.689 15.6789C84.725 15.0129 84.815 14.3739 84.959 13.7619C85.121 13.1499 85.418 12.3669 85.85 11.4129C86.426 10.2789 86.84 9.52294 87.092 9.14494C87.182 9.10894 87.299 9.09094 87.443 9.09094C87.623 9.09094 87.767 9.14494 87.875 9.25294C88.001 9.36094 88.073 9.50494 88.091 9.68494C88.145 9.75694 88.172 9.85594 88.172 9.98194C88.172 10.4319 87.902 11.1699 87.362 12.1959C86.66 13.8879 86.309 15.0579 86.309 15.7059C86.309 16.0839 86.417 16.3089 86.633 16.3809C86.723 16.4349 86.822 16.4619 86.93 16.4619C87.38 16.4619 87.92 16.1559 88.55 15.5439C89.18 14.9319 89.783 13.9509 90.359 12.6009C90.611 11.9889 90.764 11.3589 90.818 10.7109C90.8 10.6569 90.791 10.5759 90.791 10.4679C90.791 10.1439 90.953 9.88294 91.277 9.68494C91.349 9.57694 91.448 9.49594 91.574 9.44194C91.7 9.36994 91.781 9.36994 91.817 9.44194L92.249 9.41494C92.303 9.39694 92.357 9.45094 92.411 9.57694C92.465 9.68494 92.519 9.75694 92.573 9.79294C92.699 9.90094 92.762 10.0989 92.762 10.3869C92.762 10.9809 92.501 11.8899 91.979 13.1139C91.637 13.8339 91.403 14.3919 91.277 14.7879C91.169 15.1659 91.106 15.5349 91.088 15.8949C91.088 16.5789 91.349 17.1459 91.871 17.5959C92.051 17.7219 92.159 17.8569 92.195 18.0009C92.231 18.1449 92.24 18.3429 92.222 18.5949C92.186 18.7569 92.078 18.8919 91.898 18.9999C91.736 19.0899 91.556 19.1349 91.358 19.1349C91.124 19.1349 90.917 19.0719 90.737 18.9459Z" fill="white"/>
<path d="M106.67 16.6509C106.742 16.7049 106.778 16.7859 106.778 16.8939C106.778 17.0199 106.733 17.1459 106.643 17.2719C106.571 17.3799 106.499 17.4339 106.427 17.4339C106.085 17.4339 105.752 17.3439 105.428 17.1639C105.122 16.9659 104.969 16.6599 104.969 16.2459V14.5719C104.969 13.7259 104.906 13.2489 104.78 13.1409C104.51 12.9969 104.042 13.2939 103.376 14.0319C102.728 14.7699 102.098 15.6429 101.486 16.6509C101.288 16.9749 101.126 17.2269 101 17.4069C100.874 17.5869 100.775 17.6769 100.703 17.6769C100.649 17.6769 100.559 17.6319 100.433 17.5419C99.8751 17.3799 99.5961 17.0649 99.5961 16.5969C99.5961 16.5429 99.6141 16.4259 99.6501 16.2459C99.8301 15.6519 100.01 14.9949 100.19 14.2749C100.37 13.5369 100.514 12.9159 100.622 12.4119C100.568 12.3039 100.478 12.2499 100.352 12.2499C100.172 12.2499 99.9651 12.3399 99.7311 12.5199C99.2811 12.8259 98.7051 13.5549 98.0031 14.7069C97.1211 16.0569 96.5091 16.8759 96.1671 17.1639C96.0411 17.3799 95.9241 17.5509 95.8161 17.6769C95.7261 17.7849 95.6361 17.8389 95.5461 17.8389C95.4741 17.8389 95.3391 17.7849 95.1411 17.6769C94.6191 17.3709 94.3581 16.9389 94.3581 16.3809C94.3581 16.1109 94.4391 15.5709 94.6011 14.7609C94.7631 13.9509 94.9431 13.1949 95.1411 12.4929C95.3031 12.1869 95.4471 11.8719 95.5731 11.5479C95.7171 11.2059 95.7891 10.9989 95.7891 10.9269C95.8611 10.5489 95.9511 10.1439 96.0591 9.71194C96.1671 9.27994 96.2481 9.03694 96.3021 8.98294C96.4281 8.85694 96.5721 8.79394 96.7341 8.79394C97.0041 8.79394 97.2021 8.93794 97.3281 9.22594C97.5261 9.42394 97.6251 9.67594 97.6251 9.98194C97.6251 10.3239 97.5261 10.7649 97.3281 11.3049C97.0221 11.9709 96.6891 12.9429 96.3291 14.2209C96.7071 13.8069 96.9771 13.4829 97.1391 13.2489C97.5711 12.6369 98.1291 11.9529 98.8131 11.1969C99.3711 10.5849 100.001 10.2789 100.703 10.2789C101.531 10.4229 102.008 11.1159 102.134 12.3579C102.134 12.5739 102.116 12.8439 102.08 13.1679C102.044 13.4739 102.017 13.6719 101.999 13.7619C102.071 13.6539 102.251 13.4199 102.539 13.0599C102.845 12.6999 103.214 12.3309 103.646 11.9529C104.042 11.6469 104.411 11.4939 104.753 11.4939C105.041 11.4939 105.293 11.6109 105.509 11.8449C105.887 12.0609 106.157 12.3669 106.319 12.7629C106.481 13.1409 106.562 13.6269 106.562 14.2209C106.562 14.5269 106.553 14.7699 106.535 14.9499C106.499 15.3099 106.481 15.5349 106.481 15.6249C106.481 15.9669 106.544 16.3089 106.67 16.6509Z" fill="white"/>
<path d="M112.766 18.0549C112.316 18.4509 111.776 18.6489 111.146 18.6489C110.696 18.6489 110.264 18.5409 109.85 18.3249C109.454 18.1089 109.121 17.8119 108.851 17.4339C108.617 17.1459 108.446 16.8219 108.338 16.4619C108.23 16.1019 108.176 15.6609 108.176 15.1389C108.176 14.9589 108.194 14.5989 108.23 14.0589C108.284 13.3929 108.5 12.6999 108.878 11.9799C109.274 11.2599 109.76 10.6209 110.336 10.0629C110.912 9.48694 111.479 9.09094 112.037 8.87494C112.325 8.69494 112.586 8.60494 112.82 8.60494C112.946 8.60494 113.072 8.61394 113.198 8.63194C113.324 8.64994 113.459 8.66794 113.603 8.68594C113.999 8.73994 114.296 8.82094 114.494 8.92894C114.71 9.01894 114.89 9.16294 115.034 9.36094C115.484 9.81094 115.709 10.3329 115.709 10.9269C115.637 11.3589 115.358 11.8539 114.872 12.4119C114.386 12.9699 113.801 13.4199 113.117 13.7619C112.793 13.8699 112.424 13.9239 112.01 13.9239C111.452 13.9239 111.002 13.8069 110.66 13.5729C110.498 13.5189 110.372 13.4919 110.282 13.4919C110.12 13.4919 109.994 13.5999 109.904 13.8159C109.832 14.0319 109.76 14.4279 109.688 15.0039C109.67 15.1299 109.661 15.3099 109.661 15.5439C109.661 16.4619 109.967 16.9659 110.579 17.0559C110.993 17.1459 111.29 17.1909 111.47 17.1909C111.686 17.1909 111.929 17.1189 112.199 16.9749L112.712 16.6779C112.82 16.6239 112.919 16.5519 113.009 16.4619C113.099 16.3719 113.18 16.2909 113.252 16.2189C113.288 16.1829 113.342 16.1289 113.414 16.0569C113.486 15.9669 113.549 15.9129 113.603 15.8949C113.675 15.8589 113.738 15.8409 113.792 15.8409C113.864 15.8409 113.945 15.8859 114.035 15.9759C114.125 16.0479 114.197 16.1019 114.251 16.1379C114.413 16.1379 114.449 16.2549 114.359 16.4889C114.269 16.7049 114.071 16.9659 113.765 17.2719C113.477 17.5599 113.144 17.8209 112.766 18.0549ZM112.739 12.3309C113.045 12.2049 113.351 11.9799 113.657 11.6559C113.981 11.3319 114.143 11.0619 114.143 10.8459C114.143 10.6299 114.062 10.4499 113.9 10.3059C113.738 10.1619 113.513 10.0899 113.225 10.0899C113.009 10.0899 112.847 10.1079 112.739 10.1439C112.487 10.2159 112.19 10.4139 111.848 10.7379C111.506 11.0439 111.209 11.3589 110.957 11.6829C110.705 12.0069 110.606 12.1959 110.66 12.2499C110.75 12.4119 111.101 12.4929 111.713 12.4929C112.127 12.4929 112.469 12.4389 112.739 12.3309Z" fill="white"/>
<path d="M125.197 18.5949C124.981 18.5949 124.81 18.5589 124.684 18.4869C124.558 18.4149 124.378 18.2799 124.144 18.0819C123.55 17.4519 123.253 16.8759 123.253 16.3539C123.253 16.2279 123.262 16.1379 123.28 16.0839C123.334 15.9579 123.352 15.8319 123.334 15.7059C123.334 15.5799 123.334 15.4989 123.334 15.4629C123.262 15.3909 123.226 15.3459 123.226 15.3279C123.226 15.2919 123.244 15.2649 123.28 15.2469C123.316 15.2109 123.343 15.1749 123.361 15.1389C123.469 15.1389 123.505 15.0399 123.469 14.8419C123.433 14.6979 123.505 14.3829 123.685 13.8969C123.865 13.3929 124.09 12.9339 124.36 12.5199C124.558 12.1959 124.846 11.7909 125.224 11.3049C125.62 10.8189 125.971 10.4499 126.277 10.1979C126.709 9.81994 127.096 9.54094 127.438 9.36094C127.78 9.18094 128.158 9.04594 128.572 8.95594C128.932 8.86594 129.175 8.82094 129.301 8.82094C129.427 8.82094 129.535 8.85694 129.625 8.92894C129.733 8.98294 129.868 9.09094 130.03 9.25294C130.516 9.46894 130.849 9.74794 131.029 10.0899C131.227 10.4139 131.326 10.9269 131.326 11.6289C131.326 12.7989 130.849 14.0679 129.895 15.4359C129.481 16.0299 129.094 16.4889 128.734 16.8129C128.374 17.1189 127.897 17.4519 127.303 17.8119C126.925 18.0819 126.574 18.2799 126.25 18.4059C125.944 18.5139 125.593 18.5769 125.197 18.5949ZM127.789 15.7329C128.221 15.2469 128.563 14.7879 128.815 14.3559C129.085 13.9239 129.337 13.3749 129.571 12.7089C129.661 12.4029 129.706 12.0339 129.706 11.6019C129.706 11.0619 129.634 10.7559 129.49 10.6839C129.31 10.5939 129.13 10.5489 128.95 10.5489C128.554 10.5489 128.14 10.7289 127.708 11.0889C127.186 11.5389 126.718 12.0969 126.304 12.7629C125.89 13.4109 125.467 14.2209 125.035 15.1929C124.855 15.5709 124.765 15.9399 124.765 16.2999C124.765 16.5699 124.828 16.7859 124.954 16.9479C125.098 17.1099 125.287 17.1909 125.521 17.1909C126.115 17.1909 126.871 16.7049 127.789 15.7329Z" fill="white"/>
<path d="M136.524 8.87494C137.37 8.91094 138.036 9.23494 138.522 9.84694C138.954 10.4049 139.17 10.9539 139.17 11.4939C139.17 12.1059 138.864 12.9339 138.252 13.9779C137.874 14.5539 136.875 15.3819 135.255 16.4619L134.688 16.8669C134.904 17.1369 135.129 17.6139 135.363 18.2979C135.615 18.9819 135.741 19.5489 135.741 19.9989C135.741 20.1069 135.723 20.2329 135.687 20.3769C135.831 20.4129 136.065 20.3949 136.389 20.3229C136.731 20.2689 136.947 20.2419 137.037 20.2419C137.109 20.3139 137.208 20.4129 137.334 20.5389C137.478 20.6649 137.586 20.7729 137.658 20.8629C137.73 20.9709 137.766 21.0699 137.766 21.1599V21.2409C137.766 21.3309 137.73 21.4119 137.658 21.4839C137.604 21.5559 137.532 21.6009 137.442 21.6189C137.352 21.6369 137.199 21.6459 136.983 21.6459C136.749 21.6459 136.497 21.6549 136.227 21.6729C135.957 21.6909 135.714 21.7449 135.498 21.8349C135.372 22.0149 135.246 22.2309 135.12 22.4829C134.994 22.7529 134.904 22.9509 134.85 23.0769C134.598 23.6709 134.328 24.2019 134.04 24.6699C133.752 25.1379 133.338 25.5969 132.798 26.0469C132.564 26.2449 132.33 26.4159 132.096 26.5599C131.862 26.7039 131.682 26.7759 131.556 26.7759C130.962 26.9739 130.431 27.0729 129.963 27.0729C129.117 27.0729 128.388 26.7669 127.776 26.1549C127.614 25.7589 127.506 25.5159 127.452 25.4259C127.398 25.3539 127.227 25.1739 126.939 24.8859C126.939 24.7599 126.984 24.5799 127.074 24.3459C127.146 24.1119 127.245 23.9139 127.371 23.7519C128.145 22.8339 129.234 22.1319 130.638 21.6459C130.674 21.6279 130.746 21.5919 130.854 21.5379C130.98 21.4839 131.097 21.4569 131.205 21.4569C131.259 21.4569 131.304 21.4209 131.34 21.3489C131.376 21.2949 131.412 21.2499 131.448 21.2139C131.484 21.1959 131.538 21.2139 131.61 21.2679C131.664 21.2499 131.727 21.2049 131.799 21.1329C131.889 21.0789 131.988 21.0699 132.096 21.1059C132.114 21.1239 132.402 21.0429 132.96 20.8629C133.536 20.7009 133.932 20.5839 134.148 20.5119C134.184 20.0439 134.202 19.6839 134.202 19.4319C134.202 18.6399 134.049 18.1089 133.743 17.8389C133.563 17.6589 133.401 17.4069 133.257 17.0829C133.131 16.7409 133.032 16.4979 132.96 16.3539C133.05 16.0299 133.239 15.8049 133.527 15.6789C134.103 15.3909 134.796 14.9139 135.606 14.2479C136.434 13.5819 137.127 12.8619 137.685 12.0879C137.901 11.7819 138.009 11.5119 138.009 11.2779C138.009 10.8099 137.676 10.5399 137.01 10.4679C136.344 10.4679 135.471 10.9179 134.391 11.8179C134.247 11.8539 134.157 11.8719 134.121 11.8719C133.833 11.8719 133.617 11.6289 133.473 11.1429C133.509 10.9629 133.572 10.8099 133.662 10.6839C133.752 10.5399 133.887 10.3689 134.067 10.1709L134.418 9.71194C134.526 9.65794 134.679 9.56794 134.877 9.44194C135.075 9.29794 135.237 9.18994 135.363 9.11794C135.507 9.04594 135.669 9.00994 135.849 9.00994C135.921 9.00994 136.029 8.99194 136.173 8.95594C136.317 8.90194 136.434 8.87494 136.524 8.87494ZM133.257 22.5099C133.203 22.4559 133.131 22.4289 133.041 22.4289C132.915 22.4289 132.762 22.4739 132.582 22.5639C132.402 22.6539 132.285 22.7079 132.231 22.7259C132.159 22.7619 132.069 22.7979 131.961 22.8339C131.871 22.8879 131.754 22.9419 131.61 22.9959C131.088 23.1759 130.557 23.4099 130.017 23.6979C129.459 24.0039 129.045 24.3189 128.775 24.6429C128.595 24.8949 128.379 25.1109 128.127 25.2909C128.343 25.5609 128.568 25.6959 128.802 25.6959C128.802 25.7319 128.892 25.7499 129.072 25.7499C129.36 25.7499 129.702 25.7049 130.098 25.6149C130.494 25.5249 130.836 25.3989 131.124 25.2369C131.664 24.9129 132.213 24.3369 132.771 23.5089C133.005 23.1489 133.167 22.8159 133.257 22.5099Z" fill="white"/>
<path d="M147.855 9.41494C148.053 9.30694 148.251 9.25294 148.449 9.25294C148.701 9.25294 148.917 9.33394 149.097 9.49594C149.295 9.63994 149.394 9.82894 149.394 10.0629C149.394 10.0989 149.376 10.1889 149.34 10.3329C149.394 10.0989 149.205 10.4859 148.773 11.4939C148.341 12.5019 148.107 13.0419 148.071 13.1139V13.1949C148.323 13.1949 148.485 13.2759 148.557 13.4379C148.647 13.5819 148.683 13.7799 148.665 14.0319C148.503 14.0679 148.35 14.1309 148.206 14.2209C148.062 14.3109 147.945 14.3559 147.855 14.3559C147.801 14.3559 147.738 14.3829 147.666 14.4369C147.594 14.4909 147.549 14.5539 147.531 14.6259C147.495 14.6979 147.432 14.9769 147.342 15.4629L146.856 17.4069C146.82 17.5329 146.757 17.6409 146.667 17.7309C146.577 17.8209 146.496 17.8749 146.424 17.8929C146.352 17.8749 146.208 17.8299 145.992 17.7579C145.794 17.6679 145.659 17.6049 145.587 17.5689C145.515 17.5149 145.443 17.4609 145.371 17.4069V17.2449C145.371 16.9929 145.416 16.7319 145.506 16.4619C145.65 16.0299 145.794 15.4269 145.938 14.6529C145.794 14.5989 145.434 14.6259 144.858 14.7339C144.282 14.8239 143.967 14.8689 143.913 14.8689C143.805 14.9229 143.589 14.9499 143.265 14.9499C142.743 14.9499 142.374 14.9049 142.158 14.8149L141.996 14.8959C141.96 15.0579 141.906 15.2379 141.834 15.4359C141.636 15.9939 141.537 16.4079 141.537 16.6779C141.501 16.9299 141.465 17.1369 141.429 17.2989C141.393 17.4789 141.357 17.7489 141.321 18.1089C141.303 18.6129 141.132 18.8649 140.808 18.8649C140.61 18.8649 140.394 18.7929 140.16 18.6489C140.034 18.5769 139.863 18.4329 139.647 18.2169L140.079 16.1379C140.133 15.9759 140.187 15.7509 140.241 15.4629C140.313 15.1749 140.385 14.9409 140.457 14.7609L140.754 13.9239C140.97 13.2939 141.168 12.7809 141.348 12.3849C141.348 12.3849 141.537 11.8539 141.915 10.7919C141.969 10.6659 142.086 10.3239 142.266 9.76594C142.464 9.18994 142.581 8.85694 142.617 8.76694C142.689 8.56894 142.833 8.46994 143.049 8.46994C143.337 8.45194 143.58 8.52394 143.778 8.68594C143.994 8.82994 144.111 9.00994 144.129 9.22594C144.129 9.27994 144.12 9.36994 144.102 9.49594C144.084 9.60394 144.066 9.68494 144.048 9.73894L142.644 13.1679V13.3839C142.716 13.4379 142.842 13.4649 143.022 13.4649C143.166 13.4649 143.382 13.4379 143.67 13.3839C143.976 13.3299 144.165 13.3029 144.237 13.3029C144.399 13.2849 144.642 13.2669 144.966 13.2489C145.29 13.2309 145.614 13.2219 145.938 13.2219C146.19 13.2219 146.325 13.2309 146.343 13.2489L146.64 12.3849C146.928 11.5029 147.234 10.7919 147.558 10.2519C147.576 10.1979 147.612 10.0989 147.666 9.95494C147.72 9.79294 147.783 9.61294 147.855 9.41494Z" fill="white"/>
<path d="M150.602 18.0279C150.548 17.9199 150.458 17.8119 150.332 17.7039C150.224 17.5779 150.17 17.4969 150.17 17.4609C150.17 17.2629 150.125 17.1099 150.035 17.0019C149.999 16.9659 149.981 16.8849 149.981 16.7589C149.981 16.4709 150.116 15.9849 150.386 15.3009C150.674 14.5989 151.043 13.8429 151.493 13.0329C151.601 12.9249 151.736 12.7359 151.898 12.4659C152.078 12.1959 152.195 12.0429 152.249 12.0069C152.249 11.9349 152.276 11.8719 152.33 11.8179C152.384 11.7459 152.447 11.7099 152.519 11.7099V11.5479C152.519 11.3859 152.816 10.9989 153.41 10.3869C154.004 9.75694 154.49 9.32494 154.868 9.09094C155.318 8.78494 155.777 8.63194 156.245 8.63194C156.569 8.63194 156.848 8.72194 157.082 8.90194C157.172 9.00994 157.586 9.39694 158.324 10.0629L159.323 10.9539L158.837 12.3039C158.675 12.7899 158.594 13.2309 158.594 13.6269C158.594 14.3109 158.792 14.9679 159.188 15.5979C159.278 15.7959 159.458 15.9849 159.728 16.1649C159.998 16.3449 160.268 16.4529 160.538 16.4889C160.934 16.5609 161.132 16.7589 161.132 17.0829C161.132 17.4429 160.97 17.6589 160.646 17.7309C160.574 17.7489 160.466 17.7579 160.322 17.7579C159.26 17.7579 158.342 17.0109 157.568 15.5169C157.496 15.4089 157.397 15.2109 157.271 14.9229C157.163 14.6349 157.1 14.4369 157.082 14.3289C156.974 14.4729 156.839 14.6439 156.677 14.8419C156.515 15.0399 156.362 15.2109 156.218 15.3549C154.256 17.3169 152.708 18.2979 151.574 18.2979C151.214 18.2979 150.89 18.2079 150.602 18.0279ZM151.574 16.5159C151.574 16.6059 151.664 16.6329 151.844 16.5969C152.042 16.5609 152.276 16.4709 152.546 16.3269C152.834 16.1829 153.122 15.9939 153.41 15.7599C154.958 14.4279 156.074 13.2669 156.758 12.2769L157.352 11.3049C157.172 10.9269 156.983 10.6569 156.785 10.4949C156.587 10.3149 156.407 10.2249 156.245 10.2249C155.867 10.2249 155.273 10.7019 154.463 11.6559C153.653 12.5919 152.915 13.6989 152.249 14.9769C152.087 15.2829 151.943 15.5979 151.817 15.9219C151.691 16.2279 151.61 16.4259 151.574 16.5159Z" fill="white"/>
<path d="M166.006 8.65894C166.042 8.67694 166.096 8.70394 166.168 8.73994C166.24 8.75794 166.294 8.79394 166.33 8.84794C166.51 9.02794 166.6 9.23494 166.6 9.46894C166.6 9.59494 166.555 9.74794 166.465 9.92794C166.339 10.1619 166.204 10.3869 166.06 10.6029C165.826 10.9989 165.628 11.3589 165.466 11.6829C165.322 12.0069 165.151 12.4659 164.953 13.0599C165.421 12.9519 165.727 12.8619 165.871 12.7899C166.015 12.6999 166.258 12.4659 166.6 12.0879C166.924 11.7639 167.23 11.4759 167.518 11.2239C168.616 10.1619 169.201 9.58594 169.273 9.49594C169.417 9.27994 169.543 9.11794 169.651 9.00994C169.759 8.88394 169.903 8.79394 170.083 8.73994C170.335 8.77594 170.506 8.82094 170.596 8.87494C170.704 8.92894 170.929 9.09094 171.271 9.36094C171.343 9.43294 171.379 9.55894 171.379 9.73894C171.379 10.0809 171.28 10.3239 171.082 10.4679C171.028 10.5039 170.677 10.7829 170.029 11.3049C168.715 12.4029 167.599 13.2669 166.681 13.8969C167.077 14.5269 167.464 15.2289 167.842 16.0029C167.878 16.4349 168.031 16.7319 168.301 16.8939C168.571 17.0559 168.949 17.1369 169.435 17.1369C169.579 17.2089 169.669 17.2989 169.705 17.4069C169.759 17.5149 169.786 17.6319 169.786 17.7579C169.804 17.8839 169.822 17.9829 169.84 18.0549C169.678 18.1629 169.516 18.2979 169.354 18.4599C169.192 18.6039 169.057 18.6759 168.949 18.6759C168.823 18.6759 168.625 18.6219 168.355 18.5139C168.103 18.4239 167.869 18.2979 167.653 18.1359C167.437 17.9559 167.212 17.7309 166.978 17.4609C166.762 17.2089 166.339 16.5699 165.709 15.5439C165.079 14.5179 164.728 13.9419 164.656 13.8159C164.602 13.9599 164.53 14.1219 164.44 14.3019C164.368 14.4639 164.314 14.6169 164.278 14.7609C164.242 14.8869 164.224 15.0579 164.224 15.2739C164.044 15.5259 163.9 15.8499 163.792 16.2459C163.702 16.6239 163.63 16.8939 163.576 17.0559C163.468 17.4519 163.234 17.7759 162.874 18.0279C162.55 18.0099 162.235 17.8119 161.929 17.4339C161.839 17.2719 161.794 17.0919 161.794 16.8939C161.794 16.6959 161.839 16.4799 161.929 16.2459C161.965 16.0839 162.091 15.7059 162.307 15.1119C162.523 14.5179 162.694 14.0409 162.82 13.6809C162.91 13.4469 163.054 13.0509 163.252 12.4929C163.468 11.9169 163.585 11.5749 163.603 11.4669C163.657 11.2329 163.819 10.8999 164.089 10.4679C164.449 9.83794 164.674 9.31594 164.764 8.90194C164.8 8.77594 164.89 8.65894 165.034 8.55094C165.196 8.42494 165.358 8.36194 165.52 8.36194C165.718 8.36194 165.88 8.46094 166.006 8.65894Z" fill="white"/>
<path d="M174.055 18.5949C173.839 18.5949 173.668 18.5589 173.542 18.4869C173.416 18.4149 173.236 18.2799 173.002 18.0819C172.408 17.4519 172.111 16.8759 172.111 16.3539C172.111 16.2279 172.12 16.1379 172.138 16.0839C172.192 15.9579 172.21 15.8319 172.192 15.7059C172.192 15.5799 172.192 15.4989 172.192 15.4629C172.12 15.3909 172.084 15.3459 172.084 15.3279C172.084 15.2919 172.102 15.2649 172.138 15.2469C172.174 15.2109 172.201 15.1749 172.219 15.1389C172.327 15.1389 172.363 15.0399 172.327 14.8419C172.291 14.6979 172.363 14.3829 172.543 13.8969C172.723 13.3929 172.948 12.9339 173.218 12.5199C173.416 12.1959 173.704 11.7909 174.082 11.3049C174.478 10.8189 174.829 10.4499 175.135 10.1979C175.567 9.81994 175.954 9.54094 176.296 9.36094C176.638 9.18094 177.016 9.04594 177.43 8.95594C177.79 8.86594 178.033 8.82094 178.159 8.82094C178.285 8.82094 178.393 8.85694 178.483 8.92894C178.591 8.98294 178.726 9.09094 178.888 9.25294C179.374 9.46894 179.707 9.74794 179.887 10.0899C180.085 10.4139 180.184 10.9269 180.184 11.6289C180.184 12.7989 179.707 14.0679 178.753 15.4359C178.339 16.0299 177.952 16.4889 177.592 16.8129C177.232 17.1189 176.755 17.4519 176.161 17.8119C175.783 18.0819 175.432 18.2799 175.108 18.4059C174.802 18.5139 174.451 18.5769 174.055 18.5949ZM176.647 15.7329C177.079 15.2469 177.421 14.7879 177.673 14.3559C177.943 13.9239 178.195 13.3749 178.429 12.7089C178.519 12.4029 178.564 12.0339 178.564 11.6019C178.564 11.0619 178.492 10.7559 178.348 10.6839C178.168 10.5939 177.988 10.5489 177.808 10.5489C177.412 10.5489 176.998 10.7289 176.566 11.0889C176.044 11.5389 175.576 12.0969 175.162 12.7629C174.748 13.4109 174.325 14.2209 173.893 15.1929C173.713 15.5709 173.623 15.9399 173.623 16.2999C173.623 16.5699 173.686 16.7859 173.812 16.9479C173.956 17.1099 174.145 17.1909 174.379 17.1909C174.973 17.1909 175.729 16.7049 176.647 15.7329Z" fill="white"/>
<path d="M188.947 15.3279C188.875 15.4359 188.74 15.6249 188.542 15.8949C188.344 16.1469 188.2 16.4079 188.11 16.6779C188.056 16.8219 187.966 16.9479 187.84 17.0559C187.732 17.1459 187.669 17.1999 187.651 17.2179C187.561 17.1819 187.453 17.1459 187.327 17.1099C187.219 17.0739 187.129 17.0289 187.057 16.9749C186.985 16.9029 186.895 16.8129 186.787 16.7049C186.427 16.3629 186.283 16.0389 186.355 15.7329C186.337 15.5529 186.328 15.3729 186.328 15.1929C186.346 15.0129 186.355 14.8509 186.355 14.7069C186.373 14.4909 186.382 14.1669 186.382 13.7349C186.382 12.9069 186.337 12.3939 186.247 12.1959C186.049 12.2139 185.914 12.2409 185.842 12.2769C185.77 12.3129 185.68 12.4209 185.572 12.6009C185.536 12.6729 185.428 12.8439 185.248 13.1139C185.086 13.3659 184.87 13.6809 184.6 14.0589C184.33 14.4729 183.979 15.0039 183.547 15.6519C183.133 16.2999 182.935 16.6149 182.953 16.5969C182.737 16.8489 182.557 17.1729 182.413 17.5689C182.215 18.0189 182.017 18.1449 181.819 17.9469C181.441 17.7489 181.162 17.5779 180.982 17.4339C180.82 17.1459 180.73 16.8579 180.712 16.5699C180.766 16.5519 180.829 16.5249 180.901 16.4889C180.973 16.4349 181.027 16.3899 181.063 16.3539C181.099 16.3179 181.126 16.2729 181.144 16.2189L183.196 13.2219L183.547 12.7089C183.637 12.5289 183.88 12.1869 184.276 11.6829C184.312 11.5929 184.483 11.3499 184.789 10.9539C185.113 10.5579 185.329 10.3329 185.437 10.2789C185.527 10.2249 185.599 10.1349 185.653 10.0089C185.725 9.86494 185.77 9.77494 185.788 9.73894C185.842 9.45094 186.031 9.30694 186.355 9.30694C186.463 9.30694 186.544 9.31594 186.598 9.33394L187.651 10.1439C187.633 10.2159 187.624 10.3329 187.624 10.4949C187.624 10.7469 187.696 11.1249 187.84 11.6289C187.822 11.6829 187.813 11.7639 187.813 11.8719C187.813 12.0159 187.822 12.1599 187.84 12.3039C187.876 12.4299 187.894 12.5649 187.894 12.7089C187.894 12.8169 187.885 12.8979 187.867 12.9519C187.867 13.2939 187.957 13.4649 188.137 13.4649C188.263 13.4649 188.416 13.3749 188.596 13.1949C189.1 12.5649 190.054 11.5479 191.458 10.1439C191.98 9.62194 192.259 9.33394 192.295 9.27994C192.349 9.18994 192.439 9.14494 192.565 9.14494C192.655 9.14494 192.727 9.16294 192.781 9.19894C193.033 9.32494 193.222 9.43294 193.348 9.52294C193.492 9.61294 193.663 9.75694 193.861 9.95494C193.969 10.0809 194.023 10.2159 194.023 10.3599C194.023 10.4499 193.996 10.5399 193.942 10.6299C193.78 11.0079 193.564 11.7549 193.294 12.8709C193.024 13.9689 192.88 14.7429 192.862 15.1929C192.862 15.3189 192.844 15.5169 192.808 15.7869C192.79 16.0389 192.781 16.2639 192.781 16.4619C192.781 16.8579 192.817 17.2089 192.889 17.5149C192.979 17.8569 193.024 18.1449 193.024 18.3789C193.024 18.5589 192.979 18.6849 192.889 18.7569C192.817 18.8289 192.673 18.8829 192.457 18.9189C192.349 18.8649 192.214 18.7749 192.052 18.6489C191.89 18.5049 191.737 18.3879 191.593 18.2979C191.557 18.1539 191.485 17.9289 191.377 17.6229C191.287 17.2989 191.251 17.0109 191.269 16.7589C191.269 16.6689 191.242 16.5249 191.188 16.3269C191.152 16.1109 191.161 15.9489 191.215 15.8409L191.188 15.5169C191.188 14.8689 191.341 13.8609 191.647 12.4929C191.593 12.4209 191.539 12.3759 191.485 12.3579C191.449 12.3399 191.395 12.3669 191.323 12.4389C191.089 12.6549 190.747 13.0239 190.297 13.5459C190.261 13.5819 190.189 13.6449 190.081 13.7349C189.973 13.8069 189.919 13.9059 189.919 14.0319L188.947 15.3279Z" fill="white"/>
<path d="M201.453 18.9459C201.021 18.5319 200.697 17.9199 200.481 17.1099C200.445 17.0019 200.427 16.8129 200.427 16.5429C200.427 16.2729 200.427 16.0839 200.427 15.9759C200.319 16.2459 200.121 16.4889 199.833 16.7049C199.419 17.1189 199.005 17.4249 198.591 17.6229C197.961 18.0369 197.448 18.2439 197.052 18.2439C196.692 18.2439 196.35 18.0459 196.026 17.6499C195.792 17.4519 195.612 17.2539 195.486 17.0559C195.378 16.8579 195.324 16.6149 195.324 16.3269C195.324 16.1289 195.351 15.9129 195.405 15.6789C195.441 15.0129 195.531 14.3739 195.675 13.7619C195.837 13.1499 196.134 12.3669 196.566 11.4129C197.142 10.2789 197.556 9.52294 197.808 9.14494C197.898 9.10894 198.015 9.09094 198.159 9.09094C198.339 9.09094 198.483 9.14494 198.591 9.25294C198.717 9.36094 198.789 9.50494 198.807 9.68494C198.861 9.75694 198.888 9.85594 198.888 9.98194C198.888 10.4319 198.618 11.1699 198.078 12.1959C197.376 13.8879 197.025 15.0579 197.025 15.7059C197.025 16.0839 197.133 16.3089 197.349 16.3809C197.439 16.4349 197.538 16.4619 197.646 16.4619C198.096 16.4619 198.636 16.1559 199.266 15.5439C199.896 14.9319 200.499 13.9509 201.075 12.6009C201.327 11.9889 201.48 11.3589 201.534 10.7109C201.516 10.6569 201.507 10.5759 201.507 10.4679C201.507 10.1439 201.669 9.88294 201.993 9.68494C202.065 9.57694 202.164 9.49594 202.29 9.44194C202.416 9.36994 202.497 9.36994 202.533 9.44194L202.965 9.41494C203.019 9.39694 203.073 9.45094 203.127 9.57694C203.181 9.68494 203.235 9.75694 203.289 9.79294C203.415 9.90094 203.478 10.0989 203.478 10.3869C203.478 10.9809 203.217 11.8899 202.695 13.1139C202.353 13.8339 202.119 14.3919 201.993 14.7879C201.885 15.1659 201.822 15.5349 201.804 15.8949C201.804 16.5789 202.065 17.1459 202.587 17.5959C202.767 17.7219 202.875 17.8569 202.911 18.0009C202.947 18.1449 202.956 18.3429 202.938 18.5949C202.902 18.7569 202.794 18.8919 202.614 18.9999C202.452 19.0899 202.272 19.1349 202.074 19.1349C201.84 19.1349 201.633 19.0719 201.453 18.9459Z" fill="white"/>
<path d="M217.386 16.6509C217.458 16.7049 217.494 16.7859 217.494 16.8939C217.494 17.0199 217.449 17.1459 217.359 17.2719C217.287 17.3799 217.215 17.4339 217.143 17.4339C216.801 17.4339 216.468 17.3439 216.144 17.1639C215.838 16.9659 215.685 16.6599 215.685 16.2459V14.5719C215.685 13.7259 215.622 13.2489 215.496 13.1409C215.226 12.9969 214.758 13.2939 214.092 14.0319C213.444 14.7699 212.814 15.6429 212.202 16.6509C212.004 16.9749 211.842 17.2269 211.716 17.4069C211.59 17.5869 211.491 17.6769 211.419 17.6769C211.365 17.6769 211.275 17.6319 211.149 17.5419C210.591 17.3799 210.312 17.0649 210.312 16.5969C210.312 16.5429 210.33 16.4259 210.366 16.2459C210.546 15.6519 210.726 14.9949 210.906 14.2749C211.086 13.5369 211.23 12.9159 211.338 12.4119C211.284 12.3039 211.194 12.2499 211.068 12.2499C210.888 12.2499 210.681 12.3399 210.447 12.5199C209.997 12.8259 209.421 13.5549 208.719 14.7069C207.837 16.0569 207.225 16.8759 206.883 17.1639C206.757 17.3799 206.64 17.5509 206.532 17.6769C206.442 17.7849 206.352 17.8389 206.262 17.8389C206.19 17.8389 206.055 17.7849 205.857 17.6769C205.335 17.3709 205.074 16.9389 205.074 16.3809C205.074 16.1109 205.155 15.5709 205.317 14.7609C205.479 13.9509 205.659 13.1949 205.857 12.4929C206.019 12.1869 206.163 11.8719 206.289 11.5479C206.433 11.2059 206.505 10.9989 206.505 10.9269C206.577 10.5489 206.667 10.1439 206.775 9.71194C206.883 9.27994 206.964 9.03694 207.018 8.98294C207.144 8.85694 207.288 8.79394 207.45 8.79394C207.72 8.79394 207.918 8.93794 208.044 9.22594C208.242 9.42394 208.341 9.67594 208.341 9.98194C208.341 10.3239 208.242 10.7649 208.044 11.3049C207.738 11.9709 207.405 12.9429 207.045 14.2209C207.423 13.8069 207.693 13.4829 207.855 13.2489C208.287 12.6369 208.845 11.9529 209.529 11.1969C210.087 10.5849 210.717 10.2789 211.419 10.2789C212.247 10.4229 212.724 11.1159 212.85 12.3579C212.85 12.5739 212.832 12.8439 212.796 13.1679C212.76 13.4739 212.733 13.6719 212.715 13.7619C212.787 13.6539 212.967 13.4199 213.255 13.0599C213.561 12.6999 213.93 12.3309 214.362 11.9529C214.758 11.6469 215.127 11.4939 215.469 11.4939C215.757 11.4939 216.009 11.6109 216.225 11.8449C216.603 12.0609 216.873 12.3669 217.035 12.7629C217.197 13.1409 217.278 13.6269 217.278 14.2209C217.278 14.5269 217.269 14.7699 217.251 14.9499C217.215 15.3099 217.197 15.5349 217.197 15.6249C217.197 15.9669 217.26 16.3089 217.386 16.6509Z" fill="white"/>
<path d="M222.915 8.01094C223.005 8.04694 223.149 8.10094 223.347 8.17294C223.545 8.22694 223.707 8.31694 223.833 8.44294C223.887 8.53294 223.977 8.64094 224.103 8.76694C224.247 8.89294 224.346 9.04594 224.4 9.22594C224.4 9.40594 224.319 9.59494 224.157 9.79294C224.013 9.97294 223.923 10.0899 223.887 10.1439C223.689 10.3779 223.536 10.5849 223.428 10.7649C223.32 10.9449 223.23 11.0799 223.158 11.1699C223.032 11.3319 222.897 11.5299 222.753 11.7639C223.041 11.8899 223.239 11.9529 223.347 11.9529C223.563 11.9349 223.797 11.9889 224.049 12.1149C224.301 12.2229 224.508 12.2949 224.67 12.3309C224.958 12.4389 225.291 12.6999 225.669 13.1139C226.065 13.5099 226.308 13.8339 226.398 14.0859C226.596 14.4819 226.695 14.7969 226.695 15.0309C226.695 15.1209 226.686 15.1929 226.668 15.2469C226.614 15.4089 226.587 15.5799 226.587 15.7599C226.515 15.8679 226.389 16.0479 226.209 16.2999C226.047 16.5339 225.885 16.7319 225.723 16.8939C225.561 17.0559 225.354 17.2089 225.102 17.3529C223.86 18.0909 222.681 18.4329 221.565 18.3789C221.493 18.3789 221.403 18.3969 221.295 18.4329C221.205 18.4689 221.124 18.4599 221.052 18.4059C220.728 18.4059 220.431 18.3249 220.161 18.1629C219.909 17.9829 219.666 17.7399 219.432 17.4339C219.252 17.1819 219.162 16.8759 219.162 16.5159C219.162 16.0299 219.279 15.4269 219.513 14.7069C219.747 13.9689 219.99 13.3569 220.242 12.8709C220.26 12.7089 220.332 12.5109 220.458 12.2769C220.602 12.0429 220.692 11.8719 220.728 11.7639C220.8 11.5299 221.025 11.0799 221.403 10.4139C221.799 9.72994 222.105 9.27094 222.321 9.03694C222.339 8.82094 222.429 8.62294 222.591 8.44294C222.753 8.24494 222.861 8.10094 222.915 8.01094ZM222.51 13.1409C222.456 13.1589 222.366 13.1859 222.24 13.2219C222.114 13.2579 222.015 13.3209 221.943 13.4109C221.889 13.4829 221.862 13.5909 221.862 13.7349C221.862 13.7709 221.817 13.8339 221.727 13.9239C221.655 13.9959 221.457 14.5449 221.133 15.5709L220.917 16.2729C220.899 16.3089 220.89 16.3539 220.89 16.4079L220.917 16.7859L221.214 16.8129C221.43 16.8129 221.682 16.7769 221.97 16.7049C222.258 16.6329 222.483 16.5789 222.645 16.5429C223.113 16.4709 223.608 16.2369 224.13 15.8409C224.652 15.4449 224.976 15.0399 225.102 14.6259C225.138 14.5179 225.156 14.4279 225.156 14.3559C225.156 14.0859 225.066 13.8879 224.886 13.7619C224.832 13.7259 224.724 13.6539 224.562 13.5459C224.418 13.4379 224.274 13.3569 224.13 13.3029C223.986 13.2489 223.842 13.2219 223.698 13.2219H223.644C223.608 13.2219 223.509 13.1949 223.347 13.1409C223.257 13.1049 223.113 13.0869 222.915 13.0869C222.735 13.0869 222.6 13.1049 222.51 13.1409Z" fill="white"/>
<path d="M233.027 18.0549C232.577 18.4509 232.037 18.6489 231.407 18.6489C230.957 18.6489 230.525 18.5409 230.111 18.3249C229.715 18.1089 229.382 17.8119 229.112 17.4339C228.878 17.1459 228.707 16.8219 228.599 16.4619C228.491 16.1019 228.437 15.6609 228.437 15.1389C228.437 14.9589 228.455 14.5989 228.491 14.0589C228.545 13.3929 228.761 12.6999 229.139 11.9799C229.535 11.2599 230.021 10.6209 230.597 10.0629C231.173 9.48694 231.74 9.09094 232.298 8.87494C232.586 8.69494 232.847 8.60494 233.081 8.60494C233.207 8.60494 233.333 8.61394 233.459 8.63194C233.585 8.64994 233.72 8.66794 233.864 8.68594C234.26 8.73994 234.557 8.82094 234.755 8.92894C234.971 9.01894 235.151 9.16294 235.295 9.36094C235.745 9.81094 235.97 10.3329 235.97 10.9269C235.898 11.3589 235.619 11.8539 235.133 12.4119C234.647 12.9699 234.062 13.4199 233.378 13.7619C233.054 13.8699 232.685 13.9239 232.271 13.9239C231.713 13.9239 231.263 13.8069 230.921 13.5729C230.759 13.5189 230.633 13.4919 230.543 13.4919C230.381 13.4919 230.255 13.5999 230.165 13.8159C230.093 14.0319 230.021 14.4279 229.949 15.0039C229.931 15.1299 229.922 15.3099 229.922 15.5439C229.922 16.4619 230.228 16.9659 230.84 17.0559C231.254 17.1459 231.551 17.1909 231.731 17.1909C231.947 17.1909 232.19 17.1189 232.46 16.9749L232.973 16.6779C233.081 16.6239 233.18 16.5519 233.27 16.4619C233.36 16.3719 233.441 16.2909 233.513 16.2189C233.549 16.1829 233.603 16.1289 233.675 16.0569C233.747 15.9669 233.81 15.9129 233.864 15.8949C233.936 15.8589 233.999 15.8409 234.053 15.8409C234.125 15.8409 234.206 15.8859 234.296 15.9759C234.386 16.0479 234.458 16.1019 234.512 16.1379C234.674 16.1379 234.71 16.2549 234.62 16.4889C234.53 16.7049 234.332 16.9659 234.026 17.2719C233.738 17.5599 233.405 17.8209 233.027 18.0549ZM233 12.3309C233.306 12.2049 233.612 11.9799 233.918 11.6559C234.242 11.3319 234.404 11.0619 234.404 10.8459C234.404 10.6299 234.323 10.4499 234.161 10.3059C233.999 10.1619 233.774 10.0899 233.486 10.0899C233.27 10.0899 233.108 10.1079 233 10.1439C232.748 10.2159 232.451 10.4139 232.109 10.7379C231.767 11.0439 231.47 11.3589 231.218 11.6829C230.966 12.0069 230.867 12.1959 230.921 12.2499C231.011 12.4119 231.362 12.4929 231.974 12.4929C232.388 12.4929 232.73 12.4389 233 12.3309Z" fill="white"/>
<path d="M237.764 18.7839C237.656 18.8739 237.458 18.9189 237.17 18.9189C236.9 18.9009 236.72 18.8919 236.63 18.8919C236.522 18.8559 236.369 18.7389 236.171 18.5409C235.991 18.3249 235.865 18.1809 235.793 18.1089C235.793 17.9829 235.829 17.8839 235.901 17.8119C235.991 17.7399 236.054 17.6859 236.09 17.6499C236.144 17.5779 236.261 17.5239 236.441 17.4879C236.639 17.4519 236.765 17.4069 236.819 17.3529C236.891 17.2989 237.071 17.1729 237.359 16.9749C237.647 16.7769 237.899 16.5789 238.115 16.3809C238.349 16.1649 238.538 15.9489 238.682 15.7329C239.15 15.0669 239.645 14.2749 240.167 13.3569C240.329 13.0509 240.536 12.6369 240.788 12.1149C241.058 11.5749 241.211 11.2239 241.247 11.0619L240.41 10.7919C240.374 10.7559 240.32 10.6839 240.248 10.5759C240.176 10.4679 240.131 10.3779 240.113 10.3059C240.113 10.2339 240.113 10.1529 240.113 10.0629C240.113 9.84694 240.131 9.69394 240.167 9.60394C240.221 9.51394 240.32 9.45994 240.464 9.44194C241.022 9.33394 241.481 9.25294 241.841 9.19894C242.381 9.12694 242.786 9.05494 243.056 8.98294C243.272 8.92894 243.515 8.90194 243.785 8.90194C244.253 8.90194 244.676 8.98294 245.054 9.14494C245.324 9.25294 245.558 9.46894 245.756 9.79294C246.008 10.1349 246.134 10.4769 246.134 10.8189C246.134 10.9449 246.125 11.0709 246.107 11.1969C246.089 11.3049 246.08 11.4219 246.08 11.5479C246.08 11.7099 246.107 11.8719 246.161 12.0339C245.927 12.8979 245.675 13.6899 245.405 14.4099C245.351 14.5539 245.27 14.7969 245.162 15.1389C245.054 15.4809 244.973 15.7779 244.919 16.0299C244.865 16.2999 244.784 16.5519 244.676 16.7859C244.532 17.1999 244.442 17.5329 244.406 17.7849C244.37 17.9829 244.289 18.1359 244.163 18.2439C244.055 18.3339 243.929 18.4149 243.785 18.4869C243.659 18.5409 243.578 18.5769 243.542 18.5949C243.47 18.6309 243.344 18.6129 243.164 18.5409C242.984 18.4689 242.831 18.3699 242.705 18.2439C242.669 18.1359 242.651 17.9919 242.651 17.8119C242.651 17.6679 242.687 17.4699 242.759 17.2179C243.083 16.1739 243.524 14.6619 244.082 12.6819L244.379 11.6559C244.433 11.4939 244.46 11.3049 244.46 11.0889C244.46 10.9269 244.433 10.7649 244.379 10.6029C244.091 10.4949 243.866 10.4409 243.704 10.4409C243.614 10.4409 243.515 10.4589 243.407 10.4949C243.299 10.5309 243.2 10.5579 243.11 10.5759C242.93 10.7019 242.822 10.8729 242.786 11.0889C242.444 11.9889 242.093 12.7809 241.733 13.4649C241.373 14.1489 241.094 14.7069 240.896 15.1389C240.824 15.3189 240.617 15.6609 240.275 16.1649C240.059 16.4889 239.906 16.7319 239.816 16.8939L239.519 17.2719C239.429 17.3619 239.276 17.5059 239.06 17.7039C238.844 17.9019 238.691 18.0459 238.601 18.1359L237.764 18.7839Z" fill="white"/>
<path d="M251.524 8.01094C251.614 8.04694 251.758 8.10094 251.956 8.17294C252.154 8.22694 252.316 8.31694 252.442 8.44294C252.496 8.53294 252.586 8.64094 252.712 8.76694C252.856 8.89294 252.955 9.04594 253.009 9.22594C253.009 9.40594 252.928 9.59494 252.766 9.79294C252.622 9.97294 252.532 10.0899 252.496 10.1439C252.298 10.3779 252.145 10.5849 252.037 10.7649C251.929 10.9449 251.839 11.0799 251.767 11.1699C251.641 11.3319 251.506 11.5299 251.362 11.7639C251.65 11.8899 251.848 11.9529 251.956 11.9529C252.172 11.9349 252.406 11.9889 252.658 12.1149C252.91 12.2229 253.117 12.2949 253.279 12.3309C253.567 12.4389 253.9 12.6999 254.278 13.1139C254.674 13.5099 254.917 13.8339 255.007 14.0859C255.205 14.4819 255.304 14.7969 255.304 15.0309C255.304 15.1209 255.295 15.1929 255.277 15.2469C255.223 15.4089 255.196 15.5799 255.196 15.7599C255.124 15.8679 254.998 16.0479 254.818 16.2999C254.656 16.5339 254.494 16.7319 254.332 16.8939C254.17 17.0559 253.963 17.2089 253.711 17.3529C252.469 18.0909 251.29 18.4329 250.174 18.3789C250.102 18.3789 250.012 18.3969 249.904 18.4329C249.814 18.4689 249.733 18.4599 249.661 18.4059C249.337 18.4059 249.04 18.3249 248.77 18.1629C248.518 17.9829 248.275 17.7399 248.041 17.4339C247.861 17.1819 247.771 16.8759 247.771 16.5159C247.771 16.0299 247.888 15.4269 248.122 14.7069C248.356 13.9689 248.599 13.3569 248.851 12.8709C248.869 12.7089 248.941 12.5109 249.067 12.2769C249.211 12.0429 249.301 11.8719 249.337 11.7639C249.409 11.5299 249.634 11.0799 250.012 10.4139C250.408 9.72994 250.714 9.27094 250.93 9.03694C250.948 8.82094 251.038 8.62294 251.2 8.44294C251.362 8.24494 251.47 8.10094 251.524 8.01094ZM251.119 13.1409C251.065 13.1589 250.975 13.1859 250.849 13.2219C250.723 13.2579 250.624 13.3209 250.552 13.4109C250.498 13.4829 250.471 13.5909 250.471 13.7349C250.471 13.7709 250.426 13.8339 250.336 13.9239C250.264 13.9959 250.066 14.5449 249.742 15.5709L249.526 16.2729C249.508 16.3089 249.499 16.3539 249.499 16.4079L249.526 16.7859L249.823 16.8129C250.039 16.8129 250.291 16.7769 250.579 16.7049C250.867 16.6329 251.092 16.5789 251.254 16.5429C251.722 16.4709 252.217 16.2369 252.739 15.8409C253.261 15.4449 253.585 15.0399 253.711 14.6259C253.747 14.5179 253.765 14.4279 253.765 14.3559C253.765 14.0859 253.675 13.8879 253.495 13.7619C253.441 13.7259 253.333 13.6539 253.171 13.5459C253.027 13.4379 252.883 13.3569 252.739 13.3029C252.595 13.2489 252.451 13.2219 252.307 13.2219H252.253C252.217 13.2219 252.118 13.1949 251.956 13.1409C251.866 13.1049 251.722 13.0869 251.524 13.0869C251.344 13.0869 251.209 13.1049 251.119 13.1409Z" fill="white"/>
<path d="M264.768 9.41494C264.966 9.30694 265.164 9.25294 265.362 9.25294C265.614 9.25294 265.83 9.33394 266.01 9.49594C266.208 9.63994 266.307 9.82894 266.307 10.0629C266.307 10.0989 266.289 10.1889 266.253 10.3329C266.307 10.0989 266.118 10.4859 265.686 11.4939C265.254 12.5019 265.02 13.0419 264.984 13.1139V13.1949C265.236 13.1949 265.398 13.2759 265.47 13.4379C265.56 13.5819 265.596 13.7799 265.578 14.0319C265.416 14.0679 265.263 14.1309 265.119 14.2209C264.975 14.3109 264.858 14.3559 264.768 14.3559C264.714 14.3559 264.651 14.3829 264.579 14.4369C264.507 14.4909 264.462 14.5539 264.444 14.6259C264.408 14.6979 264.345 14.9769 264.255 15.4629L263.769 17.4069C263.733 17.5329 263.67 17.6409 263.58 17.7309C263.49 17.8209 263.409 17.8749 263.337 17.8929C263.265 17.8749 263.121 17.8299 262.905 17.7579C262.707 17.6679 262.572 17.6049 262.5 17.5689C262.428 17.5149 262.356 17.4609 262.284 17.4069V17.2449C262.284 16.9929 262.329 16.7319 262.419 16.4619C262.563 16.0299 262.707 15.4269 262.851 14.6529C262.707 14.5989 262.347 14.6259 261.771 14.7339C261.195 14.8239 260.88 14.8689 260.826 14.8689C260.718 14.9229 260.502 14.9499 260.178 14.9499C259.656 14.9499 259.287 14.9049 259.071 14.8149L258.909 14.8959C258.873 15.0579 258.819 15.2379 258.747 15.4359C258.549 15.9939 258.45 16.4079 258.45 16.6779C258.414 16.9299 258.378 17.1369 258.342 17.2989C258.306 17.4789 258.27 17.7489 258.234 18.1089C258.216 18.6129 258.045 18.8649 257.721 18.8649C257.523 18.8649 257.307 18.7929 257.073 18.6489C256.947 18.5769 256.776 18.4329 256.56 18.2169L256.992 16.1379C257.046 15.9759 257.1 15.7509 257.154 15.4629C257.226 15.1749 257.298 14.9409 257.37 14.7609L257.667 13.9239C257.883 13.2939 258.081 12.7809 258.261 12.3849C258.261 12.3849 258.45 11.8539 258.828 10.7919C258.882 10.6659 258.999 10.3239 259.179 9.76594C259.377 9.18994 259.494 8.85694 259.53 8.76694C259.602 8.56894 259.746 8.46994 259.962 8.46994C260.25 8.45194 260.493 8.52394 260.691 8.68594C260.907 8.82994 261.024 9.00994 261.042 9.22594C261.042 9.27994 261.033 9.36994 261.015 9.49594C260.997 9.60394 260.979 9.68494 260.961 9.73894L259.557 13.1679V13.3839C259.629 13.4379 259.755 13.4649 259.935 13.4649C260.079 13.4649 260.295 13.4379 260.583 13.3839C260.889 13.3299 261.078 13.3029 261.15 13.3029C261.312 13.2849 261.555 13.2669 261.879 13.2489C262.203 13.2309 262.527 13.2219 262.851 13.2219C263.103 13.2219 263.238 13.2309 263.256 13.2489L263.553 12.3849C263.841 11.5029 264.147 10.7919 264.471 10.2519C264.489 10.1979 264.525 10.0989 264.579 9.95494C264.633 9.79294 264.696 9.61294 264.768 9.41494Z" fill="white"/>
<path d="M269.188 18.5949C268.972 18.5949 268.801 18.5589 268.675 18.4869C268.549 18.4149 268.369 18.2799 268.135 18.0819C267.541 17.4519 267.244 16.8759 267.244 16.3539C267.244 16.2279 267.253 16.1379 267.271 16.0839C267.325 15.9579 267.343 15.8319 267.325 15.7059C267.325 15.5799 267.325 15.4989 267.325 15.4629C267.253 15.3909 267.217 15.3459 267.217 15.3279C267.217 15.2919 267.235 15.2649 267.271 15.2469C267.307 15.2109 267.334 15.1749 267.352 15.1389C267.46 15.1389 267.496 15.0399 267.46 14.8419C267.424 14.6979 267.496 14.3829 267.676 13.8969C267.856 13.3929 268.081 12.9339 268.351 12.5199C268.549 12.1959 268.837 11.7909 269.215 11.3049C269.611 10.8189 269.962 10.4499 270.268 10.1979C270.7 9.81994 271.087 9.54094 271.429 9.36094C271.771 9.18094 272.149 9.04594 272.563 8.95594C272.923 8.86594 273.166 8.82094 273.292 8.82094C273.418 8.82094 273.526 8.85694 273.616 8.92894C273.724 8.98294 273.859 9.09094 274.021 9.25294C274.507 9.46894 274.84 9.74794 275.02 10.0899C275.218 10.4139 275.317 10.9269 275.317 11.6289C275.317 12.7989 274.84 14.0679 273.886 15.4359C273.472 16.0299 273.085 16.4889 272.725 16.8129C272.365 17.1189 271.888 17.4519 271.294 17.8119C270.916 18.0819 270.565 18.2799 270.241 18.4059C269.935 18.5139 269.584 18.5769 269.188 18.5949ZM271.78 15.7329C272.212 15.2469 272.554 14.7879 272.806 14.3559C273.076 13.9239 273.328 13.3749 273.562 12.7089C273.652 12.4029 273.697 12.0339 273.697 11.6019C273.697 11.0619 273.625 10.7559 273.481 10.6839C273.301 10.5939 273.121 10.5489 272.941 10.5489C272.545 10.5489 272.131 10.7289 271.699 11.0889C271.177 11.5389 270.709 12.0969 270.295 12.7629C269.881 13.4109 269.458 14.2209 269.026 15.1929C268.846 15.5709 268.756 15.9399 268.756 16.2999C268.756 16.5699 268.819 16.7859 268.945 16.9479C269.089 17.1099 269.278 17.1909 269.512 17.1909C270.106 17.1909 270.862 16.7049 271.78 15.7329Z" fill="white"/>
<path d="M281.596 18.0549C281.146 18.4509 280.606 18.6489 279.976 18.6489C279.526 18.6489 279.094 18.5409 278.68 18.3249C278.284 18.1089 277.951 17.8119 277.681 17.4339C277.447 17.1459 277.276 16.8219 277.168 16.4619C277.06 16.1019 277.006 15.6609 277.006 15.1389C277.006 14.9589 277.024 14.5989 277.06 14.0589C277.114 13.3929 277.33 12.6999 277.708 11.9799C278.104 11.2599 278.59 10.6209 279.166 10.0629C279.742 9.48694 280.309 9.09094 280.867 8.87494C281.155 8.69494 281.416 8.60494 281.65 8.60494C281.776 8.60494 281.902 8.61394 282.028 8.63194C282.154 8.64994 282.289 8.66794 282.433 8.68594C282.829 8.73994 283.126 8.82094 283.324 8.92894C283.54 9.01894 283.72 9.16294 283.864 9.36094C284.314 9.81094 284.539 10.3329 284.539 10.9269C284.467 11.3589 284.188 11.8539 283.702 12.4119C283.216 12.9699 282.631 13.4199 281.947 13.7619C281.623 13.8699 281.254 13.9239 280.84 13.9239C280.282 13.9239 279.832 13.8069 279.49 13.5729C279.328 13.5189 279.202 13.4919 279.112 13.4919C278.95 13.4919 278.824 13.5999 278.734 13.8159C278.662 14.0319 278.59 14.4279 278.518 15.0039C278.5 15.1299 278.491 15.3099 278.491 15.5439C278.491 16.4619 278.797 16.9659 279.409 17.0559C279.823 17.1459 280.12 17.1909 280.3 17.1909C280.516 17.1909 280.759 17.1189 281.029 16.9749L281.542 16.6779C281.65 16.6239 281.749 16.5519 281.839 16.4619C281.929 16.3719 282.01 16.2909 282.082 16.2189C282.118 16.1829 282.172 16.1289 282.244 16.0569C282.316 15.9669 282.379 15.9129 282.433 15.8949C282.505 15.8589 282.568 15.8409 282.622 15.8409C282.694 15.8409 282.775 15.8859 282.865 15.9759C282.955 16.0479 283.027 16.1019 283.081 16.1379C283.243 16.1379 283.279 16.2549 283.189 16.4889C283.099 16.7049 282.901 16.9659 282.595 17.2719C282.307 17.5599 281.974 17.8209 281.596 18.0549ZM281.569 12.3309C281.875 12.2049 282.181 11.9799 282.487 11.6559C282.811 11.3319 282.973 11.0619 282.973 10.8459C282.973 10.6299 282.892 10.4499 282.73 10.3059C282.568 10.1619 282.343 10.0899 282.055 10.0899C281.839 10.0899 281.677 10.1079 281.569 10.1439C281.317 10.2159 281.02 10.4139 280.678 10.7379C280.336 11.0439 280.039 11.3589 279.787 11.6829C279.535 12.0069 279.436 12.1959 279.49 12.2499C279.58 12.4119 279.931 12.4929 280.543 12.4929C280.957 12.4929 281.299 12.4389 281.569 12.3309Z" fill="white"/>
<path d="M294.512 18.9189C294.458 18.9189 294.278 18.9279 293.972 18.9459C293.684 18.9459 293.405 18.8829 293.135 18.7569C292.865 18.6129 292.64 18.3969 292.46 18.1089C292.334 17.8749 292.226 17.6049 292.136 17.2989C292.046 16.9929 292.001 16.7319 292.001 16.5159C292.001 16.4259 292.019 16.3269 292.055 16.2189C292.397 14.2389 292.676 12.9879 292.892 12.4659L293.324 11.4129C293.414 11.1249 293.441 10.8009 293.405 10.4409V10.3329C293.405 10.0989 293.495 9.90094 293.675 9.73894C293.981 9.50494 294.224 9.19894 294.404 8.82094C294.53 8.51494 294.728 8.10094 294.998 7.57894C295.268 7.05694 295.466 6.71494 295.592 6.55294C295.79 6.28294 295.97 6.02194 296.132 5.76994C296.168 5.71594 296.294 5.52694 296.51 5.20294C296.744 4.86094 297.005 4.57294 297.293 4.33894C297.635 3.76294 298.31 3.06994 299.318 2.25994C299.75 1.89994 300.02 1.66594 300.128 1.55794C300.182 1.50394 300.344 1.44994 300.614 1.39594C300.884 1.32394 301.055 1.27894 301.127 1.26094C301.271 1.22494 301.514 1.16194 301.856 1.07194C301.964 1.01794 302.162 1.06294 302.45 1.20694C302.756 1.33294 302.981 1.47694 303.125 1.63894C303.413 2.14294 303.557 2.53894 303.557 2.82694C303.557 3.06094 303.503 3.32194 303.395 3.60994C303.287 3.89794 303.08 4.36594 302.774 5.01394C302.126 6.30994 300.947 7.54294 299.237 8.71294C298.589 9.28894 297.86 9.79294 297.05 10.2249C296.456 10.5309 295.97 10.7469 295.592 10.8729C295.304 10.9629 295.097 11.1699 294.971 11.4939C294.899 11.6559 294.836 11.8539 294.782 12.0879C294.746 12.3219 294.692 12.4749 294.62 12.5469C294.512 12.6549 294.332 13.2579 294.08 14.3559C293.828 15.4539 293.702 16.2009 293.702 16.5969C293.702 16.7409 293.72 16.8669 293.756 16.9749C293.792 17.0829 293.873 17.1639 293.999 17.2179C294.251 17.1639 294.449 17.0829 294.593 16.9749C294.755 16.8489 294.953 16.6509 295.187 16.3809C295.691 15.7509 296.051 15.1479 296.267 14.5719C296.321 14.4099 296.375 14.2029 296.429 13.9509C296.483 13.6809 296.546 13.4739 296.618 13.3299C296.618 12.6999 296.609 12.2949 296.591 12.1149C296.573 11.9169 296.51 11.6829 296.402 11.4129C296.492 11.3589 296.564 11.3049 296.618 11.2509C296.69 11.1789 296.78 11.1519 296.888 11.1699C297.302 11.2599 297.725 11.5119 298.157 11.9259C298.283 12.0519 298.319 12.2049 298.265 12.3849C298.193 12.9609 298.157 13.3749 298.157 13.6269C298.103 13.7529 298.013 14.0319 297.887 14.4639C297.869 14.6979 297.815 14.9229 297.725 15.1389C297.401 15.8049 297.167 16.2549 297.023 16.4889C296.627 17.2269 296.087 17.8569 295.403 18.3789L294.512 18.9189ZM301.991 2.15194C301.469 2.38594 301.055 2.61094 300.749 2.82694C300.461 3.02494 300.092 3.34894 299.642 3.79894C299.21 4.23094 298.616 4.96894 297.86 6.01294C297.122 7.03894 296.627 7.86694 296.375 8.49694C296.465 8.51494 296.573 8.52394 296.699 8.52394C296.879 8.52394 297.032 8.43394 297.158 8.25394C298.436 7.37194 299.435 6.60694 300.155 5.95894C300.875 5.29294 301.343 4.67194 301.559 4.09594C301.631 3.95194 301.73 3.77194 301.856 3.55594C301.982 3.32194 302.063 3.10594 302.099 2.90794L301.991 2.15194Z" fill="white"/>
<path d="M306.025 18.9459C305.593 18.5319 305.269 17.9199 305.053 17.1099C305.017 17.0019 304.999 16.8129 304.999 16.5429C304.999 16.2729 304.999 16.0839 304.999 15.9759C304.891 16.2459 304.693 16.4889 304.405 16.7049C303.991 17.1189 303.577 17.4249 303.163 17.6229C302.533 18.0369 302.02 18.2439 301.624 18.2439C301.264 18.2439 300.922 18.0459 300.598 17.6499C300.364 17.4519 300.184 17.2539 300.058 17.0559C299.95 16.8579 299.896 16.6149 299.896 16.3269C299.896 16.1289 299.923 15.9129 299.977 15.6789C300.013 15.0129 300.103 14.3739 300.247 13.7619C300.409 13.1499 300.706 12.3669 301.138 11.4129C301.714 10.2789 302.128 9.52294 302.38 9.14494C302.47 9.10894 302.587 9.09094 302.731 9.09094C302.911 9.09094 303.055 9.14494 303.163 9.25294C303.289 9.36094 303.361 9.50494 303.379 9.68494C303.433 9.75694 303.46 9.85594 303.46 9.98194C303.46 10.4319 303.19 11.1699 302.65 12.1959C301.948 13.8879 301.597 15.0579 301.597 15.7059C301.597 16.0839 301.705 16.3089 301.921 16.3809C302.011 16.4349 302.11 16.4619 302.218 16.4619C302.668 16.4619 303.208 16.1559 303.838 15.5439C304.468 14.9319 305.071 13.9509 305.647 12.6009C305.899 11.9889 306.052 11.3589 306.106 10.7109C306.088 10.6569 306.079 10.5759 306.079 10.4679C306.079 10.1439 306.241 9.88294 306.565 9.68494C306.637 9.57694 306.736 9.49594 306.862 9.44194C306.988 9.36994 307.069 9.36994 307.105 9.44194L307.537 9.41494C307.591 9.39694 307.645 9.45094 307.699 9.57694C307.753 9.68494 307.807 9.75694 307.861 9.79294C307.987 9.90094 308.05 10.0989 308.05 10.3869C308.05 10.9809 307.789 11.8899 307.267 13.1139C306.925 13.8339 306.691 14.3919 306.565 14.7879C306.457 15.1659 306.394 15.5349 306.376 15.8949C306.376 16.5789 306.637 17.1459 307.159 17.5959C307.339 17.7219 307.447 17.8569 307.483 18.0009C307.519 18.1449 307.528 18.3429 307.51 18.5949C307.474 18.7569 307.366 18.8919 307.186 18.9999C307.024 19.0899 306.844 19.1349 306.646 19.1349C306.412 19.1349 306.205 19.0719 306.025 18.9459Z" fill="white"/>
<path d="M313.426 1.74694C313.786 1.67494 314.047 1.63894 314.209 1.63894C314.515 1.63894 314.785 1.71094 315.019 1.85494C315.919 2.14294 316.612 2.55694 317.098 3.09694C317.584 3.63694 317.917 4.27594 318.097 5.01394C318.295 5.75194 318.412 6.67894 318.448 7.79494C318.466 7.95694 318.475 8.17294 318.475 8.44294C318.475 8.67694 318.448 9.09094 318.394 9.68494C318.286 9.82894 318.223 10.0089 318.205 10.2249C318.187 10.4409 318.178 10.5669 318.178 10.6029C318.178 10.9629 318.142 11.2239 318.07 11.3859C318.052 11.6199 317.98 11.8719 317.854 12.1419C317.728 12.4119 317.665 12.6009 317.665 12.7089C317.143 14.1849 316.387 15.5079 315.397 16.6779C314.407 17.8479 313.336 18.5679 312.184 18.8379C312.094 18.8739 311.86 18.8019 311.482 18.6219C311.104 18.4239 310.825 18.2259 310.645 18.0279C310.465 17.8119 310.321 17.6139 310.213 17.4339C310.123 17.2539 310.078 17.0469 310.078 16.8129C309.97 16.5609 309.898 16.3089 309.862 16.0569C309.844 15.7869 309.835 15.4449 309.835 15.0309C309.835 14.6529 309.907 14.2839 310.051 13.9239C310.195 13.5639 310.393 13.1319 310.645 12.6279C310.807 12.1779 311.167 11.6289 311.725 10.9809C312.301 10.3149 312.904 9.82894 313.534 9.52294C314.038 9.25294 314.47 9.11794 314.83 9.11794C315.046 9.11794 315.253 9.15394 315.451 9.22594C315.667 9.27994 315.829 9.36994 315.937 9.49594C316.045 9.60394 316.126 9.67594 316.18 9.71194C316.324 9.56794 316.45 9.24394 316.558 8.73994C316.684 8.21794 316.747 7.65994 316.747 7.06594C316.747 5.94994 316.558 5.13994 316.18 4.63594C315.586 3.78994 314.893 3.36694 314.101 3.36694C313.795 3.36694 313.417 3.45694 312.967 3.63694C312.733 3.52894 312.535 3.34894 312.373 3.09694C312.211 2.84494 312.166 2.60194 312.238 2.36794C312.652 2.02594 313.048 1.81894 313.426 1.74694ZM316.045 10.7649C315.901 10.6209 315.712 10.5489 315.478 10.5489C315.028 10.5489 314.479 10.7739 313.831 11.2239C313.615 11.3859 313.399 11.6109 313.183 11.8989C312.985 12.1689 312.859 12.3399 312.805 12.4119C312.625 12.6999 312.481 12.9069 312.373 13.0329V13.0869C312.373 13.2129 312.319 13.3209 312.211 13.4109C312.121 13.5009 312.058 13.5729 312.022 13.6269C311.824 14.0049 311.68 14.3919 311.59 14.7879C311.5 15.1659 311.455 15.4359 311.455 15.5979C311.455 15.9219 311.5 16.2279 311.59 16.5159C311.698 16.8039 311.842 16.9929 312.022 17.0829C312.274 17.1909 312.706 16.9929 313.318 16.4889C313.948 15.9669 314.47 15.4089 314.884 14.8149C314.992 14.6529 315.163 14.3469 315.397 13.8969C315.631 13.4289 315.802 13.0779 315.91 12.8439C316.108 12.3039 316.207 11.8179 316.207 11.3859C316.207 11.0799 316.153 10.8729 316.045 10.7649Z" fill="white"/>
<path d="M323.836 18.0549C323.386 18.4509 322.846 18.6489 322.216 18.6489C321.766 18.6489 321.334 18.5409 320.92 18.3249C320.524 18.1089 320.191 17.8119 319.921 17.4339C319.687 17.1459 319.516 16.8219 319.408 16.4619C319.3 16.1019 319.246 15.6609 319.246 15.1389C319.246 14.9589 319.264 14.5989 319.3 14.0589C319.354 13.3929 319.57 12.6999 319.948 11.9799C320.344 11.2599 320.83 10.6209 321.406 10.0629C321.982 9.48694 322.549 9.09094 323.107 8.87494C323.395 8.69494 323.656 8.60494 323.89 8.60494C324.016 8.60494 324.142 8.61394 324.268 8.63194C324.394 8.64994 324.529 8.66794 324.673 8.68594C325.069 8.73994 325.366 8.82094 325.564 8.92894C325.78 9.01894 325.96 9.16294 326.104 9.36094C326.554 9.81094 326.779 10.3329 326.779 10.9269C326.707 11.3589 326.428 11.8539 325.942 12.4119C325.456 12.9699 324.871 13.4199 324.187 13.7619C323.863 13.8699 323.494 13.9239 323.08 13.9239C322.522 13.9239 322.072 13.8069 321.73 13.5729C321.568 13.5189 321.442 13.4919 321.352 13.4919C321.19 13.4919 321.064 13.5999 320.974 13.8159C320.902 14.0319 320.83 14.4279 320.758 15.0039C320.74 15.1299 320.731 15.3099 320.731 15.5439C320.731 16.4619 321.037 16.9659 321.649 17.0559C322.063 17.1459 322.36 17.1909 322.54 17.1909C322.756 17.1909 322.999 17.1189 323.269 16.9749L323.782 16.6779C323.89 16.6239 323.989 16.5519 324.079 16.4619C324.169 16.3719 324.25 16.2909 324.322 16.2189C324.358 16.1829 324.412 16.1289 324.484 16.0569C324.556 15.9669 324.619 15.9129 324.673 15.8949C324.745 15.8589 324.808 15.8409 324.862 15.8409C324.934 15.8409 325.015 15.8859 325.105 15.9759C325.195 16.0479 325.267 16.1019 325.321 16.1379C325.483 16.1379 325.519 16.2549 325.429 16.4889C325.339 16.7049 325.141 16.9659 324.835 17.2719C324.547 17.5599 324.214 17.8209 323.836 18.0549ZM323.809 12.3309C324.115 12.2049 324.421 11.9799 324.727 11.6559C325.051 11.3319 325.213 11.0619 325.213 10.8459C325.213 10.6299 325.132 10.4499 324.97 10.3059C324.808 10.1619 324.583 10.0899 324.295 10.0899C324.079 10.0899 323.917 10.1079 323.809 10.1439C323.557 10.2159 323.26 10.4139 322.918 10.7379C322.576 11.0439 322.279 11.3589 322.027 11.6829C321.775 12.0069 321.676 12.1959 321.73 12.2499C321.82 12.4119 322.171 12.4929 322.783 12.4929C323.197 12.4929 323.539 12.4389 323.809 12.3309Z" fill="white"/>
<path d="M329.727 18.5949C329.511 18.5949 329.34 18.5589 329.214 18.4869C329.088 18.4149 328.908 18.2799 328.674 18.0819C328.08 17.4519 327.783 16.8759 327.783 16.3539C327.783 16.2279 327.792 16.1379 327.81 16.0839C327.864 15.9579 327.882 15.8319 327.864 15.7059C327.864 15.5799 327.864 15.4989 327.864 15.4629C327.792 15.3909 327.756 15.3459 327.756 15.3279C327.756 15.2919 327.774 15.2649 327.81 15.2469C327.846 15.2109 327.873 15.1749 327.891 15.1389C327.999 15.1389 328.035 15.0399 327.999 14.8419C327.963 14.6979 328.035 14.3829 328.215 13.8969C328.395 13.3929 328.62 12.9339 328.89 12.5199C329.088 12.1959 329.376 11.7909 329.754 11.3049C330.15 10.8189 330.501 10.4499 330.807 10.1979C331.239 9.81994 331.626 9.54094 331.968 9.36094C332.31 9.18094 332.688 9.04594 333.102 8.95594C333.462 8.86594 333.705 8.82094 333.831 8.82094C333.957 8.82094 334.065 8.85694 334.155 8.92894C334.263 8.98294 334.398 9.09094 334.56 9.25294C335.046 9.46894 335.379 9.74794 335.559 10.0899C335.757 10.4139 335.856 10.9269 335.856 11.6289C335.856 12.7989 335.379 14.0679 334.425 15.4359C334.011 16.0299 333.624 16.4889 333.264 16.8129C332.904 17.1189 332.427 17.4519 331.833 17.8119C331.455 18.0819 331.104 18.2799 330.78 18.4059C330.474 18.5139 330.123 18.5769 329.727 18.5949ZM332.319 15.7329C332.751 15.2469 333.093 14.7879 333.345 14.3559C333.615 13.9239 333.867 13.3749 334.101 12.7089C334.191 12.4029 334.236 12.0339 334.236 11.6019C334.236 11.0619 334.164 10.7559 334.02 10.6839C333.84 10.5939 333.66 10.5489 333.48 10.5489C333.084 10.5489 332.67 10.7289 332.238 11.0889C331.716 11.5389 331.248 12.0969 330.834 12.7629C330.42 13.4109 329.997 14.2209 329.565 15.1929C329.385 15.5709 329.295 15.9399 329.295 16.2999C329.295 16.5699 329.358 16.7859 329.484 16.9479C329.628 17.1099 329.817 17.1909 330.051 17.1909C330.645 17.1909 331.401 16.7049 332.319 15.7329Z" fill="white"/>
<path d="M275.159 132.134C274.957 132.322 274.946 132.638 275.134 132.841L278.198 136.136C278.386 136.338 278.703 136.349 278.905 136.161C279.107 135.973 279.119 135.657 278.931 135.455L276.207 132.526L279.136 129.802C279.338 129.614 279.349 129.297 279.161 129.095C278.973 128.893 278.657 128.881 278.455 129.069L275.159 132.134ZM275.482 133C323.84 134.754 351.219 117.714 360.834 95.4482C370.442 73.199 362.199 45.9716 339.817 27.6134L339.183 28.3866C361.301 46.5284 369.308 73.301 359.916 95.0518C350.531 116.786 323.66 133.746 275.518 132L275.482 133Z" fill="white"/>
</svg>
