<svg width="121" height="100" viewBox="0 0 121 100" fill="none" xmlns="http://www.w3.org/2000/svg">
<path d="M119.761 54.0227C118.589 48.9082 114.462 44.726 112.838 39.6381C109.111 28.0504 119.681 12.9998 107.034 3.6498C94.1738 -5.83342 79.0507 5.91405 73.3263 8.12503C62.4099 12.3339 53.7301 8.68443 47.34 7.48571C36.823 5.51448 25.7736 8.20494 17.2269 14.1186C-0.239296 26.2124 -2.39594 48.9615 1.89072 58.5779C4.36687 63.4793 6.94952 65.6903 10.3842 67.848C24.8683 77.0115 40.0447 60.4426 56.5257 63.5059C65.4718 65.1842 69.439 71.7905 77.4532 75.4399C99.9781 85.6956 122.689 66.7292 119.761 54.0227Z" fill="#D1DCE8"/>
<path d="M80.0626 94.7793C99.267 94.7793 114.835 93.2647 114.835 91.3962C114.835 89.5278 99.267 88.0132 80.0626 88.0132C60.8583 88.0132 45.29 89.5278 45.29 91.3962C45.29 93.2647 60.8583 94.7793 80.0626 94.7793Z" fill="#E5DAEA"/>
<path d="M103.306 91.8756H56.8454C55.7272 91.8756 54.6621 91.556 53.7569 91.0232C52.0262 89.9843 50.8547 88.0664 50.8547 85.882V15.3706C50.8547 13.9587 51.3606 12.6535 52.1594 11.6146C53.251 10.256 54.955 9.37695 56.8188 9.37695H103.306C105.57 9.37695 107.54 10.629 108.552 12.4936C109.031 13.3461 109.297 14.3317 109.297 15.3706V85.882C109.297 87.1607 108.898 88.3327 108.232 89.2917C107.141 90.8367 105.33 91.8756 103.306 91.8756Z" fill="#555E60"/>
<path d="M52.8782 10.8955C52.6386 11.1086 52.399 11.375 52.186 11.6147C51.3606 12.6536 50.8813 13.9323 50.8813 15.3707V85.8822C50.8813 88.0665 52.0529 89.9579 53.7835 91.0234C54.6888 91.5561 55.7538 91.8758 56.872 91.8758H103.306C104.931 91.8758 106.395 91.2365 107.46 90.1976C99.4192 78.5567 67.1228 31.7266 52.8782 10.8955Z" fill="#393E3F"/>
<path d="M105.01 14.1719H55.1147V87.0808H105.01V14.1719Z" fill="white"/>
<path d="M105.01 87.0808H55.1147V14.1719L105.01 87.0808Z" fill="#E5DAEA"/>
<path d="M86.2129 6.97947C85.7869 6.97947 85.4142 6.68645 85.3077 6.26024C84.9882 4.87505 83.7368 3.86279 82.2724 3.86279H77.8792C76.4148 3.86279 75.1635 4.87505 74.844 6.26024C74.7375 6.68645 74.3647 6.97947 73.9387 6.97947H70.717C70.2112 6.97947 69.7852 7.40568 69.7852 7.91181V14.8378C69.7852 15.3439 70.2112 15.7701 70.717 15.7701H89.4346C89.9405 15.7701 90.3665 15.3439 90.3665 14.8378V7.91181C90.3665 7.40568 89.9405 6.97947 89.4346 6.97947H86.2129V6.97947Z" fill="#03DEA4"/>
<path d="M83.5238 12.4936C78.8644 12.4936 74.7108 10.3359 72.0217 6.97949H70.717C70.2112 6.97949 69.7852 7.4057 69.7852 7.91183V14.8378C69.7852 15.3439 70.2112 15.7701 70.717 15.7701H89.4346C89.9405 15.7701 90.3665 15.3439 90.3665 14.8378V10.8154C88.3163 11.8809 85.9999 12.4936 83.5238 12.4936Z" fill="#00BA89"/>
<path d="M72.3944 36.8404H60.4663V24.9331H72.3944V36.8404ZM61.2917 36.0413H71.6223V25.7323H61.2917V36.0413Z" fill="#858887"/>
<path d="M98.7533 25.7597H75.5627C75.3231 25.7597 75.1367 25.5732 75.1367 25.3334C75.1367 25.0937 75.3231 24.9072 75.5627 24.9072H98.7533C98.9929 24.9072 99.1793 25.0937 99.1793 25.3334C99.1793 25.5732 98.9929 25.7597 98.7533 25.7597Z" fill="#C0C0C0"/>
<path d="M98.7533 28.5302H75.5627C75.3231 28.5302 75.1367 28.3437 75.1367 28.1039C75.1367 27.8642 75.3231 27.6777 75.5627 27.6777H98.7533C98.9929 27.6777 99.1793 27.8642 99.1793 28.1039C99.1793 28.3437 98.9929 28.5302 98.7533 28.5302Z" fill="#C0C0C0"/>
<path d="M98.7533 31.3007H75.5627C75.3231 31.3007 75.1367 31.1142 75.1367 30.8744C75.1367 30.6347 75.3231 30.4482 75.5627 30.4482H98.7533C98.9929 30.4482 99.1793 30.6347 99.1793 30.8744C99.1793 31.1142 98.9929 31.3007 98.7533 31.3007Z" fill="#C0C0C0"/>
<path d="M98.7533 34.0707H75.5627C75.3231 34.0707 75.1367 33.8842 75.1367 33.6445C75.1367 33.4047 75.3231 33.2183 75.5627 33.2183H98.7533C98.9929 33.2183 99.1793 33.4047 99.1793 33.6445C99.1793 33.8842 98.9929 34.0707 98.7533 34.0707Z" fill="#C0C0C0"/>
<path d="M92.9489 36.8412H75.5892C75.3496 36.8412 75.1632 36.6547 75.1632 36.415C75.1632 36.1752 75.3496 35.9888 75.5892 35.9888H92.9489C93.1885 35.9888 93.3749 36.1752 93.3749 36.415C93.3483 36.6547 93.1619 36.8412 92.9489 36.8412Z" fill="#C0C0C0"/>
<path d="M62.2769 29.7818L65.5518 34.2837L74.2582 24.8804L65.5518 31.0871L63.901 28.3167L62.2769 29.7818Z" fill="#00BA89"/>
<path d="M72.3944 57.1122H60.4663V45.1782H72.3944V57.1122ZM61.2917 56.313H71.6223V45.9774H61.2917V56.313Z" fill="#858887"/>
<path d="M98.7533 46.0316H75.5627C75.3231 46.0316 75.1367 45.8452 75.1367 45.6054C75.1367 45.3657 75.3231 45.1792 75.5627 45.1792H98.7533C98.9929 45.1792 99.1793 45.3657 99.1793 45.6054C99.1793 45.8452 98.9929 46.0316 98.7533 46.0316Z" fill="#C0C0C0"/>
<path d="M98.7533 48.8021H75.5627C75.3231 48.8021 75.1367 48.6157 75.1367 48.3759C75.1367 48.1362 75.3231 47.9497 75.5627 47.9497H98.7533C98.9929 47.9497 99.1793 48.1362 99.1793 48.3759C99.1793 48.6157 98.9929 48.8021 98.7533 48.8021Z" fill="#C0C0C0"/>
<path d="M98.7533 51.5722H75.5627C75.3231 51.5722 75.1367 51.3857 75.1367 51.1459C75.1367 50.9062 75.3231 50.7197 75.5627 50.7197H98.7533C98.9929 50.7197 99.1793 50.9062 99.1793 51.1459C99.1793 51.3857 98.9929 51.5722 98.7533 51.5722Z" fill="#C0C0C0"/>
<path d="M98.7533 54.3427H75.5627C75.3231 54.3427 75.1367 54.1562 75.1367 53.9164C75.1367 53.6767 75.3231 53.4902 75.5627 53.4902H98.7533C98.9929 53.4902 99.1793 53.6767 99.1793 53.9164C99.1793 54.1562 98.9929 54.3427 98.7533 54.3427Z" fill="#C0C0C0"/>
<path d="M92.9489 57.1132H75.5892C75.3496 57.1132 75.1632 56.9267 75.1632 56.687C75.1632 56.4472 75.3496 56.2607 75.5892 56.2607H92.9489C93.1885 56.2607 93.3749 56.4472 93.3749 56.687C93.3483 56.9267 93.1619 57.1132 92.9489 57.1132Z" fill="#C0C0C0"/>
<path d="M62.2769 50.0538L65.5518 54.5556L74.2582 45.1523L65.5518 51.3591L63.901 48.5887L62.2769 50.0538Z" fill="#00BA89"/>
<path d="M72.3944 77.3837H60.4663V65.4497H72.3944V77.3837ZM61.2917 76.5845H71.6223V66.2489H61.2917V76.5845Z" fill="#858887"/>
<path d="M98.7533 66.3031H75.5627C75.3231 66.3031 75.1367 66.1166 75.1367 65.8769C75.1367 65.6372 75.3231 65.4507 75.5627 65.4507H98.7533C98.9929 65.4507 99.1793 65.6372 99.1793 65.8769C99.1793 66.1166 98.9929 66.3031 98.7533 66.3031Z" fill="#C0C0C0"/>
<path d="M98.7533 69.0736H75.5627C75.3231 69.0736 75.1367 68.8871 75.1367 68.6474C75.1367 68.4077 75.3231 68.2212 75.5627 68.2212H98.7533C98.9929 68.2212 99.1793 68.4077 99.1793 68.6474C99.1793 68.8871 98.9929 69.0736 98.7533 69.0736Z" fill="#C0C0C0"/>
<path d="M98.7533 71.8437H75.5627C75.3231 71.8437 75.1367 71.6572 75.1367 71.4174C75.1367 71.1777 75.3231 70.9912 75.5627 70.9912H98.7533C98.9929 70.9912 99.1793 71.1777 99.1793 71.4174C99.1793 71.6572 98.9929 71.8437 98.7533 71.8437Z" fill="#C0C0C0"/>
<path d="M98.7533 74.6142H75.5627C75.3231 74.6142 75.1367 74.4277 75.1367 74.188C75.1367 73.9482 75.3231 73.7617 75.5627 73.7617H98.7533C98.9929 73.7617 99.1793 73.9482 99.1793 74.188C99.1793 74.4277 98.9929 74.6142 98.7533 74.6142Z" fill="#C0C0C0"/>
<path d="M92.9489 77.3847H75.5892C75.3496 77.3847 75.1632 77.1982 75.1632 76.9585C75.1632 76.7187 75.3496 76.5322 75.5892 76.5322H92.9489C93.1885 76.5322 93.3749 76.7187 93.3749 76.9585C93.3483 77.1982 93.1619 77.3847 92.9489 77.3847Z" fill="#C0C0C0"/>
<path d="M62.2769 70.3253L65.5518 74.8271L74.2582 65.4238L65.5518 71.6305L63.901 68.8602L62.2769 70.3253Z" fill="#00BA89"/>
<path d="M33.6551 99.9732C44.8013 99.9732 53.837 99.198 53.837 98.2417C53.837 97.2855 44.8013 96.5103 33.6551 96.5103C22.5089 96.5103 13.4731 97.2855 13.4731 98.2417C13.4731 99.198 22.5089 99.9732 33.6551 99.9732Z" fill="#E5DAEA"/>
<path d="M7.72198 57.0061L14.112 53.8095L12.2217 50.0269L5.83159 53.2234C5.61859 53.33 5.45884 53.5165 5.37896 53.7296C5.29909 53.9427 5.32571 54.1824 5.43221 54.4222L6.52385 56.6065C6.63035 56.8196 6.81673 56.9794 7.02973 57.0593C7.26936 57.1126 7.50898 57.1126 7.72198 57.0061Z" fill="#03DEA4"/>
<path d="M10.9703 50.6393L12.3548 53.3831L6.41736 56.3399L6.52386 56.5797C6.63036 56.7928 6.81674 56.9526 7.02974 57.0325C7.24274 57.1124 7.48237 57.0858 7.722 56.9792L14.1121 53.7826L12.2217 50L10.9703 50.6393Z" fill="#1BCC9D"/>
<path d="M57.7241 32.8449L11.2631 55.9402C11.0501 56.0468 10.8104 56.0468 10.5974 55.9935C10.3844 55.9136 10.1714 55.7804 10.0649 55.5406L8.38754 52.1842C8.28104 51.9711 8.28104 51.7314 8.33429 51.5183C8.41417 51.3052 8.5473 51.1187 8.78692 51.0121L55.248 27.8901L57.7241 32.8449Z" fill="#266848"/>
<path d="M55.248 27.8903L61.7712 27.7305L57.7242 32.845L55.248 27.8903Z" fill="#FFBB99"/>
<path d="M57.0585 31.4865L61.7712 27.7305L57.7241 32.845L57.0585 31.4865Z" fill="#F4A27D"/>
<path d="M55.248 27.8903L61.7712 27.7305L55.9137 29.2488L55.248 27.8903Z" fill="#FFD1BD"/>
<path d="M60.014 27.7837L60.6797 29.1157L61.7713 27.7305L60.014 27.7837Z" fill="#00BA89"/>
<path d="M9.79883 55.0081L10.0651 55.5675C10.1716 55.7806 10.358 55.9405 10.5976 56.0204C10.8106 56.0736 11.0502 56.0736 11.2632 55.9671L57.7243 32.8451L57.0586 31.5132L9.79883 55.0081Z" fill="#307554"/>
<path d="M8.68053 52.7439L8.41428 52.1845C8.30778 51.9714 8.30778 51.705 8.36103 51.4919C8.4409 51.2788 8.57403 51.0923 8.81366 50.9858L55.2747 27.8638L55.9403 29.1957L8.68053 52.7439Z" fill="#319967"/>
<path d="M11.3265 49.7431L9.96863 50.4214L10.6347 51.7561L11.9925 51.0778L11.3265 49.7431Z" fill="#03B686"/>
<path d="M13.1336 53.334L11.7758 54.0122L12.4418 55.3469L13.7996 54.6686L13.1336 53.334Z" fill="#1BCC9D"/>
<path d="M11.9983 51.0737L10.6405 51.752L11.7704 54.0161L13.1282 53.3378L11.9983 51.0737Z" fill="#03DEA4"/>
<path d="M31.4984 62.3334L28.33 66.5422C28.33 66.5422 31.2055 68.62 34.1609 67.368C37.1429 66.116 43.107 66.3558 43.2401 64.278C43.3998 62.2002 37.3027 61.0015 37.3027 61.0015L31.4984 62.3334Z" fill="#47236D"/>
<path d="M39.2463 95.9243C39.2463 95.9243 42.9472 96.0309 43.0271 97.0964C43.107 98.1619 41.2432 98.9877 38.8736 98.9344C36.7435 98.8812 34.933 98.8012 34.9596 98.1619C35.0129 97.5226 35.3058 95.9243 35.3058 95.9243H39.2463Z" fill="#03DEA4"/>
<path d="M39.2462 95.9243H35.3323C35.3323 95.9243 35.0394 97.5226 34.9861 98.1619C34.9329 98.8012 36.7434 98.8812 38.9 98.9344C40.7372 98.9877 42.2548 98.4816 42.814 97.7623C41.9087 96.4837 39.2462 95.9243 39.2462 95.9243Z" fill="#00BA89"/>
<path d="M27.5578 93.8465C27.5578 93.8465 29.7943 97.5492 28.9956 99.0143C28.1968 100.479 24.842 96.9365 24.1232 95.3649C23.1913 93.367 23.2179 93.1805 25.6142 90.8363C26.5194 89.9573 26.6792 90.3036 26.6792 90.3036C26.6792 90.3036 27.1584 91.449 27.4247 91.5556C27.6909 91.6621 27.5578 93.8465 27.5578 93.8465Z" fill="#03DEA4"/>
<path d="M28.969 99.0143C29.0222 98.9078 29.0755 98.8012 29.1021 98.668C28.7826 96.83 26.7591 94.1662 26.3331 93.3404C25.8805 92.4347 26.6792 91.7687 26.6792 91.7687C26.6792 91.7687 26.8656 91.5556 27.1318 91.2626C26.8922 90.8897 26.626 90.277 26.626 90.277C26.626 90.277 26.4662 89.9573 25.5609 90.8097C23.1647 93.1539 23.138 93.3137 24.0699 95.3382C24.8421 96.9099 28.1702 100.453 28.969 99.0143Z" fill="#00BA89"/>
<path d="M23.6706 93.8465C23.6173 93.8997 23.5907 93.9797 23.5907 94.0329C23.6706 94.3792 23.857 94.8054 24.0966 95.3382C24.7356 96.7234 27.3981 99.627 28.5696 99.3073C28.5696 98.8012 28.3832 98.1086 27.9306 97.3894C26.8922 95.8177 24.3096 92.9408 23.6706 93.8465Z" fill="#007052"/>
<path d="M29.7676 63.9586C29.7676 63.9586 29.8475 64.1451 29.954 64.518C31.1255 67.9277 37.3025 86.5212 35.3056 95.9511C35.3056 95.9511 37.9149 96.2442 39.2195 95.9511C39.2195 95.9511 40.8437 81.3267 38.1545 73.0955C36.4505 67.8478 34.853 61.9341 34.853 61.9341" fill="#3B4041"/>
<path d="M42.2551 62.3337C42.2551 62.3337 43.8792 80.1813 27.5313 93.8468C27.5313 93.8468 27.3982 91.8223 25.5876 90.8366C25.5876 90.8366 36.5573 74.7205 35.3591 70.8047C34.161 66.8622 31.179 65.4237 31.4718 62.3603C31.7647 59.2703 37.1164 59.0039 37.1164 59.0039L42.2551 62.3337Z" fill="#86898A"/>
<path d="M42.0953 67.3681C42.4414 64.2781 42.255 62.3335 42.255 62.3335L37.1164 58.9771C37.1164 58.9771 31.7913 59.2434 31.4718 62.3335C31.1789 65.4235 34.1344 66.862 35.3591 70.7778C36.5572 74.7203 25.5876 90.8098 25.5876 90.8098C26.0669 91.0762 26.413 91.3958 26.6793 91.7421C36.7702 82.472 39.7257 73.2552 42.0953 67.3681Z" fill="#555E60"/>
<path d="M47.5 37.8799C47.5 37.8799 46.5415 41.8223 44.731 42.808C42.9205 43.8202 35.8382 44.6726 35.8382 44.6726L33.2289 44.353L26.972 50.2134C26.972 50.2134 25.2413 52.5043 23.1912 53.8628C21.141 55.1947 17.1206 52.5842 17.1206 52.5842L15.603 54.1559C15.2569 53.7829 19.3838 57.6455 21.6735 57.7254C24.6023 57.8319 28.3565 55.1148 28.3565 55.1148L28.5162 54.9816C28.5429 55.0882 28.5429 55.1947 28.5695 55.3013C29.1286 59.1638 28.3565 66.516 28.3565 66.516C32.1106 62.1473 43.2666 64.2518 43.2666 64.2518C42.9471 58.8175 39.5391 48.5085 39.5391 48.5085C39.5391 48.5085 44.6511 46.9902 46.7545 45.5783C48.8579 44.1665 49.9229 38.5991 49.9229 38.5991L47.5 37.8799Z" fill="#03DEA4"/>
<path d="M47.1801 43.0739C46.0086 44.6722 38.873 48.1352 35.1188 46.5635C34.0006 46.1107 33.3083 45.4181 32.8557 44.6988L31.9238 45.5779C31.4445 46.6967 31.0452 48.295 29.7938 49.84C23.4836 57.5118 19.5164 55.1144 16.4812 52.9567L15.6292 54.1821C15.9487 54.4218 19.5963 57.6717 21.6997 57.7516C24.6285 57.8581 28.3826 55.141 28.3826 55.141L28.5424 55.0078C28.569 55.1144 28.569 55.2209 28.5956 55.3275C29.1548 59.19 28.3826 66.5422 28.3826 66.5422C30.8055 63.7186 36.3436 63.5854 39.938 63.8517C39.6984 57.5918 37.3554 48.8011 37.3554 48.8011L39.5386 48.5347C39.5386 48.5347 44.6507 47.0164 46.7541 45.6045C48.8575 44.1927 49.9225 38.6253 49.9225 38.6253L48.9107 38.3057C48.5113 39.824 47.899 42.0883 47.1801 43.0739Z" fill="#00BA89"/>
<path d="M15.5762 54.1819C15.5498 54.1555 15.5498 54.1555 15.5762 54.1819V54.1819Z" fill="#9032C6"/>
<path d="M35.4921 40.6501C35.4921 40.6501 35.0927 43.3938 35.8382 44.6725C35.8382 44.6725 34.8264 46.3773 33.2289 45.5782C31.6048 44.779 31.4983 41.7955 31.4983 41.7955L33.8413 39.2383L35.4921 40.6501Z" fill="#F4A27D"/>
<path d="M32.0041 32.1523C32.0041 32.1523 35.5187 32.2589 36.9298 36.4944C38.3409 40.7299 35.7583 43.5802 32.6165 42.0618C29.5014 40.5434 27.824 34.8162 27.824 34.8162L32.0041 32.1523Z" fill="#FFBB99"/>
<path d="M37.3026 39.1585C36.3974 39.5314 35.0661 39.6646 33.655 38.2794C32.0042 36.6811 32.0042 33.9374 32.2438 32.1526C32.0841 32.126 32.0042 32.126 32.0042 32.126L28.7559 34.2038L28.4098 35.3492L28.7293 37.1606C29.5281 38.9187 30.8327 41.1564 32.6166 42.0354C35.0129 43.2075 37.0896 41.7957 37.3026 39.1585Z" fill="#F4A27D"/>
<path d="M32.7231 31.9393C32.7231 31.9393 33.0958 30.6873 32.2438 29.4886C31.3918 28.2899 28.2234 27.837 27.824 30.1013C27.4247 32.3655 27.398 34.0171 27.398 34.0171C27.398 34.0171 24.1497 34.2302 23.6439 38.4124C23.2711 41.4492 28.8624 48.7214 26.1999 49.8402C23.5374 50.959 22.3925 49.4673 22.6854 48.2419C22.6854 48.2419 20.9813 50.5062 22.6321 52.6372C24.2829 54.7683 31.3918 54.0491 33.5218 49.121C35.6785 44.2195 33.1491 39.7976 33.1491 39.7976C33.1491 39.7976 32.0841 40.6234 31.4451 39.5312C30.8061 38.439 32.3237 38.1993 32.3237 38.1993C32.3237 38.1993 31.0723 35.3224 30.0606 35.3756C30.0872 35.349 32.6965 33.4843 32.7231 31.9393Z" fill="#3A231F"/>
<path d="M47.3937 38.2794C47.3937 38.2794 46.0358 37.0274 46.0624 36.1217C46.089 35.216 46.7813 35.9086 47.2073 36.2016C47.6333 36.4946 48.6184 36.3614 49.2841 35.5623C49.9763 34.7631 51.1744 33.7242 51.5472 34.9496C51.9199 36.175 50.8017 38.4392 49.7899 39.0519C49.7899 39.0519 48.7249 38.1195 47.3937 38.2794Z" fill="#FFBB99"/>
<path d="M15.9492 54.5288C15.9492 54.5288 16.0557 53.3833 17.4935 52.8239C17.4935 52.8239 18.3188 50.7728 18.0792 50.0269C17.8396 49.281 17.3603 50.0802 17.0941 50.613C16.8545 51.1457 16.2953 51.4387 15.2037 50.613C14.1121 49.7872 12.5944 50.2667 12.7808 51.7318C12.8873 52.744 14.8043 54.4489 15.9492 54.5288Z" fill="#FFBB99"/>
<path d="M51.5738 35.0562C51.0946 37.4536 48.8314 38.4658 48.8314 38.4658L48.858 38.4925C49.4438 38.7322 49.8166 39.0252 49.8166 39.0252C50.7751 38.4392 51.8401 36.3081 51.5738 35.0562Z" fill="#F4A27D"/>
<path d="M15.9492 54.5284C15.9492 54.5284 16.0291 53.8091 16.7746 53.2497C14.8576 53.5427 13.6594 51.7047 13.1269 50.6392C12.8873 50.9055 12.7542 51.2785 12.8074 51.7846C12.8873 52.7436 14.8043 54.4484 15.9492 54.5284Z" fill="#F4A27D"/>
<path d="M33.5485 49.0944C35.146 45.4183 34.1608 42.0352 33.5485 40.5701C32.1639 41.3693 27.4247 43.6069 25.5875 39.2382C25.0816 38.0128 24.9219 36.6276 25.0018 35.2158C24.3894 35.8551 23.8302 36.8674 23.6439 38.3858C23.2711 41.4225 28.8624 48.6948 26.1999 49.8136C23.5374 50.9324 22.3925 49.4407 22.6854 48.2153C22.6854 48.2153 20.9813 50.4795 22.6321 52.6106C24.3095 54.715 31.4184 53.9958 33.5485 49.0944Z" fill="#281715"/>
</svg>
