<svg width="70" height="70" viewBox="0 0 70 70" fill="none" xmlns="http://www.w3.org/2000/svg">
<path d="M35 70C54.33 70 70 54.33 70 35C70 15.67 54.33 0 35 0C15.67 0 0 15.67 0 35C0 54.33 15.67 70 35 70Z" fill="white"/>
<path d="M42.5999 17.3998H41.3999V15.9998C41.3999 15.6998 41.1999 15.3998 40.8999 15.1998C40.5999 14.9998 40.2999 14.9998 39.9999 15.1998C39.0999 15.5998 37.1999 15.8998 35.2999 15.8998C33.3999 15.8998 31.4999 15.5998 30.5999 15.1998C30.2999 15.0998 29.9999 15.0998 29.6999 15.1998C29.3999 15.3998 29.1999 15.6998 29.1999 15.9998V17.3998H27.9999C27.0999 17.3998 26.3999 18.0998 26.3999 18.8998V19.8998C26.3999 20.6998 27.0999 21.3998 27.9999 21.3998H29.1999V22.0998C29.1999 22.5998 29.4999 23.0998 29.9999 23.3998C31.6999 24.1998 34.6999 24.1998 35.1999 24.1998C36.8999 24.1998 39.0999 23.9998 40.3999 23.3998C40.8999 23.1998 41.1999 22.6998 41.1999 22.0998V21.3998H42.3999C43.2999 21.3998 43.9999 20.6998 43.9999 19.8998V18.8998C44.1999 18.0998 43.4999 17.3998 42.5999 17.3998ZM42.6999 19.8998C42.6999 19.9998 42.6999 19.9998 42.6999 19.8998L40.6999 19.9998C40.2999 19.9998 39.9999 20.2998 39.9999 20.6998V22.0998C38.8999 22.5998 36.7999 22.7998 35.3999 22.7998C33.9999 22.7998 31.8999 22.5998 30.7999 22.0998V20.6998C30.7999 20.2998 30.4999 19.9998 30.0999 19.9998H28.0999C28.0999 19.9998 27.9999 19.9998 27.9999 19.8998V18.8998C27.9999 18.8998 27.9999 18.7998 28.0999 18.7998H30.0999C30.4999 18.7998 30.7999 18.4998 30.7999 18.0998V16.7998C31.9999 17.1998 33.5999 17.3998 35.3999 17.3998C37.1999 17.3998 38.7999 17.1998 39.9999 16.7998V18.0998C39.9999 18.4998 40.2999 18.7998 40.6999 18.7998H42.6999C42.6999 18.7998 42.7999 18.7998 42.7999 18.8998V19.8998H42.6999Z" fill="#00BA70"/>
<path d="M42.5999 8.19961H41.3999V6.79961C41.3999 6.49961 41.1999 6.19961 40.8999 5.99961C40.5999 5.79961 40.2999 5.79961 39.9999 5.99961C39.0999 6.39961 37.1999 6.69961 35.2999 6.69961C33.3999 6.69961 31.4999 6.39961 30.5999 5.99961C30.2999 5.89961 29.9999 5.89961 29.6999 5.99961C29.3999 6.19961 29.1999 6.49961 29.1999 6.79961V8.19961H27.9999C27.0999 8.19961 26.3999 8.89961 26.3999 9.69961V10.6996C26.3999 11.4996 27.0999 12.1996 27.9999 12.1996H29.1999V12.8996C29.1999 13.3996 29.4999 13.8996 29.9999 14.1996C31.6999 14.9996 34.6999 14.9996 35.1999 14.9996C36.8999 14.9996 39.0999 14.7996 40.3999 14.1996C40.8999 13.9996 41.1999 13.4996 41.1999 12.8996V12.1996H42.3999C43.2999 12.1996 43.9999 11.4996 43.9999 10.6996V9.69961C44.1999 8.79961 43.4999 8.19961 42.5999 8.19961ZM42.6999 10.6996C42.6999 10.6996 42.6999 10.7996 42.6999 10.6996L40.6999 10.7996C40.2999 10.7996 39.9999 11.0996 39.9999 11.4996V12.8996C38.8999 13.3996 36.7999 13.5996 35.3999 13.5996C33.9999 13.5996 31.8999 13.3996 30.7999 12.8996V11.4996C30.7999 11.0996 30.4999 10.7996 30.0999 10.7996H28.0999C28.0999 10.7996 27.9999 10.7996 27.9999 10.6996V9.69961C27.9999 9.69961 27.9999 9.59961 28.0999 9.59961H30.0999C30.4999 9.59961 30.7999 9.29961 30.7999 8.89961V7.59961C31.9999 7.99961 33.5999 8.19961 35.3999 8.19961C37.1999 8.19961 38.7999 7.99961 39.9999 7.59961V8.89961C39.9999 9.29961 40.2999 9.59961 40.6999 9.59961H42.6999C42.6999 9.59961 42.7999 9.59961 42.7999 9.69961V10.6996H42.6999Z" fill="#00BA70"/>
<path d="M42.3999 26.6H41.3999V25.2C41.3999 24.9 41.1999 24.6 40.8999 24.4C40.5999 24.2 40.2999 24.2 39.9999 24.4C39.0999 24.8 37.1999 25.1 35.2999 25.1C33.3999 25.1 31.4999 24.8 30.5999 24.4C30.2999 24.3 29.8999 24.3 29.6999 24.4C29.3999 24.6 29.1999 24.9 29.1999 25.2V26.6H28.1999C27.1999 26.6 26.4999 27.3 26.4999 28.3V29C26.4999 29.9 27.2999 30.7 28.1999 30.7H29.1999V31.4C29.1999 31.9 29.4999 32.4 29.9999 32.7C31.6999 33.5 34.6999 33.5 35.1999 33.5C36.8999 33.5 39.0999 33.3 40.3999 32.7C40.8999 32.5 41.1999 32 41.1999 31.4V30.7H42.1999C43.1999 30.7 43.8999 30 43.8999 29V28.3C44.1999 27.4 43.3999 26.6 42.3999 26.6ZM42.6999 29C42.6999 29.1 42.5999 29.2 42.3999 29.2H40.5999C40.1999 29.2 39.8999 29.5 39.8999 29.9V31.3C38.7999 31.8 36.6999 32 35.2999 32C33.8999 32 31.7999 31.8 30.6999 31.3V29.9C30.6999 29.5 30.3999 29.2 29.9999 29.2H28.1999C28.0999 29.2 27.8999 29.1 27.8999 29V28.3C27.8999 28.2 27.9999 28.1 28.1999 28.1H29.9999C30.3999 28.1 30.6999 27.8 30.6999 27.4V26C31.8999 26.4 33.4999 26.6 35.2999 26.6C37.0999 26.6 38.6999 26.4 39.8999 26V27.3C39.8999 27.7 40.1999 28 40.5999 28H42.3999C42.4999 28 42.6999 28.1 42.6999 28.2V29Z" fill="#00BA70"/>
<path d="M42.3999 35.8002H41.3999V34.4002C41.3999 34.1002 41.1999 33.8002 40.8999 33.6002C40.5999 33.4002 40.2999 33.4002 39.9999 33.6002C39.0999 34.0002 37.1999 34.3002 35.2999 34.3002C33.3999 34.3002 31.4999 34.0002 30.5999 33.6002C30.2999 33.5002 29.8999 33.5002 29.6999 33.6002C29.3999 33.8002 29.1999 34.1002 29.1999 34.4002V35.8002H28.1999C27.1999 35.8002 26.4999 36.5002 26.4999 37.5002V38.2002C26.4999 39.1002 27.2999 39.9002 28.1999 39.9002H29.1999V40.6002C29.1999 41.1002 29.4999 41.6002 29.9999 41.9002C31.6999 42.7002 34.6999 42.7002 35.1999 42.7002C36.8999 42.7002 39.0999 42.5002 40.3999 41.9002C40.8999 41.7002 41.1999 41.2002 41.1999 40.6002V39.9002H42.1999C43.1999 39.9002 43.8999 39.2002 43.8999 38.2002V37.5002C44.1999 36.6002 43.3999 35.8002 42.3999 35.8002ZM42.6999 38.2002C42.6999 38.3002 42.5999 38.4002 42.3999 38.4002H40.5999C40.1999 38.4002 39.8999 38.7002 39.8999 39.1002V40.5002C38.7999 41.0002 36.6999 41.2002 35.2999 41.2002C33.8999 41.2002 31.7999 41.0002 30.6999 40.5002V39.1002C30.6999 38.7002 30.3999 38.4002 29.9999 38.4002H28.1999C28.0999 38.4002 27.8999 38.3002 27.8999 38.2002V37.5002C27.8999 37.4002 27.9999 37.3002 28.1999 37.3002H29.9999C30.3999 37.3002 30.6999 37.0002 30.6999 36.6002V35.3002C31.8999 35.7002 33.4999 35.9002 35.2999 35.9002C37.0999 35.9002 38.6999 35.7002 39.8999 35.3002V36.6002C39.8999 37.0002 40.1999 37.3002 40.5999 37.3002H42.3999C42.4999 37.3002 42.6999 37.4002 42.6999 37.5002V38.2002Z" fill="#00BA70"/>
<path d="M55.1 27C53.1 27 51.5 28.6 51.5 30.6V37.1C50.3 36.8 49 37.1 48 38.1L41.9 44.2C41 45.1 40.6 46.2 40.6 47.4V52.8H39.7C39.2 52.8 38.8 53.2 38.8 53.7V59.4C38.8 59.9 39.2 60.3 39.7 60.3H52.5C53 60.3 53.4 59.9 53.4 59.4V53.7C53.4 53.2 53 52.8 52.5 52.8H51.6V52.4C51.6 52.2 51.7 51.9 51.9 51.8L57.6 46.1C58.5 45.2 58.9 44.1 58.9 42.9V30.7C58.7 28.6 57.1 27 55.1 27ZM51.4 58.6H40.5V54.7H51.4V58.6ZM56.9 42.8C56.9 43.5 56.6 44.2 56.1 44.7L50.4 50.4C49.9 50.9 49.6 51.6 49.6 52.3V52.7H42.3V47.3C42.3 46.6 42.6 45.9 43.1 45.4L49.2 39.3C49.9 38.6 51 38.6 51.7 39.2C51.7 39.2 51.7 39.2 51.8 39.3C52.1 39.6 52.3 40.1 52.3 40.6C52.3 41.1 52.1 41.5 51.8 41.9L47.3 46.4C46.9 46.8 46.9 47.3 47.3 47.7C47.7 48.1 48.2 48.1 48.6 47.7L53.1 43.2C53.8 42.5 54.2 41.6 54.2 40.6C54.2 39.7 53.9 38.9 53.3 38.2V30.6C53.3 29.6 54.1 28.8 55.1 28.8C56.1 28.8 56.9 29.6 56.9 30.6V42.8Z" fill="#00BA70"/>
<path d="M31 52.8H30.1V47.4C30.1 46.2 29.6 45 28.8 44.2L22.7 38.1C21.8 37.2 20.4 36.8 19.2 37.1V30.6C19.2 28.6 17.6 27 15.6 27C13.6 27 12 28.6 12 30.6V42.8C12 44 12.5 45.2 13.3 46L19 51.7C19.2 51.9 19.3 52.1 19.3 52.3V52.7H18.4C17.9 52.7 17.5 53.1 17.5 53.6V59.3C17.5 59.8 17.9 60.2 18.4 60.2H31C31.5 60.2 31.9 59.8 31.9 59.3V53.6C31.9 53.2 31.5 52.8 31 52.8ZM14.5 44.8C14 44.3 13.7 43.6 13.7 42.9V30.7C13.7 29.7 14.5 28.9 15.5 28.9C16.5 28.9 17.3 29.7 17.3 30.7V38.3C16.7 39 16.4 39.8 16.4 40.7C16.4 41.7 16.8 42.6 17.5 43.3L22.1 47.9C22.5 48.3 23 48.3 23.4 47.9C23.8 47.5 23.8 47 23.4 46.6L18.8 42C18.5 41.7 18.3 41.2 18.3 40.7C18.3 40.2 18.5 39.8 18.8 39.4C18.8 39.4 18.8 39.4 18.9 39.3C19.6 38.7 20.7 38.7 21.4 39.4L27.5 45.5C28 46 28.3 46.7 28.3 47.4V52.8H21V52.4C21 51.7 20.7 51 20.2 50.5L14.5 44.8ZM30.1 58.6H19.2V54.7H30.1V58.6Z" fill="#00BA70"/>
</svg>
