<svg width="71" height="71" viewBox="0 0 71 71" fill="none" xmlns="http://www.w3.org/2000/svg">
<path d="M35.3 70.6C54.7957 70.6 70.6 54.7957 70.6 35.3C70.6 15.8043 54.7957 0 35.3 0C15.8043 0 0 15.8043 0 35.3C0 54.7957 15.8043 70.6 35.3 70.6Z" fill="#00BA89"/>
<path d="M42.5999 18.4H41.3999V17C41.3999 16.7 41.1999 16.4 40.8999 16.2C40.5999 16 40.2999 16 39.9999 16.2C39.0999 16.6 37.1999 16.9 35.2999 16.9C33.3999 16.9 31.4999 16.6 30.5999 16.2C30.2999 16.1 29.9999 16.1 29.6999 16.2C29.3999 16.4 29.1999 16.7 29.1999 17V18.4H27.9999C27.0999 18.4 26.3999 19.1 26.3999 19.9V20.9C26.3999 21.7 27.0999 22.4 27.9999 22.4H29.1999V23.1C29.1999 23.6 29.4999 24.1 29.9999 24.4C31.6999 25.2 34.6999 25.2 35.1999 25.2C36.8999 25.2 39.0999 25 40.3999 24.4C40.8999 24.2 41.1999 23.7 41.1999 23.1V22.4H42.3999C43.2999 22.4 43.9999 21.7 43.9999 20.9V19.9C44.1999 19.1 43.4999 18.4 42.5999 18.4ZM42.6999 20.9C42.6999 21 42.6999 21 42.6999 20.9L40.6999 21C40.2999 21 39.9999 21.3 39.9999 21.7V23.1C38.8999 23.6 36.7999 23.8 35.3999 23.8C33.9999 23.8 31.8999 23.6 30.7999 23.1V21.7C30.7999 21.3 30.4999 21 30.0999 21H28.0999C28.0999 21 27.9999 21 27.9999 20.9V19.9C27.9999 19.9 27.9999 19.8 28.0999 19.8H30.0999C30.4999 19.8 30.7999 19.5 30.7999 19.1V17.8C31.9999 18.2 33.5999 18.4 35.3999 18.4C37.1999 18.4 38.7999 18.2 39.9999 17.8V19.1C39.9999 19.5 40.2999 19.8 40.6999 19.8H42.6999C42.6999 19.8 42.7999 19.8 42.7999 19.9V20.9H42.6999Z" fill="white"/>
<path d="M42.5999 9.19998H41.3999V7.79998C41.3999 7.49998 41.1999 7.19998 40.8999 6.99998C40.5999 6.79998 40.2999 6.79998 39.9999 6.99998C39.0999 7.39998 37.1999 7.69998 35.2999 7.69998C33.3999 7.69998 31.4999 7.39998 30.5999 6.99998C30.2999 6.89998 29.9999 6.89998 29.6999 6.99998C29.3999 7.19998 29.1999 7.49998 29.1999 7.79998V9.19998H27.9999C27.0999 9.19998 26.3999 9.89998 26.3999 10.7V11.7C26.3999 12.5 27.0999 13.2 27.9999 13.2H29.1999V13.9C29.1999 14.4 29.4999 14.9 29.9999 15.2C31.6999 16 34.6999 16 35.1999 16C36.8999 16 39.0999 15.8 40.3999 15.2C40.8999 15 41.1999 14.5 41.1999 13.9V13.2H42.3999C43.2999 13.2 43.9999 12.5 43.9999 11.7V10.7C44.1999 9.79998 43.4999 9.19998 42.5999 9.19998ZM42.6999 11.7C42.6999 11.7 42.6999 11.8 42.6999 11.7L40.6999 11.8C40.2999 11.8 39.9999 12.1 39.9999 12.5V13.9C38.8999 14.4 36.7999 14.6 35.3999 14.6C33.9999 14.6 31.8999 14.4 30.7999 13.9V12.5C30.7999 12.1 30.4999 11.8 30.0999 11.8H28.0999C28.0999 11.8 27.9999 11.8 27.9999 11.7V10.7C27.9999 10.7 27.9999 10.6 28.0999 10.6H30.0999C30.4999 10.6 30.7999 10.3 30.7999 9.89998V8.59998C31.9999 8.99998 33.5999 9.19998 35.3999 9.19998C37.1999 9.19998 38.7999 8.99998 39.9999 8.59998V9.89998C39.9999 10.3 40.2999 10.6 40.6999 10.6H42.6999C42.6999 10.6 42.7999 10.6 42.7999 10.7V11.7H42.6999Z" fill="white"/>
<path d="M42.4 27.6H41.4V26.2C41.4 25.9 41.2 25.6 40.9 25.4C40.6 25.2 40.3 25.2 40 25.4C39.1 25.8 37.2 26.1 35.3 26.1C33.4 26.1 31.5 25.8 30.6 25.4C30.3 25.3 29.9 25.3 29.7 25.4C29.4 25.6 29.2 25.9 29.2 26.2V27.6H28.2C27.2 27.6 26.5 28.3 26.5 29.3V30C26.5 30.9 27.3 31.7 28.2 31.7H29.2V32.4C29.2 32.9 29.5 33.4 30 33.7C31.7 34.5 34.7 34.5 35.2 34.5C36.9 34.5 39.1 34.3 40.4 33.7C40.9 33.5 41.2 33 41.2 32.4V31.7H42.2C43.2 31.7 43.9 31 43.9 30V29.3C44.2 28.4 43.4 27.6 42.4 27.6ZM42.7 30C42.7 30.1 42.6 30.2 42.4 30.2H40.6C40.2 30.2 39.9 30.5 39.9 30.9V32.3C38.8 32.8 36.7 33 35.3 33C33.9 33 31.8 32.8 30.7 32.3V30.9C30.7 30.5 30.4 30.2 30 30.2H28.2C28.1 30.2 27.9 30.1 27.9 30V29.3C27.9 29.2 28 29.1 28.2 29.1H30C30.4 29.1 30.7 28.8 30.7 28.4V27C31.9 27.4 33.5 27.6 35.3 27.6C37.1 27.6 38.7 27.4 39.9 27V28.3C39.9 28.7 40.2 29 40.6 29H42.4C42.5 29 42.7 29.1 42.7 29.2V30Z" fill="white"/>
<path d="M42.4 36.8H41.4V35.4C41.4 35.1 41.2 34.8 40.9 34.6C40.6 34.4 40.3 34.4 40 34.6C39.1 35 37.2 35.3 35.3 35.3C33.4 35.3 31.5 35 30.6 34.6C30.3 34.5 29.9 34.5 29.7 34.6C29.4 34.8 29.2 35.1 29.2 35.4V36.8H28.2C27.2 36.8 26.5 37.5 26.5 38.5V39.2C26.5 40.1 27.3 40.9 28.2 40.9H29.2V41.6C29.2 42.1 29.5 42.6 30 42.9C31.7 43.7 34.7 43.7 35.2 43.7C36.9 43.7 39.1 43.5 40.4 42.9C40.9 42.7 41.2 42.2 41.2 41.6V40.9H42.2C43.2 40.9 43.9 40.2 43.9 39.2V38.5C44.2 37.6 43.4 36.8 42.4 36.8ZM42.7 39.2C42.7 39.3 42.6 39.4 42.4 39.4H40.6C40.2 39.4 39.9 39.7 39.9 40.1V41.5C38.8 42 36.7 42.2 35.3 42.2C33.9 42.2 31.8 42 30.7 41.5V40.1C30.7 39.7 30.4 39.4 30 39.4H28.2C28.1 39.4 27.9 39.3 27.9 39.2V38.5C27.9 38.4 28 38.3 28.2 38.3H30C30.4 38.3 30.7 38 30.7 37.6V36.3C31.9 36.7 33.5 36.9 35.3 36.9C37.1 36.9 38.7 36.7 39.9 36.3V37.6C39.9 38 40.2 38.3 40.6 38.3H42.4C42.5 38.3 42.7 38.4 42.7 38.5V39.2Z" fill="white"/>
<path d="M55.0998 28C53.0998 28 51.4998 29.6 51.4998 31.6V38.1C50.2998 37.8 48.9998 38.1 47.9998 39.1L41.8998 45.2C40.9998 46.1 40.5998 47.2 40.5998 48.4V53.8H39.6998C39.1998 53.8 38.7998 54.2 38.7998 54.7V60.4C38.7998 60.9 39.1998 61.3 39.6998 61.3H52.4998C52.9998 61.3 53.3998 60.9 53.3998 60.4V54.7C53.3998 54.2 52.9998 53.8 52.4998 53.8H51.5998V53.4C51.5998 53.2 51.6998 52.9 51.8998 52.8L57.5998 47.1C58.4998 46.2 58.8998 45.1 58.8998 43.9V31.7C58.6998 29.6 57.0998 28 55.0998 28ZM51.3998 59.6H40.4998V55.7H51.3998V59.6ZM56.8998 43.8C56.8998 44.5 56.5998 45.2 56.0998 45.7L50.3998 51.4C49.8998 51.9 49.5998 52.6 49.5998 53.3V53.7H42.2998V48.3C42.2998 47.6 42.5998 46.9 43.0998 46.4L49.1998 40.3C49.8998 39.6 50.9998 39.6 51.6998 40.2C51.6998 40.2 51.6998 40.2 51.7998 40.3C52.0998 40.6 52.2998 41.1 52.2998 41.6C52.2998 42.1 52.0998 42.5 51.7998 42.9L47.2998 47.4C46.8998 47.8 46.8998 48.3 47.2998 48.7C47.6998 49.1 48.1998 49.1 48.5998 48.7L53.0998 44.2C53.7998 43.5 54.1998 42.6 54.1998 41.6C54.1998 40.7 53.8998 39.9 53.2998 39.2V31.6C53.2998 30.6 54.0998 29.8 55.0998 29.8C56.0998 29.8 56.8998 30.6 56.8998 31.6V43.8Z" fill="white"/>
<path d="M31 53.8H30.1V48.4C30.1 47.2 29.6 46 28.8 45.2L22.7 39.1C21.8 38.2 20.4 37.8 19.2 38.1V31.6C19.2 29.6 17.6 28 15.6 28C13.6 28 12 29.6 12 31.6V43.8C12 45 12.5 46.2 13.3 47L19 52.7C19.2 52.9 19.3 53.1 19.3 53.3V53.7H18.4C17.9 53.7 17.5 54.1 17.5 54.6V60.3C17.5 60.8 17.9 61.2 18.4 61.2H31C31.5 61.2 31.9 60.8 31.9 60.3V54.6C31.9 54.2 31.5 53.8 31 53.8ZM14.5 45.8C14 45.3 13.7 44.6 13.7 43.9V31.7C13.7 30.7 14.5 29.9 15.5 29.9C16.5 29.9 17.3 30.7 17.3 31.7V39.3C16.7 40 16.4 40.8 16.4 41.7C16.4 42.7 16.8 43.6 17.5 44.3L22.1 48.9C22.5 49.3 23 49.3 23.4 48.9C23.8 48.5 23.8 48 23.4 47.6L18.8 43C18.5 42.7 18.3 42.2 18.3 41.7C18.3 41.2 18.5 40.8 18.8 40.4C18.8 40.4 18.8 40.4 18.9 40.3C19.6 39.7 20.7 39.7 21.4 40.4L27.5 46.5C28 47 28.3 47.7 28.3 48.4V53.8H21V53.4C21 52.7 20.7 52 20.2 51.5L14.5 45.8ZM30.1 59.6H19.2V55.7H30.1V59.6Z" fill="white"/>
</svg>
